solid OpenSCAD_Model
  facet normal -1 0 0
    outer loop
      vertex 7.6 1.4 -4.5
      vertex 7.6 7.6 5
      vertex 7.6 7.6 -4.5
    endloop
  endfacet
  facet normal -1 -0 0
    outer loop
      vertex 7.6 7.6 5
      vertex 7.6 1.4 -4.5
      vertex 7.6 1.4 5
    endloop
  endfacet
  facet normal -1 0 0
    outer loop
      vertex 7.6 -7.6 -4.5
      vertex 7.6 -1.4 5
      vertex 7.6 -1.4 -4.5
    endloop
  endfacet
  facet normal -1 -0 0
    outer loop
      vertex 7.6 -1.4 5
      vertex 7.6 -7.6 -4.5
      vertex 7.6 -7.6 5
    endloop
  endfacet
  facet normal 0 0 1
    outer loop
      vertex 7.6 7.6 -4.5
      vertex 4.8 1.4 -4.5
      vertex 7.6 1.4 -4.5
    endloop
  endfacet
  facet normal 0 0 1
    outer loop
      vertex 7.6 7.6 -4.5
      vertex 1.4 4.8 -4.5
      vertex 4.8 1.4 -4.5
    endloop
  endfacet
  facet normal 0 0 1
    outer loop
      vertex 1.4 4.8 -4.5
      vertex 7.6 7.6 -4.5
      vertex 1.4 7.6 -4.5
    endloop
  endfacet
  facet normal -0 0 1
    outer loop
      vertex 4.8 -1.4 -4.5
      vertex 7.6 -7.6 -4.5
      vertex 7.6 -1.4 -4.5
    endloop
  endfacet
  facet normal 0 0 1
    outer loop
      vertex 4.8 1.4 -4.5
      vertex 1.4 4.8 -4.5
      vertex 4.8 -1.4 -4.5
    endloop
  endfacet
  facet normal 0 0 1
    outer loop
      vertex 1.4 -4.8 -4.5
      vertex 4.8 -1.4 -4.5
      vertex 1.4 4.8 -4.5
    endloop
  endfacet
  facet normal 0 0 1
    outer loop
      vertex 4.8 -1.4 -4.5
      vertex 1.4 -4.8 -4.5
      vertex 7.6 -7.6 -4.5
    endloop
  endfacet
  facet normal 0 0 1
    outer loop
      vertex 7.6 -7.6 -4.5
      vertex 1.4 -4.8 -4.5
      vertex 1.4 -7.6 -4.5
    endloop
  endfacet
  facet normal -0 0 1
    outer loop
      vertex -7.6 7.6 -4.5
      vertex -1.4 4.8 -4.5
      vertex -1.4 7.6 -4.5
    endloop
  endfacet
  facet normal 0 0 1
    outer loop
      vertex -1.4 4.8 -4.5
      vertex -4.8 1.4 -4.5
      vertex -1.4 -4.8 -4.5
    endloop
  endfacet
  facet normal -0 0 1
    outer loop
      vertex -4.8 -1.4 -4.5
      vertex -1.4 -4.8 -4.5
      vertex -4.8 1.4 -4.5
    endloop
  endfacet
  facet normal 0 0 1
    outer loop
      vertex -1.4 4.8 -4.5
      vertex -7.6 7.6 -4.5
      vertex -4.8 1.4 -4.5
    endloop
  endfacet
  facet normal 0 0 1
    outer loop
      vertex -4.8 1.4 -4.5
      vertex -7.6 7.6 -4.5
      vertex -7.6 1.4 -4.5
    endloop
  endfacet
  facet normal -0 0 1
    outer loop
      vertex -1.4 4.8 -4.5
      vertex 1.4 -4.8 -4.5
      vertex 1.4 4.8 -4.5
    endloop
  endfacet
  facet normal 0 0 1
    outer loop
      vertex 1.4 -4.8 -4.5
      vertex -1.4 4.8 -4.5
      vertex -1.4 -4.8 -4.5
    endloop
  endfacet
  facet normal 0 0 1
    outer loop
      vertex -7.6 -7.6 -4.5
      vertex -1.4 -4.8 -4.5
      vertex -4.8 -1.4 -4.5
    endloop
  endfacet
  facet normal 0 0 1
    outer loop
      vertex -7.6 -7.6 -4.5
      vertex -4.8 -1.4 -4.5
      vertex -7.6 -1.4 -4.5
    endloop
  endfacet
  facet normal 0 0 1
    outer loop
      vertex -1.4 -4.8 -4.5
      vertex -7.6 -7.6 -4.5
      vertex -1.4 -7.6 -4.5
    endloop
  endfacet
  facet normal -1 0 0
    outer loop
      vertex 4.8 -1.4 -4.5
      vertex 4.8 1.4 5
      vertex 4.8 1.4 -4.5
    endloop
  endfacet
  facet normal -1 -0 0
    outer loop
      vertex 4.8 1.4 5
      vertex 4.8 -1.4 -4.5
      vertex 4.8 -1.4 5
    endloop
  endfacet
  facet normal 0 1 -0
    outer loop
      vertex 7.6 1.4 -4.5
      vertex 4.8 1.4 5
      vertex 7.6 1.4 5
    endloop
  endfacet
  facet normal 0 1 0
    outer loop
      vertex 4.8 1.4 5
      vertex 7.6 1.4 -4.5
      vertex 4.8 1.4 -4.5
    endloop
  endfacet
  facet normal 0 -1 0
    outer loop
      vertex 4.8 -1.4 -4.5
      vertex 7.6 -1.4 5
      vertex 4.8 -1.4 5
    endloop
  endfacet
  facet normal 0 -1 -0
    outer loop
      vertex 7.6 -1.4 5
      vertex 4.8 -1.4 -4.5
      vertex 7.6 -1.4 -4.5
    endloop
  endfacet
  facet normal 0 -1 0
    outer loop
      vertex -1.4 4.8 -4.5
      vertex 1.4 4.8 5
      vertex -1.4 4.8 5
    endloop
  endfacet
  facet normal 0 -1 -0
    outer loop
      vertex 1.4 4.8 5
      vertex -1.4 4.8 -4.5
      vertex 1.4 4.8 -4.5
    endloop
  endfacet
  facet normal -1 0 0
    outer loop
      vertex -1.4 4.8 -4.5
      vertex -1.4 7.6 5
      vertex -1.4 7.6 -4.5
    endloop
  endfacet
  facet normal -1 -0 0
    outer loop
      vertex -1.4 7.6 5
      vertex -1.4 4.8 -4.5
      vertex -1.4 4.8 5
    endloop
  endfacet
  facet normal 1 -0 0
    outer loop
      vertex 1.4 4.8 5
      vertex 1.4 7.6 -4.5
      vertex 1.4 7.6 5
    endloop
  endfacet
  facet normal 1 0 0
    outer loop
      vertex 1.4 7.6 -4.5
      vertex 1.4 4.8 5
      vertex 1.4 4.8 -4.5
    endloop
  endfacet
  facet normal 0 -1 0
    outer loop
      vertex -7.6 7.6 -4.5
      vertex -1.4 7.6 5
      vertex -7.6 7.6 5
    endloop
  endfacet
  facet normal 0 -1 -0
    outer loop
      vertex -1.4 7.6 5
      vertex -7.6 7.6 -4.5
      vertex -1.4 7.6 -4.5
    endloop
  endfacet
  facet normal 0 -1 0
    outer loop
      vertex 1.4 7.6 -4.5
      vertex 7.6 7.6 5
      vertex 1.4 7.6 5
    endloop
  endfacet
  facet normal 0 -1 -0
    outer loop
      vertex 7.6 7.6 5
      vertex 1.4 7.6 -4.5
      vertex 7.6 7.6 -4.5
    endloop
  endfacet
  facet normal 1 -0 0
    outer loop
      vertex -4.8 -1.4 5
      vertex -4.8 1.4 -4.5
      vertex -4.8 1.4 5
    endloop
  endfacet
  facet normal 1 0 0
    outer loop
      vertex -4.8 1.4 -4.5
      vertex -4.8 -1.4 5
      vertex -4.8 -1.4 -4.5
    endloop
  endfacet
  facet normal 0 -1 0
    outer loop
      vertex -7.6 -1.4 -4.5
      vertex -4.8 -1.4 5
      vertex -7.6 -1.4 5
    endloop
  endfacet
  facet normal 0 -1 -0
    outer loop
      vertex -4.8 -1.4 5
      vertex -7.6 -1.4 -4.5
      vertex -4.8 -1.4 -4.5
    endloop
  endfacet
  facet normal 0 1 -0
    outer loop
      vertex -4.8 1.4 -4.5
      vertex -7.6 1.4 5
      vertex -4.8 1.4 5
    endloop
  endfacet
  facet normal 0 1 0
    outer loop
      vertex -7.6 1.4 5
      vertex -4.8 1.4 -4.5
      vertex -7.6 1.4 -4.5
    endloop
  endfacet
  facet normal 1 -0 0
    outer loop
      vertex -7.6 1.4 5
      vertex -7.6 7.6 -4.5
      vertex -7.6 7.6 5
    endloop
  endfacet
  facet normal 1 0 0
    outer loop
      vertex -7.6 7.6 -4.5
      vertex -7.6 1.4 5
      vertex -7.6 1.4 -4.5
    endloop
  endfacet
  facet normal 1 -0 0
    outer loop
      vertex -7.6 -7.6 5
      vertex -7.6 -1.4 -4.5
      vertex -7.6 -1.4 5
    endloop
  endfacet
  facet normal 1 0 0
    outer loop
      vertex -7.6 -1.4 -4.5
      vertex -7.6 -7.6 5
      vertex -7.6 -7.6 -4.5
    endloop
  endfacet
  facet normal 0 1 -0
    outer loop
      vertex -1.4 -7.6 -4.5
      vertex -7.6 -7.6 5
      vertex -1.4 -7.6 5
    endloop
  endfacet
  facet normal 0 1 0
    outer loop
      vertex -7.6 -7.6 5
      vertex -1.4 -7.6 -4.5
      vertex -7.6 -7.6 -4.5
    endloop
  endfacet
  facet normal 0 1 -0
    outer loop
      vertex 7.6 -7.6 -4.5
      vertex 1.4 -7.6 5
      vertex 7.6 -7.6 5
    endloop
  endfacet
  facet normal 0 1 0
    outer loop
      vertex 1.4 -7.6 5
      vertex 7.6 -7.6 -4.5
      vertex 1.4 -7.6 -4.5
    endloop
  endfacet
  facet normal 0 1 -0
    outer loop
      vertex 1.4 -4.8 -4.5
      vertex -1.4 -4.8 5
      vertex 1.4 -4.8 5
    endloop
  endfacet
  facet normal 0 1 0
    outer loop
      vertex -1.4 -4.8 5
      vertex 1.4 -4.8 -4.5
      vertex -1.4 -4.8 -4.5
    endloop
  endfacet
  facet normal -1 0 0
    outer loop
      vertex -1.4 -7.6 -4.5
      vertex -1.4 -4.8 5
      vertex -1.4 -4.8 -4.5
    endloop
  endfacet
  facet normal -1 -0 0
    outer loop
      vertex -1.4 -4.8 5
      vertex -1.4 -7.6 -4.5
      vertex -1.4 -7.6 5
    endloop
  endfacet
  facet normal 1 -0 0
    outer loop
      vertex 1.4 -7.6 5
      vertex 1.4 -4.8 -4.5
      vertex 1.4 -4.8 5
    endloop
  endfacet
  facet normal 1 0 0
    outer loop
      vertex 1.4 -4.8 -4.5
      vertex 1.4 -7.6 5
      vertex 1.4 -7.6 -4.5
    endloop
  endfacet
  facet normal 0.453994 -0.891005 0
    outer loop
      vertex 7.07705 -9.00317 -5
      vertex 7.91335 -8.57705 5
      vertex 7.07705 -9.00317 5
    endloop
  endfacet
  facet normal 0.453994 -0.891005 0
    outer loop
      vertex 7.91335 -8.57705 5
      vertex 7.07705 -9.00317 -5
      vertex 7.91335 -8.57705 -5
    endloop
  endfacet
  facet normal 0.707107 -0.707107 0
    outer loop
      vertex 7.91335 -8.57705 5
      vertex 8.57705 -7.91335 -5
      vertex 8.57705 -7.91335 5
    endloop
  endfacet
  facet normal 0.707107 -0.707107 0
    outer loop
      vertex 8.57705 -7.91335 -5
      vertex 7.91335 -8.57705 5
      vertex 7.91335 -8.57705 -5
    endloop
  endfacet
  facet normal 0.156434 -0.987688 0
    outer loop
      vertex 6.15 -9.15 -5
      vertex 7.07705 -9.00317 5
      vertex 6.15 -9.15 5
    endloop
  endfacet
  facet normal 0.156434 -0.987688 0
    outer loop
      vertex 7.07705 -9.00317 5
      vertex 6.15 -9.15 -5
      vertex 7.07705 -9.00317 -5
    endloop
  endfacet
  facet normal -1 0 0
    outer loop
      vertex -9.15 -6.15 -5
      vertex -9.15 6.15 5
      vertex -9.15 6.15 -5
    endloop
  endfacet
  facet normal -1 -0 0
    outer loop
      vertex -9.15 6.15 5
      vertex -9.15 -6.15 -5
      vertex -9.15 -6.15 5
    endloop
  endfacet
  facet normal -0.987688 -0.156434 0
    outer loop
      vertex -9.00317 -7.07705 -5
      vertex -9.15 -6.15 5
      vertex -9.15 -6.15 -5
    endloop
  endfacet
  facet normal -0.987688 -0.156434 0
    outer loop
      vertex -9.15 -6.15 5
      vertex -9.00317 -7.07705 -5
      vertex -9.00317 -7.07705 5
    endloop
  endfacet
  facet normal 1 -0 0
    outer loop
      vertex 9.15 -6.15 5
      vertex 9.15 6.15 -5
      vertex 9.15 6.15 5
    endloop
  endfacet
  facet normal 1 0 0
    outer loop
      vertex 9.15 6.15 -5
      vertex 9.15 -6.15 5
      vertex 9.15 -6.15 -5
    endloop
  endfacet
  facet normal -0.987688 0.156434 0
    outer loop
      vertex -9.15 6.15 -5
      vertex -9.00317 7.07705 5
      vertex -9.00317 7.07705 -5
    endloop
  endfacet
  facet normal -0.987688 0.156434 0
    outer loop
      vertex -9.00317 7.07705 5
      vertex -9.15 6.15 -5
      vertex -9.15 6.15 5
    endloop
  endfacet
  facet normal -0.891005 0.453994 0
    outer loop
      vertex -9.00317 7.07705 -5
      vertex -8.57705 7.91335 5
      vertex -8.57705 7.91335 -5
    endloop
  endfacet
  facet normal -0.891005 0.453994 0
    outer loop
      vertex -8.57705 7.91335 5
      vertex -9.00317 7.07705 -5
      vertex -9.00317 7.07705 5
    endloop
  endfacet
  facet normal -0.891005 -0.453994 0
    outer loop
      vertex -8.57705 -7.91335 -5
      vertex -9.00317 -7.07705 5
      vertex -9.00317 -7.07705 -5
    endloop
  endfacet
  facet normal -0.891005 -0.453994 0
    outer loop
      vertex -9.00317 -7.07705 5
      vertex -8.57705 -7.91335 -5
      vertex -8.57705 -7.91335 5
    endloop
  endfacet
  facet normal 0.987688 -0.156434 0
    outer loop
      vertex 9.00317 -7.07705 5
      vertex 9.15 -6.15 -5
      vertex 9.15 -6.15 5
    endloop
  endfacet
  facet normal 0.987688 -0.156434 0
    outer loop
      vertex 9.15 -6.15 -5
      vertex 9.00317 -7.07705 5
      vertex 9.00317 -7.07705 -5
    endloop
  endfacet
  facet normal -0.707107 -0.707107 0
    outer loop
      vertex -7.91335 -8.57705 -5
      vertex -8.57705 -7.91335 5
      vertex -8.57705 -7.91335 -5
    endloop
  endfacet
  facet normal -0.707107 -0.707107 0
    outer loop
      vertex -8.57705 -7.91335 5
      vertex -7.91335 -8.57705 -5
      vertex -7.91335 -8.57705 5
    endloop
  endfacet
  facet normal -0.453994 -0.891005 0
    outer loop
      vertex -7.91335 -8.57705 -5
      vertex -7.07705 -9.00317 5
      vertex -7.91335 -8.57705 5
    endloop
  endfacet
  facet normal -0.453994 -0.891005 -0
    outer loop
      vertex -7.07705 -9.00317 5
      vertex -7.91335 -8.57705 -5
      vertex -7.07705 -9.00317 -5
    endloop
  endfacet
  facet normal 0.453994 0.891005 -0
    outer loop
      vertex 7.91335 8.57705 -5
      vertex 7.07705 9.00317 5
      vertex 7.91335 8.57705 5
    endloop
  endfacet
  facet normal 0.453994 0.891005 0
    outer loop
      vertex 7.07705 9.00317 5
      vertex 7.91335 8.57705 -5
      vertex 7.07705 9.00317 -5
    endloop
  endfacet
  facet normal 0.707107 0.707107 0
    outer loop
      vertex 8.57705 7.91335 5
      vertex 7.91335 8.57705 -5
      vertex 7.91335 8.57705 5
    endloop
  endfacet
  facet normal 0.707107 0.707107 0
    outer loop
      vertex 7.91335 8.57705 -5
      vertex 8.57705 7.91335 5
      vertex 8.57705 7.91335 -5
    endloop
  endfacet
  facet normal -0.156434 -0.987688 0
    outer loop
      vertex -7.07705 -9.00317 -5
      vertex -6.15 -9.15 5
      vertex -7.07705 -9.00317 5
    endloop
  endfacet
  facet normal -0.156434 -0.987688 -0
    outer loop
      vertex -6.15 -9.15 5
      vertex -7.07705 -9.00317 -5
      vertex -6.15 -9.15 -5
    endloop
  endfacet
  facet normal 0.987688 0.156434 0
    outer loop
      vertex 9.15 6.15 5
      vertex 9.00317 7.07705 -5
      vertex 9.00317 7.07705 5
    endloop
  endfacet
  facet normal 0.987688 0.156434 0
    outer loop
      vertex 9.00317 7.07705 -5
      vertex 9.15 6.15 5
      vertex 9.15 6.15 -5
    endloop
  endfacet
  facet normal 0 0 -1
    outer loop
      vertex 6.15 -9.15 -5
      vertex 9.15 -6.15 -5
      vertex 9.00317 -7.07705 -5
    endloop
  endfacet
  facet normal -0 0 -1
    outer loop
      vertex 9.15 -6.15 -5
      vertex 6.15 -9.15 -5
      vertex 9.15 6.15 -5
    endloop
  endfacet
  facet normal 0 0 -1
    outer loop
      vertex 6.15 -9.15 -5
      vertex 9.00317 -7.07705 -5
      vertex 8.57705 -7.91335 -5
    endloop
  endfacet
  facet normal 0 0 -1
    outer loop
      vertex 6.15 9.15 -5
      vertex 9.15 6.15 -5
      vertex 6.15 -9.15 -5
    endloop
  endfacet
  facet normal 0 0 -1
    outer loop
      vertex 6.15 -9.15 -5
      vertex 8.57705 -7.91335 -5
      vertex 7.91335 -8.57705 -5
    endloop
  endfacet
  facet normal 0 0 -1
    outer loop
      vertex 9.15 6.15 -5
      vertex 6.15 9.15 -5
      vertex 9.00317 7.07705 -5
    endloop
  endfacet
  facet normal 0 0 -1
    outer loop
      vertex 6.15 -9.15 -5
      vertex 7.91335 -8.57705 -5
      vertex 7.07705 -9.00317 -5
    endloop
  endfacet
  facet normal 0 0 -1
    outer loop
      vertex 9.00317 7.07705 -5
      vertex 6.15 9.15 -5
      vertex 8.57705 7.91335 -5
    endloop
  endfacet
  facet normal 0 0 -1
    outer loop
      vertex 8.57705 7.91335 -5
      vertex 6.15 9.15 -5
      vertex 7.91335 8.57705 -5
    endloop
  endfacet
  facet normal 0 0 -1
    outer loop
      vertex 7.91335 8.57705 -5
      vertex 6.15 9.15 -5
      vertex 7.07705 9.00317 -5
    endloop
  endfacet
  facet normal 0 0 -1
    outer loop
      vertex -6.15 -9.15 -5
      vertex 6.15 9.15 -5
      vertex 6.15 -9.15 -5
    endloop
  endfacet
  facet normal 0 0 -1
    outer loop
      vertex -6.15 -9.15 -5
      vertex -6.15 9.15 -5
      vertex 6.15 9.15 -5
    endloop
  endfacet
  facet normal 0 0 -1
    outer loop
      vertex -9.15 -6.15 -5
      vertex -6.15 -9.15 -5
      vertex -7.07705 -9.00317 -5
    endloop
  endfacet
  facet normal 0 0 -1
    outer loop
      vertex -6.15 -9.15 -5
      vertex -9.15 -6.15 -5
      vertex -6.15 9.15 -5
    endloop
  endfacet
  facet normal 0 0 -1
    outer loop
      vertex -9.15 -6.15 -5
      vertex -7.07705 -9.00317 -5
      vertex -7.91335 -8.57705 -5
    endloop
  endfacet
  facet normal 0 0 -1
    outer loop
      vertex -9.15 6.15 -5
      vertex -6.15 9.15 -5
      vertex -9.15 -6.15 -5
    endloop
  endfacet
  facet normal 0 0 -1
    outer loop
      vertex -9.15 -6.15 -5
      vertex -7.91335 -8.57705 -5
      vertex -8.57705 -7.91335 -5
    endloop
  endfacet
  facet normal 0 0 -1
    outer loop
      vertex -6.15 9.15 -5
      vertex -9.15 6.15 -5
      vertex -7.07705 9.00317 -5
    endloop
  endfacet
  facet normal 0 0 -1
    outer loop
      vertex -9.15 -6.15 -5
      vertex -8.57705 -7.91335 -5
      vertex -9.00317 -7.07705 -5
    endloop
  endfacet
  facet normal 0 0 -1
    outer loop
      vertex -7.07705 9.00317 -5
      vertex -9.15 6.15 -5
      vertex -7.91335 8.57705 -5
    endloop
  endfacet
  facet normal 0 0 -1
    outer loop
      vertex -7.91335 8.57705 -5
      vertex -9.15 6.15 -5
      vertex -8.57705 7.91335 -5
    endloop
  endfacet
  facet normal 0 0 -1
    outer loop
      vertex -8.57705 7.91335 -5
      vertex -9.15 6.15 -5
      vertex -9.00317 7.07705 -5
    endloop
  endfacet
  facet normal 0.891005 0.453994 0
    outer loop
      vertex 9.00317 7.07705 5
      vertex 8.57705 7.91335 -5
      vertex 8.57705 7.91335 5
    endloop
  endfacet
  facet normal 0.891005 0.453994 0
    outer loop
      vertex 8.57705 7.91335 -5
      vertex 9.00317 7.07705 5
      vertex 9.00317 7.07705 -5
    endloop
  endfacet
  facet normal -0.156434 0.987688 0
    outer loop
      vertex -6.15 9.15 -5
      vertex -7.07705 9.00317 5
      vertex -6.15 9.15 5
    endloop
  endfacet
  facet normal -0.156434 0.987688 0
    outer loop
      vertex -7.07705 9.00317 5
      vertex -6.15 9.15 -5
      vertex -7.07705 9.00317 -5
    endloop
  endfacet
  facet normal 0.891005 -0.453994 0
    outer loop
      vertex 8.57705 -7.91335 5
      vertex 9.00317 -7.07705 -5
      vertex 9.00317 -7.07705 5
    endloop
  endfacet
  facet normal 0.891005 -0.453994 0
    outer loop
      vertex 9.00317 -7.07705 -5
      vertex 8.57705 -7.91335 5
      vertex 8.57705 -7.91335 -5
    endloop
  endfacet
  facet normal 0 -1 0
    outer loop
      vertex -6.15 -9.15 -5
      vertex 6.15 -9.15 5
      vertex -6.15 -9.15 5
    endloop
  endfacet
  facet normal 0 -1 -0
    outer loop
      vertex 6.15 -9.15 5
      vertex -6.15 -9.15 -5
      vertex 6.15 -9.15 -5
    endloop
  endfacet
  facet normal 0 1 -0
    outer loop
      vertex 6.15 9.15 -5
      vertex -6.15 9.15 5
      vertex 6.15 9.15 5
    endloop
  endfacet
  facet normal 0 1 0
    outer loop
      vertex -6.15 9.15 5
      vertex 6.15 9.15 -5
      vertex -6.15 9.15 -5
    endloop
  endfacet
  facet normal 0 0 1
    outer loop
      vertex 1.4 -4.8 5
      vertex -1.4 -4.8 5
      vertex 1.4 -7.6 5
    endloop
  endfacet
  facet normal -0 0 1
    outer loop
      vertex 4.8 1.4 5
      vertex 7.6 -1.4 5
      vertex 7.6 1.4 5
    endloop
  endfacet
  facet normal 0 0 1
    outer loop
      vertex 7.6 -1.4 5
      vertex 4.8 1.4 5
      vertex 4.8 -1.4 5
    endloop
  endfacet
  facet normal 0 0 1
    outer loop
      vertex 7.6 7.6 5
      vertex 9.15 6.15 5
      vertex 9.00317 7.07705 5
    endloop
  endfacet
  facet normal 0 0 1
    outer loop
      vertex 9.15 6.15 5
      vertex 7.6 1.4 5
      vertex 9.15 -6.15 5
    endloop
  endfacet
  facet normal -0 0 1
    outer loop
      vertex 7.6 7.6 5
      vertex 9.00317 7.07705 5
      vertex 8.57705 7.91335 5
    endloop
  endfacet
  facet normal -0 0 1
    outer loop
      vertex 7.6 -1.4 5
      vertex 9.15 -6.15 5
      vertex 7.6 1.4 5
    endloop
  endfacet
  facet normal 0 0 1
    outer loop
      vertex 7.6 7.6 5
      vertex 8.57705 7.91335 5
      vertex 7.91335 8.57705 5
    endloop
  endfacet
  facet normal 0 0 1
    outer loop
      vertex 7.6 -7.6 5
      vertex 9.15 -6.15 5
      vertex 7.6 -1.4 5
    endloop
  endfacet
  facet normal 0 0 1
    outer loop
      vertex 9.15 6.15 5
      vertex 7.6 7.6 5
      vertex 7.6 1.4 5
    endloop
  endfacet
  facet normal 0 0 1
    outer loop
      vertex 7.07705 9.00317 5
      vertex 7.6 7.6 5
      vertex 7.91335 8.57705 5
    endloop
  endfacet
  facet normal 0 0 1
    outer loop
      vertex 6.15 9.15 5
      vertex 7.6 7.6 5
      vertex 7.07705 9.00317 5
    endloop
  endfacet
  facet normal 0 0 1
    outer loop
      vertex 6.15 9.15 5
      vertex 1.4 7.6 5
      vertex 7.6 7.6 5
    endloop
  endfacet
  facet normal 0 0 1
    outer loop
      vertex 1.4 7.6 5
      vertex -1.4 7.6 5
      vertex 1.4 4.8 5
    endloop
  endfacet
  facet normal 0 0 1
    outer loop
      vertex 6.15 9.15 5
      vertex -1.4 7.6 5
      vertex 1.4 7.6 5
    endloop
  endfacet
  facet normal -0 0 1
    outer loop
      vertex -6.15 9.15 5
      vertex -1.4 7.6 5
      vertex 6.15 9.15 5
    endloop
  endfacet
  facet normal 0 0 1
    outer loop
      vertex -7.6 7.6 5
      vertex -6.15 9.15 5
      vertex -7.07705 9.00317 5
    endloop
  endfacet
  facet normal 0 0 1
    outer loop
      vertex -6.15 9.15 5
      vertex -7.6 7.6 5
      vertex -1.4 7.6 5
    endloop
  endfacet
  facet normal -0 0 1
    outer loop
      vertex -9.15 6.15 5
      vertex -7.6 1.4 5
      vertex -7.6 7.6 5
    endloop
  endfacet
  facet normal 0 0 1
    outer loop
      vertex -7.6 1.4 5
      vertex -9.15 6.15 5
      vertex -7.6 -1.4 5
    endloop
  endfacet
  facet normal -0 0 1
    outer loop
      vertex -8.57705 7.91335 5
      vertex -7.6 7.6 5
      vertex -7.91335 8.57705 5
    endloop
  endfacet
  facet normal -0 0 1
    outer loop
      vertex -7.91335 8.57705 5
      vertex -7.6 7.6 5
      vertex -7.07705 9.00317 5
    endloop
  endfacet
  facet normal 0 0 1
    outer loop
      vertex 9.15 -6.15 5
      vertex 7.6 -7.6 5
      vertex 9.00317 -7.07705 5
    endloop
  endfacet
  facet normal 0 0 1
    outer loop
      vertex 9.00317 -7.07705 5
      vertex 7.6 -7.6 5
      vertex 8.57705 -7.91335 5
    endloop
  endfacet
  facet normal 0 0 1
    outer loop
      vertex 8.57705 -7.91335 5
      vertex 7.6 -7.6 5
      vertex 7.91335 -8.57705 5
    endloop
  endfacet
  facet normal 0 0 1
    outer loop
      vertex 7.6 -7.6 5
      vertex 7.07705 -9.00317 5
      vertex 7.91335 -8.57705 5
    endloop
  endfacet
  facet normal 0 0 1
    outer loop
      vertex 7.6 -7.6 5
      vertex 6.15 -9.15 5
      vertex 7.07705 -9.00317 5
    endloop
  endfacet
  facet normal -0 0 1
    outer loop
      vertex 1.4 -7.6 5
      vertex 6.15 -9.15 5
      vertex 7.6 -7.6 5
    endloop
  endfacet
  facet normal 0 0 1
    outer loop
      vertex -1.4 -7.6 5
      vertex 1.4 -7.6 5
      vertex -1.4 -4.8 5
    endloop
  endfacet
  facet normal -0 0 1
    outer loop
      vertex -1.4 -7.6 5
      vertex 6.15 -9.15 5
      vertex 1.4 -7.6 5
    endloop
  endfacet
  facet normal 0 0 1
    outer loop
      vertex -1.4 -7.6 5
      vertex -6.15 -9.15 5
      vertex 6.15 -9.15 5
    endloop
  endfacet
  facet normal -0 0 1
    outer loop
      vertex -7.6 -7.6 5
      vertex -6.15 -9.15 5
      vertex -1.4 -7.6 5
    endloop
  endfacet
  facet normal 0 0 1
    outer loop
      vertex -6.15 -9.15 5
      vertex -7.6 -7.6 5
      vertex -7.07705 -9.00317 5
    endloop
  endfacet
  facet normal 0 0 1
    outer loop
      vertex -7.6 -7.6 5
      vertex -7.91335 -8.57705 5
      vertex -7.07705 -9.00317 5
    endloop
  endfacet
  facet normal 0 0 1
    outer loop
      vertex -9.15 -6.15 5
      vertex -7.6 -1.4 5
      vertex -9.15 6.15 5
    endloop
  endfacet
  facet normal 0 0 1
    outer loop
      vertex -9.00317 7.07705 5
      vertex -7.6 7.6 5
      vertex -8.57705 7.91335 5
    endloop
  endfacet
  facet normal 0 0 1
    outer loop
      vertex -7.6 -1.4 5
      vertex -9.15 -6.15 5
      vertex -7.6 -7.6 5
    endloop
  endfacet
  facet normal 0 0 1
    outer loop
      vertex -7.6 7.6 5
      vertex -9.00317 7.07705 5
      vertex -9.15 6.15 5
    endloop
  endfacet
  facet normal -0 -0 1
    outer loop
      vertex -9.00317 -7.07705 5
      vertex -7.6 -7.6 5
      vertex -9.15 -6.15 5
    endloop
  endfacet
  facet normal 0 0 1
    outer loop
      vertex -7.6 -7.6 5
      vertex -8.57705 -7.91335 5
      vertex -7.91335 -8.57705 5
    endloop
  endfacet
  facet normal 0 0 1
    outer loop
      vertex -7.6 -7.6 5
      vertex -9.00317 -7.07705 5
      vertex -8.57705 -7.91335 5
    endloop
  endfacet
  facet normal 0 0 1
    outer loop
      vertex 1.4 4.8 5
      vertex -1.4 7.6 5
      vertex -1.4 4.8 5
    endloop
  endfacet
  facet normal -0 0 1
    outer loop
      vertex -7.6 1.4 5
      vertex -4.8 -1.4 5
      vertex -4.8 1.4 5
    endloop
  endfacet
  facet normal 0 0 1
    outer loop
      vertex -4.8 -1.4 5
      vertex -7.6 1.4 5
      vertex -7.6 -1.4 5
    endloop
  endfacet
  facet normal -0.453994 0.891005 0
    outer loop
      vertex -7.07705 9.00317 -5
      vertex -7.91335 8.57705 5
      vertex -7.07705 9.00317 5
    endloop
  endfacet
  facet normal -0.453994 0.891005 0
    outer loop
      vertex -7.91335 8.57705 5
      vertex -7.07705 9.00317 -5
      vertex -7.91335 8.57705 -5
    endloop
  endfacet
  facet normal -0.707107 0.707107 0
    outer loop
      vertex -8.57705 7.91335 -5
      vertex -7.91335 8.57705 5
      vertex -7.91335 8.57705 -5
    endloop
  endfacet
  facet normal -0.707107 0.707107 0
    outer loop
      vertex -7.91335 8.57705 5
      vertex -8.57705 7.91335 -5
      vertex -8.57705 7.91335 5
    endloop
  endfacet
  facet normal 0.156434 0.987688 -0
    outer loop
      vertex 7.07705 9.00317 -5
      vertex 6.15 9.15 5
      vertex 7.07705 9.00317 5
    endloop
  endfacet
  facet normal 0.156434 0.987688 0
    outer loop
      vertex 6.15 9.15 5
      vertex 7.07705 9.00317 -5
      vertex 6.15 9.15 -5
    endloop
  endfacet
endsolid OpenSCAD_Model
