solid OpenSCAD_Model
  facet normal -1 0 0
    outer loop
      vertex 12.5 0 1.5
      vertex 12.5 15 5
      vertex 12.5 15 1.5
    endloop
  endfacet
  facet normal -1 -0 0
    outer loop
      vertex 12.5 15 5
      vertex 12.5 0 1.5
      vertex 12.5 0 5
    endloop
  endfacet
  facet normal 0 0 -1
    outer loop
      vertex 1.5 0 5
      vertex 12.5 15 5
      vertex 12.5 0 5
    endloop
  endfacet
  facet normal -0 0 -1
    outer loop
      vertex 12.5 15 5
      vertex 1.5 0 5
      vertex 1.5 15 5
    endloop
  endfacet
  facet normal -0 0 1
    outer loop
      vertex 11.4 15 1.5
      vertex 12.5 0 1.5
      vertex 12.5 15 1.5
    endloop
  endfacet
  facet normal 0 0 1
    outer loop
      vertex 12.5 0 1.5
      vertex 11.4 15 1.5
      vertex 11.4 0 1.5
    endloop
  endfacet
  facet normal -0 0 1
    outer loop
      vertex 1.5 15 1.5
      vertex 2.6 0 1.5
      vertex 2.6 15 1.5
    endloop
  endfacet
  facet normal 0 0 1
    outer loop
      vertex 2.6 0 1.5
      vertex 1.5 15 1.5
      vertex 1.5 0 1.5
    endloop
  endfacet
  facet normal 1 -0 0
    outer loop
      vertex 1.5 0 5
      vertex 1.5 15 1.5
      vertex 1.5 15 5
    endloop
  endfacet
  facet normal 1 0 0
    outer loop
      vertex 1.5 15 1.5
      vertex 1.5 0 5
      vertex 1.5 0 1.5
    endloop
  endfacet
  facet normal 0 -1 0
    outer loop
      vertex 2.6 15 0
      vertex 11.4 15 1.5
      vertex 2.6 15 1.5
    endloop
  endfacet
  facet normal 0 -1 -0
    outer loop
      vertex 11.4 15 1.5
      vertex 2.6 15 0
      vertex 11.4 15 0
    endloop
  endfacet
  facet normal 0 -1 0
    outer loop
      vertex 2.6 15 1.5
      vertex 1.5 15 5
      vertex 1.5 15 1.5
    endloop
  endfacet
  facet normal 0 -1 0
    outer loop
      vertex 1.5 15 5
      vertex 2.6 15 1.5
      vertex 12.5 15 5
    endloop
  endfacet
  facet normal 0 -1 0
    outer loop
      vertex 11.4 15 1.5
      vertex 12.5 15 5
      vertex 2.6 15 1.5
    endloop
  endfacet
  facet normal 0 -1 -0
    outer loop
      vertex 12.5 15 5
      vertex 11.4 15 1.5
      vertex 12.5 15 1.5
    endloop
  endfacet
  facet normal 0 -1 0
    outer loop
      vertex 11.4 0 1.5
      vertex 11.4 0 0
      vertex 12.5 0 1.5
    endloop
  endfacet
  facet normal 0 -1 0
    outer loop
      vertex 0 0 7
      vertex 1.5 0 5
      vertex 14 0 7
    endloop
  endfacet
  facet normal 0 -1 0
    outer loop
      vertex 0 0 0
      vertex 1.5 0 5
      vertex 0 0 7
    endloop
  endfacet
  facet normal 0 -1 -0
    outer loop
      vertex 1.5 0 5
      vertex 0 0 0
      vertex 1.5 0 1.5
    endloop
  endfacet
  facet normal 0 -1 0
    outer loop
      vertex 2.6 0 0
      vertex 1.5 0 1.5
      vertex 0 0 0
    endloop
  endfacet
  facet normal 0 -1 0
    outer loop
      vertex 1.5 0 1.5
      vertex 2.6 0 0
      vertex 2.6 0 1.5
    endloop
  endfacet
  facet normal 0 -1 0
    outer loop
      vertex 12.5 0 5
      vertex 14 0 7
      vertex 1.5 0 5
    endloop
  endfacet
  facet normal 0 -1 0
    outer loop
      vertex 14 0 0
      vertex 12.5 0 5
      vertex 12.5 0 1.5
    endloop
  endfacet
  facet normal 0 -1 0
    outer loop
      vertex 12.5 0 5
      vertex 14 0 0
      vertex 14 0 7
    endloop
  endfacet
  facet normal 0 -1 0
    outer loop
      vertex 14 0 0
      vertex 12.5 0 1.5
      vertex 11.4 0 0
    endloop
  endfacet
  facet normal -1 0 0
    outer loop
      vertex 11.4 0 0
      vertex 11.4 15 1.5
      vertex 11.4 15 0
    endloop
  endfacet
  facet normal -1 -0 0
    outer loop
      vertex 11.4 15 1.5
      vertex 11.4 0 0
      vertex 11.4 0 1.5
    endloop
  endfacet
  facet normal 0 0 -1
    outer loop
      vertex 2.6 0 0
      vertex 0 0 0
      vertex 2.6 15 0
    endloop
  endfacet
  facet normal 0 0 -1
    outer loop
      vertex 11.4 15 0
      vertex 14 0 0
      vertex 11.4 0 0
    endloop
  endfacet
  facet normal 0 0 -1
    outer loop
      vertex 14 0 0
      vertex 11.4 15 0
      vertex 14 18 0
    endloop
  endfacet
  facet normal 0 0 -1
    outer loop
      vertex 2.6 15 0
      vertex 14 18 0
      vertex 11.4 15 0
    endloop
  endfacet
  facet normal 0 0 -1
    outer loop
      vertex 2.6 15 0
      vertex 0 18 0
      vertex 14 18 0
    endloop
  endfacet
  facet normal 0 0 -1
    outer loop
      vertex 0 18 0
      vertex 2.6 15 0
      vertex 0 0 0
    endloop
  endfacet
  facet normal 1 -0 0
    outer loop
      vertex 2.6 0 1.5
      vertex 2.6 15 0
      vertex 2.6 15 1.5
    endloop
  endfacet
  facet normal 1 0 0
    outer loop
      vertex 2.6 15 0
      vertex 2.6 0 1.5
      vertex 2.6 0 0
    endloop
  endfacet
  facet normal 1 -0 0
    outer loop
      vertex 14 0 7
      vertex 14 18 0
      vertex 14 18 7
    endloop
  endfacet
  facet normal 1 0 0
    outer loop
      vertex 14 18 0
      vertex 14 0 7
      vertex 14 0 0
    endloop
  endfacet
  facet normal -0 0 1
    outer loop
      vertex 0 18 7
      vertex 14 0 7
      vertex 14 18 7
    endloop
  endfacet
  facet normal 0 0 1
    outer loop
      vertex 14 0 7
      vertex 0 18 7
      vertex 0 0 7
    endloop
  endfacet
  facet normal -1 0 0
    outer loop
      vertex 0 0 0
      vertex 0 18 7
      vertex 0 18 0
    endloop
  endfacet
  facet normal -1 -0 0
    outer loop
      vertex 0 18 7
      vertex 0 0 0
      vertex 0 0 7
    endloop
  endfacet
  facet normal 0 1 -0
    outer loop
      vertex 14 18 0
      vertex 0 18 7
      vertex 14 18 7
    endloop
  endfacet
  facet normal 0 1 0
    outer loop
      vertex 0 18 7
      vertex 14 18 0
      vertex 0 18 0
    endloop
  endfacet
endsolid OpenSCAD_Model
