solid OpenSCAD_Model
  facet normal 1 -0 0
    outer loop
      vertex 28 1.5 21.5
      vertex 28 76.5 1.5
      vertex 28 76.5 21.5
    endloop
  endfacet
  facet normal 1 0 0
    outer loop
      vertex 28 76.5 1.5
      vertex 28 1.5 21.5
      vertex 28 1.5 1.5
    endloop
  endfacet
  facet normal 0 0 1
    outer loop
      vertex 81 78 21.5
      vertex 79.5 76.5 21.5
      vertex 81 0 21.5
    endloop
  endfacet
  facet normal 0 0 1
    outer loop
      vertex 81 78 21.5
      vertex 54.5 76.5 21.5
      vertex 79.5 76.5 21.5
    endloop
  endfacet
  facet normal 0 0 1
    outer loop
      vertex 54.5 76.5 21.5
      vertex 53 76.5 21.5
      vertex 54.5 1.5 21.5
    endloop
  endfacet
  facet normal 0 0 1
    outer loop
      vertex 81 78 21.5
      vertex 53 76.5 21.5
      vertex 54.5 76.5 21.5
    endloop
  endfacet
  facet normal 0 0 1
    outer loop
      vertex 81 78 21.5
      vertex 28 76.5 21.5
      vertex 53 76.5 21.5
    endloop
  endfacet
  facet normal 0 0 1
    outer loop
      vertex 28 76.5 21.5
      vertex 26.5 76.5 21.5
      vertex 28 1.5 21.5
    endloop
  endfacet
  facet normal -0 0 1
    outer loop
      vertex 0 78 21.5
      vertex 28 76.5 21.5
      vertex 81 78 21.5
    endloop
  endfacet
  facet normal 0 0 1
    outer loop
      vertex 28 76.5 21.5
      vertex 0 78 21.5
      vertex 26.5 76.5 21.5
    endloop
  endfacet
  facet normal 0 0 1
    outer loop
      vertex 1.5 76.5 21.5
      vertex 0 78 21.5
      vertex 1.5 1.5 21.5
    endloop
  endfacet
  facet normal 0 0 1
    outer loop
      vertex 26.5 76.5 21.5
      vertex 0 78 21.5
      vertex 1.5 76.5 21.5
    endloop
  endfacet
  facet normal -0 0 1
    outer loop
      vertex 79.5 1.5 21.5
      vertex 81 0 21.5
      vertex 79.5 76.5 21.5
    endloop
  endfacet
  facet normal -0 0 1
    outer loop
      vertex 54.5 1.5 21.5
      vertex 81 0 21.5
      vertex 79.5 1.5 21.5
    endloop
  endfacet
  facet normal 0 0 1
    outer loop
      vertex 53 1.5 21.5
      vertex 54.5 1.5 21.5
      vertex 53 76.5 21.5
    endloop
  endfacet
  facet normal -0 0 1
    outer loop
      vertex 53 1.5 21.5
      vertex 81 0 21.5
      vertex 54.5 1.5 21.5
    endloop
  endfacet
  facet normal -0 0 1
    outer loop
      vertex 28 1.5 21.5
      vertex 81 0 21.5
      vertex 53 1.5 21.5
    endloop
  endfacet
  facet normal 0 0 1
    outer loop
      vertex 26.5 1.5 21.5
      vertex 28 1.5 21.5
      vertex 26.5 76.5 21.5
    endloop
  endfacet
  facet normal 0 0 1
    outer loop
      vertex 0 0 21.5
      vertex 28 1.5 21.5
      vertex 26.5 1.5 21.5
    endloop
  endfacet
  facet normal 0 0 1
    outer loop
      vertex 0 0 21.5
      vertex 26.5 1.5 21.5
      vertex 1.5 1.5 21.5
    endloop
  endfacet
  facet normal 0 0 1
    outer loop
      vertex 28 1.5 21.5
      vertex 0 0 21.5
      vertex 81 0 21.5
    endloop
  endfacet
  facet normal 0 0 1
    outer loop
      vertex 0 0 21.5
      vertex 1.5 1.5 21.5
      vertex 0 78 21.5
    endloop
  endfacet
  facet normal 0 0 -1
    outer loop
      vertex 0 0 0
      vertex 81 78 0
      vertex 81 0 0
    endloop
  endfacet
  facet normal -0 0 -1
    outer loop
      vertex 81 78 0
      vertex 0 0 0
      vertex 0 78 0
    endloop
  endfacet
  facet normal -1 0 0
    outer loop
      vertex 0 0 0
      vertex 0 78 21.5
      vertex 0 78 0
    endloop
  endfacet
  facet normal -1 -0 0
    outer loop
      vertex 0 78 21.5
      vertex 0 0 0
      vertex 0 0 21.5
    endloop
  endfacet
  facet normal 0 1 -0
    outer loop
      vertex 81 78 0
      vertex 0 78 21.5
      vertex 81 78 21.5
    endloop
  endfacet
  facet normal 0 1 0
    outer loop
      vertex 0 78 21.5
      vertex 81 78 0
      vertex 0 78 0
    endloop
  endfacet
  facet normal 0 -1 0
    outer loop
      vertex 0 0 0
      vertex 81 0 21.5
      vertex 0 0 21.5
    endloop
  endfacet
  facet normal 0 -1 -0
    outer loop
      vertex 81 0 21.5
      vertex 0 0 0
      vertex 81 0 0
    endloop
  endfacet
  facet normal -1 0 0
    outer loop
      vertex 26.5 1.5 1.5
      vertex 26.5 76.5 21.5
      vertex 26.5 76.5 1.5
    endloop
  endfacet
  facet normal -1 -0 0
    outer loop
      vertex 26.5 76.5 21.5
      vertex 26.5 1.5 1.5
      vertex 26.5 1.5 21.5
    endloop
  endfacet
  facet normal -0 0 1
    outer loop
      vertex 1.5 76.5 1.5
      vertex 26.5 1.5 1.5
      vertex 26.5 76.5 1.5
    endloop
  endfacet
  facet normal 0 0 1
    outer loop
      vertex 26.5 1.5 1.5
      vertex 1.5 76.5 1.5
      vertex 1.5 1.5 1.5
    endloop
  endfacet
  facet normal 1 -0 0
    outer loop
      vertex 1.5 1.5 21.5
      vertex 1.5 76.5 1.5
      vertex 1.5 76.5 21.5
    endloop
  endfacet
  facet normal 1 0 0
    outer loop
      vertex 1.5 76.5 1.5
      vertex 1.5 1.5 21.5
      vertex 1.5 1.5 1.5
    endloop
  endfacet
  facet normal 0 -1 0
    outer loop
      vertex 1.5 76.5 1.5
      vertex 26.5 76.5 21.5
      vertex 1.5 76.5 21.5
    endloop
  endfacet
  facet normal 0 -1 -0
    outer loop
      vertex 26.5 76.5 21.5
      vertex 1.5 76.5 1.5
      vertex 26.5 76.5 1.5
    endloop
  endfacet
  facet normal 0 1 -0
    outer loop
      vertex 26.5 1.5 1.5
      vertex 1.5 1.5 21.5
      vertex 26.5 1.5 21.5
    endloop
  endfacet
  facet normal 0 1 0
    outer loop
      vertex 1.5 1.5 21.5
      vertex 26.5 1.5 1.5
      vertex 1.5 1.5 1.5
    endloop
  endfacet
  facet normal 1 -0 0
    outer loop
      vertex 54.5 1.5 21.5
      vertex 54.5 76.5 1.5
      vertex 54.5 76.5 21.5
    endloop
  endfacet
  facet normal 1 0 0
    outer loop
      vertex 54.5 76.5 1.5
      vertex 54.5 1.5 21.5
      vertex 54.5 1.5 1.5
    endloop
  endfacet
  facet normal -1 0 0
    outer loop
      vertex 53 1.5 1.5
      vertex 53 76.5 21.5
      vertex 53 76.5 1.5
    endloop
  endfacet
  facet normal -1 -0 0
    outer loop
      vertex 53 76.5 21.5
      vertex 53 1.5 1.5
      vertex 53 1.5 21.5
    endloop
  endfacet
  facet normal -0 0 1
    outer loop
      vertex 28 76.5 1.5
      vertex 53 1.5 1.5
      vertex 53 76.5 1.5
    endloop
  endfacet
  facet normal 0 0 1
    outer loop
      vertex 53 1.5 1.5
      vertex 28 76.5 1.5
      vertex 28 1.5 1.5
    endloop
  endfacet
  facet normal 0 -1 0
    outer loop
      vertex 28 76.5 1.5
      vertex 53 76.5 21.5
      vertex 28 76.5 21.5
    endloop
  endfacet
  facet normal 0 -1 -0
    outer loop
      vertex 53 76.5 21.5
      vertex 28 76.5 1.5
      vertex 53 76.5 1.5
    endloop
  endfacet
  facet normal 0 1 -0
    outer loop
      vertex 53 1.5 1.5
      vertex 28 1.5 21.5
      vertex 53 1.5 21.5
    endloop
  endfacet
  facet normal 0 1 0
    outer loop
      vertex 28 1.5 21.5
      vertex 53 1.5 1.5
      vertex 28 1.5 1.5
    endloop
  endfacet
  facet normal 1 -0 0
    outer loop
      vertex 81 0 21.5
      vertex 81 78 0
      vertex 81 78 21.5
    endloop
  endfacet
  facet normal 1 0 0
    outer loop
      vertex 81 78 0
      vertex 81 0 21.5
      vertex 81 0 0
    endloop
  endfacet
  facet normal -1 0 0
    outer loop
      vertex 79.5 1.5 1.5
      vertex 79.5 76.5 21.5
      vertex 79.5 76.5 1.5
    endloop
  endfacet
  facet normal -1 -0 0
    outer loop
      vertex 79.5 76.5 21.5
      vertex 79.5 1.5 1.5
      vertex 79.5 1.5 21.5
    endloop
  endfacet
  facet normal -0 0 1
    outer loop
      vertex 54.5 76.5 1.5
      vertex 79.5 1.5 1.5
      vertex 79.5 76.5 1.5
    endloop
  endfacet
  facet normal 0 0 1
    outer loop
      vertex 79.5 1.5 1.5
      vertex 54.5 76.5 1.5
      vertex 54.5 1.5 1.5
    endloop
  endfacet
  facet normal 0 -1 0
    outer loop
      vertex 54.5 76.5 1.5
      vertex 79.5 76.5 21.5
      vertex 54.5 76.5 21.5
    endloop
  endfacet
  facet normal 0 -1 -0
    outer loop
      vertex 79.5 76.5 21.5
      vertex 54.5 76.5 1.5
      vertex 79.5 76.5 1.5
    endloop
  endfacet
  facet normal 0 1 -0
    outer loop
      vertex 79.5 1.5 1.5
      vertex 54.5 1.5 21.5
      vertex 79.5 1.5 21.5
    endloop
  endfacet
  facet normal 0 1 0
    outer loop
      vertex 54.5 1.5 21.5
      vertex 79.5 1.5 1.5
      vertex 54.5 1.5 1.5
    endloop
  endfacet
endsolid OpenSCAD_Model
