solid OpenSCAD_Model
  facet normal 1 0 0
    outer loop
      vertex 65 60 3
      vertex 65 70 3.5
      vertex 65 60 3.5
    endloop
  endfacet
  facet normal 1 0 0
    outer loop
      vertex 65 70 3.5
      vertex 65 60 3
      vertex 65 70 0
    endloop
  endfacet
  facet normal 1 0 0
    outer loop
      vertex 65 50 2.5
      vertex 65 60 3
      vertex 65 50 3
    endloop
  endfacet
  facet normal 1 0 0
    outer loop
      vertex 65 60 3
      vertex 65 50 2.5
      vertex 65 70 0
    endloop
  endfacet
  facet normal 1 0 0
    outer loop
      vertex 65 40 2
      vertex 65 50 2.5
      vertex 65 40 2.5
    endloop
  endfacet
  facet normal 1 0 0
    outer loop
      vertex 65 50 2.5
      vertex 65 40 2
      vertex 65 70 0
    endloop
  endfacet
  facet normal 1 0 0
    outer loop
      vertex 65 30 1.5
      vertex 65 40 2
      vertex 65 30 2
    endloop
  endfacet
  facet normal 1 0 0
    outer loop
      vertex 65 40 2
      vertex 65 30 1.5
      vertex 65 70 0
    endloop
  endfacet
  facet normal 1 0 0
    outer loop
      vertex 65 20 1
      vertex 65 30 1.5
      vertex 65 20 1.5
    endloop
  endfacet
  facet normal 1 0 0
    outer loop
      vertex 65 30 1.5
      vertex 65 20 1
      vertex 65 70 0
    endloop
  endfacet
  facet normal 1 0 0
    outer loop
      vertex 65 10 0.5
      vertex 65 20 1
      vertex 65 10 1
    endloop
  endfacet
  facet normal 1 0 0
    outer loop
      vertex 65 20 1
      vertex 65 10 0.5
      vertex 65 70 0
    endloop
  endfacet
  facet normal 1 0 0
    outer loop
      vertex 65 0 0
      vertex 65 10 0.5
      vertex 65 0 0.5
    endloop
  endfacet
  facet normal 1 0 0
    outer loop
      vertex 65 10 0.5
      vertex 65 0 0
      vertex 65 70 0
    endloop
  endfacet
  facet normal -0 0 1
    outer loop
      vertex 0 10 0.5
      vertex 65 0 0.5
      vertex 65 10 0.5
    endloop
  endfacet
  facet normal 0 0 1
    outer loop
      vertex 65 0 0.5
      vertex 0 10 0.5
      vertex 0 0 0.5
    endloop
  endfacet
  facet normal 0 0 -1
    outer loop
      vertex 0 0 0
      vertex 65 70 0
      vertex 65 0 0
    endloop
  endfacet
  facet normal -0 0 -1
    outer loop
      vertex 65 70 0
      vertex 0 0 0
      vertex 0 70 0
    endloop
  endfacet
  facet normal -1 0 0
    outer loop
      vertex 0 70 0
      vertex 0 60 3
      vertex 0 70 3.5
    endloop
  endfacet
  facet normal -1 0 0
    outer loop
      vertex 0 70 0
      vertex 0 50 2.5
      vertex 0 60 3
    endloop
  endfacet
  facet normal -1 0 0
    outer loop
      vertex 0 70 0
      vertex 0 40 2
      vertex 0 50 2.5
    endloop
  endfacet
  facet normal -1 0 0
    outer loop
      vertex 0 70 0
      vertex 0 30 1.5
      vertex 0 40 2
    endloop
  endfacet
  facet normal -1 0 0
    outer loop
      vertex 0 70 0
      vertex 0 20 1
      vertex 0 30 1.5
    endloop
  endfacet
  facet normal -1 0 0
    outer loop
      vertex 0 70 0
      vertex 0 10 0.5
      vertex 0 20 1
    endloop
  endfacet
  facet normal -1 0 0
    outer loop
      vertex 0 0 0
      vertex 0 10 0.5
      vertex 0 70 0
    endloop
  endfacet
  facet normal -1 -0 0
    outer loop
      vertex 0 10 0.5
      vertex 0 0 0
      vertex 0 0 0.5
    endloop
  endfacet
  facet normal -1 -0 0
    outer loop
      vertex 0 70 3.5
      vertex 0 60 3
      vertex 0 60 3.5
    endloop
  endfacet
  facet normal -1 -0 0
    outer loop
      vertex 0 60 3
      vertex 0 50 2.5
      vertex 0 50 3
    endloop
  endfacet
  facet normal -1 -0 0
    outer loop
      vertex 0 50 2.5
      vertex 0 40 2
      vertex 0 40 2.5
    endloop
  endfacet
  facet normal -1 -0 0
    outer loop
      vertex 0 40 2
      vertex 0 30 1.5
      vertex 0 30 2
    endloop
  endfacet
  facet normal -1 -0 0
    outer loop
      vertex 0 30 1.5
      vertex 0 20 1
      vertex 0 20 1.5
    endloop
  endfacet
  facet normal -1 -0 0
    outer loop
      vertex 0 20 1
      vertex 0 10 0.5
      vertex 0 10 1
    endloop
  endfacet
  facet normal 0 -1 0
    outer loop
      vertex 0 10 0.5
      vertex 65 10 1
      vertex 0 10 1
    endloop
  endfacet
  facet normal 0 -1 -0
    outer loop
      vertex 65 10 1
      vertex 0 10 0.5
      vertex 65 10 0.5
    endloop
  endfacet
  facet normal 0 -1 0
    outer loop
      vertex 0 0 0
      vertex 65 0 0.5
      vertex 0 0 0.5
    endloop
  endfacet
  facet normal 0 -1 -0
    outer loop
      vertex 65 0 0.5
      vertex 0 0 0
      vertex 65 0 0
    endloop
  endfacet
  facet normal -0 0 1
    outer loop
      vertex 0 20 1
      vertex 65 10 1
      vertex 65 20 1
    endloop
  endfacet
  facet normal 0 0 1
    outer loop
      vertex 65 10 1
      vertex 0 20 1
      vertex 0 10 1
    endloop
  endfacet
  facet normal 0 -1 0
    outer loop
      vertex 0 20 1
      vertex 65 20 1.5
      vertex 0 20 1.5
    endloop
  endfacet
  facet normal 0 -1 -0
    outer loop
      vertex 65 20 1.5
      vertex 0 20 1
      vertex 65 20 1
    endloop
  endfacet
  facet normal -0 0 1
    outer loop
      vertex 0 30 1.5
      vertex 65 20 1.5
      vertex 65 30 1.5
    endloop
  endfacet
  facet normal 0 0 1
    outer loop
      vertex 65 20 1.5
      vertex 0 30 1.5
      vertex 0 20 1.5
    endloop
  endfacet
  facet normal 0 -1 0
    outer loop
      vertex 0 30 1.5
      vertex 65 30 2
      vertex 0 30 2
    endloop
  endfacet
  facet normal 0 -1 -0
    outer loop
      vertex 65 30 2
      vertex 0 30 1.5
      vertex 65 30 1.5
    endloop
  endfacet
  facet normal -0 0 1
    outer loop
      vertex 0 40 2
      vertex 65 30 2
      vertex 65 40 2
    endloop
  endfacet
  facet normal 0 0 1
    outer loop
      vertex 65 30 2
      vertex 0 40 2
      vertex 0 30 2
    endloop
  endfacet
  facet normal 0 -1 0
    outer loop
      vertex 0 40 2
      vertex 65 40 2.5
      vertex 0 40 2.5
    endloop
  endfacet
  facet normal 0 -1 -0
    outer loop
      vertex 65 40 2.5
      vertex 0 40 2
      vertex 65 40 2
    endloop
  endfacet
  facet normal -0 0 1
    outer loop
      vertex 0 50 2.5
      vertex 65 40 2.5
      vertex 65 50 2.5
    endloop
  endfacet
  facet normal 0 0 1
    outer loop
      vertex 65 40 2.5
      vertex 0 50 2.5
      vertex 0 40 2.5
    endloop
  endfacet
  facet normal 0 -1 0
    outer loop
      vertex 0 50 2.5
      vertex 65 50 3
      vertex 0 50 3
    endloop
  endfacet
  facet normal 0 -1 -0
    outer loop
      vertex 65 50 3
      vertex 0 50 2.5
      vertex 65 50 2.5
    endloop
  endfacet
  facet normal -0 0 1
    outer loop
      vertex 0 60 3
      vertex 65 50 3
      vertex 65 60 3
    endloop
  endfacet
  facet normal 0 0 1
    outer loop
      vertex 65 50 3
      vertex 0 60 3
      vertex 0 50 3
    endloop
  endfacet
  facet normal 0 -1 0
    outer loop
      vertex 0 60 3
      vertex 65 60 3.5
      vertex 0 60 3.5
    endloop
  endfacet
  facet normal 0 -1 -0
    outer loop
      vertex 65 60 3.5
      vertex 0 60 3
      vertex 65 60 3
    endloop
  endfacet
  facet normal -0 0 1
    outer loop
      vertex 0 70 3.5
      vertex 65 60 3.5
      vertex 65 70 3.5
    endloop
  endfacet
  facet normal 0 0 1
    outer loop
      vertex 65 60 3.5
      vertex 0 70 3.5
      vertex 0 60 3.5
    endloop
  endfacet
  facet normal 0 1 -0
    outer loop
      vertex 65 70 0
      vertex 0 70 3.5
      vertex 65 70 3.5
    endloop
  endfacet
  facet normal 0 1 0
    outer loop
      vertex 0 70 3.5
      vertex 65 70 0
      vertex 0 70 0
    endloop
  endfacet
endsolid OpenSCAD_Model
