solid OpenSCAD_Model
  facet normal 0 0 -1
    outer loop
      vertex 0 0 0
      vertex 10 100 0
      vertex 10 0 0
    endloop
  endfacet
  facet normal -0 0 -1
    outer loop
      vertex 10 100 0
      vertex 0 0 0
      vertex 0 100 0
    endloop
  endfacet
  facet normal -0 0 1
    outer loop
      vertex 2 34 8
      vertex 10 32 8
      vertex 10 34 8
    endloop
  endfacet
  facet normal 0 0 1
    outer loop
      vertex 10 32 8
      vertex 2 34 8
      vertex 2 32 8
    endloop
  endfacet
  facet normal -0 0 1
    outer loop
      vertex 6.87764 5.27254 8
      vertex 10 5 8
      vertex 10 7 8
    endloop
  endfacet
  facet normal 0 0 1
    outer loop
      vertex 10 5 8
      vertex 6.87764 5.27254 8
      vertex 6.92081 5 8
    endloop
  endfacet
  facet normal 0 0 1
    outer loop
      vertex 10 7 8
      vertex 6.52254 5.96946 8
      vertex 6.87764 5.27254 8
    endloop
  endfacet
  facet normal 0 0 1
    outer loop
      vertex 10 7 8
      vertex 5.96946 6.52254 8
      vertex 6.52254 5.96946 8
    endloop
  endfacet
  facet normal 0 0 1
    outer loop
      vertex 10 7 8
      vertex 5.27254 6.87764 8
      vertex 5.96946 6.52254 8
    endloop
  endfacet
  facet normal 0 -0 1
    outer loop
      vertex 5.27254 6.87764 8
      vertex 10 7 8
      vertex 4.5 7 8
    endloop
  endfacet
  facet normal 1 -0 0
    outer loop
      vertex 2 17.8991 10.6009
      vertex 2 32 8
      vertex 2 18.7879 11.931
    endloop
  endfacet
  facet normal 1 0 0
    outer loop
      vertex 2 32 8
      vertex 2 17.8991 10.6009
      vertex 2 32 6
    endloop
  endfacet
  facet normal 1 -0 0
    outer loop
      vertex 2 16.569 9.71209
      vertex 2 32 6
      vertex 2 17.8991 10.6009
    endloop
  endfacet
  facet normal 1 -0 0
    outer loop
      vertex 2 15 9.4
      vertex 2 32 6
      vertex 2 16.569 9.71209
    endloop
  endfacet
  facet normal 1 0 0
    outer loop
      vertex 2 7 6
      vertex 2 15 9.4
      vertex 2 13.431 9.71209
    endloop
  endfacet
  facet normal 1 0 0
    outer loop
      vertex 2 15 9.4
      vertex 2 7 6
      vertex 2 32 6
    endloop
  endfacet
  facet normal 1 0 0
    outer loop
      vertex 2 12.1009 10.6009
      vertex 2 7 6
      vertex 2 13.431 9.71209
    endloop
  endfacet
  facet normal 1 0 0
    outer loop
      vertex 2 11.2121 11.931
      vertex 2 7 6
      vertex 2 12.1009 10.6009
    endloop
  endfacet
  facet normal 1 0 0
    outer loop
      vertex 2 10.9 13.5
      vertex 2 7 6
      vertex 2 11.2121 11.931
    endloop
  endfacet
  facet normal 1 0 0
    outer loop
      vertex 2 11.2121 15.069
      vertex 2 7 6
      vertex 2 10.9 13.5
    endloop
  endfacet
  facet normal 1 0 0
    outer loop
      vertex 2 98 46
      vertex 2 93 43
      vertex 2 98 43
    endloop
  endfacet
  facet normal 1 0 0
    outer loop
      vertex 2 93 43
      vertex 2 87.8532 18.9271
      vertex 2 93 2.01
    endloop
  endfacet
  facet normal 1 0 0
    outer loop
      vertex 2 93 43
      vertex 2 86.7634 20.4271
      vertex 2 87.8532 18.9271
    endloop
  endfacet
  facet normal 1 0 0
    outer loop
      vertex 2 93 43
      vertex 2 85 21
      vertex 2 86.7634 20.4271
    endloop
  endfacet
  facet normal 1 0 0
    outer loop
      vertex 2 93 43
      vertex 2 76.084 33.4914
      vertex 2 85 21
    endloop
  endfacet
  facet normal 1 0 0
    outer loop
      vertex 2 70.9818 41.5312
      vertex 2 93 43
      vertex 2 98 46
    endloop
  endfacet
  facet normal 1 0 0
    outer loop
      vertex 2 93 43
      vertex 2 75.9565 35.5178
      vertex 2 76.084 33.4914
    endloop
  endfacet
  facet normal 1 0 0
    outer loop
      vertex 2 93 43
      vertex 2 75.3291 37.4488
      vertex 2 75.9565 35.5178
    endloop
  endfacet
  facet normal 1 0 0
    outer loop
      vertex 2 93 43
      vertex 2 74.2412 39.1631
      vertex 2 75.3291 37.4488
    endloop
  endfacet
  facet normal 1 0 0
    outer loop
      vertex 2 93 43
      vertex 2 72.7611 40.553
      vertex 2 74.2412 39.1631
    endloop
  endfacet
  facet normal 1 0 0
    outer loop
      vertex 2 93 43
      vertex 2 70.9818 41.5312
      vertex 2 72.7611 40.553
    endloop
  endfacet
  facet normal 1 0 0
    outer loop
      vertex 2 98 46
      vertex 2 69.0152 42.0361
      vertex 2 70.9818 41.5312
    endloop
  endfacet
  facet normal 1 0 0
    outer loop
      vertex 2 98 46
      vertex 2 66.9848 42.0361
      vertex 2 69.0152 42.0361
    endloop
  endfacet
  facet normal 1 0 0
    outer loop
      vertex 2 17.8991 16.3991
      vertex 2 59.916 33.4914
      vertex 2 60.0435 35.5178
    endloop
  endfacet
  facet normal 1 0 0
    outer loop
      vertex 2 7 43
      vertex 2 60.0435 35.5178
      vertex 2 60.6709 37.4488
    endloop
  endfacet
  facet normal 1 0 0
    outer loop
      vertex 2 7 43
      vertex 2 60.6709 37.4488
      vertex 2 61.7588 39.1631
    endloop
  endfacet
  facet normal 1 0 0
    outer loop
      vertex 2 59.916 33.4914
      vertex 2 17.8991 16.3991
      vertex 2 34 8
    endloop
  endfacet
  facet normal 1 -0 0
    outer loop
      vertex 2 18.7879 11.931
      vertex 2 32 8
      vertex 2 19.1 13.5
    endloop
  endfacet
  facet normal 1 0 0
    outer loop
      vertex 2 34 8
      vertex 2 17.8991 16.3991
      vertex 2 32 8
    endloop
  endfacet
  facet normal 1 0 0
    outer loop
      vertex 2 7 43
      vertex 2 61.7588 39.1631
      vertex 2 63.2389 40.553
    endloop
  endfacet
  facet normal 1 0 0
    outer loop
      vertex 2 32 8
      vertex 2 18.7879 15.069
      vertex 2 19.1 13.5
    endloop
  endfacet
  facet normal 1 0 0
    outer loop
      vertex 2 32 8
      vertex 2 17.8991 16.3991
      vertex 2 18.7879 15.069
    endloop
  endfacet
  facet normal 1 0 0
    outer loop
      vertex 2 7 43
      vertex 2 63.2389 40.553
      vertex 2 65.0182 41.5312
    endloop
  endfacet
  facet normal 1 0 0
    outer loop
      vertex 2 60.0435 35.5178
      vertex 2 7 43
      vertex 2 17.8991 16.3991
    endloop
  endfacet
  facet normal 1 0 0
    outer loop
      vertex 2 17.8991 16.3991
      vertex 2 7 43
      vertex 2 16.569 17.2879
    endloop
  endfacet
  facet normal 1 0 0
    outer loop
      vertex 2 16.569 17.2879
      vertex 2 7 43
      vertex 2 15 17.6
    endloop
  endfacet
  facet normal 1 0 0
    outer loop
      vertex 2 7 6
      vertex 2 11.2121 15.069
      vertex 2 7 43
    endloop
  endfacet
  facet normal 1 0 0
    outer loop
      vertex 2 12.1009 16.3991
      vertex 2 7 43
      vertex 2 11.2121 15.069
    endloop
  endfacet
  facet normal 1 0 0
    outer loop
      vertex 2 13.431 17.2879
      vertex 2 7 43
      vertex 2 12.1009 16.3991
    endloop
  endfacet
  facet normal 1 0 0
    outer loop
      vertex 2 15 17.6
      vertex 2 7 43
      vertex 2 13.431 17.2879
    endloop
  endfacet
  facet normal 1 0 0
    outer loop
      vertex 2 2 46
      vertex 2 65.0182 41.5312
      vertex 2 66.9848 42.0361
    endloop
  endfacet
  facet normal 1 -0 0
    outer loop
      vertex 2 2 46
      vertex 2 66.9848 42.0361
      vertex 2 98 46
    endloop
  endfacet
  facet normal 1 0 0
    outer loop
      vertex 2 65.0182 41.5312
      vertex 2 2 46
      vertex 2 7 43
    endloop
  endfacet
  facet normal 1 0 0
    outer loop
      vertex 2 7 43
      vertex 2 2 46
      vertex 2 2 43
    endloop
  endfacet
  facet normal 1 -0 0
    outer loop
      vertex 2 87.8532 17.0729
      vertex 2 93 2.01
      vertex 2 87.8532 18.9271
    endloop
  endfacet
  facet normal 1 -0 0
    outer loop
      vertex 2 86.7634 15.5729
      vertex 2 93 2.01
      vertex 2 87.8532 17.0729
    endloop
  endfacet
  facet normal 1 -0 0
    outer loop
      vertex 2 85 15
      vertex 2 93 2.01
      vertex 2 86.7634 15.5729
    endloop
  endfacet
  facet normal 1 -0 0
    outer loop
      vertex 2 75 15
      vertex 2 93 2.01
      vertex 2 85 15
    endloop
  endfacet
  facet normal 1 0 0
    outer loop
      vertex 2 34 2.01
      vertex 2 75 15
      vertex 2 73.2366 15.5729
    endloop
  endfacet
  facet normal 1 0 0
    outer loop
      vertex 2 73.2366 20.4271
      vertex 2 68 25.9
      vertex 2 72.1468 18.9271
    endloop
  endfacet
  facet normal 1 0 0
    outer loop
      vertex 2 65.9856 26.1545
      vertex 2 72.1468 18.9271
      vertex 2 68 25.9
    endloop
  endfacet
  facet normal 1 0 0
    outer loop
      vertex 2 72.1468 18.9271
      vertex 2 65.9856 26.1545
      vertex 2 72.1468 17.0729
    endloop
  endfacet
  facet normal 1 0 0
    outer loop
      vertex 2 64.0978 26.9019
      vertex 2 72.1468 17.0729
      vertex 2 65.9856 26.1545
    endloop
  endfacet
  facet normal 1 0 0
    outer loop
      vertex 2 34 8
      vertex 2 72.1468 17.0729
      vertex 2 64.0978 26.9019
    endloop
  endfacet
  facet normal 1 0 0
    outer loop
      vertex 2 34 8
      vertex 2 64.0978 26.9019
      vertex 2 62.4552 28.0954
    endloop
  endfacet
  facet normal 1 0 0
    outer loop
      vertex 2 34 8
      vertex 2 60.2964 31.497
      vertex 2 59.916 33.4914
    endloop
  endfacet
  facet normal 1 0 0
    outer loop
      vertex 2 34 8
      vertex 2 61.1609 29.6598
      vertex 2 60.2964 31.497
    endloop
  endfacet
  facet normal 1 0 0
    outer loop
      vertex 2 34 8
      vertex 2 62.4552 28.0954
      vertex 2 61.1609 29.6598
    endloop
  endfacet
  facet normal 1 0 0
    outer loop
      vertex 2 34 2.01
      vertex 2 72.1468 17.0729
      vertex 2 34 8
    endloop
  endfacet
  facet normal 1 0 0
    outer loop
      vertex 2 72.1468 17.0729
      vertex 2 34 2.01
      vertex 2 73.2366 15.5729
    endloop
  endfacet
  facet normal 1 0 0
    outer loop
      vertex 2 75 15
      vertex 2 34 2.01
      vertex 2 93 2.01
    endloop
  endfacet
  facet normal 1 -0 0
    outer loop
      vertex 2 75.7036 31.497
      vertex 2 85 21
      vertex 2 76.084 33.4914
    endloop
  endfacet
  facet normal 1 -0 0
    outer loop
      vertex 2 74.8391 29.6598
      vertex 2 85 21
      vertex 2 75.7036 31.497
    endloop
  endfacet
  facet normal 1 0 0
    outer loop
      vertex 2 85 21
      vertex 2 74.8391 29.6598
      vertex 2 75 21
    endloop
  endfacet
  facet normal 1 -0 0
    outer loop
      vertex 2 73.5448 28.0954
      vertex 2 75 21
      vertex 2 74.8391 29.6598
    endloop
  endfacet
  facet normal 1 -0 0
    outer loop
      vertex 2 71.9022 26.9019
      vertex 2 75 21
      vertex 2 73.5448 28.0954
    endloop
  endfacet
  facet normal 1 0 0
    outer loop
      vertex 2 75 21
      vertex 2 71.9022 26.9019
      vertex 2 73.2366 20.4271
    endloop
  endfacet
  facet normal 1 -0 0
    outer loop
      vertex 2 68 25.9
      vertex 2 73.2366 20.4271
      vertex 2 70.0144 26.1545
    endloop
  endfacet
  facet normal 1 -0 0
    outer loop
      vertex 2 70.0144 26.1545
      vertex 2 73.2366 20.4271
      vertex 2 71.9022 26.9019
    endloop
  endfacet
  facet normal 0 1 -0
    outer loop
      vertex 10 34 2.01
      vertex 2 34 8
      vertex 10 34 8
    endloop
  endfacet
  facet normal 0 1 0
    outer loop
      vertex 2 34 8
      vertex 10 34 2.01
      vertex 2 34 2.01
    endloop
  endfacet
  facet normal 0 -1 0
    outer loop
      vertex 6.92081 5 2.01
      vertex 10 5 8
      vertex 6.92081 5 8
    endloop
  endfacet
  facet normal 0 -1 -0
    outer loop
      vertex 10 5 8
      vertex 6.92081 5 2.01
      vertex 10 5 2.01
    endloop
  endfacet
  facet normal -0 0 1
    outer loop
      vertex 2 32 6
      vertex 4 7 6
      vertex 4 32 6
    endloop
  endfacet
  facet normal 0 0 1
    outer loop
      vertex 4 7 6
      vertex 2 32 6
      vertex 2 7 6
    endloop
  endfacet
  facet normal 0 -1 0
    outer loop
      vertex 4 32 6
      vertex 2 32 8
      vertex 2 32 6
    endloop
  endfacet
  facet normal 0 -1 0
    outer loop
      vertex 2 32 8
      vertex 4 32 6
      vertex 10 32 8
    endloop
  endfacet
  facet normal 0 -1 0
    outer loop
      vertex 10 32 2.01
      vertex 4 32 6
      vertex 4 32 2.01
    endloop
  endfacet
  facet normal 0 -1 0
    outer loop
      vertex 4 32 6
      vertex 10 32 2.01
      vertex 10 32 8
    endloop
  endfacet
  facet normal 0 1 -0
    outer loop
      vertex 4.5 7 2.01
      vertex 4 7 6
      vertex 4.5 7 8
    endloop
  endfacet
  facet normal 0 1 0
    outer loop
      vertex 4 7 6
      vertex 4.5 7 2.01
      vertex 4 7 2.01
    endloop
  endfacet
  facet normal 0 1 -0
    outer loop
      vertex 4.5 7 8
      vertex 2 7 43
      vertex 4.5 7 43
    endloop
  endfacet
  facet normal 0 1 0
    outer loop
      vertex 2 7 6
      vertex 4.5 7 8
      vertex 4 7 6
    endloop
  endfacet
  facet normal 0 1 0
    outer loop
      vertex 4.5 7 8
      vertex 2 7 6
      vertex 2 7 43
    endloop
  endfacet
  facet normal 0 1 -0
    outer loop
      vertex 10 7 2.01
      vertex 4.5 7 8
      vertex 10 7 8
    endloop
  endfacet
  facet normal 0 1 0
    outer loop
      vertex 4.5 7 8
      vertex 10 7 2.01
      vertex 4.5 7 2.01
    endloop
  endfacet
  facet normal 1 -0 0
    outer loop
      vertex 4 7 6
      vertex 4 32 2.01
      vertex 4 32 6
    endloop
  endfacet
  facet normal 1 0 0
    outer loop
      vertex 4 32 2.01
      vertex 4 7 6
      vertex 4 7 2.01
    endloop
  endfacet
  facet normal 0.965926 -0 0.258817
    outer loop
      vertex 9 0 12
      vertex 9.20096 2 11.25
      vertex 9 2 12
    endloop
  endfacet
  facet normal 0.965926 0 0.258817
    outer loop
      vertex 9.20096 2 11.25
      vertex 9 0 12
      vertex 9.20096 0 11.25
    endloop
  endfacet
  facet normal 0.258865 0 0.965914
    outer loop
      vertex 9.75 2 10.701
      vertex 10 0 10.634
      vertex 10 2 10.634
    endloop
  endfacet
  facet normal 0.258865 0 0.965914
    outer loop
      vertex 10 0 10.634
      vertex 9.75 2 10.701
      vertex 9.75 0 10.701
    endloop
  endfacet
  facet normal 0.707081 -0 0.707133
    outer loop
      vertex 9.20096 0 11.25
      vertex 9.75 2 10.701
      vertex 9.20096 2 11.25
    endloop
  endfacet
  facet normal 0.707081 0 0.707133
    outer loop
      vertex 9.75 2 10.701
      vertex 9.20096 0 11.25
      vertex 9.75 0 10.701
    endloop
  endfacet
  facet normal 1 -0 0
    outer loop
      vertex 9 0 38
      vertex 9 2 12
      vertex 9 2 38
    endloop
  endfacet
  facet normal 1 0 0
    outer loop
      vertex 9 2 12
      vertex 9 0 38
      vertex 9 0 12
    endloop
  endfacet
  facet normal 0.707081 0 -0.707133
    outer loop
      vertex 9.75 0 39.299
      vertex 9.20096 2 38.75
      vertex 9.75 2 39.299
    endloop
  endfacet
  facet normal 0.707081 0 -0.707133
    outer loop
      vertex 9.20096 2 38.75
      vertex 9.75 0 39.299
      vertex 9.20096 0 38.75
    endloop
  endfacet
  facet normal 0.258865 0 -0.965914
    outer loop
      vertex 9.75 0 39.299
      vertex 10 2 39.366
      vertex 10 0 39.366
    endloop
  endfacet
  facet normal 0.258865 0 -0.965914
    outer loop
      vertex 10 2 39.366
      vertex 9.75 0 39.299
      vertex 9.75 2 39.299
    endloop
  endfacet
  facet normal 0.965926 0 -0.258817
    outer loop
      vertex 9.20096 0 38.75
      vertex 9 2 38
      vertex 9.20096 2 38.75
    endloop
  endfacet
  facet normal 0.965926 0 -0.258817
    outer loop
      vertex 9 2 38
      vertex 9.20096 0 38.75
      vertex 9 0 38
    endloop
  endfacet
  facet normal 0.965926 -0 0.258817
    outer loop
      vertex 9 98 12
      vertex 9.20096 100 11.25
      vertex 9 100 12
    endloop
  endfacet
  facet normal 0.965926 0 0.258817
    outer loop
      vertex 9.20096 100 11.25
      vertex 9 98 12
      vertex 9.20096 98 11.25
    endloop
  endfacet
  facet normal 0.258865 0 0.965914
    outer loop
      vertex 9.75 100 10.701
      vertex 10 98 10.634
      vertex 10 100 10.634
    endloop
  endfacet
  facet normal 0.258865 0 0.965914
    outer loop
      vertex 10 98 10.634
      vertex 9.75 100 10.701
      vertex 9.75 98 10.701
    endloop
  endfacet
  facet normal 0.707081 -0 0.707133
    outer loop
      vertex 9.20096 98 11.25
      vertex 9.75 100 10.701
      vertex 9.20096 100 11.25
    endloop
  endfacet
  facet normal 0.707081 0 0.707133
    outer loop
      vertex 9.75 100 10.701
      vertex 9.20096 98 11.25
      vertex 9.75 98 10.701
    endloop
  endfacet
  facet normal 1 -0 0
    outer loop
      vertex 9 98 38
      vertex 9 100 12
      vertex 9 100 38
    endloop
  endfacet
  facet normal 1 0 0
    outer loop
      vertex 9 100 12
      vertex 9 98 38
      vertex 9 98 12
    endloop
  endfacet
  facet normal 0.707081 0 -0.707133
    outer loop
      vertex 9.75 98 39.299
      vertex 9.20096 100 38.75
      vertex 9.75 100 39.299
    endloop
  endfacet
  facet normal 0.707081 0 -0.707133
    outer loop
      vertex 9.20096 100 38.75
      vertex 9.75 98 39.299
      vertex 9.20096 98 38.75
    endloop
  endfacet
  facet normal 0.258865 0 -0.965914
    outer loop
      vertex 9.75 98 39.299
      vertex 10 100 39.366
      vertex 10 98 39.366
    endloop
  endfacet
  facet normal 0.258865 0 -0.965914
    outer loop
      vertex 10 100 39.366
      vertex 9.75 98 39.299
      vertex 9.75 100 39.299
    endloop
  endfacet
  facet normal 0.965926 0 -0.258817
    outer loop
      vertex 9.20096 98 38.75
      vertex 9 100 38
      vertex 9.20096 100 38.75
    endloop
  endfacet
  facet normal 0.965926 0 -0.258817
    outer loop
      vertex 9 100 38
      vertex 9.20096 98 38.75
      vertex 9 98 38
    endloop
  endfacet
  facet normal 0.891006 0.453992 0
    outer loop
      vertex 6.87764 5.27254 43
      vertex 6.52254 5.96946 8
      vertex 6.52254 5.96946 43
    endloop
  endfacet
  facet normal 0.891006 0.453992 0
    outer loop
      vertex 6.52254 5.96946 8
      vertex 6.87764 5.27254 43
      vertex 6.87764 5.27254 8
    endloop
  endfacet
  facet normal 0.987686 0.156448 0
    outer loop
      vertex 6.87764 5.27254 43
      vertex 6.92081 5 8
      vertex 6.87764 5.27254 8
    endloop
  endfacet
  facet normal 0.987688 0.156437 9.34178e-08
    outer loop
      vertex 7 4.5 43
      vertex 6.92081 5 8
      vertex 6.87764 5.27254 43
    endloop
  endfacet
  facet normal 0.987689 0.15643 -0
    outer loop
      vertex 7 4.5 2.01
      vertex 6.92081 5 8
      vertex 7 4.5 43
    endloop
  endfacet
  facet normal 0.987689 0.15643 0
    outer loop
      vertex 6.92081 5 8
      vertex 7 4.5 2.01
      vertex 6.92081 5 2.01
    endloop
  endfacet
  facet normal 0.707107 0.707107 0
    outer loop
      vertex 6.52254 5.96946 43
      vertex 5.96946 6.52254 8
      vertex 5.96946 6.52254 43
    endloop
  endfacet
  facet normal 0.707107 0.707107 0
    outer loop
      vertex 5.96946 6.52254 8
      vertex 6.52254 5.96946 43
      vertex 6.52254 5.96946 8
    endloop
  endfacet
  facet normal 0.156437 0.987688 -0
    outer loop
      vertex 5.27254 6.87764 8
      vertex 4.5 7 43
      vertex 5.27254 6.87764 43
    endloop
  endfacet
  facet normal 0.156437 0.987688 0
    outer loop
      vertex 4.5 7 43
      vertex 5.27254 6.87764 8
      vertex 4.5 7 8
    endloop
  endfacet
  facet normal 0.453992 0.891006 -0
    outer loop
      vertex 5.96946 6.52254 8
      vertex 5.27254 6.87764 43
      vertex 5.96946 6.52254 43
    endloop
  endfacet
  facet normal 0.453992 0.891006 0
    outer loop
      vertex 5.27254 6.87764 43
      vertex 5.96946 6.52254 8
      vertex 5.27254 6.87764 8
    endloop
  endfacet
  facet normal 0 0 1
    outer loop
      vertex 6.87764 5.27254 43
      vertex 5.36602 5 43
      vertex 5.5 4.5 43
    endloop
  endfacet
  facet normal 0 0 1
    outer loop
      vertex 5 5.36602 43
      vertex 5.96946 6.52254 43
      vertex 5.27254 6.87764 43
    endloop
  endfacet
  facet normal 0 0 1
    outer loop
      vertex 5.96946 6.52254 43
      vertex 5 5.36602 43
      vertex 5.36602 5 43
    endloop
  endfacet
  facet normal 0 0 1
    outer loop
      vertex 4.5 5.5 43
      vertex 5.27254 6.87764 43
      vertex 4.5 7 43
    endloop
  endfacet
  facet normal 0 0 1
    outer loop
      vertex 5.27254 6.87764 43
      vertex 4.5 5.5 43
      vertex 5 5.36602 43
    endloop
  endfacet
  facet normal 0 0 1
    outer loop
      vertex 4.5 7 43
      vertex 4 5.36602 43
      vertex 4.5 5.5 43
    endloop
  endfacet
  facet normal -0 0 1
    outer loop
      vertex 2 7 43
      vertex 4 5.36602 43
      vertex 4.5 7 43
    endloop
  endfacet
  facet normal 0 0 1
    outer loop
      vertex 3.63397 5 43
      vertex 2 7 43
      vertex 3.5 4.5 43
    endloop
  endfacet
  facet normal 0 0 1
    outer loop
      vertex 4 5.36602 43
      vertex 2 7 43
      vertex 3.63397 5 43
    endloop
  endfacet
  facet normal 0 0 1
    outer loop
      vertex 5.5 4.5 43
      vertex 7 4.5 43
      vertex 6.87764 5.27254 43
    endloop
  endfacet
  facet normal 0 0 1
    outer loop
      vertex 5.36602 5 43
      vertex 6.87764 5.27254 43
      vertex 6.52254 5.96946 43
    endloop
  endfacet
  facet normal 0 0 1
    outer loop
      vertex 5.36602 5 43
      vertex 6.52254 5.96946 43
      vertex 5.96946 6.52254 43
    endloop
  endfacet
  facet normal 0 0 1
    outer loop
      vertex 7 4.5 43
      vertex 5.5 4.5 43
      vertex 5.36602 4 43
    endloop
  endfacet
  facet normal 0 0 1
    outer loop
      vertex 7 4.5 43
      vertex 5.36602 4 43
      vertex 7 2 43
    endloop
  endfacet
  facet normal -0 0 1
    outer loop
      vertex 5 3.63397 43
      vertex 7 2 43
      vertex 5.36602 4 43
    endloop
  endfacet
  facet normal -0 0 1
    outer loop
      vertex 4.5 3.5 43
      vertex 7 2 43
      vertex 5 3.63397 43
    endloop
  endfacet
  facet normal 0 0 1
    outer loop
      vertex 2 2 43
      vertex 4.5 3.5 43
      vertex 4 3.63397 43
    endloop
  endfacet
  facet normal 0 0 1
    outer loop
      vertex 2 2 43
      vertex 3.5 4.5 43
      vertex 2 7 43
    endloop
  endfacet
  facet normal 0 0 1
    outer loop
      vertex 4.5 3.5 43
      vertex 2 2 43
      vertex 7 2 43
    endloop
  endfacet
  facet normal 0 0 1
    outer loop
      vertex 3.63397 4 43
      vertex 2 2 43
      vertex 4 3.63397 43
    endloop
  endfacet
  facet normal 0 0 1
    outer loop
      vertex 3.5 4.5 43
      vertex 2 2 43
      vertex 3.63397 4 43
    endloop
  endfacet
  facet normal 0 1 0
    outer loop
      vertex 10 2 46
      vertex 7 2 43
      vertex 2 2 46
    endloop
  endfacet
  facet normal 0 1 -0
    outer loop
      vertex 10 2 39.366
      vertex 7 2 43
      vertex 10 2 46
    endloop
  endfacet
  facet normal 0 1 -0
    outer loop
      vertex 9.75 2 39.299
      vertex 7 2 43
      vertex 10 2 39.366
    endloop
  endfacet
  facet normal 0 1 -0
    outer loop
      vertex 9.20096 2 38.75
      vertex 7 2 43
      vertex 9.75 2 39.299
    endloop
  endfacet
  facet normal 0 1 -0
    outer loop
      vertex 9 2 38
      vertex 7 2 43
      vertex 9.20096 2 38.75
    endloop
  endfacet
  facet normal 0 1 -0
    outer loop
      vertex 9 2 12
      vertex 7 2 43
      vertex 9 2 38
    endloop
  endfacet
  facet normal 0 1 -0
    outer loop
      vertex 10 2 2.01
      vertex 9.75 2 10.701
      vertex 10 2 10.634
    endloop
  endfacet
  facet normal 0 1 0
    outer loop
      vertex 7 2 2.01
      vertex 9.75 2 10.701
      vertex 10 2 2.01
    endloop
  endfacet
  facet normal 0 1 0
    outer loop
      vertex 9.75 2 10.701
      vertex 7 2 2.01
      vertex 9.20096 2 11.25
    endloop
  endfacet
  facet normal 0 1 0
    outer loop
      vertex 9 2 12
      vertex 7 2 2.01
      vertex 7 2 43
    endloop
  endfacet
  facet normal 0 1 0
    outer loop
      vertex 9.20096 2 11.25
      vertex 7 2 2.01
      vertex 9 2 12
    endloop
  endfacet
  facet normal 0 1 0
    outer loop
      vertex 2 2 46
      vertex 7 2 43
      vertex 2 2 43
    endloop
  endfacet
  facet normal 1 -0 0
    outer loop
      vertex 7 2 43
      vertex 7 4.5 2.01
      vertex 7 4.5 43
    endloop
  endfacet
  facet normal 1 0 0
    outer loop
      vertex 7 4.5 2.01
      vertex 7 2 43
      vertex 7 2 2.01
    endloop
  endfacet
  facet normal -0.707107 -0.707107 0
    outer loop
      vertex 5.36602 5 22.5
      vertex 5 5.36602 43
      vertex 5 5.36602 22.5
    endloop
  endfacet
  facet normal -0.707107 -0.707107 0
    outer loop
      vertex 5 5.36602 43
      vertex 5.36602 5 22.5
      vertex 5.36602 5 43
    endloop
  endfacet
  facet normal -0.965923 -0.258829 0
    outer loop
      vertex 5.5 4.5 22.5
      vertex 5.36602 5 43
      vertex 5.36602 5 22.5
    endloop
  endfacet
  facet normal -0.965923 -0.258829 0
    outer loop
      vertex 5.36602 5 43
      vertex 5.5 4.5 22.5
      vertex 5.5 4.5 43
    endloop
  endfacet
  facet normal -0.258829 -0.965923 0
    outer loop
      vertex 4.5 5.5 22.5
      vertex 5 5.36602 43
      vertex 4.5 5.5 43
    endloop
  endfacet
  facet normal -0.258829 -0.965923 -0
    outer loop
      vertex 5 5.36602 43
      vertex 4.5 5.5 22.5
      vertex 5 5.36602 22.5
    endloop
  endfacet
  facet normal 0.258829 -0.965923 0
    outer loop
      vertex 4 5.36602 22.5
      vertex 4.5 5.5 43
      vertex 4 5.36602 43
    endloop
  endfacet
  facet normal 0.258829 -0.965923 0
    outer loop
      vertex 4.5 5.5 43
      vertex 4 5.36602 22.5
      vertex 4.5 5.5 22.5
    endloop
  endfacet
  facet normal -0.707116 0.707097 0
    outer loop
      vertex 5 3.63397 22.5
      vertex 5.36602 4 43
      vertex 5.36602 4 22.5
    endloop
  endfacet
  facet normal -0.707116 0.707097 0
    outer loop
      vertex 5.36602 4 43
      vertex 5 3.63397 22.5
      vertex 5 3.63397 43
    endloop
  endfacet
  facet normal 0.707097 -0.707116 0
    outer loop
      vertex 3.63397 5 22.5
      vertex 4 5.36602 43
      vertex 3.63397 5 43
    endloop
  endfacet
  facet normal 0.707097 -0.707116 0
    outer loop
      vertex 4 5.36602 43
      vertex 3.63397 5 22.5
      vertex 4 5.36602 22.5
    endloop
  endfacet
  facet normal 0.965928 -0.258811 0
    outer loop
      vertex 3.5 4.5 43
      vertex 3.63397 5 22.5
      vertex 3.63397 5 43
    endloop
  endfacet
  facet normal 0.965928 -0.258811 0
    outer loop
      vertex 3.63397 5 22.5
      vertex 3.5 4.5 43
      vertex 3.5 4.5 22.5
    endloop
  endfacet
  facet normal 0.707107 0.707107 0
    outer loop
      vertex 4 3.63397 43
      vertex 3.63397 4 22.5
      vertex 3.63397 4 43
    endloop
  endfacet
  facet normal 0.707107 0.707107 0
    outer loop
      vertex 3.63397 4 22.5
      vertex 4 3.63397 43
      vertex 4 3.63397 22.5
    endloop
  endfacet
  facet normal -0.965923 0.258829 0
    outer loop
      vertex 5.36602 4 22.5
      vertex 5.5 4.5 43
      vertex 5.5 4.5 22.5
    endloop
  endfacet
  facet normal -0.965923 0.258829 0
    outer loop
      vertex 5.5 4.5 43
      vertex 5.36602 4 22.5
      vertex 5.36602 4 43
    endloop
  endfacet
  facet normal 0.965928 0.258811 0
    outer loop
      vertex 3.63397 4 43
      vertex 3.5 4.5 22.5
      vertex 3.5 4.5 43
    endloop
  endfacet
  facet normal 0.965928 0.258811 0
    outer loop
      vertex 3.5 4.5 22.5
      vertex 3.63397 4 43
      vertex 3.63397 4 22.5
    endloop
  endfacet
  facet normal -0.258811 0.965928 0
    outer loop
      vertex 5 3.63397 22.5
      vertex 4.5 3.5 43
      vertex 5 3.63397 43
    endloop
  endfacet
  facet normal -0.258811 0.965928 0
    outer loop
      vertex 4.5 3.5 43
      vertex 5 3.63397 22.5
      vertex 4.5 3.5 22.5
    endloop
  endfacet
  facet normal 0 0 1
    outer loop
      vertex 5.36602 5 22.5
      vertex 5.36602 4 22.5
      vertex 5.5 4.5 22.5
    endloop
  endfacet
  facet normal 0 0 1
    outer loop
      vertex 5 5.36602 22.5
      vertex 5.36602 4 22.5
      vertex 5.36602 5 22.5
    endloop
  endfacet
  facet normal 0 0 1
    outer loop
      vertex 5 5.36602 22.5
      vertex 5 3.63397 22.5
      vertex 5.36602 4 22.5
    endloop
  endfacet
  facet normal 0 0 1
    outer loop
      vertex 4.5 5.5 22.5
      vertex 5 3.63397 22.5
      vertex 5 5.36602 22.5
    endloop
  endfacet
  facet normal 0 0 1
    outer loop
      vertex 4.5 5.5 22.5
      vertex 4.5 3.5 22.5
      vertex 5 3.63397 22.5
    endloop
  endfacet
  facet normal -0 0 1
    outer loop
      vertex 4 5.36602 22.5
      vertex 4.5 3.5 22.5
      vertex 4.5 5.5 22.5
    endloop
  endfacet
  facet normal 0 0 1
    outer loop
      vertex 4 5.36602 22.5
      vertex 4 3.63397 22.5
      vertex 4.5 3.5 22.5
    endloop
  endfacet
  facet normal -0 0 1
    outer loop
      vertex 3.63397 5 22.5
      vertex 4 3.63397 22.5
      vertex 4 5.36602 22.5
    endloop
  endfacet
  facet normal 0 0 1
    outer loop
      vertex 3.63397 5 22.5
      vertex 3.63397 4 22.5
      vertex 4 3.63397 22.5
    endloop
  endfacet
  facet normal 0 -0 1
    outer loop
      vertex 3.63397 4 22.5
      vertex 3.63397 5 22.5
      vertex 3.5 4.5 22.5
    endloop
  endfacet
  facet normal 0.258811 0.965928 -0
    outer loop
      vertex 4.5 3.5 22.5
      vertex 4 3.63397 43
      vertex 4.5 3.5 43
    endloop
  endfacet
  facet normal 0.258811 0.965928 0
    outer loop
      vertex 4 3.63397 43
      vertex 4.5 3.5 22.5
      vertex 4 3.63397 22.5
    endloop
  endfacet
  facet normal 0 -1 0
    outer loop
      vertex 7 98 43
      vertex 2 98 46
      vertex 2 98 43
    endloop
  endfacet
  facet normal 0 -1 0
    outer loop
      vertex 2 98 46
      vertex 7 98 43
      vertex 10 98 46
    endloop
  endfacet
  facet normal 0 -1 0
    outer loop
      vertex 7 98 43
      vertex 10 98 39.366
      vertex 10 98 46
    endloop
  endfacet
  facet normal 0 -1 0
    outer loop
      vertex 7 98 43
      vertex 9.75 98 39.299
      vertex 10 98 39.366
    endloop
  endfacet
  facet normal 0 -1 0
    outer loop
      vertex 7 98 43
      vertex 9.20096 98 38.75
      vertex 9.75 98 39.299
    endloop
  endfacet
  facet normal 0 -1 0
    outer loop
      vertex 7 98 43
      vertex 9 98 38
      vertex 9.20096 98 38.75
    endloop
  endfacet
  facet normal 0 -1 0
    outer loop
      vertex 7 98 43
      vertex 9 98 12
      vertex 9 98 38
    endloop
  endfacet
  facet normal 0 -1 0
    outer loop
      vertex 7 98 2.01
      vertex 9 98 12
      vertex 7 98 43
    endloop
  endfacet
  facet normal 0 -1 0
    outer loop
      vertex 7 98 2.01
      vertex 9.20096 98 11.25
      vertex 9 98 12
    endloop
  endfacet
  facet normal 0 -1 0
    outer loop
      vertex 7 98 2.01
      vertex 9.75 98 10.701
      vertex 9.20096 98 11.25
    endloop
  endfacet
  facet normal 0 -1 0
    outer loop
      vertex 10 98 2.01
      vertex 9.75 98 10.701
      vertex 7 98 2.01
    endloop
  endfacet
  facet normal 0 -1 0
    outer loop
      vertex 9.75 98 10.701
      vertex 10 98 2.01
      vertex 10 98 10.634
    endloop
  endfacet
  facet normal 0.453992 -0.891006 0
    outer loop
      vertex 5.27254 93.1224 2.01
      vertex 5.96946 93.4775 43
      vertex 5.27254 93.1224 43
    endloop
  endfacet
  facet normal 0.453992 -0.891006 0
    outer loop
      vertex 5.96946 93.4775 43
      vertex 5.27254 93.1224 2.01
      vertex 5.96946 93.4775 2.01
    endloop
  endfacet
  facet normal 0.156486 -0.98768 0
    outer loop
      vertex 4.5 93 2.01
      vertex 5.27254 93.1224 43
      vertex 4.5 93 43
    endloop
  endfacet
  facet normal 0.156486 -0.98768 0
    outer loop
      vertex 5.27254 93.1224 43
      vertex 4.5 93 2.01
      vertex 5.27254 93.1224 2.01
    endloop
  endfacet
  facet normal 0.707056 -0.707158 0
    outer loop
      vertex 5.96946 93.4775 43
      vertex 6.52254 94.0305 2.01
      vertex 6.52254 94.0305 43
    endloop
  endfacet
  facet normal 0.707056 -0.707158 0
    outer loop
      vertex 6.52254 94.0305 2.01
      vertex 5.96946 93.4775 43
      vertex 5.96946 93.4775 2.01
    endloop
  endfacet
  facet normal 0.987687 -0.156444 0
    outer loop
      vertex 6.87764 94.7275 43
      vertex 7 95.5 2.01
      vertex 7 95.5 43
    endloop
  endfacet
  facet normal 0.987687 -0.156444 0
    outer loop
      vertex 7 95.5 2.01
      vertex 6.87764 94.7275 43
      vertex 6.87764 94.7275 2.01
    endloop
  endfacet
  facet normal 0.891027 -0.453951 0
    outer loop
      vertex 6.52254 94.0305 43
      vertex 6.87764 94.7275 2.01
      vertex 6.87764 94.7275 43
    endloop
  endfacet
  facet normal 0.891027 -0.453951 0
    outer loop
      vertex 6.87764 94.7275 2.01
      vertex 6.52254 94.0305 43
      vertex 6.52254 94.0305 2.01
    endloop
  endfacet
  facet normal -0 0 1
    outer loop
      vertex 5.36602 96 43
      vertex 7 95.5 43
      vertex 7 98 43
    endloop
  endfacet
  facet normal 0 -0 1
    outer loop
      vertex 5.5 95.5 43
      vertex 7 95.5 43
      vertex 5.36602 96 43
    endloop
  endfacet
  facet normal -0 0 1
    outer loop
      vertex 5.36602 95 43
      vertex 6.87764 94.7275 43
      vertex 5.5 95.5 43
    endloop
  endfacet
  facet normal 0 0 1
    outer loop
      vertex 6.87764 94.7275 43
      vertex 5.36602 95 43
      vertex 6.52254 94.0305 43
    endloop
  endfacet
  facet normal 0 0 1
    outer loop
      vertex 7 95.5 43
      vertex 5.5 95.5 43
      vertex 6.87764 94.7275 43
    endloop
  endfacet
  facet normal 0 0 1
    outer loop
      vertex 7 98 43
      vertex 5 96.366 43
      vertex 5.36602 96 43
    endloop
  endfacet
  facet normal 0 0 1
    outer loop
      vertex 7 98 43
      vertex 4.5 96.5 43
      vertex 5 96.366 43
    endloop
  endfacet
  facet normal -0 0 1
    outer loop
      vertex 2 98 43
      vertex 4.5 96.5 43
      vertex 7 98 43
    endloop
  endfacet
  facet normal 0 0 1
    outer loop
      vertex 3.63397 96 43
      vertex 2 98 43
      vertex 3.5 95.5 43
    endloop
  endfacet
  facet normal 0 0 1
    outer loop
      vertex 4 96.366 43
      vertex 2 98 43
      vertex 3.63397 96 43
    endloop
  endfacet
  facet normal 0 0 1
    outer loop
      vertex 4.5 96.5 43
      vertex 2 98 43
      vertex 4 96.366 43
    endloop
  endfacet
  facet normal 0 0 1
    outer loop
      vertex 6.52254 94.0305 43
      vertex 5.36602 95 43
      vertex 5.96946 93.4775 43
    endloop
  endfacet
  facet normal -0 0 1
    outer loop
      vertex 5 94.634 43
      vertex 5.96946 93.4775 43
      vertex 5.36602 95 43
    endloop
  endfacet
  facet normal 0 0 1
    outer loop
      vertex 5.96946 93.4775 43
      vertex 5 94.634 43
      vertex 5.27254 93.1224 43
    endloop
  endfacet
  facet normal -0 0 1
    outer loop
      vertex 4.5 94.5 43
      vertex 5.27254 93.1224 43
      vertex 5 94.634 43
    endloop
  endfacet
  facet normal 0 0 1
    outer loop
      vertex 4.5 94.5 43
      vertex 4.5 93 43
      vertex 5.27254 93.1224 43
    endloop
  endfacet
  facet normal 0 0 1
    outer loop
      vertex 4 94.634 43
      vertex 4.5 93 43
      vertex 4.5 94.5 43
    endloop
  endfacet
  facet normal 0 0 1
    outer loop
      vertex 2 93 43
      vertex 4 94.634 43
      vertex 3.63397 95 43
    endloop
  endfacet
  facet normal 0 0 1
    outer loop
      vertex 2 93 43
      vertex 3.5 95.5 43
      vertex 2 98 43
    endloop
  endfacet
  facet normal 0 0 1
    outer loop
      vertex 3.5 95.5 43
      vertex 2 93 43
      vertex 3.63397 95 43
    endloop
  endfacet
  facet normal 0 0 1
    outer loop
      vertex 4 94.634 43
      vertex 2 93 43
      vertex 4.5 93 43
    endloop
  endfacet
  facet normal 0 -1 0
    outer loop
      vertex 2 93 2.01
      vertex 4.5 93 43
      vertex 2 93 43
    endloop
  endfacet
  facet normal 0 -1 -0
    outer loop
      vertex 4.5 93 43
      vertex 2 93 2.01
      vertex 4.5 93 2.01
    endloop
  endfacet
  facet normal 1 -0 0
    outer loop
      vertex 7 95.5 43
      vertex 7 98 2.01
      vertex 7 98 43
    endloop
  endfacet
  facet normal 1 0 0
    outer loop
      vertex 7 98 2.01
      vertex 7 95.5 43
      vertex 7 95.5 2.01
    endloop
  endfacet
  facet normal -0.707087 0.707126 0
    outer loop
      vertex 5 94.634 22.5
      vertex 5.36602 95 43
      vertex 5.36602 95 22.5
    endloop
  endfacet
  facet normal -0.707087 0.707126 0
    outer loop
      vertex 5.36602 95 43
      vertex 5 94.634 22.5
      vertex 5 94.634 43
    endloop
  endfacet
  facet normal -0.258865 0.965914 0
    outer loop
      vertex 5 94.634 22.5
      vertex 4.5 94.5 43
      vertex 5 94.634 43
    endloop
  endfacet
  facet normal -0.258865 0.965914 0
    outer loop
      vertex 4.5 94.5 43
      vertex 5 94.634 22.5
      vertex 4.5 94.5 22.5
    endloop
  endfacet
  facet normal -0.965923 0.258829 0
    outer loop
      vertex 5.36602 95 22.5
      vertex 5.5 95.5 43
      vertex 5.5 95.5 22.5
    endloop
  endfacet
  facet normal -0.965923 0.258829 0
    outer loop
      vertex 5.5 95.5 43
      vertex 5.36602 95 22.5
      vertex 5.36602 95 43
    endloop
  endfacet
  facet normal -0.965923 -0.258829 0
    outer loop
      vertex 5.5 95.5 22.5
      vertex 5.36602 96 43
      vertex 5.36602 96 22.5
    endloop
  endfacet
  facet normal -0.965923 -0.258829 0
    outer loop
      vertex 5.36602 96 43
      vertex 5.5 95.5 22.5
      vertex 5.5 95.5 43
    endloop
  endfacet
  facet normal 0.707078 0.707136 0
    outer loop
      vertex 4 94.634 43
      vertex 3.63397 95 22.5
      vertex 3.63397 95 43
    endloop
  endfacet
  facet normal 0.707078 0.707136 0
    outer loop
      vertex 3.63397 95 22.5
      vertex 4 94.634 43
      vertex 4 94.634 22.5
    endloop
  endfacet
  facet normal -0.707087 -0.707126 0
    outer loop
      vertex 5.36602 96 22.5
      vertex 5 96.366 43
      vertex 5 96.366 22.5
    endloop
  endfacet
  facet normal -0.707087 -0.707126 0
    outer loop
      vertex 5 96.366 43
      vertex 5.36602 96 22.5
      vertex 5.36602 96 43
    endloop
  endfacet
  facet normal -0.258865 -0.965914 0
    outer loop
      vertex 4.5 96.5 22.5
      vertex 5 96.366 43
      vertex 4.5 96.5 43
    endloop
  endfacet
  facet normal -0.258865 -0.965914 -0
    outer loop
      vertex 5 96.366 43
      vertex 4.5 96.5 22.5
      vertex 5 96.366 22.5
    endloop
  endfacet
  facet normal 0.707078 -0.707136 0
    outer loop
      vertex 3.63397 96 43
      vertex 4 96.366 22.5
      vertex 4 96.366 43
    endloop
  endfacet
  facet normal 0.707078 -0.707136 0
    outer loop
      vertex 4 96.366 22.5
      vertex 3.63397 96 43
      vertex 3.63397 96 22.5
    endloop
  endfacet
  facet normal 0.258865 0.965914 -0
    outer loop
      vertex 4.5 94.5 22.5
      vertex 4 94.634 43
      vertex 4.5 94.5 43
    endloop
  endfacet
  facet normal 0.258865 0.965914 0
    outer loop
      vertex 4 94.634 43
      vertex 4.5 94.5 22.5
      vertex 4 94.634 22.5
    endloop
  endfacet
  facet normal 0.258865 -0.965914 0
    outer loop
      vertex 4 96.366 22.5
      vertex 4.5 96.5 43
      vertex 4 96.366 43
    endloop
  endfacet
  facet normal 0.258865 -0.965914 0
    outer loop
      vertex 4.5 96.5 43
      vertex 4 96.366 22.5
      vertex 4.5 96.5 22.5
    endloop
  endfacet
  facet normal 0.965928 0.258811 0
    outer loop
      vertex 3.63397 95 43
      vertex 3.5 95.5 22.5
      vertex 3.5 95.5 43
    endloop
  endfacet
  facet normal 0.965928 0.258811 0
    outer loop
      vertex 3.5 95.5 22.5
      vertex 3.63397 95 43
      vertex 3.63397 95 22.5
    endloop
  endfacet
  facet normal 0 0 1
    outer loop
      vertex 5.36602 96 22.5
      vertex 5.36602 95 22.5
      vertex 5.5 95.5 22.5
    endloop
  endfacet
  facet normal 0 0 1
    outer loop
      vertex 5 96.366 22.5
      vertex 5.36602 95 22.5
      vertex 5.36602 96 22.5
    endloop
  endfacet
  facet normal 0 0 1
    outer loop
      vertex 5 96.366 22.5
      vertex 5 94.634 22.5
      vertex 5.36602 95 22.5
    endloop
  endfacet
  facet normal 0 0 1
    outer loop
      vertex 4.5 96.5 22.5
      vertex 5 94.634 22.5
      vertex 5 96.366 22.5
    endloop
  endfacet
  facet normal 0 0 1
    outer loop
      vertex 4.5 96.5 22.5
      vertex 4.5 94.5 22.5
      vertex 5 94.634 22.5
    endloop
  endfacet
  facet normal -0 0 1
    outer loop
      vertex 4 96.366 22.5
      vertex 4.5 94.5 22.5
      vertex 4.5 96.5 22.5
    endloop
  endfacet
  facet normal 0 0 1
    outer loop
      vertex 4 96.366 22.5
      vertex 4 94.634 22.5
      vertex 4.5 94.5 22.5
    endloop
  endfacet
  facet normal -0 0 1
    outer loop
      vertex 3.63397 96 22.5
      vertex 4 94.634 22.5
      vertex 4 96.366 22.5
    endloop
  endfacet
  facet normal 0 0 1
    outer loop
      vertex 3.63397 96 22.5
      vertex 3.63397 95 22.5
      vertex 4 94.634 22.5
    endloop
  endfacet
  facet normal 0 -0 1
    outer loop
      vertex 3.63397 95 22.5
      vertex 3.63397 96 22.5
      vertex 3.5 95.5 22.5
    endloop
  endfacet
  facet normal 0.965928 -0.258811 0
    outer loop
      vertex 3.5 95.5 43
      vertex 3.63397 96 22.5
      vertex 3.63397 96 43
    endloop
  endfacet
  facet normal 0.965928 -0.258811 0
    outer loop
      vertex 3.63397 96 22.5
      vertex 3.5 95.5 43
      vertex 3.5 95.5 22.5
    endloop
  endfacet
  facet normal 0 -1 0
    outer loop
      vertex 9.20096 0 38.75
      vertex 10 0 46
      vertex 0 0 46
    endloop
  endfacet
  facet normal 0 -1 -0
    outer loop
      vertex 10 0 46
      vertex 9.75 0 39.299
      vertex 10 0 39.366
    endloop
  endfacet
  facet normal 0 -1 0
    outer loop
      vertex 10 0 46
      vertex 9.20096 0 38.75
      vertex 9.75 0 39.299
    endloop
  endfacet
  facet normal 0 -1 0
    outer loop
      vertex 0 0 46
      vertex 9 0 38
      vertex 9.20096 0 38.75
    endloop
  endfacet
  facet normal 0 -1 0
    outer loop
      vertex 0 0 46
      vertex 9 0 12
      vertex 9 0 38
    endloop
  endfacet
  facet normal 0 -1 0
    outer loop
      vertex 0 0 0
      vertex 9 0 12
      vertex 0 0 46
    endloop
  endfacet
  facet normal 0 -1 0
    outer loop
      vertex 0 0 0
      vertex 9.20096 0 11.25
      vertex 9 0 12
    endloop
  endfacet
  facet normal 0 -1 0
    outer loop
      vertex 0 0 0
      vertex 9.75 0 10.701
      vertex 9.20096 0 11.25
    endloop
  endfacet
  facet normal 0 -1 0
    outer loop
      vertex 10 0 0
      vertex 9.75 0 10.701
      vertex 0 0 0
    endloop
  endfacet
  facet normal 0 -1 0
    outer loop
      vertex 9.75 0 10.701
      vertex 10 0 0
      vertex 10 0 10.634
    endloop
  endfacet
  facet normal 0 0 1
    outer loop
      vertex 10 100 46
      vertex 2 98 46
      vertex 10 98 46
    endloop
  endfacet
  facet normal 0 0 1
    outer loop
      vertex 2 98 46
      vertex 0 100 46
      vertex 2 2 46
    endloop
  endfacet
  facet normal -0 0 1
    outer loop
      vertex 0 100 46
      vertex 2 98 46
      vertex 10 100 46
    endloop
  endfacet
  facet normal -0 0 1
    outer loop
      vertex 2 2 46
      vertex 10 0 46
      vertex 10 2 46
    endloop
  endfacet
  facet normal 0 0 1
    outer loop
      vertex 2 2 46
      vertex 0 0 46
      vertex 10 0 46
    endloop
  endfacet
  facet normal 0 0 1
    outer loop
      vertex 0 0 46
      vertex 2 2 46
      vertex 0 100 46
    endloop
  endfacet
  facet normal -1 0 0
    outer loop
      vertex 0 85 21
      vertex 0 75.7036 31.497
      vertex 0 76.084 33.4914
    endloop
  endfacet
  facet normal -1 0 0
    outer loop
      vertex 0 74.8391 29.6598
      vertex 0 85 21
      vertex 0 75 21
    endloop
  endfacet
  facet normal -1 0 0
    outer loop
      vertex 0 85 21
      vertex 0 74.8391 29.6598
      vertex 0 75.7036 31.497
    endloop
  endfacet
  facet normal -1 0 0
    outer loop
      vertex 0 75 21
      vertex 0 73.5448 28.0954
      vertex 0 74.8391 29.6598
    endloop
  endfacet
  facet normal -1 0 0
    outer loop
      vertex 0 71.9022 26.9019
      vertex 0 75 21
      vertex 0 73.2366 20.4271
    endloop
  endfacet
  facet normal -1 0 0
    outer loop
      vertex 0 68 25.9
      vertex 0 73.2366 20.4271
      vertex 0 72.1468 18.9271
    endloop
  endfacet
  facet normal -1 0 0
    outer loop
      vertex 0 75 21
      vertex 0 71.9022 26.9019
      vertex 0 73.5448 28.0954
    endloop
  endfacet
  facet normal -1 0 0
    outer loop
      vertex 0 87.8532 18.9271
      vertex 0 100 0
      vertex 0 87.8532 17.0729
    endloop
  endfacet
  facet normal -1 0 0
    outer loop
      vertex 0 100 0
      vertex 0 86.7634 15.5729
      vertex 0 87.8532 17.0729
    endloop
  endfacet
  facet normal -1 0 0
    outer loop
      vertex 0 100 0
      vertex 0 85 15
      vertex 0 86.7634 15.5729
    endloop
  endfacet
  facet normal -1 0 0
    outer loop
      vertex 0 100 0
      vertex 0 75 15
      vertex 0 85 15
    endloop
  endfacet
  facet normal -1 0 0
    outer loop
      vertex 0 100 0
      vertex 0 73.2366 15.5729
      vertex 0 75 15
    endloop
  endfacet
  facet normal -1 0 0
    outer loop
      vertex 0 65.9856 26.1545
      vertex 0 72.1468 18.9271
      vertex 0 72.1468 17.0729
    endloop
  endfacet
  facet normal -1 0 0
    outer loop
      vertex 0 73.2366 20.4271
      vertex 0 70.0144 26.1545
      vertex 0 71.9022 26.9019
    endloop
  endfacet
  facet normal -1 0 0
    outer loop
      vertex 0 73.2366 20.4271
      vertex 0 68 25.9
      vertex 0 70.0144 26.1545
    endloop
  endfacet
  facet normal -1 0 0
    outer loop
      vertex 0 72.1468 18.9271
      vertex 0 65.9856 26.1545
      vertex 0 68 25.9
    endloop
  endfacet
  facet normal -1 0 0
    outer loop
      vertex 0 72.1468 17.0729
      vertex 0 64.0978 26.9019
      vertex 0 65.9856 26.1545
    endloop
  endfacet
  facet normal -1 0 0
    outer loop
      vertex 0 18.7879 11.931
      vertex 0 72.1468 17.0729
      vertex 0 73.2366 15.5729
    endloop
  endfacet
  facet normal -1 -0 0
    outer loop
      vertex 0 72.1468 17.0729
      vertex 0 18.7879 11.931
      vertex 0 64.0978 26.9019
    endloop
  endfacet
  facet normal -1 -0 0
    outer loop
      vertex 0 61.1609 29.6598
      vertex 0 18.7879 15.069
      vertex 0 60.2964 31.497
    endloop
  endfacet
  facet normal -1 0 0
    outer loop
      vertex 0 18.7879 15.069
      vertex 0 61.1609 29.6598
      vertex 0 19.1 13.5
    endloop
  endfacet
  facet normal -1 -0 0
    outer loop
      vertex 0 62.4552 28.0954
      vertex 0 19.1 13.5
      vertex 0 61.1609 29.6598
    endloop
  endfacet
  facet normal -1 -0 0
    outer loop
      vertex 0 64.0978 26.9019
      vertex 0 18.7879 11.931
      vertex 0 62.4552 28.0954
    endloop
  endfacet
  facet normal -1 0 0
    outer loop
      vertex 0 16.569 9.71209
      vertex 0 73.2366 15.5729
      vertex 0 100 0
    endloop
  endfacet
  facet normal -1 0 0
    outer loop
      vertex 0 62.4552 28.0954
      vertex 0 18.7879 11.931
      vertex 0 19.1 13.5
    endloop
  endfacet
  facet normal -1 0 0
    outer loop
      vertex 0 73.2366 15.5729
      vertex 0 17.8991 10.6009
      vertex 0 18.7879 11.931
    endloop
  endfacet
  facet normal -1 0 0
    outer loop
      vertex 0 73.2366 15.5729
      vertex 0 16.569 9.71209
      vertex 0 17.8991 10.6009
    endloop
  endfacet
  facet normal -1 0 0
    outer loop
      vertex 0 0 0
      vertex 0 16.569 9.71209
      vertex 0 100 0
    endloop
  endfacet
  facet normal -1 -0 0
    outer loop
      vertex 0 11.2121 11.931
      vertex 0 0 0
      vertex 0 10.9 13.5
    endloop
  endfacet
  facet normal -1 -0 0
    outer loop
      vertex 0 12.1009 10.6009
      vertex 0 0 0
      vertex 0 11.2121 11.931
    endloop
  endfacet
  facet normal -1 -0 0
    outer loop
      vertex 0 13.431 9.71209
      vertex 0 0 0
      vertex 0 12.1009 10.6009
    endloop
  endfacet
  facet normal -1 -0 0
    outer loop
      vertex 0 15 9.4
      vertex 0 0 0
      vertex 0 13.431 9.71209
    endloop
  endfacet
  facet normal -1 0 0
    outer loop
      vertex 0 16.569 9.71209
      vertex 0 0 0
      vertex 0 15 9.4
    endloop
  endfacet
  facet normal -1 0 0
    outer loop
      vertex 0 100 0
      vertex 0 87.8532 18.9271
      vertex 0 100 46
    endloop
  endfacet
  facet normal -1 0 0
    outer loop
      vertex 0 86.7634 20.4271
      vertex 0 100 46
      vertex 0 87.8532 18.9271
    endloop
  endfacet
  facet normal -1 0 0
    outer loop
      vertex 0 76.084 33.4914
      vertex 0 86.7634 20.4271
      vertex 0 85 21
    endloop
  endfacet
  facet normal -1 0 0
    outer loop
      vertex 0 86.7634 20.4271
      vertex 0 76.084 33.4914
      vertex 0 100 46
    endloop
  endfacet
  facet normal -1 0 0
    outer loop
      vertex 0 75.9565 35.5178
      vertex 0 100 46
      vertex 0 76.084 33.4914
    endloop
  endfacet
  facet normal -1 0 0
    outer loop
      vertex 0 75.3291 37.4488
      vertex 0 100 46
      vertex 0 75.9565 35.5178
    endloop
  endfacet
  facet normal -1 0 0
    outer loop
      vertex 0 74.2412 39.1631
      vertex 0 100 46
      vertex 0 75.3291 37.4488
    endloop
  endfacet
  facet normal -1 0 0
    outer loop
      vertex 0 72.7611 40.553
      vertex 0 100 46
      vertex 0 74.2412 39.1631
    endloop
  endfacet
  facet normal -1 0 0
    outer loop
      vertex 0 70.9818 41.5312
      vertex 0 100 46
      vertex 0 72.7611 40.553
    endloop
  endfacet
  facet normal -1 0 0
    outer loop
      vertex 0 69.0152 42.0361
      vertex 0 100 46
      vertex 0 70.9818 41.5312
    endloop
  endfacet
  facet normal -1 0 0
    outer loop
      vertex 0 66.9848 42.0361
      vertex 0 100 46
      vertex 0 69.0152 42.0361
    endloop
  endfacet
  facet normal -1 -0 0
    outer loop
      vertex 0 60.2964 31.497
      vertex 0 18.7879 15.069
      vertex 0 59.916 33.4914
    endloop
  endfacet
  facet normal -1 0 0
    outer loop
      vertex 0 17.8991 16.3991
      vertex 0 59.916 33.4914
      vertex 0 18.7879 15.069
    endloop
  endfacet
  facet normal -1 -0 0
    outer loop
      vertex 0 59.916 33.4914
      vertex 0 17.8991 16.3991
      vertex 0 60.0435 35.5178
    endloop
  endfacet
  facet normal -1 0 0
    outer loop
      vertex 0 16.569 17.2879
      vertex 0 60.0435 35.5178
      vertex 0 17.8991 16.3991
    endloop
  endfacet
  facet normal -1 0 0
    outer loop
      vertex 0 0 46
      vertex 0 60.0435 35.5178
      vertex 0 16.569 17.2879
    endloop
  endfacet
  facet normal -1 0 0
    outer loop
      vertex 0 60.0435 35.5178
      vertex 0 0 46
      vertex 0 60.6709 37.4488
    endloop
  endfacet
  facet normal -1 0 0
    outer loop
      vertex 0 60.6709 37.4488
      vertex 0 0 46
      vertex 0 61.7588 39.1631
    endloop
  endfacet
  facet normal -1 0 0
    outer loop
      vertex 0 61.7588 39.1631
      vertex 0 0 46
      vertex 0 63.2389 40.553
    endloop
  endfacet
  facet normal -1 0 0
    outer loop
      vertex 0 0 46
      vertex 0 16.569 17.2879
      vertex 0 15 17.6
    endloop
  endfacet
  facet normal -1 0 0
    outer loop
      vertex 0 0 46
      vertex 0 15 17.6
      vertex 0 13.431 17.2879
    endloop
  endfacet
  facet normal -1 0 0
    outer loop
      vertex 0 0 0
      vertex 0 11.2121 15.069
      vertex 0 10.9 13.5
    endloop
  endfacet
  facet normal -1 0 0
    outer loop
      vertex 0 0 46
      vertex 0 11.2121 15.069
      vertex 0 0 0
    endloop
  endfacet
  facet normal -1 0 0
    outer loop
      vertex 0 66.9848 42.0361
      vertex 0 0 46
      vertex 0 100 46
    endloop
  endfacet
  facet normal -1 0 0
    outer loop
      vertex 0 65.0182 41.5312
      vertex 0 0 46
      vertex 0 66.9848 42.0361
    endloop
  endfacet
  facet normal -1 0 0
    outer loop
      vertex 0 63.2389 40.553
      vertex 0 0 46
      vertex 0 65.0182 41.5312
    endloop
  endfacet
  facet normal -1 0 0
    outer loop
      vertex 0 12.1009 16.3991
      vertex 0 0 46
      vertex 0 13.431 17.2879
    endloop
  endfacet
  facet normal -1 0 0
    outer loop
      vertex 0 11.2121 15.069
      vertex 0 0 46
      vertex 0 12.1009 16.3991
    endloop
  endfacet
  facet normal 0 1 0
    outer loop
      vertex 9.75 100 39.299
      vertex 10 100 46
      vertex 10 100 39.366
    endloop
  endfacet
  facet normal 0 1 0
    outer loop
      vertex 9.20096 100 38.75
      vertex 10 100 46
      vertex 9.75 100 39.299
    endloop
  endfacet
  facet normal 0 1 0
    outer loop
      vertex 10 100 46
      vertex 9.20096 100 38.75
      vertex 0 100 46
    endloop
  endfacet
  facet normal 0 1 -0
    outer loop
      vertex 9 100 38
      vertex 0 100 46
      vertex 9.20096 100 38.75
    endloop
  endfacet
  facet normal 0 1 -0
    outer loop
      vertex 9 100 12
      vertex 0 100 46
      vertex 9 100 38
    endloop
  endfacet
  facet normal 0 1 -0
    outer loop
      vertex 10 100 0
      vertex 9.75 100 10.701
      vertex 10 100 10.634
    endloop
  endfacet
  facet normal 0 1 0
    outer loop
      vertex 0 100 0
      vertex 9.75 100 10.701
      vertex 10 100 0
    endloop
  endfacet
  facet normal 0 1 0
    outer loop
      vertex 9.75 100 10.701
      vertex 0 100 0
      vertex 9.20096 100 11.25
    endloop
  endfacet
  facet normal 0 1 0
    outer loop
      vertex 9.20096 100 11.25
      vertex 0 100 0
      vertex 9 100 12
    endloop
  endfacet
  facet normal 0 1 0
    outer loop
      vertex 9 100 12
      vertex 0 100 0
      vertex 0 100 46
    endloop
  endfacet
  facet normal 0 0 1
    outer loop
      vertex 10 5 2.01
      vertex 7 4.5 2.01
      vertex 10 2 2.01
    endloop
  endfacet
  facet normal 0 -0 1
    outer loop
      vertex 7 4.5 2.01
      vertex 10 5 2.01
      vertex 6.92081 5 2.01
    endloop
  endfacet
  facet normal 0 0 1
    outer loop
      vertex 10 2 2.01
      vertex 7 4.5 2.01
      vertex 7 2 2.01
    endloop
  endfacet
  facet normal 0 0 1
    outer loop
      vertex 10 32 2.01
      vertex 4.5 7 2.01
      vertex 10 7 2.01
    endloop
  endfacet
  facet normal -0 0 1
    outer loop
      vertex 4 32 2.01
      vertex 4.5 7 2.01
      vertex 10 32 2.01
    endloop
  endfacet
  facet normal 0 0 1
    outer loop
      vertex 4.5 7 2.01
      vertex 4 32 2.01
      vertex 4 7 2.01
    endloop
  endfacet
  facet normal 0 0 1
    outer loop
      vertex 7 95.5 2.01
      vertex 10 98 2.01
      vertex 7 98 2.01
    endloop
  endfacet
  facet normal 0 0 1
    outer loop
      vertex 6.87764 94.7275 2.01
      vertex 10 98 2.01
      vertex 7 95.5 2.01
    endloop
  endfacet
  facet normal 0 0 1
    outer loop
      vertex 6.52254 94.0305 2.01
      vertex 10 98 2.01
      vertex 6.87764 94.7275 2.01
    endloop
  endfacet
  facet normal 0 0 1
    outer loop
      vertex 10 98 2.01
      vertex 6.52254 94.0305 2.01
      vertex 10 34 2.01
    endloop
  endfacet
  facet normal -0 0 1
    outer loop
      vertex 5.96946 93.4775 2.01
      vertex 10 34 2.01
      vertex 6.52254 94.0305 2.01
    endloop
  endfacet
  facet normal -0 0 1
    outer loop
      vertex 5.27254 93.1224 2.01
      vertex 10 34 2.01
      vertex 5.96946 93.4775 2.01
    endloop
  endfacet
  facet normal -0 0 1
    outer loop
      vertex 4.5 93 2.01
      vertex 10 34 2.01
      vertex 5.27254 93.1224 2.01
    endloop
  endfacet
  facet normal 0 0 1
    outer loop
      vertex 2 34 2.01
      vertex 4.5 93 2.01
      vertex 2 93 2.01
    endloop
  endfacet
  facet normal 0 0 1
    outer loop
      vertex 4.5 93 2.01
      vertex 2 34 2.01
      vertex 10 34 2.01
    endloop
  endfacet
  facet normal 0 -0.831454 0.555594
    outer loop
      vertex 0 17.8991 10.6009
      vertex 2 18.7879 11.931
      vertex 0 18.7879 11.931
    endloop
  endfacet
  facet normal 0 -0.831454 0.555594
    outer loop
      vertex 2 18.7879 11.931
      vertex 0 17.8991 10.6009
      vertex 2 17.8991 10.6009
    endloop
  endfacet
  facet normal -0 0.555599 0.831451
    outer loop
      vertex 0 13.431 9.71209
      vertex 2 12.1009 10.6009
      vertex 2 13.431 9.71209
    endloop
  endfacet
  facet normal 0 0.555599 0.831451
    outer loop
      vertex 2 12.1009 10.6009
      vertex 0 13.431 9.71209
      vertex 0 12.1009 10.6009
    endloop
  endfacet
  facet normal 0 -0.980785 -0.195094
    outer loop
      vertex 0 19.1 13.5
      vertex 2 18.7879 15.069
      vertex 0 18.7879 15.069
    endloop
  endfacet
  facet normal 0 -0.980785 -0.195094
    outer loop
      vertex 2 18.7879 15.069
      vertex 0 19.1 13.5
      vertex 2 19.1 13.5
    endloop
  endfacet
  facet normal 0 -0.555594 -0.831454
    outer loop
      vertex 0 16.569 17.2879
      vertex 2 17.8991 16.3991
      vertex 2 16.569 17.2879
    endloop
  endfacet
  facet normal -0 -0.555594 -0.831454
    outer loop
      vertex 2 17.8991 16.3991
      vertex 0 16.569 17.2879
      vertex 0 17.8991 16.3991
    endloop
  endfacet
  facet normal 0 -0.195088 0.980786
    outer loop
      vertex 0 16.569 9.71209
      vertex 2 15 9.4
      vertex 2 16.569 9.71209
    endloop
  endfacet
  facet normal 0 -0.195088 0.980786
    outer loop
      vertex 2 15 9.4
      vertex 0 16.569 9.71209
      vertex 0 15 9.4
    endloop
  endfacet
  facet normal 0 -0.195094 -0.980785
    outer loop
      vertex 0 15 17.6
      vertex 2 16.569 17.2879
      vertex 2 15 17.6
    endloop
  endfacet
  facet normal -0 -0.195094 -0.980785
    outer loop
      vertex 2 16.569 17.2879
      vertex 0 15 17.6
      vertex 0 16.569 17.2879
    endloop
  endfacet
  facet normal 0 0.980785 0.195094
    outer loop
      vertex 2 11.2121 11.931
      vertex 0 10.9 13.5
      vertex 2 10.9 13.5
    endloop
  endfacet
  facet normal 0 0.980785 0.195094
    outer loop
      vertex 0 10.9 13.5
      vertex 2 11.2121 11.931
      vertex 0 11.2121 11.931
    endloop
  endfacet
  facet normal 0 0.195094 -0.980785
    outer loop
      vertex 0 13.431 17.2879
      vertex 2 15 17.6
      vertex 2 13.431 17.2879
    endloop
  endfacet
  facet normal 0 0.195094 -0.980785
    outer loop
      vertex 2 15 17.6
      vertex 0 13.431 17.2879
      vertex 0 15 17.6
    endloop
  endfacet
  facet normal 0 -0.980785 0.195094
    outer loop
      vertex 0 18.7879 11.931
      vertex 2 19.1 13.5
      vertex 0 19.1 13.5
    endloop
  endfacet
  facet normal 0 -0.980785 0.195094
    outer loop
      vertex 2 19.1 13.5
      vertex 0 18.7879 11.931
      vertex 2 18.7879 11.931
    endloop
  endfacet
  facet normal 0 0.980785 -0.195094
    outer loop
      vertex 2 10.9 13.5
      vertex 0 11.2121 15.069
      vertex 2 11.2121 15.069
    endloop
  endfacet
  facet normal 0 0.980785 -0.195094
    outer loop
      vertex 0 11.2121 15.069
      vertex 2 10.9 13.5
      vertex 0 10.9 13.5
    endloop
  endfacet
  facet normal 0 -0.555599 0.831451
    outer loop
      vertex 0 17.8991 10.6009
      vertex 2 16.569 9.71209
      vertex 2 17.8991 10.6009
    endloop
  endfacet
  facet normal 0 -0.555599 0.831451
    outer loop
      vertex 2 16.569 9.71209
      vertex 0 17.8991 10.6009
      vertex 0 16.569 9.71209
    endloop
  endfacet
  facet normal -0 0.195088 0.980786
    outer loop
      vertex 0 15 9.4
      vertex 2 13.431 9.71209
      vertex 2 15 9.4
    endloop
  endfacet
  facet normal 0 0.195088 0.980786
    outer loop
      vertex 2 13.431 9.71209
      vertex 0 15 9.4
      vertex 0 13.431 9.71209
    endloop
  endfacet
  facet normal 0 0.831454 0.555594
    outer loop
      vertex 2 12.1009 10.6009
      vertex 0 11.2121 11.931
      vertex 2 11.2121 11.931
    endloop
  endfacet
  facet normal 0 0.831454 0.555594
    outer loop
      vertex 0 11.2121 11.931
      vertex 2 12.1009 10.6009
      vertex 0 12.1009 10.6009
    endloop
  endfacet
  facet normal 0 0.555594 -0.831454
    outer loop
      vertex 0 12.1009 16.3991
      vertex 2 13.431 17.2879
      vertex 2 12.1009 16.3991
    endloop
  endfacet
  facet normal 0 0.555594 -0.831454
    outer loop
      vertex 2 13.431 17.2879
      vertex 0 12.1009 16.3991
      vertex 0 13.431 17.2879
    endloop
  endfacet
  facet normal 0 -0.831454 -0.555594
    outer loop
      vertex 0 18.7879 15.069
      vertex 2 17.8991 16.3991
      vertex 0 17.8991 16.3991
    endloop
  endfacet
  facet normal 0 -0.831454 -0.555594
    outer loop
      vertex 2 17.8991 16.3991
      vertex 0 18.7879 15.069
      vertex 2 18.7879 15.069
    endloop
  endfacet
  facet normal 0 0.831454 -0.555594
    outer loop
      vertex 2 11.2121 15.069
      vertex 0 12.1009 16.3991
      vertex 2 12.1009 16.3991
    endloop
  endfacet
  facet normal 0 0.831454 -0.555594
    outer loop
      vertex 0 12.1009 16.3991
      vertex 2 11.2121 15.069
      vertex 0 11.2121 15.069
    endloop
  endfacet
  facet normal 0 0.770485 0.637458
    outer loop
      vertex 2 62.4552 28.0954
      vertex 0 61.1609 29.6598
      vertex 2 61.1609 29.6598
    endloop
  endfacet
  facet normal 0 0.770485 0.637458
    outer loop
      vertex 0 61.1609 29.6598
      vertex 2 62.4552 28.0954
      vertex 0 62.4552 28.0954
    endloop
  endfacet
  facet normal 0 -0.770485 0.637458
    outer loop
      vertex 0 73.5448 28.0954
      vertex 2 74.8391 29.6598
      vertex 0 74.8391 29.6598
    endloop
  endfacet
  facet normal 0 -0.770485 0.637458
    outer loop
      vertex 2 74.8391 29.6598
      vertex 0 73.5448 28.0954
      vertex 2 73.5448 28.0954
    endloop
  endfacet
  facet normal 0 -0.125344 0.992113
    outer loop
      vertex 0 70.0144 26.1545
      vertex 2 68 25.9
      vertex 2 70.0144 26.1545
    endloop
  endfacet
  facet normal 0 -0.125344 0.992113
    outer loop
      vertex 2 68 25.9
      vertex 0 70.0144 26.1545
      vertex 0 68 25.9
    endloop
  endfacet
  facet normal 0 -0.684545 -0.72897
    outer loop
      vertex 0 72.7611 40.553
      vertex 2 74.2412 39.1631
      vertex 2 72.7611 40.553
    endloop
  endfacet
  facet normal -0 -0.684545 -0.72897
    outer loop
      vertex 2 74.2412 39.1631
      vertex 0 72.7611 40.553
      vertex 0 74.2412 39.1631
    endloop
  endfacet
  facet normal 0 0.248673 -0.968588
    outer loop
      vertex 0 65.0182 41.5312
      vertex 2 66.9848 42.0361
      vertex 2 65.0182 41.5312
    endloop
  endfacet
  facet normal 0 0.248673 -0.968588
    outer loop
      vertex 2 66.9848 42.0361
      vertex 0 65.0182 41.5312
      vertex 0 66.9848 42.0361
    endloop
  endfacet
  facet normal -0 0.587811 0.808998
    outer loop
      vertex 0 64.0978 26.9019
      vertex 2 62.4552 28.0954
      vertex 2 64.0978 26.9019
    endloop
  endfacet
  facet normal 0 0.587811 0.808998
    outer loop
      vertex 2 62.4552 28.0954
      vertex 0 64.0978 26.9019
      vertex 0 62.4552 28.0954
    endloop
  endfacet
  facet normal -0 0.368111 0.929782
    outer loop
      vertex 0 65.9856 26.1545
      vertex 2 64.0978 26.9019
      vertex 2 65.9856 26.1545
    endloop
  endfacet
  facet normal 0 0.368111 0.929782
    outer loop
      vertex 2 64.0978 26.9019
      vertex 0 65.9856 26.1545
      vertex 0 64.0978 26.9019
    endloop
  endfacet
  facet normal 0 0.904831 0.425771
    outer loop
      vertex 2 61.1609 29.6598
      vertex 0 60.2964 31.497
      vertex 2 60.2964 31.497
    endloop
  endfacet
  facet normal 0 0.904831 0.425771
    outer loop
      vertex 0 60.2964 31.497
      vertex 2 61.1609 29.6598
      vertex 0 61.1609 29.6598
    endloop
  endfacet
  facet normal 0 -0.904831 0.425771
    outer loop
      vertex 0 74.8391 29.6598
      vertex 2 75.7036 31.497
      vertex 0 75.7036 31.497
    endloop
  endfacet
  facet normal 0 -0.904831 0.425771
    outer loop
      vertex 2 75.7036 31.497
      vertex 0 74.8391 29.6598
      vertex 2 74.8391 29.6598
    endloop
  endfacet
  facet normal 0 0.844334 -0.535817
    outer loop
      vertex 2 60.6709 37.4488
      vertex 0 61.7588 39.1631
      vertex 2 61.7588 39.1631
    endloop
  endfacet
  facet normal 0 0.844334 -0.535817
    outer loop
      vertex 0 61.7588 39.1631
      vertex 2 60.6709 37.4488
      vertex 0 60.6709 37.4488
    endloop
  endfacet
  facet normal 0 -0.368111 0.929782
    outer loop
      vertex 0 71.9022 26.9019
      vertex 2 70.0144 26.1545
      vertex 2 71.9022 26.9019
    endloop
  endfacet
  facet normal 0 -0.368111 0.929782
    outer loop
      vertex 2 70.0144 26.1545
      vertex 0 71.9022 26.9019
      vertex 0 70.0144 26.1545
    endloop
  endfacet
  facet normal -0 0.125344 0.992113
    outer loop
      vertex 0 68 25.9
      vertex 2 65.9856 26.1545
      vertex 2 68 25.9
    endloop
  endfacet
  facet normal 0 0.125344 0.992113
    outer loop
      vertex 2 65.9856 26.1545
      vertex 0 68 25.9
      vertex 0 65.9856 26.1545
    endloop
  endfacet
  facet normal 0 0.951059 -0.309008
    outer loop
      vertex 2 60.0435 35.5178
      vertex 0 60.6709 37.4488
      vertex 2 60.6709 37.4488
    endloop
  endfacet
  facet normal 0 0.951059 -0.309008
    outer loop
      vertex 0 60.6709 37.4488
      vertex 2 60.0435 35.5178
      vertex 0 60.0435 35.5178
    endloop
  endfacet
  facet normal 0 -0.998026 -0.0627953
    outer loop
      vertex 0 76.084 33.4914
      vertex 2 75.9565 35.5178
      vertex 0 75.9565 35.5178
    endloop
  endfacet
  facet normal 0 -0.998026 -0.0627953
    outer loop
      vertex 2 75.9565 35.5178
      vertex 0 76.084 33.4914
      vertex 2 76.084 33.4914
    endloop
  endfacet
  facet normal 0 -0.844334 -0.535817
    outer loop
      vertex 0 75.3291 37.4488
      vertex 2 74.2412 39.1631
      vertex 0 74.2412 39.1631
    endloop
  endfacet
  facet normal 0 -0.844334 -0.535817
    outer loop
      vertex 2 74.2412 39.1631
      vertex 0 75.3291 37.4488
      vertex 2 75.3291 37.4488
    endloop
  endfacet
  facet normal 0 -0.951059 -0.309008
    outer loop
      vertex 0 75.9565 35.5178
      vertex 2 75.3291 37.4488
      vertex 0 75.3291 37.4488
    endloop
  endfacet
  facet normal 0 -0.951059 -0.309008
    outer loop
      vertex 2 75.3291 37.4488
      vertex 0 75.9565 35.5178
      vertex 2 75.9565 35.5178
    endloop
  endfacet
  facet normal 0 0.982292 0.187357
    outer loop
      vertex 2 60.2964 31.497
      vertex 0 59.916 33.4914
      vertex 2 59.916 33.4914
    endloop
  endfacet
  facet normal 0 0.982292 0.187357
    outer loop
      vertex 0 59.916 33.4914
      vertex 2 60.2964 31.497
      vertex 0 60.2964 31.497
    endloop
  endfacet
  facet normal 0 0.684545 -0.72897
    outer loop
      vertex 0 61.7588 39.1631
      vertex 2 63.2389 40.553
      vertex 2 61.7588 39.1631
    endloop
  endfacet
  facet normal 0 0.684545 -0.72897
    outer loop
      vertex 2 63.2389 40.553
      vertex 0 61.7588 39.1631
      vertex 0 63.2389 40.553
    endloop
  endfacet
  facet normal 0 -0.481762 -0.876302
    outer loop
      vertex 0 70.9818 41.5312
      vertex 2 72.7611 40.553
      vertex 2 70.9818 41.5312
    endloop
  endfacet
  facet normal -0 -0.481762 -0.876302
    outer loop
      vertex 2 72.7611 40.553
      vertex 0 70.9818 41.5312
      vertex 0 72.7611 40.553
    endloop
  endfacet
  facet normal 0 0.998026 -0.0627953
    outer loop
      vertex 2 59.916 33.4914
      vertex 0 60.0435 35.5178
      vertex 2 60.0435 35.5178
    endloop
  endfacet
  facet normal 0 0.998026 -0.0627953
    outer loop
      vertex 0 60.0435 35.5178
      vertex 2 59.916 33.4914
      vertex 0 59.916 33.4914
    endloop
  endfacet
  facet normal 0 0 -1
    outer loop
      vertex 0 66.9848 42.0361
      vertex 2 69.0152 42.0361
      vertex 2 66.9848 42.0361
    endloop
  endfacet
  facet normal -0 0 -1
    outer loop
      vertex 2 69.0152 42.0361
      vertex 0 66.9848 42.0361
      vertex 0 69.0152 42.0361
    endloop
  endfacet
  facet normal 0 -0.982292 0.187357
    outer loop
      vertex 0 75.7036 31.497
      vertex 2 76.084 33.4914
      vertex 0 76.084 33.4914
    endloop
  endfacet
  facet normal 0 -0.982292 0.187357
    outer loop
      vertex 2 76.084 33.4914
      vertex 0 75.7036 31.497
      vertex 2 75.7036 31.497
    endloop
  endfacet
  facet normal 0 -0.587811 0.808998
    outer loop
      vertex 0 73.5448 28.0954
      vertex 2 71.9022 26.9019
      vertex 2 73.5448 28.0954
    endloop
  endfacet
  facet normal 0 -0.587811 0.808998
    outer loop
      vertex 2 71.9022 26.9019
      vertex 0 73.5448 28.0954
      vertex 0 71.9022 26.9019
    endloop
  endfacet
  facet normal 0 0.481762 -0.876302
    outer loop
      vertex 0 63.2389 40.553
      vertex 2 65.0182 41.5312
      vertex 2 63.2389 40.553
    endloop
  endfacet
  facet normal 0 0.481762 -0.876302
    outer loop
      vertex 2 65.0182 41.5312
      vertex 0 63.2389 40.553
      vertex 0 65.0182 41.5312
    endloop
  endfacet
  facet normal 0 -0.248673 -0.968588
    outer loop
      vertex 0 69.0152 42.0361
      vertex 2 70.9818 41.5312
      vertex 2 69.0152 42.0361
    endloop
  endfacet
  facet normal -0 -0.248673 -0.968588
    outer loop
      vertex 2 70.9818 41.5312
      vertex 0 69.0152 42.0361
      vertex 0 70.9818 41.5312
    endloop
  endfacet
  facet normal 0 -0.308986 -0.951067
    outer loop
      vertex 0 85 21
      vertex 2 86.7634 20.4271
      vertex 2 85 21
    endloop
  endfacet
  facet normal -0 -0.308986 -0.951067
    outer loop
      vertex 2 86.7634 20.4271
      vertex 0 85 21
      vertex 0 86.7634 20.4271
    endloop
  endfacet
  facet normal 0 0.308986 -0.951067
    outer loop
      vertex 0 73.2366 20.4271
      vertex 2 75 21
      vertex 2 73.2366 20.4271
    endloop
  endfacet
  facet normal 0 0.308986 -0.951067
    outer loop
      vertex 2 75 21
      vertex 0 73.2366 20.4271
      vertex 0 75 21
    endloop
  endfacet
  facet normal -0 0.308986 0.951067
    outer loop
      vertex 0 75 15
      vertex 2 73.2366 15.5729
      vertex 2 75 15
    endloop
  endfacet
  facet normal 0 0.308986 0.951067
    outer loop
      vertex 2 73.2366 15.5729
      vertex 0 75 15
      vertex 0 73.2366 15.5729
    endloop
  endfacet
  facet normal 0 0.809021 0.58778
    outer loop
      vertex 2 73.2366 15.5729
      vertex 0 72.1468 17.0729
      vertex 2 72.1468 17.0729
    endloop
  endfacet
  facet normal 0 0.809021 0.58778
    outer loop
      vertex 0 72.1468 17.0729
      vertex 2 73.2366 15.5729
      vertex 0 73.2366 15.5729
    endloop
  endfacet
  facet normal 0 0 -1
    outer loop
      vertex 0 75 21
      vertex 2 85 21
      vertex 2 75 21
    endloop
  endfacet
  facet normal -0 0 -1
    outer loop
      vertex 2 85 21
      vertex 0 75 21
      vertex 0 85 21
    endloop
  endfacet
  facet normal -0 0 1
    outer loop
      vertex 0 85 15
      vertex 2 75 15
      vertex 2 85 15
    endloop
  endfacet
  facet normal 0 0 1
    outer loop
      vertex 2 75 15
      vertex 0 85 15
      vertex 0 75 15
    endloop
  endfacet
  facet normal 0 0.809021 -0.58778
    outer loop
      vertex 2 72.1468 18.9271
      vertex 0 73.2366 20.4271
      vertex 2 73.2366 20.4271
    endloop
  endfacet
  facet normal 0 0.809021 -0.58778
    outer loop
      vertex 0 73.2366 20.4271
      vertex 2 72.1468 18.9271
      vertex 0 72.1468 18.9271
    endloop
  endfacet
  facet normal 0 -1 0
    outer loop
      vertex 0 87.8532 17.0729
      vertex 2 87.8532 18.9271
      vertex 0 87.8532 18.9271
    endloop
  endfacet
  facet normal 0 -1 -0
    outer loop
      vertex 2 87.8532 18.9271
      vertex 0 87.8532 17.0729
      vertex 2 87.8532 17.0729
    endloop
  endfacet
  facet normal 0 -0.809021 -0.58778
    outer loop
      vertex 0 87.8532 18.9271
      vertex 2 86.7634 20.4271
      vertex 0 86.7634 20.4271
    endloop
  endfacet
  facet normal 0 -0.809021 -0.58778
    outer loop
      vertex 2 86.7634 20.4271
      vertex 0 87.8532 18.9271
      vertex 2 87.8532 18.9271
    endloop
  endfacet
  facet normal 0 1 -0
    outer loop
      vertex 2 72.1468 17.0729
      vertex 0 72.1468 18.9271
      vertex 2 72.1468 18.9271
    endloop
  endfacet
  facet normal 0 1 0
    outer loop
      vertex 0 72.1468 18.9271
      vertex 2 72.1468 17.0729
      vertex 0 72.1468 17.0729
    endloop
  endfacet
  facet normal 0 -0.809021 0.58778
    outer loop
      vertex 0 86.7634 15.5729
      vertex 2 87.8532 17.0729
      vertex 0 87.8532 17.0729
    endloop
  endfacet
  facet normal 0 -0.809021 0.58778
    outer loop
      vertex 2 87.8532 17.0729
      vertex 0 86.7634 15.5729
      vertex 2 86.7634 15.5729
    endloop
  endfacet
  facet normal 0 -0.308986 0.951067
    outer loop
      vertex 0 86.7634 15.5729
      vertex 2 85 15
      vertex 2 86.7634 15.5729
    endloop
  endfacet
  facet normal 0 -0.308986 0.951067
    outer loop
      vertex 2 85 15
      vertex 0 86.7634 15.5729
      vertex 0 85 15
    endloop
  endfacet
  facet normal 1 0 0
    outer loop
      vertex 10 2 10.634
      vertex 10 0 10.634
      vertex 10 2 2.01
    endloop
  endfacet
  facet normal 1 0 0
    outer loop
      vertex 10 7 8
      vertex 10 5 8
      vertex 10 7 2.01
    endloop
  endfacet
  facet normal 1 0 0
    outer loop
      vertex 10 34 8
      vertex 10 32 8
      vertex 10 34 2.01
    endloop
  endfacet
  facet normal 1 0 0
    outer loop
      vertex 10 98 2.01
      vertex 10 100 10.634
      vertex 10 98 10.634
    endloop
  endfacet
  facet normal 1 0 0
    outer loop
      vertex 10 100 10.634
      vertex 10 98 2.01
      vertex 10 100 0
    endloop
  endfacet
  facet normal 1 -0 0
    outer loop
      vertex 10 34 2.01
      vertex 10 100 0
      vertex 10 98 2.01
    endloop
  endfacet
  facet normal 1 0 0
    outer loop
      vertex 10 32 2.01
      vertex 10 34 2.01
      vertex 10 32 8
    endloop
  endfacet
  facet normal 1 0 0
    outer loop
      vertex 10 0 0
      vertex 10 34 2.01
      vertex 10 32 2.01
    endloop
  endfacet
  facet normal 1 0 0
    outer loop
      vertex 10 0 0
      vertex 10 32 2.01
      vertex 10 7 2.01
    endloop
  endfacet
  facet normal 1 0 0
    outer loop
      vertex 10 5 2.01
      vertex 10 7 2.01
      vertex 10 5 8
    endloop
  endfacet
  facet normal 1 0 0
    outer loop
      vertex 10 0 0
      vertex 10 7 2.01
      vertex 10 5 2.01
    endloop
  endfacet
  facet normal 1 0 0
    outer loop
      vertex 10 0 0
      vertex 10 5 2.01
      vertex 10 2 2.01
    endloop
  endfacet
  facet normal 1 0 0
    outer loop
      vertex 10 34 2.01
      vertex 10 0 0
      vertex 10 100 0
    endloop
  endfacet
  facet normal 1 0 0
    outer loop
      vertex 10 0 0
      vertex 10 2 2.01
      vertex 10 0 10.634
    endloop
  endfacet
  facet normal 1 -0 0
    outer loop
      vertex 10 98 46
      vertex 10 100 39.366
      vertex 10 100 46
    endloop
  endfacet
  facet normal 1 0 0
    outer loop
      vertex 10 100 39.366
      vertex 10 98 46
      vertex 10 98 39.366
    endloop
  endfacet
  facet normal 1 -0 0
    outer loop
      vertex 10 0 46
      vertex 10 2 39.366
      vertex 10 2 46
    endloop
  endfacet
  facet normal 1 0 0
    outer loop
      vertex 10 2 39.366
      vertex 10 0 46
      vertex 10 0 39.366
    endloop
  endfacet
endsolid OpenSCAD_Model
