solid OpenSCAD_Model
  facet normal -0 0 1
    outer loop
      vertex 98 54.25 6
      vertex 100 38.25 6
      vertex 100 54.25 6
    endloop
  endfacet
  facet normal 0 0 1
    outer loop
      vertex 100 38.25 6
      vertex 98 54.25 6
      vertex 98 38.25 6
    endloop
  endfacet
  facet normal 0 -1 0
    outer loop
      vertex 98 54.25 6
      vertex 100 54.25 10
      vertex 98 54.25 10
    endloop
  endfacet
  facet normal 0 -1 -0
    outer loop
      vertex 100 54.25 10
      vertex 98 54.25 6
      vertex 100 54.25 6
    endloop
  endfacet
  facet normal 0 1 -0
    outer loop
      vertex 100 38.25 6
      vertex 98 38.25 10
      vertex 100 38.25 10
    endloop
  endfacet
  facet normal 0 1 0
    outer loop
      vertex 98 38.25 10
      vertex 100 38.25 6
      vertex 98 38.25 6
    endloop
  endfacet
  facet normal -0 0 1
    outer loop
      vertex 98 72.5 6
      vertex 100 57.5 6
      vertex 100 72.5 6
    endloop
  endfacet
  facet normal 0 0 1
    outer loop
      vertex 100 57.5 6
      vertex 98 72.5 6
      vertex 98 57.5 6
    endloop
  endfacet
  facet normal 0 -1 0
    outer loop
      vertex 98 72.5 6
      vertex 100 72.5 10
      vertex 98 72.5 10
    endloop
  endfacet
  facet normal 0 -1 -0
    outer loop
      vertex 100 72.5 10
      vertex 98 72.5 6
      vertex 100 72.5 6
    endloop
  endfacet
  facet normal 0 1 -0
    outer loop
      vertex 100 57.5 6
      vertex 98 57.5 10
      vertex 100 57.5 10
    endloop
  endfacet
  facet normal 0 1 0
    outer loop
      vertex 98 57.5 10
      vertex 100 57.5 6
      vertex 98 57.5 6
    endloop
  endfacet
  facet normal -0 0 1
    outer loop
      vertex 98 90.5 6
      vertex 100 75.5 6
      vertex 100 90.5 6
    endloop
  endfacet
  facet normal 0 0 1
    outer loop
      vertex 100 75.5 6
      vertex 98 90.5 6
      vertex 98 75.5 6
    endloop
  endfacet
  facet normal 0 -1 0
    outer loop
      vertex 98 90.5 6
      vertex 100 90.5 10
      vertex 98 90.5 10
    endloop
  endfacet
  facet normal 0 -1 -0
    outer loop
      vertex 100 90.5 10
      vertex 98 90.5 6
      vertex 100 90.5 6
    endloop
  endfacet
  facet normal 0 1 -0
    outer loop
      vertex 100 75.5 6
      vertex 98 75.5 10
      vertex 100 75.5 10
    endloop
  endfacet
  facet normal 0 1 0
    outer loop
      vertex 98 75.5 10
      vertex 100 75.5 6
      vertex 98 75.5 6
    endloop
  endfacet
  facet normal 1 0 0
    outer loop
      vertex 100 38.25 10
      vertex 100 0 10
      vertex 100 38.25 6
    endloop
  endfacet
  facet normal 1 0 0
    outer loop
      vertex 100 57.5 10
      vertex 100 54.25 10
      vertex 100 57.5 6
    endloop
  endfacet
  facet normal 1 0 0
    outer loop
      vertex 100 75.5 10
      vertex 100 72.5 10
      vertex 100 75.5 6
    endloop
  endfacet
  facet normal 1 0 0
    outer loop
      vertex 100 90.5 6
      vertex 100 100 10
      vertex 100 90.5 10
    endloop
  endfacet
  facet normal 1 0 0
    outer loop
      vertex 100 100 10
      vertex 100 90.5 6
      vertex 100 100 0
    endloop
  endfacet
  facet normal 1 -0 0
    outer loop
      vertex 100 75.5 6
      vertex 100 100 0
      vertex 100 90.5 6
    endloop
  endfacet
  facet normal 1 0 0
    outer loop
      vertex 100 72.5 6
      vertex 100 75.5 6
      vertex 100 72.5 10
    endloop
  endfacet
  facet normal 1 -0 0
    outer loop
      vertex 100 72.5 6
      vertex 100 100 0
      vertex 100 75.5 6
    endloop
  endfacet
  facet normal 1 -0 0
    outer loop
      vertex 100 57.5 6
      vertex 100 100 0
      vertex 100 72.5 6
    endloop
  endfacet
  facet normal 1 0 0
    outer loop
      vertex 100 54.25 6
      vertex 100 57.5 6
      vertex 100 54.25 10
    endloop
  endfacet
  facet normal 1 -0 0
    outer loop
      vertex 100 54.25 6
      vertex 100 100 0
      vertex 100 57.5 6
    endloop
  endfacet
  facet normal 1 0 0
    outer loop
      vertex 100 0 0
      vertex 100 54.25 6
      vertex 100 38.25 6
    endloop
  endfacet
  facet normal 1 0 0
    outer loop
      vertex 100 54.25 6
      vertex 100 0 0
      vertex 100 100 0
    endloop
  endfacet
  facet normal 1 0 0
    outer loop
      vertex 100 0 0
      vertex 100 38.25 6
      vertex 100 0 10
    endloop
  endfacet
  facet normal 0 0 -1
    outer loop
      vertex 0 0 0
      vertex 100 100 0
      vertex 100 0 0
    endloop
  endfacet
  facet normal -0 0 -1
    outer loop
      vertex 100 100 0
      vertex 0 0 0
      vertex 0 100 0
    endloop
  endfacet
  facet normal -1 0 0
    outer loop
      vertex 0 100 0
      vertex 0 18.5479 10
      vertex 0 100 10
    endloop
  endfacet
  facet normal -1 0 0
    outer loop
      vertex 0 100 0
      vertex 0 18.3284 9.67157
      vertex 0 18.5479 10
    endloop
  endfacet
  facet normal -1 0 0
    outer loop
      vertex 0 100 0
      vertex 0 17.0307 8.80448
      vertex 0 18.3284 9.67157
    endloop
  endfacet
  facet normal -1 0 0
    outer loop
      vertex 0 0 0
      vertex 0 17.0307 8.80448
      vertex 0 100 0
    endloop
  endfacet
  facet normal -1 0 0
    outer loop
      vertex 0 17.0307 8.80448
      vertex 0 0 0
      vertex 0 15.5 8.5
    endloop
  endfacet
  facet normal -1 0 0
    outer loop
      vertex 0 0 0
      vertex 0 13.9693 8.80448
      vertex 0 15.5 8.5
    endloop
  endfacet
  facet normal -1 0 0
    outer loop
      vertex 0 0 0
      vertex 0 12.6716 9.67157
      vertex 0 13.9693 8.80448
    endloop
  endfacet
  facet normal -1 0 0
    outer loop
      vertex 0 0 10
      vertex 0 12.6716 9.67157
      vertex 0 0 0
    endloop
  endfacet
  facet normal -1 0 0
    outer loop
      vertex 0 12.6716 9.67157
      vertex 0 0 10
      vertex 0 12.4521 10
    endloop
  endfacet
  facet normal 0 1 -0
    outer loop
      vertex 100 100 0
      vertex 0 100 10
      vertex 100 100 10
    endloop
  endfacet
  facet normal 0 1 0
    outer loop
      vertex 0 100 10
      vertex 100 100 0
      vertex 0 100 0
    endloop
  endfacet
  facet normal 0 -1 0
    outer loop
      vertex 0 0 0
      vertex 100 0 10
      vertex 0 0 10
    endloop
  endfacet
  facet normal 0 -1 -0
    outer loop
      vertex 100 0 10
      vertex 0 0 0
      vertex 100 0 0
    endloop
  endfacet
  facet normal -1 0 0
    outer loop
      vertex 98 93 2.01
      vertex 98 90.5 6
      vertex 98 93 10
    endloop
  endfacet
  facet normal -1 0 0
    outer loop
      vertex 98 93 2.01
      vertex 98 75.5 6
      vertex 98 90.5 6
    endloop
  endfacet
  facet normal -1 0 0
    outer loop
      vertex 98 75.5 6
      vertex 98 72.5 6
      vertex 98 75.5 10
    endloop
  endfacet
  facet normal -1 0 0
    outer loop
      vertex 98 93 2.01
      vertex 98 72.5 6
      vertex 98 75.5 6
    endloop
  endfacet
  facet normal -1 0 0
    outer loop
      vertex 98 93 2.01
      vertex 98 57.5 6
      vertex 98 72.5 6
    endloop
  endfacet
  facet normal -1 0 0
    outer loop
      vertex 98 57.5 6
      vertex 98 54.25 6
      vertex 98 57.5 10
    endloop
  endfacet
  facet normal -1 0 0
    outer loop
      vertex 98 93 2.01
      vertex 98 54.25 6
      vertex 98 57.5 6
    endloop
  endfacet
  facet normal -1 0 0
    outer loop
      vertex 98 7 2.01
      vertex 98 54.25 6
      vertex 98 93 2.01
    endloop
  endfacet
  facet normal -1 -0 0
    outer loop
      vertex 98 54.25 6
      vertex 98 7 2.01
      vertex 98 38.25 6
    endloop
  endfacet
  facet normal -1 0 0
    outer loop
      vertex 98 7 10
      vertex 98 38.25 6
      vertex 98 7 2.01
    endloop
  endfacet
  facet normal -1 0 0
    outer loop
      vertex 98 38.25 6
      vertex 98 7 10
      vertex 98 38.25 10
    endloop
  endfacet
  facet normal -1 -0 0
    outer loop
      vertex 98 93 10
      vertex 98 90.5 6
      vertex 98 90.5 10
    endloop
  endfacet
  facet normal -1 -0 0
    outer loop
      vertex 98 75.5 10
      vertex 98 72.5 6
      vertex 98 72.5 10
    endloop
  endfacet
  facet normal -1 -0 0
    outer loop
      vertex 98 57.5 10
      vertex 98 54.25 6
      vertex 98 54.25 10
    endloop
  endfacet
  facet normal 0 0 1
    outer loop
      vertex 35 6 2.01
      vertex 6.87764 5.27254 2.01
      vertex 7 4.5 2.01
    endloop
  endfacet
  facet normal 0 0 1
    outer loop
      vertex 35 6 2.01
      vertex 6.52254 5.96946 2.01
      vertex 6.87764 5.27254 2.01
    endloop
  endfacet
  facet normal 0 -0 1
    outer loop
      vertex 6.52254 5.96946 2.01
      vertex 35 6 2.01
      vertex 6.492 6 2.01
    endloop
  endfacet
  facet normal -0 0 1
    outer loop
      vertex 16.75 86.3349 2.01
      vertex 35 35 2.01
      vertex 17.6651 87.25 2.01
    endloop
  endfacet
  facet normal 0 0 1
    outer loop
      vertex 35 35 2.01
      vertex 17.6651 40.75 2.01
      vertex 18 39.5 2.01
    endloop
  endfacet
  facet normal -0 0 1
    outer loop
      vertex 16.75 41.6651 2.01
      vertex 35 35 2.01
      vertex 16.75 86.3349 2.01
    endloop
  endfacet
  facet normal 0 0 1
    outer loop
      vertex 35 35 2.01
      vertex 16.75 41.6651 2.01
      vertex 17.6651 40.75 2.01
    endloop
  endfacet
  facet normal -0 0 1
    outer loop
      vertex 15.5 86 2.01
      vertex 16.75 41.6651 2.01
      vertex 16.75 86.3349 2.01
    endloop
  endfacet
  facet normal 0 0 1
    outer loop
      vertex 15.5 86 2.01
      vertex 15.5 42 2.01
      vertex 16.75 41.6651 2.01
    endloop
  endfacet
  facet normal 0 0 1
    outer loop
      vertex 14.25 86.3349 2.01
      vertex 15.5 42 2.01
      vertex 15.5 86 2.01
    endloop
  endfacet
  facet normal 0 0 1
    outer loop
      vertex 14.25 86.3349 2.01
      vertex 14.25 41.6651 2.01
      vertex 15.5 42 2.01
    endloop
  endfacet
  facet normal 0 0 1
    outer loop
      vertex 2 93 2.01
      vertex 14.25 86.3349 2.01
      vertex 13.3349 87.25 2.01
    endloop
  endfacet
  facet normal 0 0 1
    outer loop
      vertex 14.25 86.3349 2.01
      vertex 2 93 2.01
      vertex 14.25 41.6651 2.01
    endloop
  endfacet
  facet normal 0 0 1
    outer loop
      vertex 5.27254 93.1224 2.01
      vertex 13.3349 87.25 2.01
      vertex 13 88.5 2.01
    endloop
  endfacet
  facet normal 0 0 1
    outer loop
      vertex 2 35 2.01
      vertex 14.25 41.6651 2.01
      vertex 2 93 2.01
    endloop
  endfacet
  facet normal 0 0 1
    outer loop
      vertex 94.7275 93.1224 2.01
      vertex 74.75 86.3349 2.01
      vertex 95.5 93 2.01
    endloop
  endfacet
  facet normal 0 0 1
    outer loop
      vertex 95.5 93 2.01
      vertex 75.6651 40.75 2.01
      vertex 76 39.5 2.01
    endloop
  endfacet
  facet normal 0 0 1
    outer loop
      vertex 74.75 41.6651 2.01
      vertex 95.5 93 2.01
      vertex 74.75 86.3349 2.01
    endloop
  endfacet
  facet normal 0 0 1
    outer loop
      vertex 95.5 93 2.01
      vertex 74.75 41.6651 2.01
      vertex 75.6651 40.75 2.01
    endloop
  endfacet
  facet normal -0 0 1
    outer loop
      vertex 73.5 86 2.01
      vertex 74.75 41.6651 2.01
      vertex 74.75 86.3349 2.01
    endloop
  endfacet
  facet normal 0 0 1
    outer loop
      vertex 73.5 86 2.01
      vertex 73.5 42 2.01
      vertex 74.75 41.6651 2.01
    endloop
  endfacet
  facet normal 0 0 1
    outer loop
      vertex 72.25 86.3349 2.01
      vertex 73.5 42 2.01
      vertex 73.5 86 2.01
    endloop
  endfacet
  facet normal 0 0 1
    outer loop
      vertex 72.25 86.3349 2.01
      vertex 72.25 41.6651 2.01
      vertex 73.5 42 2.01
    endloop
  endfacet
  facet normal 0 0 1
    outer loop
      vertex 71.3349 87.25 2.01
      vertex 72.25 41.6651 2.01
      vertex 72.25 86.3349 2.01
    endloop
  endfacet
  facet normal 0 0 1
    outer loop
      vertex 71.3349 87.25 2.01
      vertex 71.3349 40.75 2.01
      vertex 72.25 41.6651 2.01
    endloop
  endfacet
  facet normal -0 0 1
    outer loop
      vertex 18 88.5 2.01
      vertex 71.3349 87.25 2.01
      vertex 71 88.5 2.01
    endloop
  endfacet
  facet normal 0 0 1
    outer loop
      vertex 71.3349 87.25 2.01
      vertex 35 35 2.01
      vertex 71.3349 40.75 2.01
    endloop
  endfacet
  facet normal 0 0 1
    outer loop
      vertex 75.6651 89.75 2.01
      vertex 93 95.5 2.01
      vertex 93 98 2.01
    endloop
  endfacet
  facet normal 0 0 1
    outer loop
      vertex 93 95.5 2.01
      vertex 75.6651 89.75 2.01
      vertex 76 88.5 2.01
    endloop
  endfacet
  facet normal 0 0 1
    outer loop
      vertex 93 98 2.01
      vertex 74.75 90.6651 2.01
      vertex 75.6651 89.75 2.01
    endloop
  endfacet
  facet normal 0 0 1
    outer loop
      vertex 93 98 2.01
      vertex 73.5 91 2.01
      vertex 74.75 90.6651 2.01
    endloop
  endfacet
  facet normal -0 0 1
    outer loop
      vertex 7 98 2.01
      vertex 73.5 91 2.01
      vertex 93 98 2.01
    endloop
  endfacet
  facet normal 0 -0 1
    outer loop
      vertex 38 31.5 2.01
      vertex 71.3349 40.75 2.01
      vertex 35 35 2.01
    endloop
  endfacet
  facet normal 0 0 1
    outer loop
      vertex 18 88.5 2.01
      vertex 71 88.5 2.01
      vertex 71.3349 89.75 2.01
    endloop
  endfacet
  facet normal 0 0 1
    outer loop
      vertex 35 6 2.01
      vertex 38 31.5 2.01
      vertex 35 35 2.01
    endloop
  endfacet
  facet normal 0 0 1
    outer loop
      vertex 71.3349 40.75 2.01
      vertex 38 31.5 2.01
      vertex 71 39.5 2.01
    endloop
  endfacet
  facet normal 0 0 1
    outer loop
      vertex 17.6651 87.25 2.01
      vertex 71.3349 87.25 2.01
      vertex 18 88.5 2.01
    endloop
  endfacet
  facet normal 0 0 1
    outer loop
      vertex 17.6651 89.75 2.01
      vertex 71.3349 89.75 2.01
      vertex 72.25 90.6651 2.01
    endloop
  endfacet
  facet normal 0 0 1
    outer loop
      vertex 73.5 91 2.01
      vertex 7 98 2.01
      vertex 72.25 90.6651 2.01
    endloop
  endfacet
  facet normal 0 0 1
    outer loop
      vertex 71.3349 89.75 2.01
      vertex 17.6651 89.75 2.01
      vertex 18 88.5 2.01
    endloop
  endfacet
  facet normal 0 0 1
    outer loop
      vertex 72.25 90.6651 2.01
      vertex 16.75 90.6651 2.01
      vertex 17.6651 89.75 2.01
    endloop
  endfacet
  facet normal 0 0 1
    outer loop
      vertex 72.25 90.6651 2.01
      vertex 7 98 2.01
      vertex 16.75 90.6651 2.01
    endloop
  endfacet
  facet normal 0 0 1
    outer loop
      vertex 14.25 90.6651 2.01
      vertex 6.87764 94.7275 2.01
      vertex 13.3349 89.75 2.01
    endloop
  endfacet
  facet normal -0 0 1
    outer loop
      vertex 6.87764 94.7275 2.01
      vertex 14.25 90.6651 2.01
      vertex 7 95.5 2.01
    endloop
  endfacet
  facet normal -0 0 1
    outer loop
      vertex 7 95.5 2.01
      vertex 14.25 90.6651 2.01
      vertex 7 98 2.01
    endloop
  endfacet
  facet normal 0 0 1
    outer loop
      vertex 15.5 91 2.01
      vertex 7 98 2.01
      vertex 14.25 90.6651 2.01
    endloop
  endfacet
  facet normal 0 0 1
    outer loop
      vertex 16.75 90.6651 2.01
      vertex 7 98 2.01
      vertex 15.5 91 2.01
    endloop
  endfacet
  facet normal 0 0 1
    outer loop
      vertex 94 31.5 2.01
      vertex 98 93 2.01
      vertex 95.5 93 2.01
    endloop
  endfacet
  facet normal 0 0 1
    outer loop
      vertex 98 93 2.01
      vertex 94 31.5 2.01
      vertex 98 7 2.01
    endloop
  endfacet
  facet normal 0 0 1
    outer loop
      vertex 94.0305 93.4775 2.01
      vertex 75.6651 87.25 2.01
      vertex 94.7275 93.1224 2.01
    endloop
  endfacet
  facet normal 0 0 1
    outer loop
      vertex 98 7 2.01
      vertex 94 31.5 2.01
      vertex 95.5 7 2.01
    endloop
  endfacet
  facet normal 0 0 1
    outer loop
      vertex 75.6651 87.25 2.01
      vertex 94.0305 93.4775 2.01
      vertex 76 88.5 2.01
    endloop
  endfacet
  facet normal 0 0 1
    outer loop
      vertex 95.5 7 2.01
      vertex 94 31.5 2.01
      vertex 94.7275 6.87764 2.01
    endloop
  endfacet
  facet normal 0 0 1
    outer loop
      vertex 94.7275 6.87764 2.01
      vertex 94 31.5 2.01
      vertex 94.0305 6.52254 2.01
    endloop
  endfacet
  facet normal 0 0 1
    outer loop
      vertex 76 88.5 2.01
      vertex 94.0305 93.4775 2.01
      vertex 93.4775 94.0305 2.01
    endloop
  endfacet
  facet normal 0 0 1
    outer loop
      vertex 76 88.5 2.01
      vertex 93.4775 94.0305 2.01
      vertex 93.1224 94.7275 2.01
    endloop
  endfacet
  facet normal 0 0 1
    outer loop
      vertex 76 88.5 2.01
      vertex 93.1224 94.7275 2.01
      vertex 93 95.5 2.01
    endloop
  endfacet
  facet normal 0 0 1
    outer loop
      vertex 74.75 86.3349 2.01
      vertex 94.7275 93.1224 2.01
      vertex 75.6651 87.25 2.01
    endloop
  endfacet
  facet normal 0 0 1
    outer loop
      vertex 95.5 93 2.01
      vertex 76 39.5 2.01
      vertex 94 31.5 2.01
    endloop
  endfacet
  facet normal -0 0 1
    outer loop
      vertex 75.6651 38.25 2.01
      vertex 94 31.5 2.01
      vertex 76 39.5 2.01
    endloop
  endfacet
  facet normal -0 0 1
    outer loop
      vertex 74.75 37.3349 2.01
      vertex 94 31.5 2.01
      vertex 75.6651 38.25 2.01
    endloop
  endfacet
  facet normal -0 0 1
    outer loop
      vertex 73.5 37 2.01
      vertex 94 31.5 2.01
      vertex 74.75 37.3349 2.01
    endloop
  endfacet
  facet normal 0 0 1
    outer loop
      vertex 38 31.5 2.01
      vertex 73.5 37 2.01
      vertex 72.25 37.3349 2.01
    endloop
  endfacet
  facet normal 0 0 1
    outer loop
      vertex 73.5 37 2.01
      vertex 38 31.5 2.01
      vertex 94 31.5 2.01
    endloop
  endfacet
  facet normal 0 0 1
    outer loop
      vertex 71.3349 38.25 2.01
      vertex 38 31.5 2.01
      vertex 72.25 37.3349 2.01
    endloop
  endfacet
  facet normal 0 0 1
    outer loop
      vertex 38 31.5 2.01
      vertex 71.3349 38.25 2.01
      vertex 71 39.5 2.01
    endloop
  endfacet
  facet normal 0 0 1
    outer loop
      vertex 94.0305 6.52254 2.01
      vertex 94 31.5 2.01
      vertex 94 6.492 2.01
    endloop
  endfacet
  facet normal 0 0 1
    outer loop
      vertex 38 31.5 2.01
      vertex 35 6 2.01
      vertex 38 2 2.01
    endloop
  endfacet
  facet normal 0 0 1
    outer loop
      vertex 7 2 2.01
      vertex 35 6 2.01
      vertex 7 4.5 2.01
    endloop
  endfacet
  facet normal 0 0 1
    outer loop
      vertex 35 6 2.01
      vertex 7 2 2.01
      vertex 38 2 2.01
    endloop
  endfacet
  facet normal 0 0 1
    outer loop
      vertex 71.3349 87.25 2.01
      vertex 17.6651 87.25 2.01
      vertex 35 35 2.01
    endloop
  endfacet
  facet normal -0 0 1
    outer loop
      vertex 17.6651 38.25 2.01
      vertex 35 35 2.01
      vertex 18 39.5 2.01
    endloop
  endfacet
  facet normal -0 0 1
    outer loop
      vertex 16.75 37.3349 2.01
      vertex 35 35 2.01
      vertex 17.6651 38.25 2.01
    endloop
  endfacet
  facet normal -0 0 1
    outer loop
      vertex 15.5 37 2.01
      vertex 35 35 2.01
      vertex 16.75 37.3349 2.01
    endloop
  endfacet
  facet normal -0 0 1
    outer loop
      vertex 6.52254 94.0305 2.01
      vertex 13.3349 89.75 2.01
      vertex 6.87764 94.7275 2.01
    endloop
  endfacet
  facet normal -0 0 1
    outer loop
      vertex 5.96946 93.4775 2.01
      vertex 13.3349 89.75 2.01
      vertex 6.52254 94.0305 2.01
    endloop
  endfacet
  facet normal 0 0 1
    outer loop
      vertex 13.3349 89.75 2.01
      vertex 5.96946 93.4775 2.01
      vertex 13 88.5 2.01
    endloop
  endfacet
  facet normal -0 0 1
    outer loop
      vertex 5.27254 93.1224 2.01
      vertex 13 88.5 2.01
      vertex 5.96946 93.4775 2.01
    endloop
  endfacet
  facet normal 0 0 1
    outer loop
      vertex 13.3349 87.25 2.01
      vertex 5.27254 93.1224 2.01
      vertex 4.5 93 2.01
    endloop
  endfacet
  facet normal 0 0 1
    outer loop
      vertex 13.3349 87.25 2.01
      vertex 4.5 93 2.01
      vertex 2 93 2.01
    endloop
  endfacet
  facet normal 0 0 1
    outer loop
      vertex 14.25 41.6651 2.01
      vertex 2 35 2.01
      vertex 13.3349 40.75 2.01
    endloop
  endfacet
  facet normal 0 0 1
    outer loop
      vertex 15.5 37 2.01
      vertex 2 35 2.01
      vertex 35 35 2.01
    endloop
  endfacet
  facet normal 0 0 1
    outer loop
      vertex 14.25 37.3349 2.01
      vertex 2 35 2.01
      vertex 15.5 37 2.01
    endloop
  endfacet
  facet normal 0 0 1
    outer loop
      vertex 13.3349 38.25 2.01
      vertex 2 35 2.01
      vertex 14.25 37.3349 2.01
    endloop
  endfacet
  facet normal 0 0 1
    outer loop
      vertex 13 39.5 2.01
      vertex 2 35 2.01
      vertex 13.3349 38.25 2.01
    endloop
  endfacet
  facet normal 0 0 1
    outer loop
      vertex 13.3349 40.75 2.01
      vertex 2 35 2.01
      vertex 13 39.5 2.01
    endloop
  endfacet
  facet normal -0 0 1
    outer loop
      vertex 4 33 2.01
      vertex 31 8 2.01
      vertex 31 33 2.01
    endloop
  endfacet
  facet normal 0 0 1
    outer loop
      vertex 31 8 2.01
      vertex 4 33 2.01
      vertex 4 8 2.01
    endloop
  endfacet
  facet normal -0 0 1
    outer loop
      vertex 40 29.5 2.01
      vertex 92 3 2.01
      vertex 92 29.5 2.01
    endloop
  endfacet
  facet normal 0 0 1
    outer loop
      vertex 92 3 2.01
      vertex 40 29.5 2.01
      vertex 40 3 2.01
    endloop
  endfacet
  facet normal 1 -0 0
    outer loop
      vertex 2 7 10
      vertex 2 8 8
      vertex 2 12.4521 10
    endloop
  endfacet
  facet normal 1 0 0
    outer loop
      vertex 2 8 8
      vertex 2 7 10
      vertex 2 7 8
    endloop
  endfacet
  facet normal 1 0 0
    outer loop
      vertex 2 93 10
      vertex 2 35 8
      vertex 2 93 2.01
    endloop
  endfacet
  facet normal 1 -0 0
    outer loop
      vertex 2 18.5479 10
      vertex 2 35 8
      vertex 2 93 10
    endloop
  endfacet
  facet normal 1 0 0
    outer loop
      vertex 2 35 8
      vertex 2 18.5479 10
      vertex 2 33 8
    endloop
  endfacet
  facet normal 1 0 0
    outer loop
      vertex 2 18.5479 10
      vertex 2 33 6
      vertex 2 33 8
    endloop
  endfacet
  facet normal 1 -0 0
    outer loop
      vertex 2 18.3284 9.67157
      vertex 2 33 6
      vertex 2 18.5479 10
    endloop
  endfacet
  facet normal 1 -0 0
    outer loop
      vertex 2 17.0307 8.80448
      vertex 2 33 6
      vertex 2 18.3284 9.67157
    endloop
  endfacet
  facet normal 1 -0 0
    outer loop
      vertex 2 15.5 8.5
      vertex 2 33 6
      vertex 2 17.0307 8.80448
    endloop
  endfacet
  facet normal 1 0 0
    outer loop
      vertex 2 8 8
      vertex 2 12.6716 9.67157
      vertex 2 12.4521 10
    endloop
  endfacet
  facet normal 1 0 0
    outer loop
      vertex 2 8 6
      vertex 2 12.6716 9.67157
      vertex 2 8 8
    endloop
  endfacet
  facet normal 1 0 0
    outer loop
      vertex 2 12.6716 9.67157
      vertex 2 8 6
      vertex 2 13.9693 8.80448
    endloop
  endfacet
  facet normal 1 0 0
    outer loop
      vertex 2 13.9693 8.80448
      vertex 2 8 6
      vertex 2 15.5 8.5
    endloop
  endfacet
  facet normal 1 0 0
    outer loop
      vertex 2 15.5 8.5
      vertex 2 8 6
      vertex 2 33 6
    endloop
  endfacet
  facet normal 1 0 0
    outer loop
      vertex 2 93 2.01
      vertex 2 35 8
      vertex 2 35 2.01
    endloop
  endfacet
  facet normal 0 -1 0
    outer loop
      vertex 7 98 2.01
      vertex 93 98 10
      vertex 7 98 10
    endloop
  endfacet
  facet normal 0 -1 -0
    outer loop
      vertex 93 98 10
      vertex 7 98 2.01
      vertex 93 98 2.01
    endloop
  endfacet
  facet normal 0 1 0
    outer loop
      vertex 38 2 6
      vertex 93 2 10
      vertex 93 2 6
    endloop
  endfacet
  facet normal 0 1 0
    outer loop
      vertex 93 2 10
      vertex 38 2 6
      vertex 7 2 10
    endloop
  endfacet
  facet normal 0 1 0
    outer loop
      vertex 7 2 2.01
      vertex 38 2 6
      vertex 38 2 2.01
    endloop
  endfacet
  facet normal 0 1 0
    outer loop
      vertex 38 2 6
      vertex 7 2 2.01
      vertex 7 2 10
    endloop
  endfacet
  facet normal 0 -0.831411 0.555658
    outer loop
      vertex 0 18.3284 9.67157
      vertex 2 18.5479 10
      vertex 0 18.5479 10
    endloop
  endfacet
  facet normal 0 -0.831411 0.555658
    outer loop
      vertex 2 18.5479 10
      vertex 0 18.3284 9.67157
      vertex 2 18.3284 9.67157
    endloop
  endfacet
  facet normal -0 0.555568 0.831471
    outer loop
      vertex 0 13.9693 8.80448
      vertex 2 12.6716 9.67157
      vertex 2 13.9693 8.80448
    endloop
  endfacet
  facet normal 0 0.555568 0.831471
    outer loop
      vertex 2 12.6716 9.67157
      vertex 0 13.9693 8.80448
      vertex 0 12.6716 9.67157
    endloop
  endfacet
  facet normal 0 0.831411 0.555658
    outer loop
      vertex 2 12.6716 9.67157
      vertex 0 12.4521 10
      vertex 2 12.4521 10
    endloop
  endfacet
  facet normal 0 0.831411 0.555658
    outer loop
      vertex 0 12.4521 10
      vertex 2 12.6716 9.67157
      vertex 0 12.6716 9.67157
    endloop
  endfacet
  facet normal 0 -0.195093 0.980785
    outer loop
      vertex 0 17.0307 8.80448
      vertex 2 15.5 8.5
      vertex 2 17.0307 8.80448
    endloop
  endfacet
  facet normal 0 -0.195093 0.980785
    outer loop
      vertex 2 15.5 8.5
      vertex 0 17.0307 8.80448
      vertex 0 15.5 8.5
    endloop
  endfacet
  facet normal -0 0.195093 0.980785
    outer loop
      vertex 0 15.5 8.5
      vertex 2 13.9693 8.80448
      vertex 2 15.5 8.5
    endloop
  endfacet
  facet normal 0 0.195093 0.980785
    outer loop
      vertex 2 13.9693 8.80448
      vertex 0 15.5 8.5
      vertex 0 13.9693 8.80448
    endloop
  endfacet
  facet normal 0 -0.555568 0.831471
    outer loop
      vertex 0 18.3284 9.67157
      vertex 2 17.0307 8.80448
      vertex 2 18.3284 9.67157
    endloop
  endfacet
  facet normal 0 -0.555568 0.831471
    outer loop
      vertex 2 17.0307 8.80448
      vertex 0 18.3284 9.67157
      vertex 0 17.0307 8.80448
    endloop
  endfacet
  facet normal 0.891006 0.453992 0
    outer loop
      vertex 6.87764 5.27254 10
      vertex 6.52254 5.96946 2.01
      vertex 6.52254 5.96946 10
    endloop
  endfacet
  facet normal 0.891006 0.453992 0
    outer loop
      vertex 6.52254 5.96946 2.01
      vertex 6.87764 5.27254 10
      vertex 6.87764 5.27254 2.01
    endloop
  endfacet
  facet normal 0.987688 0.156437 0
    outer loop
      vertex 7 4.5 10
      vertex 6.87764 5.27254 2.01
      vertex 6.87764 5.27254 10
    endloop
  endfacet
  facet normal 0.987688 0.156437 0
    outer loop
      vertex 6.87764 5.27254 2.01
      vertex 7 4.5 10
      vertex 7 4.5 2.01
    endloop
  endfacet
  facet normal 0.156437 0.987688 -0
    outer loop
      vertex 5.27254 6.87764 8
      vertex 4.5 7 10
      vertex 5.27254 6.87764 10
    endloop
  endfacet
  facet normal 0.156437 0.987688 0
    outer loop
      vertex 4.5 7 10
      vertex 5.27254 6.87764 8
      vertex 4.5 7 8
    endloop
  endfacet
  facet normal 0.453992 0.891006 -0
    outer loop
      vertex 5.96946 6.52254 8
      vertex 5.27254 6.87764 10
      vertex 5.96946 6.52254 10
    endloop
  endfacet
  facet normal 0.453992 0.891006 0
    outer loop
      vertex 5.27254 6.87764 10
      vertex 5.96946 6.52254 8
      vertex 5.27254 6.87764 8
    endloop
  endfacet
  facet normal 0.707107 0.707107 0
    outer loop
      vertex 5.96946 6.52254 10
      vertex 6.492 6 8
      vertex 5.96946 6.52254 8
    endloop
  endfacet
  facet normal 0.707107 0.707107 0
    outer loop
      vertex 6.52254 5.96946 10
      vertex 6.492 6 8
      vertex 5.96946 6.52254 10
    endloop
  endfacet
  facet normal 0.707107 0.707107 -0
    outer loop
      vertex 6.52254 5.96946 2.01
      vertex 6.492 6 8
      vertex 6.52254 5.96946 10
    endloop
  endfacet
  facet normal 0.707107 0.707107 0
    outer loop
      vertex 6.492 6 8
      vertex 6.52254 5.96946 2.01
      vertex 6.492 6 2.01
    endloop
  endfacet
  facet normal 1 -0 0
    outer loop
      vertex 7 2 10
      vertex 7 4.5 2.01
      vertex 7 4.5 10
    endloop
  endfacet
  facet normal 1 0 0
    outer loop
      vertex 7 4.5 2.01
      vertex 7 2 10
      vertex 7 2 2.01
    endloop
  endfacet
  facet normal 0 1 -0
    outer loop
      vertex 4.5 7 8
      vertex 2 7 10
      vertex 4.5 7 10
    endloop
  endfacet
  facet normal 0 1 0
    outer loop
      vertex 2 7 10
      vertex 4.5 7 8
      vertex 2 7 8
    endloop
  endfacet
  facet normal -0.453951 0.891027 0
    outer loop
      vertex 94.7275 6.87764 2.01
      vertex 94.0305 6.52254 10
      vertex 94.7275 6.87764 10
    endloop
  endfacet
  facet normal -0.453951 0.891027 0
    outer loop
      vertex 94.0305 6.52254 10
      vertex 94.7275 6.87764 2.01
      vertex 94.0305 6.52254 2.01
    endloop
  endfacet
  facet normal -0.156444 0.987687 0
    outer loop
      vertex 95.5 7 2.01
      vertex 94.7275 6.87764 10
      vertex 95.5 7 10
    endloop
  endfacet
  facet normal -0.156444 0.987687 0
    outer loop
      vertex 94.7275 6.87764 10
      vertex 95.5 7 2.01
      vertex 94.7275 6.87764 2.01
    endloop
  endfacet
  facet normal -0.98768 0.156486 0
    outer loop
      vertex 93 4.5 6
      vertex 93.1224 5.27254 10
      vertex 93.1224 5.27254 6
    endloop
  endfacet
  facet normal -0.98768 0.156486 0
    outer loop
      vertex 93.1224 5.27254 10
      vertex 93 4.5 6
      vertex 93 4.5 10
    endloop
  endfacet
  facet normal -0.891006 0.453992 0
    outer loop
      vertex 93.1224 5.27254 6
      vertex 93.4775 5.96946 10
      vertex 93.4775 5.96946 6
    endloop
  endfacet
  facet normal -0.891006 0.453992 0
    outer loop
      vertex 93.4775 5.96946 10
      vertex 93.1224 5.27254 6
      vertex 93.1224 5.27254 10
    endloop
  endfacet
  facet normal -0.707158 0.707056 -6.29062e-06
    outer loop
      vertex 94.0305 6.52254 10
      vertex 94 6.492 6
      vertex 93.4775 5.96946 10
    endloop
  endfacet
  facet normal -0.70757 0.706643 0
    outer loop
      vertex 94.0305 6.52254 2.01
      vertex 94 6.492 6
      vertex 94.0305 6.52254 10
    endloop
  endfacet
  facet normal -0.70757 0.706643 0
    outer loop
      vertex 94 6.492 6
      vertex 94.0305 6.52254 2.01
      vertex 94 6.492 2.01
    endloop
  endfacet
  facet normal -0.707134 0.70708 0
    outer loop
      vertex 93.4775 5.96946 10
      vertex 94 6.492 6
      vertex 93.4775 5.96946 6
    endloop
  endfacet
  facet normal 0 1 -0
    outer loop
      vertex 98 7 2.01
      vertex 95.5 7 10
      vertex 98 7 10
    endloop
  endfacet
  facet normal 0 1 0
    outer loop
      vertex 95.5 7 10
      vertex 98 7 2.01
      vertex 95.5 7 2.01
    endloop
  endfacet
  facet normal -1 0 0
    outer loop
      vertex 93 2 6
      vertex 93 4.5 10
      vertex 93 4.5 6
    endloop
  endfacet
  facet normal -1 -0 0
    outer loop
      vertex 93 4.5 10
      vertex 93 2 6
      vertex 93 2 10
    endloop
  endfacet
  facet normal -0.891027 -0.453951 0
    outer loop
      vertex 93.4775 94.0305 2.01
      vertex 93.1224 94.7275 10
      vertex 93.1224 94.7275 2.01
    endloop
  endfacet
  facet normal -0.891027 -0.453951 0
    outer loop
      vertex 93.1224 94.7275 10
      vertex 93.4775 94.0305 2.01
      vertex 93.4775 94.0305 10
    endloop
  endfacet
  facet normal -0.987679 -0.156494 0
    outer loop
      vertex 93.1224 94.7275 2.01
      vertex 93 95.5 10
      vertex 93 95.5 2.01
    endloop
  endfacet
  facet normal -0.987679 -0.156494 0
    outer loop
      vertex 93 95.5 10
      vertex 93.1224 94.7275 2.01
      vertex 93.1224 94.7275 10
    endloop
  endfacet
  facet normal -0.156494 -0.987679 0
    outer loop
      vertex 94.7275 93.1224 2.01
      vertex 95.5 93 10
      vertex 94.7275 93.1224 10
    endloop
  endfacet
  facet normal -0.156494 -0.987679 -0
    outer loop
      vertex 95.5 93 10
      vertex 94.7275 93.1224 2.01
      vertex 95.5 93 2.01
    endloop
  endfacet
  facet normal -0.453951 -0.891027 0
    outer loop
      vertex 94.0305 93.4775 2.01
      vertex 94.7275 93.1224 10
      vertex 94.0305 93.4775 10
    endloop
  endfacet
  facet normal -0.453951 -0.891027 -0
    outer loop
      vertex 94.7275 93.1224 10
      vertex 94.0305 93.4775 2.01
      vertex 94.7275 93.1224 2.01
    endloop
  endfacet
  facet normal -0.707107 -0.707107 0
    outer loop
      vertex 94.0305 93.4775 2.01
      vertex 93.4775 94.0305 10
      vertex 93.4775 94.0305 2.01
    endloop
  endfacet
  facet normal -0.707107 -0.707107 0
    outer loop
      vertex 93.4775 94.0305 10
      vertex 94.0305 93.4775 2.01
      vertex 94.0305 93.4775 10
    endloop
  endfacet
  facet normal -1 0 0
    outer loop
      vertex 93 95.5 2.01
      vertex 93 98 10
      vertex 93 98 2.01
    endloop
  endfacet
  facet normal -1 -0 0
    outer loop
      vertex 93 98 10
      vertex 93 95.5 2.01
      vertex 93 95.5 10
    endloop
  endfacet
  facet normal 0 -1 0
    outer loop
      vertex 95.5 93 2.01
      vertex 98 93 10
      vertex 95.5 93 10
    endloop
  endfacet
  facet normal 0 -1 -0
    outer loop
      vertex 98 93 10
      vertex 95.5 93 2.01
      vertex 98 93 2.01
    endloop
  endfacet
  facet normal 0.453992 -0.891006 0
    outer loop
      vertex 5.27254 93.1224 2.01
      vertex 5.96946 93.4775 10
      vertex 5.27254 93.1224 10
    endloop
  endfacet
  facet normal 0.453992 -0.891006 0
    outer loop
      vertex 5.96946 93.4775 10
      vertex 5.27254 93.1224 2.01
      vertex 5.96946 93.4775 2.01
    endloop
  endfacet
  facet normal 0.156486 -0.98768 0
    outer loop
      vertex 4.5 93 2.01
      vertex 5.27254 93.1224 10
      vertex 4.5 93 10
    endloop
  endfacet
  facet normal 0.156486 -0.98768 0
    outer loop
      vertex 5.27254 93.1224 10
      vertex 4.5 93 2.01
      vertex 5.27254 93.1224 2.01
    endloop
  endfacet
  facet normal 0.987687 -0.156444 0
    outer loop
      vertex 6.87764 94.7275 10
      vertex 7 95.5 2.01
      vertex 7 95.5 10
    endloop
  endfacet
  facet normal 0.987687 -0.156444 0
    outer loop
      vertex 7 95.5 2.01
      vertex 6.87764 94.7275 10
      vertex 6.87764 94.7275 2.01
    endloop
  endfacet
  facet normal 0.891027 -0.453951 0
    outer loop
      vertex 6.52254 94.0305 10
      vertex 6.87764 94.7275 2.01
      vertex 6.87764 94.7275 10
    endloop
  endfacet
  facet normal 0.891027 -0.453951 0
    outer loop
      vertex 6.87764 94.7275 2.01
      vertex 6.52254 94.0305 10
      vertex 6.52254 94.0305 2.01
    endloop
  endfacet
  facet normal 0.707056 -0.707158 0
    outer loop
      vertex 5.96946 93.4775 10
      vertex 6.52254 94.0305 2.01
      vertex 6.52254 94.0305 10
    endloop
  endfacet
  facet normal 0.707056 -0.707158 0
    outer loop
      vertex 6.52254 94.0305 2.01
      vertex 5.96946 93.4775 10
      vertex 5.96946 93.4775 2.01
    endloop
  endfacet
  facet normal 0 -1 0
    outer loop
      vertex 2 93 2.01
      vertex 4.5 93 10
      vertex 2 93 10
    endloop
  endfacet
  facet normal 0 -1 -0
    outer loop
      vertex 4.5 93 10
      vertex 2 93 2.01
      vertex 4.5 93 2.01
    endloop
  endfacet
  facet normal 1 -0 0
    outer loop
      vertex 7 95.5 10
      vertex 7 98 2.01
      vertex 7 98 10
    endloop
  endfacet
  facet normal 1 0 0
    outer loop
      vertex 7 98 2.01
      vertex 7 95.5 10
      vertex 7 95.5 2.01
    endloop
  endfacet
  facet normal -0.965933 -0.258793 0
    outer loop
      vertex 13.3349 38.25 2.01
      vertex 13 39.5 4
      vertex 13 39.5 2.01
    endloop
  endfacet
  facet normal -0.965933 -0.258793 0
    outer loop
      vertex 13 39.5 4
      vertex 13.3349 38.25 2.01
      vertex 13.3349 38.25 4
    endloop
  endfacet
  facet normal 0.707107 0.707107 0
    outer loop
      vertex 17.6651 40.75 4
      vertex 16.75 41.6651 2.01
      vertex 16.75 41.6651 4
    endloop
  endfacet
  facet normal 0.707107 0.707107 0
    outer loop
      vertex 16.75 41.6651 2.01
      vertex 17.6651 40.75 4
      vertex 17.6651 40.75 2.01
    endloop
  endfacet
  facet normal 0.965933 0.258793 0
    outer loop
      vertex 18 39.5 4
      vertex 17.6651 40.75 2.01
      vertex 17.6651 40.75 4
    endloop
  endfacet
  facet normal 0.965933 0.258793 0
    outer loop
      vertex 17.6651 40.75 2.01
      vertex 18 39.5 4
      vertex 18 39.5 2.01
    endloop
  endfacet
  facet normal 0.258793 0.965933 -0
    outer loop
      vertex 16.75 41.6651 2.01
      vertex 15.5 42 4
      vertex 16.75 41.6651 4
    endloop
  endfacet
  facet normal 0.258793 0.965933 0
    outer loop
      vertex 15.5 42 4
      vertex 16.75 41.6651 2.01
      vertex 15.5 42 2.01
    endloop
  endfacet
  facet normal 0.258793 -0.965933 0
    outer loop
      vertex 15.5 37 2.01
      vertex 16.75 37.3349 4
      vertex 15.5 37 4
    endloop
  endfacet
  facet normal 0.258793 -0.965933 0
    outer loop
      vertex 16.75 37.3349 4
      vertex 15.5 37 2.01
      vertex 16.75 37.3349 2.01
    endloop
  endfacet
  facet normal 0.965933 -0.258793 0
    outer loop
      vertex 17.6651 38.25 4
      vertex 18 39.5 2.01
      vertex 18 39.5 4
    endloop
  endfacet
  facet normal 0.965933 -0.258793 0
    outer loop
      vertex 18 39.5 2.01
      vertex 17.6651 38.25 4
      vertex 17.6651 38.25 2.01
    endloop
  endfacet
  facet normal -0.707107 0.707107 0
    outer loop
      vertex 14.25 41.6651 2.01
      vertex 13.3349 40.75 4
      vertex 14.25 41.6651 4
    endloop
  endfacet
  facet normal -0.707107 0.707107 0
    outer loop
      vertex 13.3349 40.75 4
      vertex 14.25 41.6651 2.01
      vertex 13.3349 40.75 2.01
    endloop
  endfacet
  facet normal -0.258793 0.965933 0
    outer loop
      vertex 15.5 42 2.01
      vertex 14.25 41.6651 4
      vertex 15.5 42 4
    endloop
  endfacet
  facet normal -0.258793 0.965933 0
    outer loop
      vertex 14.25 41.6651 4
      vertex 15.5 42 2.01
      vertex 14.25 41.6651 2.01
    endloop
  endfacet
  facet normal -0.965933 0.258793 0
    outer loop
      vertex 13 39.5 2.01
      vertex 13.3349 40.75 4
      vertex 13.3349 40.75 2.01
    endloop
  endfacet
  facet normal -0.965933 0.258793 0
    outer loop
      vertex 13.3349 40.75 4
      vertex 13 39.5 2.01
      vertex 13 39.5 4
    endloop
  endfacet
  facet normal 0.707107 -0.707107 0
    outer loop
      vertex 16.75 37.3349 4
      vertex 17.6651 38.25 2.01
      vertex 17.6651 38.25 4
    endloop
  endfacet
  facet normal 0.707107 -0.707107 0
    outer loop
      vertex 17.6651 38.25 2.01
      vertex 16.75 37.3349 4
      vertex 16.75 37.3349 2.01
    endloop
  endfacet
  facet normal 0 0 1
    outer loop
      vertex 16.5 39.5 4
      vertex 18 39.5 4
      vertex 17.6651 40.75 4
    endloop
  endfacet
  facet normal 0 0 1
    outer loop
      vertex 16.366 40 4
      vertex 17.6651 40.75 4
      vertex 16.75 41.6651 4
    endloop
  endfacet
  facet normal 0 0 1
    outer loop
      vertex 18 39.5 4
      vertex 16.5 39.5 4
      vertex 17.6651 38.25 4
    endloop
  endfacet
  facet normal -0 0 1
    outer loop
      vertex 16.366 39 4
      vertex 17.6651 38.25 4
      vertex 16.5 39.5 4
    endloop
  endfacet
  facet normal 0 0 1
    outer loop
      vertex 17.6651 40.75 4
      vertex 16.366 40 4
      vertex 16.5 39.5 4
    endloop
  endfacet
  facet normal 0 0 1
    outer loop
      vertex 16.75 41.6651 4
      vertex 16 40.366 4
      vertex 16.366 40 4
    endloop
  endfacet
  facet normal 0 0 1
    outer loop
      vertex 15.5 42 4
      vertex 16 40.366 4
      vertex 16.75 41.6651 4
    endloop
  endfacet
  facet normal 0 0 1
    outer loop
      vertex 15.5 42 4
      vertex 15.5 40.5 4
      vertex 16 40.366 4
    endloop
  endfacet
  facet normal 0 0 1
    outer loop
      vertex 15.5 42 4
      vertex 15 40.366 4
      vertex 15.5 40.5 4
    endloop
  endfacet
  facet normal -0 0 1
    outer loop
      vertex 14.25 41.6651 4
      vertex 15 40.366 4
      vertex 15.5 42 4
    endloop
  endfacet
  facet normal -0 0 1
    outer loop
      vertex 13.3349 40.75 4
      vertex 14.634 40 4
      vertex 14.25 41.6651 4
    endloop
  endfacet
  facet normal 0 0 1
    outer loop
      vertex 15 40.366 4
      vertex 14.25 41.6651 4
      vertex 14.634 40 4
    endloop
  endfacet
  facet normal 0 0 1
    outer loop
      vertex 17.6651 38.25 4
      vertex 16.366 39 4
      vertex 16.75 37.3349 4
    endloop
  endfacet
  facet normal -0 0 1
    outer loop
      vertex 16 38.634 4
      vertex 16.75 37.3349 4
      vertex 16.366 39 4
    endloop
  endfacet
  facet normal -0 0 1
    outer loop
      vertex 15.5 38.5 4
      vertex 16.75 37.3349 4
      vertex 16 38.634 4
    endloop
  endfacet
  facet normal 0 0 1
    outer loop
      vertex 15.5 38.5 4
      vertex 15.5 37 4
      vertex 16.75 37.3349 4
    endloop
  endfacet
  facet normal 0 0 1
    outer loop
      vertex 15 38.634 4
      vertex 15.5 37 4
      vertex 15.5 38.5 4
    endloop
  endfacet
  facet normal 0 0 1
    outer loop
      vertex 14.25 37.3349 4
      vertex 15 38.634 4
      vertex 14.634 39 4
    endloop
  endfacet
  facet normal 0 0 1
    outer loop
      vertex 15 38.634 4
      vertex 14.25 37.3349 4
      vertex 15.5 37 4
    endloop
  endfacet
  facet normal 0 0 1
    outer loop
      vertex 13.3349 38.25 4
      vertex 14.634 39 4
      vertex 14.5 39.5 4
    endloop
  endfacet
  facet normal 0 0 1
    outer loop
      vertex 14.634 40 4
      vertex 13.3349 40.75 4
      vertex 14.5 39.5 4
    endloop
  endfacet
  facet normal 0 0 1
    outer loop
      vertex 13 39.5 4
      vertex 14.5 39.5 4
      vertex 13.3349 40.75 4
    endloop
  endfacet
  facet normal 0 0 1
    outer loop
      vertex 14.634 39 4
      vertex 13.3349 38.25 4
      vertex 14.25 37.3349 4
    endloop
  endfacet
  facet normal 0 0 1
    outer loop
      vertex 14.5 39.5 4
      vertex 13 39.5 4
      vertex 13.3349 38.25 4
    endloop
  endfacet
  facet normal -0.707107 -0.707107 0
    outer loop
      vertex 13.3349 38.25 2.01
      vertex 14.25 37.3349 4
      vertex 13.3349 38.25 4
    endloop
  endfacet
  facet normal -0.707107 -0.707107 -0
    outer loop
      vertex 14.25 37.3349 4
      vertex 13.3349 38.25 2.01
      vertex 14.25 37.3349 2.01
    endloop
  endfacet
  facet normal -0.258793 -0.965933 0
    outer loop
      vertex 14.25 37.3349 2.01
      vertex 15.5 37 4
      vertex 14.25 37.3349 4
    endloop
  endfacet
  facet normal -0.258793 -0.965933 -0
    outer loop
      vertex 15.5 37 4
      vertex 14.25 37.3349 2.01
      vertex 15.5 37 2.01
    endloop
  endfacet
  facet normal -0.965914 -0.258865 0
    outer loop
      vertex 14.634 39 4
      vertex 14.5 39.5 6
      vertex 14.5 39.5 4
    endloop
  endfacet
  facet normal -0.965914 -0.258865 0
    outer loop
      vertex 14.5 39.5 6
      vertex 14.634 39 4
      vertex 14.634 39 6
    endloop
  endfacet
  facet normal 0.707107 0.707107 0
    outer loop
      vertex 16.366 40 6
      vertex 16 40.366 4
      vertex 16 40.366 6
    endloop
  endfacet
  facet normal 0.707107 0.707107 0
    outer loop
      vertex 16 40.366 4
      vertex 16.366 40 6
      vertex 16.366 40 4
    endloop
  endfacet
  facet normal 0.965914 0.258865 0
    outer loop
      vertex 16.5 39.5 6
      vertex 16.366 40 4
      vertex 16.366 40 6
    endloop
  endfacet
  facet normal 0.965914 0.258865 0
    outer loop
      vertex 16.366 40 4
      vertex 16.5 39.5 6
      vertex 16.5 39.5 4
    endloop
  endfacet
  facet normal 0.258865 0.965914 -0
    outer loop
      vertex 16 40.366 4
      vertex 15.5 40.5 6
      vertex 16 40.366 6
    endloop
  endfacet
  facet normal 0.258865 0.965914 0
    outer loop
      vertex 15.5 40.5 6
      vertex 16 40.366 4
      vertex 15.5 40.5 4
    endloop
  endfacet
  facet normal 0.258865 -0.965914 0
    outer loop
      vertex 15.5 38.5 4
      vertex 16 38.634 6
      vertex 15.5 38.5 6
    endloop
  endfacet
  facet normal 0.258865 -0.965914 0
    outer loop
      vertex 16 38.634 6
      vertex 15.5 38.5 4
      vertex 16 38.634 4
    endloop
  endfacet
  facet normal 0.965914 -0.258865 0
    outer loop
      vertex 16.366 39 6
      vertex 16.5 39.5 4
      vertex 16.5 39.5 6
    endloop
  endfacet
  facet normal 0.965914 -0.258865 0
    outer loop
      vertex 16.5 39.5 4
      vertex 16.366 39 6
      vertex 16.366 39 4
    endloop
  endfacet
  facet normal -0.707107 0.707107 0
    outer loop
      vertex 15 40.366 4
      vertex 14.634 40 6
      vertex 15 40.366 6
    endloop
  endfacet
  facet normal -0.707107 0.707107 0
    outer loop
      vertex 14.634 40 6
      vertex 15 40.366 4
      vertex 14.634 40 4
    endloop
  endfacet
  facet normal -0.258865 0.965914 0
    outer loop
      vertex 15.5 40.5 4
      vertex 15 40.366 6
      vertex 15.5 40.5 6
    endloop
  endfacet
  facet normal -0.258865 0.965914 0
    outer loop
      vertex 15 40.366 6
      vertex 15.5 40.5 4
      vertex 15 40.366 4
    endloop
  endfacet
  facet normal -0.965914 0.258865 0
    outer loop
      vertex 14.5 39.5 4
      vertex 14.634 40 6
      vertex 14.634 40 4
    endloop
  endfacet
  facet normal -0.965914 0.258865 0
    outer loop
      vertex 14.634 40 6
      vertex 14.5 39.5 4
      vertex 14.5 39.5 6
    endloop
  endfacet
  facet normal 0.707107 -0.707107 0
    outer loop
      vertex 16 38.634 6
      vertex 16.366 39 4
      vertex 16.366 39 6
    endloop
  endfacet
  facet normal 0.707107 -0.707107 0
    outer loop
      vertex 16.366 39 4
      vertex 16 38.634 6
      vertex 16 38.634 4
    endloop
  endfacet
  facet normal 0 0 1
    outer loop
      vertex 16.366 40 6
      vertex 16.366 39 6
      vertex 16.5 39.5 6
    endloop
  endfacet
  facet normal 0 0 1
    outer loop
      vertex 16 40.366 6
      vertex 16.366 39 6
      vertex 16.366 40 6
    endloop
  endfacet
  facet normal 0 0 1
    outer loop
      vertex 16 40.366 6
      vertex 16 38.634 6
      vertex 16.366 39 6
    endloop
  endfacet
  facet normal 0 0 1
    outer loop
      vertex 15.5 40.5 6
      vertex 16 38.634 6
      vertex 16 40.366 6
    endloop
  endfacet
  facet normal 0 0 1
    outer loop
      vertex 15.5 40.5 6
      vertex 15.5 38.5 6
      vertex 16 38.634 6
    endloop
  endfacet
  facet normal -0 0 1
    outer loop
      vertex 15 40.366 6
      vertex 15.5 38.5 6
      vertex 15.5 40.5 6
    endloop
  endfacet
  facet normal 0 0 1
    outer loop
      vertex 15 40.366 6
      vertex 15 38.634 6
      vertex 15.5 38.5 6
    endloop
  endfacet
  facet normal -0 0 1
    outer loop
      vertex 14.634 40 6
      vertex 15 38.634 6
      vertex 15 40.366 6
    endloop
  endfacet
  facet normal 0 0 1
    outer loop
      vertex 14.634 40 6
      vertex 14.634 39 6
      vertex 15 38.634 6
    endloop
  endfacet
  facet normal 0 -0 1
    outer loop
      vertex 14.634 39 6
      vertex 14.634 40 6
      vertex 14.5 39.5 6
    endloop
  endfacet
  facet normal -0.707107 -0.707107 0
    outer loop
      vertex 14.634 39 4
      vertex 15 38.634 6
      vertex 14.634 39 6
    endloop
  endfacet
  facet normal -0.707107 -0.707107 -0
    outer loop
      vertex 15 38.634 6
      vertex 14.634 39 4
      vertex 15 38.634 4
    endloop
  endfacet
  facet normal -0.258865 -0.965914 0
    outer loop
      vertex 15 38.634 4
      vertex 15.5 38.5 6
      vertex 15 38.634 6
    endloop
  endfacet
  facet normal -0.258865 -0.965914 -0
    outer loop
      vertex 15.5 38.5 6
      vertex 15 38.634 4
      vertex 15.5 38.5 4
    endloop
  endfacet
  facet normal -0.965933 -0.258793 0
    outer loop
      vertex 13.3349 87.25 2.01
      vertex 13 88.5 4
      vertex 13 88.5 2.01
    endloop
  endfacet
  facet normal -0.965933 -0.258793 0
    outer loop
      vertex 13 88.5 4
      vertex 13.3349 87.25 2.01
      vertex 13.3349 87.25 4
    endloop
  endfacet
  facet normal 0.707107 0.707107 0
    outer loop
      vertex 17.6651 89.75 4
      vertex 16.75 90.6651 2.01
      vertex 16.75 90.6651 4
    endloop
  endfacet
  facet normal 0.707107 0.707107 0
    outer loop
      vertex 16.75 90.6651 2.01
      vertex 17.6651 89.75 4
      vertex 17.6651 89.75 2.01
    endloop
  endfacet
  facet normal 0.965933 0.258793 0
    outer loop
      vertex 18 88.5 4
      vertex 17.6651 89.75 2.01
      vertex 17.6651 89.75 4
    endloop
  endfacet
  facet normal 0.965933 0.258793 0
    outer loop
      vertex 17.6651 89.75 2.01
      vertex 18 88.5 4
      vertex 18 88.5 2.01
    endloop
  endfacet
  facet normal 0.258793 0.965933 -0
    outer loop
      vertex 16.75 90.6651 2.01
      vertex 15.5 91 4
      vertex 16.75 90.6651 4
    endloop
  endfacet
  facet normal 0.258793 0.965933 0
    outer loop
      vertex 15.5 91 4
      vertex 16.75 90.6651 2.01
      vertex 15.5 91 2.01
    endloop
  endfacet
  facet normal 0.258793 -0.965933 0
    outer loop
      vertex 15.5 86 2.01
      vertex 16.75 86.3349 4
      vertex 15.5 86 4
    endloop
  endfacet
  facet normal 0.258793 -0.965933 0
    outer loop
      vertex 16.75 86.3349 4
      vertex 15.5 86 2.01
      vertex 16.75 86.3349 2.01
    endloop
  endfacet
  facet normal 0.965933 -0.258793 0
    outer loop
      vertex 17.6651 87.25 4
      vertex 18 88.5 2.01
      vertex 18 88.5 4
    endloop
  endfacet
  facet normal 0.965933 -0.258793 0
    outer loop
      vertex 18 88.5 2.01
      vertex 17.6651 87.25 4
      vertex 17.6651 87.25 2.01
    endloop
  endfacet
  facet normal -0.707107 0.707107 0
    outer loop
      vertex 14.25 90.6651 2.01
      vertex 13.3349 89.75 4
      vertex 14.25 90.6651 4
    endloop
  endfacet
  facet normal -0.707107 0.707107 0
    outer loop
      vertex 13.3349 89.75 4
      vertex 14.25 90.6651 2.01
      vertex 13.3349 89.75 2.01
    endloop
  endfacet
  facet normal -0.258793 0.965933 0
    outer loop
      vertex 15.5 91 2.01
      vertex 14.25 90.6651 4
      vertex 15.5 91 4
    endloop
  endfacet
  facet normal -0.258793 0.965933 0
    outer loop
      vertex 14.25 90.6651 4
      vertex 15.5 91 2.01
      vertex 14.25 90.6651 2.01
    endloop
  endfacet
  facet normal -0.965933 0.258793 0
    outer loop
      vertex 13 88.5 2.01
      vertex 13.3349 89.75 4
      vertex 13.3349 89.75 2.01
    endloop
  endfacet
  facet normal -0.965933 0.258793 0
    outer loop
      vertex 13.3349 89.75 4
      vertex 13 88.5 2.01
      vertex 13 88.5 4
    endloop
  endfacet
  facet normal 0.707107 -0.707107 0
    outer loop
      vertex 16.75 86.3349 4
      vertex 17.6651 87.25 2.01
      vertex 17.6651 87.25 4
    endloop
  endfacet
  facet normal 0.707107 -0.707107 0
    outer loop
      vertex 17.6651 87.25 2.01
      vertex 16.75 86.3349 4
      vertex 16.75 86.3349 2.01
    endloop
  endfacet
  facet normal 0 0 1
    outer loop
      vertex 16.5 88.5 4
      vertex 18 88.5 4
      vertex 17.6651 89.75 4
    endloop
  endfacet
  facet normal 0 0 1
    outer loop
      vertex 16.366 89 4
      vertex 17.6651 89.75 4
      vertex 16.75 90.6651 4
    endloop
  endfacet
  facet normal 0 0 1
    outer loop
      vertex 18 88.5 4
      vertex 16.5 88.5 4
      vertex 17.6651 87.25 4
    endloop
  endfacet
  facet normal -0 0 1
    outer loop
      vertex 16.366 88 4
      vertex 17.6651 87.25 4
      vertex 16.5 88.5 4
    endloop
  endfacet
  facet normal 0 0 1
    outer loop
      vertex 17.6651 89.75 4
      vertex 16.366 89 4
      vertex 16.5 88.5 4
    endloop
  endfacet
  facet normal 0 0 1
    outer loop
      vertex 16.75 90.6651 4
      vertex 16 89.366 4
      vertex 16.366 89 4
    endloop
  endfacet
  facet normal 0 0 1
    outer loop
      vertex 15.5 91 4
      vertex 16 89.366 4
      vertex 16.75 90.6651 4
    endloop
  endfacet
  facet normal 0 0 1
    outer loop
      vertex 15.5 91 4
      vertex 15.5 89.5 4
      vertex 16 89.366 4
    endloop
  endfacet
  facet normal 0 0 1
    outer loop
      vertex 15.5 91 4
      vertex 15 89.366 4
      vertex 15.5 89.5 4
    endloop
  endfacet
  facet normal -0 0 1
    outer loop
      vertex 14.25 90.6651 4
      vertex 15 89.366 4
      vertex 15.5 91 4
    endloop
  endfacet
  facet normal -0 0 1
    outer loop
      vertex 13.3349 89.75 4
      vertex 14.634 89 4
      vertex 14.25 90.6651 4
    endloop
  endfacet
  facet normal 0 0 1
    outer loop
      vertex 15 89.366 4
      vertex 14.25 90.6651 4
      vertex 14.634 89 4
    endloop
  endfacet
  facet normal 0 0 1
    outer loop
      vertex 17.6651 87.25 4
      vertex 16.366 88 4
      vertex 16.75 86.3349 4
    endloop
  endfacet
  facet normal -0 0 1
    outer loop
      vertex 16 87.634 4
      vertex 16.75 86.3349 4
      vertex 16.366 88 4
    endloop
  endfacet
  facet normal -0 0 1
    outer loop
      vertex 15.5 87.5 4
      vertex 16.75 86.3349 4
      vertex 16 87.634 4
    endloop
  endfacet
  facet normal 0 0 1
    outer loop
      vertex 15.5 87.5 4
      vertex 15.5 86 4
      vertex 16.75 86.3349 4
    endloop
  endfacet
  facet normal 0 0 1
    outer loop
      vertex 15 87.634 4
      vertex 15.5 86 4
      vertex 15.5 87.5 4
    endloop
  endfacet
  facet normal 0 0 1
    outer loop
      vertex 14.25 86.3349 4
      vertex 15 87.634 4
      vertex 14.634 88 4
    endloop
  endfacet
  facet normal 0 0 1
    outer loop
      vertex 15 87.634 4
      vertex 14.25 86.3349 4
      vertex 15.5 86 4
    endloop
  endfacet
  facet normal 0 0 1
    outer loop
      vertex 13.3349 87.25 4
      vertex 14.634 88 4
      vertex 14.5 88.5 4
    endloop
  endfacet
  facet normal 0 0 1
    outer loop
      vertex 14.634 89 4
      vertex 13.3349 89.75 4
      vertex 14.5 88.5 4
    endloop
  endfacet
  facet normal 0 0 1
    outer loop
      vertex 13 88.5 4
      vertex 14.5 88.5 4
      vertex 13.3349 89.75 4
    endloop
  endfacet
  facet normal 0 0 1
    outer loop
      vertex 14.634 88 4
      vertex 13.3349 87.25 4
      vertex 14.25 86.3349 4
    endloop
  endfacet
  facet normal 0 0 1
    outer loop
      vertex 14.5 88.5 4
      vertex 13 88.5 4
      vertex 13.3349 87.25 4
    endloop
  endfacet
  facet normal -0.707107 -0.707107 0
    outer loop
      vertex 13.3349 87.25 2.01
      vertex 14.25 86.3349 4
      vertex 13.3349 87.25 4
    endloop
  endfacet
  facet normal -0.707107 -0.707107 -0
    outer loop
      vertex 14.25 86.3349 4
      vertex 13.3349 87.25 2.01
      vertex 14.25 86.3349 2.01
    endloop
  endfacet
  facet normal -0.258793 -0.965933 0
    outer loop
      vertex 14.25 86.3349 2.01
      vertex 15.5 86 4
      vertex 14.25 86.3349 4
    endloop
  endfacet
  facet normal -0.258793 -0.965933 -0
    outer loop
      vertex 15.5 86 4
      vertex 14.25 86.3349 2.01
      vertex 15.5 86 2.01
    endloop
  endfacet
  facet normal -0.965914 -0.258865 0
    outer loop
      vertex 14.634 88 4
      vertex 14.5 88.5 6
      vertex 14.5 88.5 4
    endloop
  endfacet
  facet normal -0.965914 -0.258865 0
    outer loop
      vertex 14.5 88.5 6
      vertex 14.634 88 4
      vertex 14.634 88 6
    endloop
  endfacet
  facet normal 0.707107 0.707107 0
    outer loop
      vertex 16.366 89 6
      vertex 16 89.366 4
      vertex 16 89.366 6
    endloop
  endfacet
  facet normal 0.707107 0.707107 0
    outer loop
      vertex 16 89.366 4
      vertex 16.366 89 6
      vertex 16.366 89 4
    endloop
  endfacet
  facet normal 0.965914 0.258865 0
    outer loop
      vertex 16.5 88.5 6
      vertex 16.366 89 4
      vertex 16.366 89 6
    endloop
  endfacet
  facet normal 0.965914 0.258865 0
    outer loop
      vertex 16.366 89 4
      vertex 16.5 88.5 6
      vertex 16.5 88.5 4
    endloop
  endfacet
  facet normal 0.258865 0.965914 -0
    outer loop
      vertex 16 89.366 4
      vertex 15.5 89.5 6
      vertex 16 89.366 6
    endloop
  endfacet
  facet normal 0.258865 0.965914 0
    outer loop
      vertex 15.5 89.5 6
      vertex 16 89.366 4
      vertex 15.5 89.5 4
    endloop
  endfacet
  facet normal 0.258865 -0.965914 0
    outer loop
      vertex 15.5 87.5 4
      vertex 16 87.634 6
      vertex 15.5 87.5 6
    endloop
  endfacet
  facet normal 0.258865 -0.965914 0
    outer loop
      vertex 16 87.634 6
      vertex 15.5 87.5 4
      vertex 16 87.634 4
    endloop
  endfacet
  facet normal 0.965914 -0.258865 0
    outer loop
      vertex 16.366 88 6
      vertex 16.5 88.5 4
      vertex 16.5 88.5 6
    endloop
  endfacet
  facet normal 0.965914 -0.258865 0
    outer loop
      vertex 16.5 88.5 4
      vertex 16.366 88 6
      vertex 16.366 88 4
    endloop
  endfacet
  facet normal -0.707107 0.707107 0
    outer loop
      vertex 14.634 89 4
      vertex 15 89.366 6
      vertex 15 89.366 4
    endloop
  endfacet
  facet normal -0.707107 0.707107 0
    outer loop
      vertex 15 89.366 6
      vertex 14.634 89 4
      vertex 14.634 89 6
    endloop
  endfacet
  facet normal -0.258865 0.965914 0
    outer loop
      vertex 15.5 89.5 4
      vertex 15 89.366 6
      vertex 15.5 89.5 6
    endloop
  endfacet
  facet normal -0.258865 0.965914 0
    outer loop
      vertex 15 89.366 6
      vertex 15.5 89.5 4
      vertex 15 89.366 4
    endloop
  endfacet
  facet normal -0.965914 0.258865 0
    outer loop
      vertex 14.5 88.5 4
      vertex 14.634 89 6
      vertex 14.634 89 4
    endloop
  endfacet
  facet normal -0.965914 0.258865 0
    outer loop
      vertex 14.634 89 6
      vertex 14.5 88.5 4
      vertex 14.5 88.5 6
    endloop
  endfacet
  facet normal 0.707107 -0.707107 0
    outer loop
      vertex 16 87.634 6
      vertex 16.366 88 4
      vertex 16.366 88 6
    endloop
  endfacet
  facet normal 0.707107 -0.707107 0
    outer loop
      vertex 16.366 88 4
      vertex 16 87.634 6
      vertex 16 87.634 4
    endloop
  endfacet
  facet normal 0 0 1
    outer loop
      vertex 16.366 89 6
      vertex 16.366 88 6
      vertex 16.5 88.5 6
    endloop
  endfacet
  facet normal 0 0 1
    outer loop
      vertex 16 89.366 6
      vertex 16.366 88 6
      vertex 16.366 89 6
    endloop
  endfacet
  facet normal 0 0 1
    outer loop
      vertex 16 89.366 6
      vertex 16 87.634 6
      vertex 16.366 88 6
    endloop
  endfacet
  facet normal 0 0 1
    outer loop
      vertex 15.5 89.5 6
      vertex 16 87.634 6
      vertex 16 89.366 6
    endloop
  endfacet
  facet normal 0 0 1
    outer loop
      vertex 15.5 89.5 6
      vertex 15.5 87.5 6
      vertex 16 87.634 6
    endloop
  endfacet
  facet normal -0 0 1
    outer loop
      vertex 15 89.366 6
      vertex 15.5 87.5 6
      vertex 15.5 89.5 6
    endloop
  endfacet
  facet normal 0 0 1
    outer loop
      vertex 15 89.366 6
      vertex 15 87.634 6
      vertex 15.5 87.5 6
    endloop
  endfacet
  facet normal -0 0 1
    outer loop
      vertex 14.634 89 6
      vertex 15 87.634 6
      vertex 15 89.366 6
    endloop
  endfacet
  facet normal 0 0 1
    outer loop
      vertex 14.634 89 6
      vertex 14.634 88 6
      vertex 15 87.634 6
    endloop
  endfacet
  facet normal 0 -0 1
    outer loop
      vertex 14.634 88 6
      vertex 14.634 89 6
      vertex 14.5 88.5 6
    endloop
  endfacet
  facet normal -0.707107 -0.707107 0
    outer loop
      vertex 15 87.634 4
      vertex 14.634 88 6
      vertex 14.634 88 4
    endloop
  endfacet
  facet normal -0.707107 -0.707107 0
    outer loop
      vertex 14.634 88 6
      vertex 15 87.634 4
      vertex 15 87.634 6
    endloop
  endfacet
  facet normal -0.258865 -0.965914 0
    outer loop
      vertex 15 87.634 4
      vertex 15.5 87.5 6
      vertex 15 87.634 6
    endloop
  endfacet
  facet normal -0.258865 -0.965914 -0
    outer loop
      vertex 15.5 87.5 6
      vertex 15 87.634 4
      vertex 15.5 87.5 4
    endloop
  endfacet
  facet normal -0.965933 -0.258793 0
    outer loop
      vertex 71.3349 38.25 2.01
      vertex 71 39.5 4
      vertex 71 39.5 2.01
    endloop
  endfacet
  facet normal -0.965933 -0.258793 0
    outer loop
      vertex 71 39.5 4
      vertex 71.3349 38.25 2.01
      vertex 71.3349 38.25 4
    endloop
  endfacet
  facet normal 0.707107 0.707107 0
    outer loop
      vertex 75.6651 40.75 4
      vertex 74.75 41.6651 2.01
      vertex 74.75 41.6651 4
    endloop
  endfacet
  facet normal 0.707107 0.707107 0
    outer loop
      vertex 74.75 41.6651 2.01
      vertex 75.6651 40.75 4
      vertex 75.6651 40.75 2.01
    endloop
  endfacet
  facet normal 0.965933 0.258793 0
    outer loop
      vertex 76 39.5 4
      vertex 75.6651 40.75 2.01
      vertex 75.6651 40.75 4
    endloop
  endfacet
  facet normal 0.965933 0.258793 0
    outer loop
      vertex 75.6651 40.75 2.01
      vertex 76 39.5 4
      vertex 76 39.5 2.01
    endloop
  endfacet
  facet normal 0.258793 0.965933 -0
    outer loop
      vertex 74.75 41.6651 2.01
      vertex 73.5 42 4
      vertex 74.75 41.6651 4
    endloop
  endfacet
  facet normal 0.258793 0.965933 0
    outer loop
      vertex 73.5 42 4
      vertex 74.75 41.6651 2.01
      vertex 73.5 42 2.01
    endloop
  endfacet
  facet normal 0.258793 -0.965933 0
    outer loop
      vertex 73.5 37 2.01
      vertex 74.75 37.3349 4
      vertex 73.5 37 4
    endloop
  endfacet
  facet normal 0.258793 -0.965933 0
    outer loop
      vertex 74.75 37.3349 4
      vertex 73.5 37 2.01
      vertex 74.75 37.3349 2.01
    endloop
  endfacet
  facet normal 0.965933 -0.258793 0
    outer loop
      vertex 75.6651 38.25 4
      vertex 76 39.5 2.01
      vertex 76 39.5 4
    endloop
  endfacet
  facet normal 0.965933 -0.258793 0
    outer loop
      vertex 76 39.5 2.01
      vertex 75.6651 38.25 4
      vertex 75.6651 38.25 2.01
    endloop
  endfacet
  facet normal -0.707107 0.707107 0
    outer loop
      vertex 71.3349 40.75 2.01
      vertex 72.25 41.6651 4
      vertex 72.25 41.6651 2.01
    endloop
  endfacet
  facet normal -0.707107 0.707107 0
    outer loop
      vertex 72.25 41.6651 4
      vertex 71.3349 40.75 2.01
      vertex 71.3349 40.75 4
    endloop
  endfacet
  facet normal -0.258793 0.965933 0
    outer loop
      vertex 73.5 42 2.01
      vertex 72.25 41.6651 4
      vertex 73.5 42 4
    endloop
  endfacet
  facet normal -0.258793 0.965933 0
    outer loop
      vertex 72.25 41.6651 4
      vertex 73.5 42 2.01
      vertex 72.25 41.6651 2.01
    endloop
  endfacet
  facet normal -0.965933 0.258793 0
    outer loop
      vertex 71 39.5 2.01
      vertex 71.3349 40.75 4
      vertex 71.3349 40.75 2.01
    endloop
  endfacet
  facet normal -0.965933 0.258793 0
    outer loop
      vertex 71.3349 40.75 4
      vertex 71 39.5 2.01
      vertex 71 39.5 4
    endloop
  endfacet
  facet normal 0.707107 -0.707107 0
    outer loop
      vertex 74.75 37.3349 4
      vertex 75.6651 38.25 2.01
      vertex 75.6651 38.25 4
    endloop
  endfacet
  facet normal 0.707107 -0.707107 0
    outer loop
      vertex 75.6651 38.25 2.01
      vertex 74.75 37.3349 4
      vertex 74.75 37.3349 2.01
    endloop
  endfacet
  facet normal 0 0 1
    outer loop
      vertex 74.5 39.5 4
      vertex 76 39.5 4
      vertex 75.6651 40.75 4
    endloop
  endfacet
  facet normal 0 0 1
    outer loop
      vertex 74.366 40 4
      vertex 75.6651 40.75 4
      vertex 74.75 41.6651 4
    endloop
  endfacet
  facet normal 0 0 1
    outer loop
      vertex 76 39.5 4
      vertex 74.5 39.5 4
      vertex 75.6651 38.25 4
    endloop
  endfacet
  facet normal -0 0 1
    outer loop
      vertex 74.366 39 4
      vertex 75.6651 38.25 4
      vertex 74.5 39.5 4
    endloop
  endfacet
  facet normal 0 0 1
    outer loop
      vertex 75.6651 40.75 4
      vertex 74.366 40 4
      vertex 74.5 39.5 4
    endloop
  endfacet
  facet normal 0 0 1
    outer loop
      vertex 74.75 41.6651 4
      vertex 74 40.366 4
      vertex 74.366 40 4
    endloop
  endfacet
  facet normal 0 0 1
    outer loop
      vertex 73.5 42 4
      vertex 74 40.366 4
      vertex 74.75 41.6651 4
    endloop
  endfacet
  facet normal 0 0 1
    outer loop
      vertex 73.5 42 4
      vertex 73.5 40.5 4
      vertex 74 40.366 4
    endloop
  endfacet
  facet normal 0 0 1
    outer loop
      vertex 73.5 42 4
      vertex 73 40.366 4
      vertex 73.5 40.5 4
    endloop
  endfacet
  facet normal -0 0 1
    outer loop
      vertex 72.25 41.6651 4
      vertex 73 40.366 4
      vertex 73.5 42 4
    endloop
  endfacet
  facet normal -0 0 1
    outer loop
      vertex 71.3349 40.75 4
      vertex 72.634 40 4
      vertex 72.25 41.6651 4
    endloop
  endfacet
  facet normal 0 0 1
    outer loop
      vertex 73 40.366 4
      vertex 72.25 41.6651 4
      vertex 72.634 40 4
    endloop
  endfacet
  facet normal 0 0 1
    outer loop
      vertex 75.6651 38.25 4
      vertex 74.366 39 4
      vertex 74.75 37.3349 4
    endloop
  endfacet
  facet normal -0 0 1
    outer loop
      vertex 74 38.634 4
      vertex 74.75 37.3349 4
      vertex 74.366 39 4
    endloop
  endfacet
  facet normal -0 0 1
    outer loop
      vertex 73.5 38.5 4
      vertex 74.75 37.3349 4
      vertex 74 38.634 4
    endloop
  endfacet
  facet normal 0 0 1
    outer loop
      vertex 73.5 38.5 4
      vertex 73.5 37 4
      vertex 74.75 37.3349 4
    endloop
  endfacet
  facet normal 0 0 1
    outer loop
      vertex 73 38.634 4
      vertex 73.5 37 4
      vertex 73.5 38.5 4
    endloop
  endfacet
  facet normal 0 0 1
    outer loop
      vertex 72.25 37.3349 4
      vertex 73 38.634 4
      vertex 72.634 39 4
    endloop
  endfacet
  facet normal 0 0 1
    outer loop
      vertex 73 38.634 4
      vertex 72.25 37.3349 4
      vertex 73.5 37 4
    endloop
  endfacet
  facet normal 0 0 1
    outer loop
      vertex 71.3349 38.25 4
      vertex 72.634 39 4
      vertex 72.5 39.5 4
    endloop
  endfacet
  facet normal 0 0 1
    outer loop
      vertex 72.634 40 4
      vertex 71.3349 40.75 4
      vertex 72.5 39.5 4
    endloop
  endfacet
  facet normal 0 0 1
    outer loop
      vertex 71 39.5 4
      vertex 72.5 39.5 4
      vertex 71.3349 40.75 4
    endloop
  endfacet
  facet normal 0 0 1
    outer loop
      vertex 72.634 39 4
      vertex 71.3349 38.25 4
      vertex 72.25 37.3349 4
    endloop
  endfacet
  facet normal 0 0 1
    outer loop
      vertex 72.5 39.5 4
      vertex 71 39.5 4
      vertex 71.3349 38.25 4
    endloop
  endfacet
  facet normal -0.707107 -0.707107 0
    outer loop
      vertex 72.25 37.3349 2.01
      vertex 71.3349 38.25 4
      vertex 71.3349 38.25 2.01
    endloop
  endfacet
  facet normal -0.707107 -0.707107 0
    outer loop
      vertex 71.3349 38.25 4
      vertex 72.25 37.3349 2.01
      vertex 72.25 37.3349 4
    endloop
  endfacet
  facet normal -0.258793 -0.965933 0
    outer loop
      vertex 72.25 37.3349 2.01
      vertex 73.5 37 4
      vertex 72.25 37.3349 4
    endloop
  endfacet
  facet normal -0.258793 -0.965933 -0
    outer loop
      vertex 73.5 37 4
      vertex 72.25 37.3349 2.01
      vertex 73.5 37 2.01
    endloop
  endfacet
  facet normal -0.965914 -0.258865 0
    outer loop
      vertex 72.634 39 4
      vertex 72.5 39.5 6
      vertex 72.5 39.5 4
    endloop
  endfacet
  facet normal -0.965914 -0.258865 0
    outer loop
      vertex 72.5 39.5 6
      vertex 72.634 39 4
      vertex 72.634 39 6
    endloop
  endfacet
  facet normal 0.707107 0.707107 -0
    outer loop
      vertex 74.366 40 4
      vertex 74 40.366 6
      vertex 74.366 40 6
    endloop
  endfacet
  facet normal 0.707107 0.707107 0
    outer loop
      vertex 74 40.366 6
      vertex 74.366 40 4
      vertex 74 40.366 4
    endloop
  endfacet
  facet normal 0.965914 0.258865 0
    outer loop
      vertex 74.5 39.5 6
      vertex 74.366 40 4
      vertex 74.366 40 6
    endloop
  endfacet
  facet normal 0.965914 0.258865 0
    outer loop
      vertex 74.366 40 4
      vertex 74.5 39.5 6
      vertex 74.5 39.5 4
    endloop
  endfacet
  facet normal 0.258865 0.965914 -0
    outer loop
      vertex 74 40.366 4
      vertex 73.5 40.5 6
      vertex 74 40.366 6
    endloop
  endfacet
  facet normal 0.258865 0.965914 0
    outer loop
      vertex 73.5 40.5 6
      vertex 74 40.366 4
      vertex 73.5 40.5 4
    endloop
  endfacet
  facet normal 0.258865 -0.965914 0
    outer loop
      vertex 73.5 38.5 4
      vertex 74 38.634 6
      vertex 73.5 38.5 6
    endloop
  endfacet
  facet normal 0.258865 -0.965914 0
    outer loop
      vertex 74 38.634 6
      vertex 73.5 38.5 4
      vertex 74 38.634 4
    endloop
  endfacet
  facet normal 0.965914 -0.258865 0
    outer loop
      vertex 74.366 39 6
      vertex 74.5 39.5 4
      vertex 74.5 39.5 6
    endloop
  endfacet
  facet normal 0.965914 -0.258865 0
    outer loop
      vertex 74.5 39.5 4
      vertex 74.366 39 6
      vertex 74.366 39 4
    endloop
  endfacet
  facet normal -0.707107 0.707107 0
    outer loop
      vertex 73 40.366 4
      vertex 72.634 40 6
      vertex 73 40.366 6
    endloop
  endfacet
  facet normal -0.707107 0.707107 0
    outer loop
      vertex 72.634 40 6
      vertex 73 40.366 4
      vertex 72.634 40 4
    endloop
  endfacet
  facet normal -0.258865 0.965914 0
    outer loop
      vertex 73.5 40.5 4
      vertex 73 40.366 6
      vertex 73.5 40.5 6
    endloop
  endfacet
  facet normal -0.258865 0.965914 0
    outer loop
      vertex 73 40.366 6
      vertex 73.5 40.5 4
      vertex 73 40.366 4
    endloop
  endfacet
  facet normal -0.965914 0.258865 0
    outer loop
      vertex 72.5 39.5 4
      vertex 72.634 40 6
      vertex 72.634 40 4
    endloop
  endfacet
  facet normal -0.965914 0.258865 0
    outer loop
      vertex 72.634 40 6
      vertex 72.5 39.5 4
      vertex 72.5 39.5 6
    endloop
  endfacet
  facet normal 0.707107 -0.707107 0
    outer loop
      vertex 74 38.634 4
      vertex 74.366 39 6
      vertex 74 38.634 6
    endloop
  endfacet
  facet normal 0.707107 -0.707107 0
    outer loop
      vertex 74.366 39 6
      vertex 74 38.634 4
      vertex 74.366 39 4
    endloop
  endfacet
  facet normal 0 0 1
    outer loop
      vertex 74.366 40 6
      vertex 74.366 39 6
      vertex 74.5 39.5 6
    endloop
  endfacet
  facet normal 0 0 1
    outer loop
      vertex 74 40.366 6
      vertex 74.366 39 6
      vertex 74.366 40 6
    endloop
  endfacet
  facet normal 0 0 1
    outer loop
      vertex 74 40.366 6
      vertex 74 38.634 6
      vertex 74.366 39 6
    endloop
  endfacet
  facet normal 0 0 1
    outer loop
      vertex 73.5 40.5 6
      vertex 74 38.634 6
      vertex 74 40.366 6
    endloop
  endfacet
  facet normal 0 0 1
    outer loop
      vertex 73.5 40.5 6
      vertex 73.5 38.5 6
      vertex 74 38.634 6
    endloop
  endfacet
  facet normal -0 0 1
    outer loop
      vertex 73 40.366 6
      vertex 73.5 38.5 6
      vertex 73.5 40.5 6
    endloop
  endfacet
  facet normal 0 0 1
    outer loop
      vertex 73 40.366 6
      vertex 73 38.634 6
      vertex 73.5 38.5 6
    endloop
  endfacet
  facet normal -0 0 1
    outer loop
      vertex 72.634 40 6
      vertex 73 38.634 6
      vertex 73 40.366 6
    endloop
  endfacet
  facet normal 0 0 1
    outer loop
      vertex 72.634 40 6
      vertex 72.634 39 6
      vertex 73 38.634 6
    endloop
  endfacet
  facet normal 0 -0 1
    outer loop
      vertex 72.634 39 6
      vertex 72.634 40 6
      vertex 72.5 39.5 6
    endloop
  endfacet
  facet normal -0.707107 -0.707107 0
    outer loop
      vertex 72.634 39 4
      vertex 73 38.634 6
      vertex 72.634 39 6
    endloop
  endfacet
  facet normal -0.707107 -0.707107 -0
    outer loop
      vertex 73 38.634 6
      vertex 72.634 39 4
      vertex 73 38.634 4
    endloop
  endfacet
  facet normal -0.258865 -0.965914 0
    outer loop
      vertex 73 38.634 4
      vertex 73.5 38.5 6
      vertex 73 38.634 6
    endloop
  endfacet
  facet normal -0.258865 -0.965914 -0
    outer loop
      vertex 73.5 38.5 6
      vertex 73 38.634 4
      vertex 73.5 38.5 4
    endloop
  endfacet
  facet normal -0.965933 -0.258793 0
    outer loop
      vertex 71.3349 87.25 2.01
      vertex 71 88.5 4
      vertex 71 88.5 2.01
    endloop
  endfacet
  facet normal -0.965933 -0.258793 0
    outer loop
      vertex 71 88.5 4
      vertex 71.3349 87.25 2.01
      vertex 71.3349 87.25 4
    endloop
  endfacet
  facet normal 0.707107 0.707107 0
    outer loop
      vertex 75.6651 89.75 4
      vertex 74.75 90.6651 2.01
      vertex 74.75 90.6651 4
    endloop
  endfacet
  facet normal 0.707107 0.707107 0
    outer loop
      vertex 74.75 90.6651 2.01
      vertex 75.6651 89.75 4
      vertex 75.6651 89.75 2.01
    endloop
  endfacet
  facet normal 0.965933 0.258793 0
    outer loop
      vertex 76 88.5 4
      vertex 75.6651 89.75 2.01
      vertex 75.6651 89.75 4
    endloop
  endfacet
  facet normal 0.965933 0.258793 0
    outer loop
      vertex 75.6651 89.75 2.01
      vertex 76 88.5 4
      vertex 76 88.5 2.01
    endloop
  endfacet
  facet normal 0.258793 0.965933 -0
    outer loop
      vertex 74.75 90.6651 2.01
      vertex 73.5 91 4
      vertex 74.75 90.6651 4
    endloop
  endfacet
  facet normal 0.258793 0.965933 0
    outer loop
      vertex 73.5 91 4
      vertex 74.75 90.6651 2.01
      vertex 73.5 91 2.01
    endloop
  endfacet
  facet normal 0.258793 -0.965933 0
    outer loop
      vertex 73.5 86 2.01
      vertex 74.75 86.3349 4
      vertex 73.5 86 4
    endloop
  endfacet
  facet normal 0.258793 -0.965933 0
    outer loop
      vertex 74.75 86.3349 4
      vertex 73.5 86 2.01
      vertex 74.75 86.3349 2.01
    endloop
  endfacet
  facet normal 0.965933 -0.258793 0
    outer loop
      vertex 75.6651 87.25 4
      vertex 76 88.5 2.01
      vertex 76 88.5 4
    endloop
  endfacet
  facet normal 0.965933 -0.258793 0
    outer loop
      vertex 76 88.5 2.01
      vertex 75.6651 87.25 4
      vertex 75.6651 87.25 2.01
    endloop
  endfacet
  facet normal -0.707107 0.707107 0
    outer loop
      vertex 71.3349 89.75 2.01
      vertex 72.25 90.6651 4
      vertex 72.25 90.6651 2.01
    endloop
  endfacet
  facet normal -0.707107 0.707107 0
    outer loop
      vertex 72.25 90.6651 4
      vertex 71.3349 89.75 2.01
      vertex 71.3349 89.75 4
    endloop
  endfacet
  facet normal -0.258793 0.965933 0
    outer loop
      vertex 73.5 91 2.01
      vertex 72.25 90.6651 4
      vertex 73.5 91 4
    endloop
  endfacet
  facet normal -0.258793 0.965933 0
    outer loop
      vertex 72.25 90.6651 4
      vertex 73.5 91 2.01
      vertex 72.25 90.6651 2.01
    endloop
  endfacet
  facet normal -0.965933 0.258793 0
    outer loop
      vertex 71 88.5 2.01
      vertex 71.3349 89.75 4
      vertex 71.3349 89.75 2.01
    endloop
  endfacet
  facet normal -0.965933 0.258793 0
    outer loop
      vertex 71.3349 89.75 4
      vertex 71 88.5 2.01
      vertex 71 88.5 4
    endloop
  endfacet
  facet normal 0.707107 -0.707107 0
    outer loop
      vertex 74.75 86.3349 4
      vertex 75.6651 87.25 2.01
      vertex 75.6651 87.25 4
    endloop
  endfacet
  facet normal 0.707107 -0.707107 0
    outer loop
      vertex 75.6651 87.25 2.01
      vertex 74.75 86.3349 4
      vertex 74.75 86.3349 2.01
    endloop
  endfacet
  facet normal 0 0 1
    outer loop
      vertex 74.5 88.5 4
      vertex 76 88.5 4
      vertex 75.6651 89.75 4
    endloop
  endfacet
  facet normal 0 0 1
    outer loop
      vertex 74.366 89 4
      vertex 75.6651 89.75 4
      vertex 74.75 90.6651 4
    endloop
  endfacet
  facet normal 0 0 1
    outer loop
      vertex 76 88.5 4
      vertex 74.5 88.5 4
      vertex 75.6651 87.25 4
    endloop
  endfacet
  facet normal -0 0 1
    outer loop
      vertex 74.366 88 4
      vertex 75.6651 87.25 4
      vertex 74.5 88.5 4
    endloop
  endfacet
  facet normal 0 0 1
    outer loop
      vertex 75.6651 89.75 4
      vertex 74.366 89 4
      vertex 74.5 88.5 4
    endloop
  endfacet
  facet normal 0 0 1
    outer loop
      vertex 74.75 90.6651 4
      vertex 74 89.366 4
      vertex 74.366 89 4
    endloop
  endfacet
  facet normal 0 0 1
    outer loop
      vertex 73.5 91 4
      vertex 74 89.366 4
      vertex 74.75 90.6651 4
    endloop
  endfacet
  facet normal 0 0 1
    outer loop
      vertex 73.5 91 4
      vertex 73.5 89.5 4
      vertex 74 89.366 4
    endloop
  endfacet
  facet normal 0 0 1
    outer loop
      vertex 73.5 91 4
      vertex 73 89.366 4
      vertex 73.5 89.5 4
    endloop
  endfacet
  facet normal -0 0 1
    outer loop
      vertex 72.25 90.6651 4
      vertex 73 89.366 4
      vertex 73.5 91 4
    endloop
  endfacet
  facet normal -0 0 1
    outer loop
      vertex 71.3349 89.75 4
      vertex 72.634 89 4
      vertex 72.25 90.6651 4
    endloop
  endfacet
  facet normal 0 0 1
    outer loop
      vertex 73 89.366 4
      vertex 72.25 90.6651 4
      vertex 72.634 89 4
    endloop
  endfacet
  facet normal 0 0 1
    outer loop
      vertex 75.6651 87.25 4
      vertex 74.366 88 4
      vertex 74.75 86.3349 4
    endloop
  endfacet
  facet normal -0 0 1
    outer loop
      vertex 74 87.634 4
      vertex 74.75 86.3349 4
      vertex 74.366 88 4
    endloop
  endfacet
  facet normal -0 0 1
    outer loop
      vertex 73.5 87.5 4
      vertex 74.75 86.3349 4
      vertex 74 87.634 4
    endloop
  endfacet
  facet normal 0 0 1
    outer loop
      vertex 73.5 87.5 4
      vertex 73.5 86 4
      vertex 74.75 86.3349 4
    endloop
  endfacet
  facet normal 0 0 1
    outer loop
      vertex 73 87.634 4
      vertex 73.5 86 4
      vertex 73.5 87.5 4
    endloop
  endfacet
  facet normal 0 0 1
    outer loop
      vertex 72.25 86.3349 4
      vertex 73 87.634 4
      vertex 72.634 88 4
    endloop
  endfacet
  facet normal 0 0 1
    outer loop
      vertex 73 87.634 4
      vertex 72.25 86.3349 4
      vertex 73.5 86 4
    endloop
  endfacet
  facet normal 0 0 1
    outer loop
      vertex 71.3349 87.25 4
      vertex 72.634 88 4
      vertex 72.5 88.5 4
    endloop
  endfacet
  facet normal 0 0 1
    outer loop
      vertex 72.634 89 4
      vertex 71.3349 89.75 4
      vertex 72.5 88.5 4
    endloop
  endfacet
  facet normal 0 0 1
    outer loop
      vertex 71 88.5 4
      vertex 72.5 88.5 4
      vertex 71.3349 89.75 4
    endloop
  endfacet
  facet normal 0 0 1
    outer loop
      vertex 72.634 88 4
      vertex 71.3349 87.25 4
      vertex 72.25 86.3349 4
    endloop
  endfacet
  facet normal 0 0 1
    outer loop
      vertex 72.5 88.5 4
      vertex 71 88.5 4
      vertex 71.3349 87.25 4
    endloop
  endfacet
  facet normal -0.707107 -0.707107 0
    outer loop
      vertex 72.25 86.3349 2.01
      vertex 71.3349 87.25 4
      vertex 71.3349 87.25 2.01
    endloop
  endfacet
  facet normal -0.707107 -0.707107 0
    outer loop
      vertex 71.3349 87.25 4
      vertex 72.25 86.3349 2.01
      vertex 72.25 86.3349 4
    endloop
  endfacet
  facet normal -0.258793 -0.965933 0
    outer loop
      vertex 72.25 86.3349 2.01
      vertex 73.5 86 4
      vertex 72.25 86.3349 4
    endloop
  endfacet
  facet normal -0.258793 -0.965933 -0
    outer loop
      vertex 73.5 86 4
      vertex 72.25 86.3349 2.01
      vertex 73.5 86 2.01
    endloop
  endfacet
  facet normal -0.965914 -0.258865 0
    outer loop
      vertex 72.634 88 4
      vertex 72.5 88.5 6
      vertex 72.5 88.5 4
    endloop
  endfacet
  facet normal -0.965914 -0.258865 0
    outer loop
      vertex 72.5 88.5 6
      vertex 72.634 88 4
      vertex 72.634 88 6
    endloop
  endfacet
  facet normal 0.707107 0.707107 0
    outer loop
      vertex 74.366 89 6
      vertex 74 89.366 4
      vertex 74 89.366 6
    endloop
  endfacet
  facet normal 0.707107 0.707107 0
    outer loop
      vertex 74 89.366 4
      vertex 74.366 89 6
      vertex 74.366 89 4
    endloop
  endfacet
  facet normal 0.965914 0.258865 0
    outer loop
      vertex 74.5 88.5 6
      vertex 74.366 89 4
      vertex 74.366 89 6
    endloop
  endfacet
  facet normal 0.965914 0.258865 0
    outer loop
      vertex 74.366 89 4
      vertex 74.5 88.5 6
      vertex 74.5 88.5 4
    endloop
  endfacet
  facet normal 0.258865 0.965914 -0
    outer loop
      vertex 74 89.366 4
      vertex 73.5 89.5 6
      vertex 74 89.366 6
    endloop
  endfacet
  facet normal 0.258865 0.965914 0
    outer loop
      vertex 73.5 89.5 6
      vertex 74 89.366 4
      vertex 73.5 89.5 4
    endloop
  endfacet
  facet normal 0.258865 -0.965914 0
    outer loop
      vertex 73.5 87.5 4
      vertex 74 87.634 6
      vertex 73.5 87.5 6
    endloop
  endfacet
  facet normal 0.258865 -0.965914 0
    outer loop
      vertex 74 87.634 6
      vertex 73.5 87.5 4
      vertex 74 87.634 4
    endloop
  endfacet
  facet normal 0.965914 -0.258865 0
    outer loop
      vertex 74.366 88 6
      vertex 74.5 88.5 4
      vertex 74.5 88.5 6
    endloop
  endfacet
  facet normal 0.965914 -0.258865 0
    outer loop
      vertex 74.5 88.5 4
      vertex 74.366 88 6
      vertex 74.366 88 4
    endloop
  endfacet
  facet normal -0.707107 0.707107 0
    outer loop
      vertex 72.634 89 4
      vertex 73 89.366 6
      vertex 73 89.366 4
    endloop
  endfacet
  facet normal -0.707107 0.707107 0
    outer loop
      vertex 73 89.366 6
      vertex 72.634 89 4
      vertex 72.634 89 6
    endloop
  endfacet
  facet normal -0.258865 0.965914 0
    outer loop
      vertex 73.5 89.5 4
      vertex 73 89.366 6
      vertex 73.5 89.5 6
    endloop
  endfacet
  facet normal -0.258865 0.965914 0
    outer loop
      vertex 73 89.366 6
      vertex 73.5 89.5 4
      vertex 73 89.366 4
    endloop
  endfacet
  facet normal -0.965914 0.258865 0
    outer loop
      vertex 72.5 88.5 4
      vertex 72.634 89 6
      vertex 72.634 89 4
    endloop
  endfacet
  facet normal -0.965914 0.258865 0
    outer loop
      vertex 72.634 89 6
      vertex 72.5 88.5 4
      vertex 72.5 88.5 6
    endloop
  endfacet
  facet normal 0.707107 -0.707107 0
    outer loop
      vertex 74 87.634 6
      vertex 74.366 88 4
      vertex 74.366 88 6
    endloop
  endfacet
  facet normal 0.707107 -0.707107 0
    outer loop
      vertex 74.366 88 4
      vertex 74 87.634 6
      vertex 74 87.634 4
    endloop
  endfacet
  facet normal 0 0 1
    outer loop
      vertex 74.366 89 6
      vertex 74.366 88 6
      vertex 74.5 88.5 6
    endloop
  endfacet
  facet normal 0 0 1
    outer loop
      vertex 74 89.366 6
      vertex 74.366 88 6
      vertex 74.366 89 6
    endloop
  endfacet
  facet normal 0 0 1
    outer loop
      vertex 74 89.366 6
      vertex 74 87.634 6
      vertex 74.366 88 6
    endloop
  endfacet
  facet normal 0 0 1
    outer loop
      vertex 73.5 89.5 6
      vertex 74 87.634 6
      vertex 74 89.366 6
    endloop
  endfacet
  facet normal 0 0 1
    outer loop
      vertex 73.5 89.5 6
      vertex 73.5 87.5 6
      vertex 74 87.634 6
    endloop
  endfacet
  facet normal -0 0 1
    outer loop
      vertex 73 89.366 6
      vertex 73.5 87.5 6
      vertex 73.5 89.5 6
    endloop
  endfacet
  facet normal 0 0 1
    outer loop
      vertex 73 89.366 6
      vertex 73 87.634 6
      vertex 73.5 87.5 6
    endloop
  endfacet
  facet normal -0 0 1
    outer loop
      vertex 72.634 89 6
      vertex 73 87.634 6
      vertex 73 89.366 6
    endloop
  endfacet
  facet normal 0 0 1
    outer loop
      vertex 72.634 89 6
      vertex 72.634 88 6
      vertex 73 87.634 6
    endloop
  endfacet
  facet normal 0 -0 1
    outer loop
      vertex 72.634 88 6
      vertex 72.634 89 6
      vertex 72.5 88.5 6
    endloop
  endfacet
  facet normal -0.707107 -0.707107 0
    outer loop
      vertex 73 87.634 4
      vertex 72.634 88 6
      vertex 72.634 88 4
    endloop
  endfacet
  facet normal -0.707107 -0.707107 0
    outer loop
      vertex 72.634 88 6
      vertex 73 87.634 4
      vertex 73 87.634 6
    endloop
  endfacet
  facet normal -0.258865 -0.965914 0
    outer loop
      vertex 73 87.634 4
      vertex 73.5 87.5 6
      vertex 73 87.634 6
    endloop
  endfacet
  facet normal -0.258865 -0.965914 -0
    outer loop
      vertex 73.5 87.5 6
      vertex 73 87.634 4
      vertex 73.5 87.5 4
    endloop
  endfacet
  facet normal 1 -0 0
    outer loop
      vertex 94 6.492 6
      vertex 94 31.5 2.01
      vertex 94 31.5 6
    endloop
  endfacet
  facet normal 1 0 0
    outer loop
      vertex 94 31.5 2.01
      vertex 94 6.492 6
      vertex 94 6.492 2.01
    endloop
  endfacet
  facet normal -0 0 1
    outer loop
      vertex 92 29.5 6
      vertex 94 6.492 6
      vertex 94 31.5 6
    endloop
  endfacet
  facet normal 0 0 1
    outer loop
      vertex 94 6.492 6
      vertex 92 29.5 6
      vertex 93.4775 5.96946 6
    endloop
  endfacet
  facet normal 0 0 1
    outer loop
      vertex 93.4775 5.96946 6
      vertex 92 29.5 6
      vertex 93.1224 5.27254 6
    endloop
  endfacet
  facet normal 0 0 1
    outer loop
      vertex 93.1224 5.27254 6
      vertex 92 3 6
      vertex 93 4.5 6
    endloop
  endfacet
  facet normal 0 0 1
    outer loop
      vertex 92 3 6
      vertex 93.1224 5.27254 6
      vertex 92 29.5 6
    endloop
  endfacet
  facet normal 0 0 1
    outer loop
      vertex 94 31.5 6
      vertex 40 29.5 6
      vertex 92 29.5 6
    endloop
  endfacet
  facet normal 0 0 1
    outer loop
      vertex 38 2 6
      vertex 40 29.5 6
      vertex 38 31.5 6
    endloop
  endfacet
  facet normal -0 0 1
    outer loop
      vertex 38 31.5 6
      vertex 40 29.5 6
      vertex 94 31.5 6
    endloop
  endfacet
  facet normal 0 0 1
    outer loop
      vertex 93 4.5 6
      vertex 92 3 6
      vertex 93 2 6
    endloop
  endfacet
  facet normal -0 0 1
    outer loop
      vertex 40 3 6
      vertex 93 2 6
      vertex 92 3 6
    endloop
  endfacet
  facet normal 0 0 1
    outer loop
      vertex 40 3 6
      vertex 38 2 6
      vertex 93 2 6
    endloop
  endfacet
  facet normal 0 0 1
    outer loop
      vertex 40 29.5 6
      vertex 38 2 6
      vertex 40 3 6
    endloop
  endfacet
  facet normal -1 0 0
    outer loop
      vertex 38 2 2.01
      vertex 38 31.5 6
      vertex 38 31.5 2.01
    endloop
  endfacet
  facet normal -1 -0 0
    outer loop
      vertex 38 31.5 6
      vertex 38 2 2.01
      vertex 38 2 6
    endloop
  endfacet
  facet normal 0 1 -0
    outer loop
      vertex 94 31.5 2.01
      vertex 38 31.5 6
      vertex 94 31.5 6
    endloop
  endfacet
  facet normal 0 1 0
    outer loop
      vertex 38 31.5 6
      vertex 94 31.5 2.01
      vertex 38 31.5 2.01
    endloop
  endfacet
  facet normal -1 0 0
    outer loop
      vertex 92 3 2.01
      vertex 92 29.5 6
      vertex 92 29.5 2.01
    endloop
  endfacet
  facet normal -1 -0 0
    outer loop
      vertex 92 29.5 6
      vertex 92 3 2.01
      vertex 92 3 6
    endloop
  endfacet
  facet normal 1 -0 0
    outer loop
      vertex 40 3 6
      vertex 40 29.5 2.01
      vertex 40 29.5 6
    endloop
  endfacet
  facet normal 1 0 0
    outer loop
      vertex 40 29.5 2.01
      vertex 40 3 6
      vertex 40 3 2.01
    endloop
  endfacet
  facet normal 0 -1 0
    outer loop
      vertex 40 29.5 2.01
      vertex 92 29.5 6
      vertex 40 29.5 6
    endloop
  endfacet
  facet normal 0 -1 -0
    outer loop
      vertex 92 29.5 6
      vertex 40 29.5 2.01
      vertex 92 29.5 2.01
    endloop
  endfacet
  facet normal 0 1 -0
    outer loop
      vertex 92 3 2.01
      vertex 40 3 6
      vertex 92 3 6
    endloop
  endfacet
  facet normal 0 1 0
    outer loop
      vertex 40 3 6
      vertex 92 3 2.01
      vertex 40 3 2.01
    endloop
  endfacet
  facet normal 1 -0 0
    outer loop
      vertex 35 6 8
      vertex 35 35 2.01
      vertex 35 35 8
    endloop
  endfacet
  facet normal 1 0 0
    outer loop
      vertex 35 35 2.01
      vertex 35 6 8
      vertex 35 6 2.01
    endloop
  endfacet
  facet normal 0 0 1
    outer loop
      vertex 35 35 8
      vertex 33 33 8
      vertex 35 6 8
    endloop
  endfacet
  facet normal -0 0 1
    outer loop
      vertex 2 35 8
      vertex 33 33 8
      vertex 35 35 8
    endloop
  endfacet
  facet normal 0 0 1
    outer loop
      vertex 33 33 8
      vertex 2 35 8
      vertex 2 33 8
    endloop
  endfacet
  facet normal -0 0 1
    outer loop
      vertex 33 8 8
      vertex 35 6 8
      vertex 33 33 8
    endloop
  endfacet
  facet normal 0 0 1
    outer loop
      vertex 33 8 8
      vertex 6.492 6 8
      vertex 35 6 8
    endloop
  endfacet
  facet normal 0 0 1
    outer loop
      vertex 33 8 8
      vertex 5.96946 6.52254 8
      vertex 6.492 6 8
    endloop
  endfacet
  facet normal 0 0 1
    outer loop
      vertex 33 8 8
      vertex 5.27254 6.87764 8
      vertex 5.96946 6.52254 8
    endloop
  endfacet
  facet normal -0 0 1
    outer loop
      vertex 2 8 8
      vertex 5.27254 6.87764 8
      vertex 33 8 8
    endloop
  endfacet
  facet normal 0 0 1
    outer loop
      vertex 5.27254 6.87764 8
      vertex 2 8 8
      vertex 4.5 7 8
    endloop
  endfacet
  facet normal 0 0 1
    outer loop
      vertex 4.5 7 8
      vertex 2 8 8
      vertex 2 7 8
    endloop
  endfacet
  facet normal 0 1 -0
    outer loop
      vertex 35 35 2.01
      vertex 2 35 8
      vertex 35 35 8
    endloop
  endfacet
  facet normal 0 1 0
    outer loop
      vertex 2 35 8
      vertex 35 35 2.01
      vertex 2 35 2.01
    endloop
  endfacet
  facet normal 0 -1 0
    outer loop
      vertex 6.492 6 2.01
      vertex 35 6 8
      vertex 6.492 6 8
    endloop
  endfacet
  facet normal 0 -1 -0
    outer loop
      vertex 35 6 8
      vertex 6.492 6 2.01
      vertex 35 6 2.01
    endloop
  endfacet
  facet normal -1 0 0
    outer loop
      vertex 33 8 6
      vertex 33 33 8
      vertex 33 33 6
    endloop
  endfacet
  facet normal -1 -0 0
    outer loop
      vertex 33 33 8
      vertex 33 8 6
      vertex 33 8 8
    endloop
  endfacet
  facet normal -0 0 1
    outer loop
      vertex 31 33 6
      vertex 33 8 6
      vertex 33 33 6
    endloop
  endfacet
  facet normal 0 0 1
    outer loop
      vertex 33 8 6
      vertex 31 33 6
      vertex 31 8 6
    endloop
  endfacet
  facet normal -0 0 1
    outer loop
      vertex 2 33 6
      vertex 4 8 6
      vertex 4 33 6
    endloop
  endfacet
  facet normal 0 0 1
    outer loop
      vertex 4 8 6
      vertex 2 33 6
      vertex 2 8 6
    endloop
  endfacet
  facet normal 0 -1 0
    outer loop
      vertex 4 33 2.01
      vertex 31 33 6
      vertex 4 33 6
    endloop
  endfacet
  facet normal 0 -1 -0
    outer loop
      vertex 31 33 6
      vertex 4 33 2.01
      vertex 31 33 2.01
    endloop
  endfacet
  facet normal 0 -1 0
    outer loop
      vertex 4 33 6
      vertex 2 33 8
      vertex 2 33 6
    endloop
  endfacet
  facet normal 0 -1 0
    outer loop
      vertex 2 33 8
      vertex 4 33 6
      vertex 33 33 8
    endloop
  endfacet
  facet normal 0 -1 0
    outer loop
      vertex 31 33 6
      vertex 33 33 8
      vertex 4 33 6
    endloop
  endfacet
  facet normal 0 -1 -0
    outer loop
      vertex 33 33 8
      vertex 31 33 6
      vertex 33 33 6
    endloop
  endfacet
  facet normal 0 1 -0
    outer loop
      vertex 31 8 2.01
      vertex 4 8 6
      vertex 31 8 6
    endloop
  endfacet
  facet normal 0 1 0
    outer loop
      vertex 4 8 6
      vertex 31 8 2.01
      vertex 4 8 2.01
    endloop
  endfacet
  facet normal 0 1 0
    outer loop
      vertex 31 8 6
      vertex 33 8 8
      vertex 33 8 6
    endloop
  endfacet
  facet normal 0 1 0
    outer loop
      vertex 33 8 8
      vertex 31 8 6
      vertex 2 8 8
    endloop
  endfacet
  facet normal 0 1 -0
    outer loop
      vertex 4 8 6
      vertex 2 8 8
      vertex 31 8 6
    endloop
  endfacet
  facet normal 0 1 0
    outer loop
      vertex 2 8 8
      vertex 4 8 6
      vertex 2 8 6
    endloop
  endfacet
  facet normal -1 0 0
    outer loop
      vertex 31 8 2.01
      vertex 31 33 6
      vertex 31 33 2.01
    endloop
  endfacet
  facet normal -1 -0 0
    outer loop
      vertex 31 33 6
      vertex 31 8 2.01
      vertex 31 8 6
    endloop
  endfacet
  facet normal 1 -0 0
    outer loop
      vertex 4 8 6
      vertex 4 33 2.01
      vertex 4 33 6
    endloop
  endfacet
  facet normal 1 0 0
    outer loop
      vertex 4 33 2.01
      vertex 4 8 6
      vertex 4 8 2.01
    endloop
  endfacet
  facet normal 0 0 1
    outer loop
      vertex 100 100 10
      vertex 98 93 10
      vertex 100 90.5 10
    endloop
  endfacet
  facet normal -0 0 1
    outer loop
      vertex 93 98 10
      vertex 98 93 10
      vertex 100 100 10
    endloop
  endfacet
  facet normal 0 0 1
    outer loop
      vertex 98 93 10
      vertex 93 98 10
      vertex 95.5 93 10
    endloop
  endfacet
  facet normal 0 0 1
    outer loop
      vertex 95.5 93 10
      vertex 93 95.5 10
      vertex 94.7275 93.1224 10
    endloop
  endfacet
  facet normal 0 0 1
    outer loop
      vertex 94.7275 93.1224 10
      vertex 93 95.5 10
      vertex 94.0305 93.4775 10
    endloop
  endfacet
  facet normal 0 0 1
    outer loop
      vertex 94.0305 93.4775 10
      vertex 93 95.5 10
      vertex 93.4775 94.0305 10
    endloop
  endfacet
  facet normal 0 0 1
    outer loop
      vertex 95.5 93 10
      vertex 93 98 10
      vertex 93 95.5 10
    endloop
  endfacet
  facet normal 0 0 1
    outer loop
      vertex 100 100 10
      vertex 7 98 10
      vertex 93 98 10
    endloop
  endfacet
  facet normal 0 0 1
    outer loop
      vertex 4.5 93 10
      vertex 7 95.5 10
      vertex 7 98 10
    endloop
  endfacet
  facet normal 0 0 1
    outer loop
      vertex 7 95.5 10
      vertex 4.5 93 10
      vertex 6.87764 94.7275 10
    endloop
  endfacet
  facet normal 0 0 1
    outer loop
      vertex 6.87764 94.7275 10
      vertex 4.5 93 10
      vertex 6.52254 94.0305 10
    endloop
  endfacet
  facet normal 0 0 1
    outer loop
      vertex 6.52254 94.0305 10
      vertex 4.5 93 10
      vertex 5.96946 93.4775 10
    endloop
  endfacet
  facet normal 0 0 1
    outer loop
      vertex 5.96946 93.4775 10
      vertex 4.5 93 10
      vertex 5.27254 93.1224 10
    endloop
  endfacet
  facet normal 0 0 1
    outer loop
      vertex 7 98 10
      vertex 2 93 10
      vertex 4.5 93 10
    endloop
  endfacet
  facet normal -0 0 1
    outer loop
      vertex 0 100 10
      vertex 7 98 10
      vertex 100 100 10
    endloop
  endfacet
  facet normal 0 0 1
    outer loop
      vertex 0 100 10
      vertex 2 93 10
      vertex 7 98 10
    endloop
  endfacet
  facet normal 0 0 1
    outer loop
      vertex 0 18.5479 10
      vertex 2 93 10
      vertex 0 100 10
    endloop
  endfacet
  facet normal 0 0 1
    outer loop
      vertex 2 93 10
      vertex 0 18.5479 10
      vertex 2 18.5479 10
    endloop
  endfacet
  facet normal 0 0 1
    outer loop
      vertex 100 90.5 10
      vertex 98 93 10
      vertex 98 90.5 10
    endloop
  endfacet
  facet normal 0 0 1
    outer loop
      vertex 93.4775 94.0305 10
      vertex 93 95.5 10
      vertex 93.1224 94.7275 10
    endloop
  endfacet
  facet normal 0 0 1
    outer loop
      vertex 2 12.4521 10
      vertex 0 12.4521 10
      vertex 2 7 10
    endloop
  endfacet
  facet normal 0 0 1
    outer loop
      vertex 4.5 7 10
      vertex 7 4.5 10
      vertex 6.87764 5.27254 10
    endloop
  endfacet
  facet normal 0 0 1
    outer loop
      vertex 98 7 10
      vertex 100 38.25 10
      vertex 98 38.25 10
    endloop
  endfacet
  facet normal 0 0 1
    outer loop
      vertex 100 38.25 10
      vertex 98 7 10
      vertex 100 0 10
    endloop
  endfacet
  facet normal 0 0 1
    outer loop
      vertex 93 2 10
      vertex 98 7 10
      vertex 95.5 7 10
    endloop
  endfacet
  facet normal 0 0 1
    outer loop
      vertex 93 4.5 10
      vertex 95.5 7 10
      vertex 94.7275 6.87764 10
    endloop
  endfacet
  facet normal 0 0 1
    outer loop
      vertex 93 4.5 10
      vertex 94.7275 6.87764 10
      vertex 94.0305 6.52254 10
    endloop
  endfacet
  facet normal 0 0 1
    outer loop
      vertex 93 4.5 10
      vertex 94.0305 6.52254 10
      vertex 93.4775 5.96946 10
    endloop
  endfacet
  facet normal 0 0 1
    outer loop
      vertex 93 4.5 10
      vertex 93.4775 5.96946 10
      vertex 93.1224 5.27254 10
    endloop
  endfacet
  facet normal 0 0 1
    outer loop
      vertex 93 2 10
      vertex 95.5 7 10
      vertex 93 4.5 10
    endloop
  endfacet
  facet normal 0 0 1
    outer loop
      vertex 98 7 10
      vertex 93 2 10
      vertex 100 0 10
    endloop
  endfacet
  facet normal -0 0 1
    outer loop
      vertex 7 2 10
      vertex 100 0 10
      vertex 93 2 10
    endloop
  endfacet
  facet normal 0 0 1
    outer loop
      vertex 4.5 7 10
      vertex 6.87764 5.27254 10
      vertex 6.52254 5.96946 10
    endloop
  endfacet
  facet normal 0 0 1
    outer loop
      vertex 4.5 7 10
      vertex 6.52254 5.96946 10
      vertex 5.96946 6.52254 10
    endloop
  endfacet
  facet normal 0 0 1
    outer loop
      vertex 4.5 7 10
      vertex 5.96946 6.52254 10
      vertex 5.27254 6.87764 10
    endloop
  endfacet
  facet normal 0 0 1
    outer loop
      vertex 7 4.5 10
      vertex 4.5 7 10
      vertex 7 2 10
    endloop
  endfacet
  facet normal -0 0 1
    outer loop
      vertex 2 7 10
      vertex 7 2 10
      vertex 4.5 7 10
    endloop
  endfacet
  facet normal 0 0 1
    outer loop
      vertex 7 2 10
      vertex 0 0 10
      vertex 100 0 10
    endloop
  endfacet
  facet normal 0 0 1
    outer loop
      vertex 2 7 10
      vertex 0 0 10
      vertex 7 2 10
    endloop
  endfacet
  facet normal 0 0 1
    outer loop
      vertex 0 0 10
      vertex 2 7 10
      vertex 0 12.4521 10
    endloop
  endfacet
  facet normal -0 0 1
    outer loop
      vertex 98 57.5 10
      vertex 100 54.25 10
      vertex 100 57.5 10
    endloop
  endfacet
  facet normal 0 0 1
    outer loop
      vertex 100 54.25 10
      vertex 98 57.5 10
      vertex 98 54.25 10
    endloop
  endfacet
  facet normal -0 0 1
    outer loop
      vertex 98 75.5 10
      vertex 100 72.5 10
      vertex 100 75.5 10
    endloop
  endfacet
  facet normal 0 0 1
    outer loop
      vertex 100 72.5 10
      vertex 98 75.5 10
      vertex 98 72.5 10
    endloop
  endfacet
endsolid OpenSCAD_Model
