<?xml version="1.0" encoding="UTF-8" standalone="no"?>
<svg
   xmlns:dc="http://purl.org/dc/elements/1.1/"
   xmlns:cc="http://creativecommons.org/ns#"
   xmlns:rdf="http://www.w3.org/1999/02/22-rdf-syntax-ns#"
   xmlns:svg="http://www.w3.org/2000/svg"
   xmlns="http://www.w3.org/2000/svg"
   xmlns:sodipodi="http://sodipodi.sourceforge.net/DTD/sodipodi-0.dtd"
   xmlns:inkscape="http://www.inkscape.org/namespaces/inkscape"
   sodipodi:docname="killchain.svg"
   inkscape:version="1.0 (4035a4fb49, 2020-05-01)"
   id="svg8"
   version="1.1"
   viewBox="0 0 297 210"
   height="210mm"
   width="297mm">
  <defs
     id="defs2">
    <marker
       inkscape:stockid="Arrow2Lend"
       orient="auto"
       refY="0.0"
       refX="0.0"
       id="marker2322"
       style="overflow:visible;"
       inkscape:isstock="true">
      <path
         id="path2320"
         style="fill-rule:evenodd;stroke-width:0.625;stroke-linejoin:round;stroke:#000000;stroke-opacity:1;fill:#000000;fill-opacity:1"
         d="M 8.7185878,4.0337352 L -2.2072895,0.016013256 L 8.7185884,-4.0017078 C 6.9730900,-1.6296469 6.9831476,1.6157441 8.7185878,4.0337352 z "
         transform="scale(1.1) rotate(180) translate(1,0)" />
    </marker>
    <marker
       inkscape:collect="always"
       inkscape:isstock="true"
       style="overflow:visible;"
       id="marker2242"
       refX="0.0"
       refY="0.0"
       orient="auto"
       inkscape:stockid="Arrow2Lend">
      <path
         transform="scale(1.1) rotate(180) translate(1,0)"
         d="M 8.7185878,4.0337352 L -2.2072895,0.016013256 L 8.7185884,-4.0017078 C 6.9730900,-1.6296469 6.9831476,1.6157441 8.7185878,4.0337352 z "
         style="fill-rule:evenodd;stroke-width:0.625;stroke-linejoin:round;stroke:#000000;stroke-opacity:1;fill:#000000;fill-opacity:1"
         id="path2240" />
    </marker>
    <marker
       inkscape:collect="always"
       inkscape:stockid="Arrow2Lend"
       orient="auto"
       refY="0.0"
       refX="0.0"
       id="marker2164"
       style="overflow:visible;"
       inkscape:isstock="true">
      <path
         id="path2162"
         style="fill-rule:evenodd;stroke-width:0.625;stroke-linejoin:round;stroke:#000000;stroke-opacity:1;fill:#000000;fill-opacity:1"
         d="M 8.7185878,4.0337352 L -2.2072895,0.016013256 L 8.7185884,-4.0017078 C 6.9730900,-1.6296469 6.9831476,1.6157441 8.7185878,4.0337352 z "
         transform="scale(1.1) rotate(180) translate(1,0)" />
    </marker>
    <marker
       inkscape:isstock="true"
       style="overflow:visible;"
       id="marker2064"
       refX="0.0"
       refY="0.0"
       orient="auto"
       inkscape:stockid="Arrow2Lend">
      <path
         transform="scale(1.1) rotate(180) translate(1,0)"
         d="M 8.7185878,4.0337352 L -2.2072895,0.016013256 L 8.7185884,-4.0017078 C 6.9730900,-1.6296469 6.9831476,1.6157441 8.7185878,4.0337352 z "
         style="fill-rule:evenodd;stroke-width:0.625;stroke-linejoin:round;stroke:#000000;stroke-opacity:1;fill:#000000;fill-opacity:1"
         id="path2062" />
    </marker>
    <marker
       inkscape:collect="always"
       inkscape:stockid="Arrow2Lend"
       orient="auto"
       refY="0.0"
       refX="0.0"
       id="marker2008"
       style="overflow:visible;"
       inkscape:isstock="true">
      <path
         id="path2006"
         style="fill-rule:evenodd;stroke-width:0.625;stroke-linejoin:round;stroke:#000000;stroke-opacity:1;fill:#000000;fill-opacity:1"
         d="M 8.7185878,4.0337352 L -2.2072895,0.016013256 L 8.7185884,-4.0017078 C 6.9730900,-1.6296469 6.9831476,1.6157441 8.7185878,4.0337352 z "
         transform="scale(1.1) rotate(180) translate(1,0)" />
    </marker>
    <marker
       inkscape:collect="always"
       inkscape:isstock="true"
       style="overflow:visible;"
       id="Arrow2Lend"
       refX="0.0"
       refY="0.0"
       orient="auto"
       inkscape:stockid="Arrow2Lend">
      <path
         transform="scale(1.1) rotate(180) translate(1,0)"
         d="M 8.7185878,4.0337352 L -2.2072895,0.016013256 L 8.7185884,-4.0017078 C 6.9730900,-1.6296469 6.9831476,1.6157441 8.7185878,4.0337352 z "
         style="fill-rule:evenodd;stroke-width:0.625;stroke-linejoin:round;stroke:#000000;stroke-opacity:1;fill:#000000;fill-opacity:1"
         id="path1638" />
    </marker>
    <marker
       inkscape:isstock="true"
       style="overflow:visible;"
       id="Arrow1Send"
       refX="0.0"
       refY="0.0"
       orient="auto"
       inkscape:stockid="Arrow1Send">
      <path
         transform="scale(0.2) rotate(180) translate(6,0)"
         style="fill-rule:evenodd;stroke:#000000;stroke-width:1pt;stroke-opacity:1;fill:#000000;fill-opacity:1"
         d="M 0.0,0.0 L 5.0,-5.0 L -12.5,0.0 L 5.0,5.0 L 0.0,0.0 z "
         id="path1632" />
    </marker>
    <marker
       inkscape:isstock="true"
       style="overflow:visible;"
       id="Arrow1Lend"
       refX="0.0"
       refY="0.0"
       orient="auto"
       inkscape:stockid="Arrow1Lend">
      <path
         transform="scale(0.8) rotate(180) translate(12.5,0)"
         style="fill-rule:evenodd;stroke:#000000;stroke-width:1pt;stroke-opacity:1;fill:#000000;fill-opacity:1"
         d="M 0.0,0.0 L 5.0,-5.0 L -12.5,0.0 L 5.0,5.0 L 0.0,0.0 z "
         id="path1620" />
    </marker>
    <rect
       id="rect1575"
       height="8.0740749"
       width="65.835229"
       y="147.72679"
       x="25.09324" />
    <style
       type="text/css"
       id="style895">
   
    .fil0 {fill:#FFFFFF}
   
  </style>
    <style
       type="text/css"
       id="style953">
   
    .fil0 {fill:#FFFFFF;fill-rule:nonzero}
   
  </style>
    <style
       type="text/css"
       id="style1069">
   
    .fil0 {fill:#FFFFFF}
   
  </style>
    <style
       type="text/css"
       id="style1121">
   
    .fil0 {fill:#FFFFFF}
   
  </style>
    <rect
       x="25.09324"
       y="147.72679"
       width="65.835229"
       height="8.0740749"
       id="rect1583" />
    <rect
       id="rect1589"
       height="8.0740749"
       width="65.835229"
       y="147.72679"
       x="25.09324" />
    <rect
       x="25.09324"
       y="147.72679"
       width="65.835229"
       height="8.0740749"
       id="rect1595" />
    <rect
       id="rect1601"
       height="8.0740749"
       width="65.835229"
       y="147.72679"
       x="25.09324" />
    <rect
       x="25.09324"
       y="147.72679"
       width="65.835229"
       height="8.0740749"
       id="rect1607" />
    <rect
       id="rect1613"
       height="8.0740749"
       width="65.835229"
       y="147.72679"
       x="25.09324" />
  </defs>
  <sodipodi:namedview
     inkscape:window-maximized="1"
     inkscape:window-y="0"
     inkscape:window-x="0"
     inkscape:window-height="1022"
     inkscape:window-width="1920"
     showgrid="false"
     inkscape:document-rotation="0"
     inkscape:current-layer="layer1"
     inkscape:document-units="mm"
     inkscape:cy="1171.0428"
     inkscape:cx="1523.0658"
     inkscape:zoom="0.38413378"
     inkscape:pageshadow="2"
     inkscape:pageopacity="0.0"
     borderopacity="1.0"
     bordercolor="#666666"
     pagecolor="#ffffff"
     id="base" />
  <metadata
     id="metadata5">
    <rdf:RDF>
      <cc:Work
         rdf:about="">
        <dc:format>image/svg+xml</dc:format>
        <dc:type
           rdf:resource="http://purl.org/dc/dcmitype/StillImage" />
        <dc:title></dc:title>
      </cc:Work>
    </rdf:RDF>
  </metadata>
  <g
     id="layer1"
     inkscape:groupmode="layer"
     inkscape:label="Layer 1">
    <g
       id="g3835">
      <circle
         style="opacity:0.99;fill:#000000;fill-opacity:1;fill-rule:nonzero;stroke:none;stroke-width:0.609907;stroke-linejoin:round;stroke-miterlimit:4;stroke-dasharray:none;stroke-dashoffset:0;stroke-opacity:1;paint-order:stroke markers fill"
         id="path833"
         cx="41.190296"
         cy="119.23996"
         r="18" />
      <g
         style="clip-rule:evenodd;fill:#ffffff;fill-rule:evenodd;image-rendering:optimizeQuality;shape-rendering:geometricPrecision;text-rendering:geometricPrecision"
         id="g912"
         transform="matrix(0.08974359,0,0,0.08974359,27.190296,111.97407)">
        <path
           class="fil0"
           d="m 247,48 c -27,0 -49,22 -49,49 0,27 22,49 49,49 26,0 48,-22 48,-49 0,-27 -22,-49 -48,-49 z m -100,1 h 17 l 15,67 c -16,0 -31,0 -46,0 z M 65,48 c 27,0 49,22 49,49 0,27 -22,49 -49,49 C 38,146 16,124 16,97 16,70 38,48 65,48 Z m 0,93 c -5,0 -5,-8 0,-8 19,-1 35,-17 36,-36 0,-5 8,-5 8,0 -1,24 -20,43 -44,44 z m 0,-88 c 5,0 5,8 0,8 -19,1 -35,17 -36,36 0,5 -8,5 -8,0 1,-24 20,-43 44,-44 z m 127,79 c 12,18 32,30 55,30 35,0 65,-29 65,-65 C 312,68 293,44 267,35 237,15 186,-7 171,2 162,7 158,19 162,29 H 150 C 154,19 149,7 140,2 125,-7 75,15 44,35 19,44 0,68 0,97 c 0,36 29,65 65,65 23,0 43,-12 55,-30 v 0 z m -69,-10 h 66 c -3,-8 -5,-16 -5,-25 0,-34 27,-62 61,-63 -4,-2 -8,-4 -12,-7 -9,-4 -48,-21 -57,-16 -4,3 -7,9 -5,14 l 6,14 h -42 l 5,-14 c 2,-5 0,-11 -5,-14 -9,-5 -48,12 -56,16 -4,3 -9,5 -13,7 34,1 62,29 62,63 0,9 -2,17 -5,25 z M 65,44 c 29,0 53,24 53,53 0,29 -24,53 -53,53 C 36,150 12,126 12,97 12,68 36,44 65,44 Z m 182,0 c -30,0 -53,24 -53,53 0,29 23,53 53,53 29,0 52,-24 52,-53 0,-29 -23,-53 -52,-53 z m 0,97 c -6,0 -6,-8 -1,-8 20,-1 36,-17 36,-36 0,-5 9,-5 8,0 0,24 -19,43 -43,44 z m -1,-88 c 6,0 6,8 1,8 -20,1 -36,17 -36,36 0,5 -8,5 -8,0 0,-24 20,-43 43,-44 z"
           id="path899"
           style="fill-rule:evenodd" />
      </g>
      <g
         id="g985"
         transform="translate(-2.4616359,7.6149597)">
        <circle
           r="18"
           cy="111.625"
           cx="108.15723"
           id="path919"
           style="opacity:0.99;fill:#000000;fill-opacity:1;fill-rule:nonzero;stroke:none;stroke-width:0.498149;stroke-linejoin:round;stroke-miterlimit:4;stroke-dasharray:none;stroke-dashoffset:0;stroke-opacity:1;paint-order:stroke markers fill" />
        <path
           sodipodi:nodetypes="ccccccccccccccccccccccccccccccccccccccccccccccccccccccccc"
           d="m 105.39648,99.587891 c -3.07353,1.628309 -6.147306,3.256179 -9.220699,4.884769 1.00746,1.14492 2.014273,2.2904 3.021485,3.43554 -0.961476,1.12184 -1.923841,2.24293 -2.884766,3.36524 0.966997,0.50801 1.934971,1.01418 2.902344,1.52148 0.01859,2.05049 -0.03694,4.144 0.02734,6.16797 2.979616,1.56408 5.960866,3.19844 8.939456,4.71875 2.98608,-1.57152 6.04679,-3.0971 8.98633,-4.69726 v -6.19141 c 0.94388,-0.50675 1.88877,-1.01164 2.83203,-1.51953 -0.95799,-1.1242 -1.92237,-2.24308 -2.88281,-3.36524 1.00721,-1.14513 2.01402,-2.29063 3.02148,-3.43554 -3.08578,-1.63506 -6.1718,-3.26968 -9.25781,-4.904301 -0.90775,1.043451 -1.81507,2.087271 -2.72266,3.130861 -0.90823,-1.0436 -1.81623,-2.08739 -2.72461,-3.130861 z m 2.12891,3.585939 c -2.61198,1.3737 -5.22396,2.74739 -7.835937,4.12109 L 97.4375,104.70898 c 2.61133,-1.39518 5.22266,-2.79036 7.83398,-4.18554 0.75131,0.88346 1.50261,1.76692 2.25391,2.65039 z m 11.41992,1.53515 c -0.77343,0.86198 -1.54687,1.72396 -2.32031,2.58594 -2.61198,-1.3737 -5.22396,-2.74739 -7.83594,-4.12109 0.7513,-0.88347 1.50261,-1.76693 2.25391,-2.65039 2.63411,1.39518 5.26823,2.79036 7.90234,4.18554 z m -11.18359,1.69336 v 3.81446 c 0.79101,-0.0608 0.93937,0.63546 0.79101,-0.0608 v -6.2634 c 2.45053,1.29297 4.90105,2.58594 7.35157,3.8789 -2.58203,1.34701 -5.16407,2.69401 -7.7461,4.04102 -2.56054,-1.34701 -5.12109,-2.69401 -7.68164,-4.04102 2.42839,-1.29296 4.85677,-2.58593 7.28516,-3.8789 z m -0.23633,6.03321 c -0.77344,0.88476 -1.54687,1.76953 -2.32031,2.65429 l -7.630861,-4.05273 c 0.773437,-0.88412 1.546875,-1.76823 2.320312,-2.65234 z m 11.2832,-1.39844 c -2.5664,1.35091 -5.13281,2.70182 -7.69921,4.05273 -0.77344,-0.88476 -1.54688,-1.76953 -2.32032,-2.65429 2.56641,-1.35026 5.13282,-2.70052 7.69922,-4.05078 0.77344,0.88411 1.54688,1.76822 2.32031,2.65234 z m -13.41211,4.98633 c 0.81089,-0.79498 1.57295,-1.82326 2.36524,-2.70703 v 9.27148 c -2.58594,-1.37174 -5.17188,-2.74349 -7.75781,-4.11523 v -5.28125 c 1.79752,0.94401 3.59505,1.88802 5.39257,2.83203 z m 10.98243,2.44922 c -2.60873,1.37174 -5.21745,2.74349 -7.82618,4.11523 v -9.27539 c 0.81452,0.88567 1.60336,1.91062 2.4336,2.71094 1.79752,-0.94401 3.59505,-1.88802 5.39258,-2.83203 z"
           style="clip-rule:evenodd;fill:#ffffff;fill-opacity:1;stroke-width:0.2;stroke-miterlimit:4;stroke-dasharray:none;image-rendering:optimizeQuality;shape-rendering:geometricPrecision;text-rendering:geometricPrecision"
           id="path957" />
      </g>
      <g
         id="g1033"
         transform="translate(-0.80331821,25.435195)">
        <circle
           r="18"
           cy="44.057373"
           cx="74.246262"
           id="path987"
           style="opacity:0.99;fill:#000000;fill-opacity:1;fill-rule:nonzero;stroke:none;stroke-width:0.256644;stroke-linejoin:round;stroke-miterlimit:4;stroke-dasharray:none;stroke-dashoffset:0;stroke-opacity:1;paint-order:stroke markers fill" />
        <g
           transform="matrix(0.26458333,0,0,0.26458333,61.030324,30.828207)"
           id="g1028"
           style="fill:#ffffff">
          <path
             d="m 78.2,23.3 c 0,7 -2.5,13.3 -6.7,18.3 -4.6,-4 -10.2,-6.8 -16.5,-7.7 v 57.6 c 0,2 -1.6,3.6 -3.6,3.6 h -2.9 c -2,0 -3.6,-1.6 -3.6,-3.6 V 33.8 c -6.2,1 -11.9,3.7 -16.5,7.7 -4.2,-4.9 -6.7,-11.3 -6.7,-18.3 0,-7 2.5,-13.3 6.7,-18.3 4.6,4 10.2,6.8 16.5,7.7 v -1.8 c 0,-2 1.6,-3.6 3.6,-3.6 h 2.9 c 2,0 3.6,1.6 3.6,3.6 v 1.8 C 61.3,11.8 67,9 71.5,5 c 4.2,4.9 6.7,11.3 6.7,18.3 z"
             id="path1017" />
        </g>
      </g>
      <g
         id="g1261"
         transform="translate(-1.6282759,19.821793)">
        <circle
           r="18"
           cy="49.670773"
           cx="139.57651"
           id="path1035"
           style="opacity:0.99;fill:#000000;fill-opacity:1;fill-rule:nonzero;stroke:none;stroke-width:0.222026;stroke-linejoin:round;stroke-miterlimit:4;stroke-dasharray:none;stroke-dashoffset:0;stroke-opacity:1;paint-order:stroke markers fill" />
        <g
           transform="matrix(0.27339642,0,0,0.27339642,125.89302,37.072955)"
           id="g1218"
           style="fill:#ffffff">
          <g
             id="g1188">
            <path
               d="m 94.5,7.6 h -89 c -1.6,0 -3,1.3 -3,3 v 61.9 c 0,1.6 1.3,3 3,3 h 89.1 c 1.6,0 3,-1.3 3,-3 V 10.6 C 97.5,9 96.2,7.6 94.5,7.6 Z M 50,71.6 c -1.4,0 -2.5,-1.1 -2.5,-2.5 0,-1.4 1.1,-2.5 2.5,-2.5 1.4,0 2.5,1.1 2.5,2.5 0,1.4 -1.1,2.5 -2.5,2.5 z m 41.4,-9 H 8.6 V 13.7 h 82.9 v 48.9 z"
               id="path1180" />
            <path
               d="m 68.4,88.3 h -5.3 c -0.5,0 -1,-0.4 -1.2,-0.9 L 59.4,78.8 H 40.6 l -2.5,8.6 c -0.2,0.5 -0.6,0.9 -1.2,0.9 h -5.3 c -0.7,0 -1.2,0.5 -1.2,1.2 v 1.6 c 0,0.7 0.5,1.2 1.2,1.2 h 36.8 c 0.7,0 1.2,-0.5 1.2,-1.2 v -1.6 c 0,-0.7 -0.5,-1.2 -1.2,-1.2 z"
               id="path1182" />
            <path
               d="m 36.6,46.4 c 0.4,0 0.9,-0.2 1.2,-0.5 l 1.9,-1.6 4.4,-0.1 v 0.9 l -4.5,2.6 c -0.5,0.3 -0.9,0.8 -1,1.4 l -0.9,5.6 c -0.2,1.1 0.5,2 1.6,2.2 0.1,0 0.2,0 0.3,0 0.9,0 1.7,-0.7 1.9,-1.6 l 0.8,-4.7 2.2,-1.2 c 0.8,2.2 2.9,3.8 5.5,3.8 2.5,0 4.6,-1.6 5.5,-3.8 l 2.2,1.2 0.8,4.7 c 0.2,0.9 1,1.6 1.9,1.6 0.1,0 0.2,0 0.3,0 1.1,-0.2 1.8,-1.2 1.6,-2.2 L 61.4,49.1 C 61.3,48.5 61,48 60.4,47.7 l -4.5,-2.5 v -0.9 l 4.3,0.1 1.9,1.6 c 0.4,0.3 0.8,0.5 1.2,0.5 0.5,0 1.1,-0.2 1.5,-0.7 0.7,-0.8 0.6,-2 -0.2,-2.7 L 62.2,41 C 61.9,40.7 61.4,40.6 61,40.5 l -5.1,-0.1 v -0.9 l 5.5,-1.2 c 0.8,-0.2 1.3,-0.8 1.5,-1.6 l 0.9,-5.6 c 0.2,-1.1 -0.5,-2 -1.6,-2.2 -1.1,-0.2 -2,0.5 -2.2,1.6 l -0.7,4.3 -3.4,0.8 v -0.8 c 0,-0.7 -0.2,-1.3 -0.5,-1.9 l -4.1,1.5 c -0.4,0.1 -0.8,0.2 -1.2,0.2 -0.4,0 -0.8,-0.1 -1.2,-0.2 l -4.1,-1.5 c -0.3,0.6 -0.5,1.2 -0.5,1.9 v 0.8 L 40.9,34.8 40,30.4 C 39.8,29.3 38.8,28.7 37.8,28.8 36.7,29 36,30 36.2,31 l 0.9,5.6 c 0.1,0.8 0.7,1.4 1.5,1.6 l 5.5,1.2 v 0.9 L 39,40.5 c -0.4,0 -0.9,0.2 -1.2,0.5 l -2.4,2 c -0.8,0.7 -0.9,1.9 -0.2,2.7 0.3,0.5 0.9,0.7 1.4,0.7 z"
               id="path1184" />
            <path
               d="m 46.1,26.1 c -0.9,0.8 -1.5,1.8 -1.8,3 -0.2,0.8 0.3,1.5 1,1.8 l 4.1,1.5 c 0.3,0.1 0.7,0.1 1.1,0 l 4.1,-1.5 c 0.7,-0.3 1.2,-1 1,-1.8 -0.3,-1.2 -0.9,-2.2 -1.8,-3 l 2.1,-4.9 c 0.3,-0.6 0,-1.3 -0.6,-1.6 -0.6,-0.3 -1.3,0 -1.6,0.6 l -2,4.7 c -0.6,-0.2 -1.1,-0.3 -1.8,-0.3 -0.6,0 -1.2,0.1 -1.8,0.3 l -2,-4.7 c -0.3,-0.6 -1,-0.9 -1.6,-0.6 -0.6,0.3 -0.9,1 -0.6,1.6 z"
               id="path1186" />
          </g>
        </g>
      </g>
      <g
         id="g1343"
         transform="translate(-12.74521,27.378868)">
        <circle
           r="18"
           cy="91.861092"
           cx="182.94609"
           id="path1263"
           style="opacity:0.99;fill:#000000;fill-opacity:1;fill-rule:nonzero;stroke:none;stroke-width:0.498918;stroke-linejoin:round;stroke-miterlimit:4;stroke-dasharray:none;stroke-dashoffset:0;stroke-opacity:1;paint-order:stroke markers fill" />
        <g
           transform="matrix(0.20670573,0,0,0.20670573,169.71692,78.838631)"
           id="g1333"
           style="fill:#ffffff">
          <path
             d="m 22,88 h 84 a 2,2 0 0 0 2,-2 V 22 a 4,4 0 0 0 -4,-4 H 24 a 4,4 0 0 0 -4,4 v 64 a 2,2 0 0 0 2,2 z m 2,-66 h 80 V 84 H 24 Z"
             id="path1307" />
          <path
             d="M 12,14 V 93.27 L 0.28,113 A 2,2 0 0 0 2,116 h 124 a 2,2 0 0 0 1.72,-3 L 116,93.27 V 14 a 4,4 0 0 0 -4,-4 H 16 a 4,4 0 0 0 -4,4 z m 101,82 9.51,16 H 5.52 L 15,96 Z m -1,-4 H 16 V 14 h 96 z"
             id="path1309" />
          <path
             d="m 50,108 h 28 a 2,2 0 0 0 0,-4 H 50 a 2,2 0 0 0 0,4 z"
             id="path1311" />
          <path
             d="m 83.68,66 c 0.2,-0.33 0.38,-0.67 0.56,-1 h -4.68 l -0.07,0.1 a 2,2 0 0 0 0.21,2.58 l 0.87,0.87 -2,2 -0.87,-0.87 a 2,2 0 0 0 -2.58,-0.21 19.07,19.07 0 0 1 -8,3.32 2,2 0 0 0 -1.68,2 V 76 h -2.87 v -1.22 a 2,2 0 0 0 -1.68,-2 19.07,19.07 0 0 1 -8,-3.32 2,2 0 0 0 -2.58,0.21 l -0.87,0.87 -2,-2 0.87,-0.87 a 2,2 0 0 0 0.21,-2.58 l -0.07,-0.1 h -4.7 c 0.18,0.34 0.36,0.68 0.56,1 l -0.43,0.43 a 3,3 0 0 0 0,4.21 l 3.46,3.46 a 3.05,3.05 0 0 0 4.21,0 l 0.43,-0.43 a 23.19,23.19 0 0 0 6.58,2.73 V 77 a 3,3 0 0 0 3,3 h 4.9 a 3,3 0 0 0 3,-3 V 76.39 A 23.19,23.19 0 0 0 76,73.68 l 0.43,0.43 a 3.05,3.05 0 0 0 4.21,0 l 3.46,-3.46 a 3,3 0 0 0 0,-4.21 z"
             id="path1313" />
          <path
             d="m 44.32,42 c -0.2,0.33 -0.38,0.67 -0.56,1 h 4.69 l 0.07,-0.1 a 2,2 0 0 0 -0.21,-2.58 l -0.87,-0.87 2,-2 0.87,0.87 a 2,2 0 0 0 2.58,0.21 19.07,19.07 0 0 1 8,-3.31 2,2 0 0 0 1.68,-2 V 32 h 2.86 v 1.22 a 2,2 0 0 0 1.68,2 19.07,19.07 0 0 1 8,3.31 2,2 0 0 0 2.58,-0.21 l 0.87,-0.87 2,2 -0.87,0.87 a 2,2 0 0 0 -0.21,2.58 l 0.07,0.1 h 4.69 c -0.18,-0.34 -0.36,-0.68 -0.56,-1 l 0.43,-0.43 a 3,3 0 0 0 0,-4.21 L 80.65,33.9 a 3.05,3.05 0 0 0 -4.21,0 l -0.43,0.43 A 23.15,23.15 0 0 0 69.43,31.6 V 31 a 3,3 0 0 0 -3,-3 h -4.9 a 3,3 0 0 0 -3,3 v 0.61 A 23.15,23.15 0 0 0 52,34.32 l -0.43,-0.43 a 3.05,3.05 0 0 0 -4.21,0 l -3.46,3.46 a 3,3 0 0 0 0,4.21 z"
             id="path1315" />
          <path
             d="M 87,47 H 41 a 7,7 0 0 0 0,14 H 87 A 7,7 0 0 0 87,47 Z M 41,57 a 3,3 0 0 1 0,-6 h 1.56 l 2,6 z m 7.81,0 -2,-6 h 5.78 l 2,6 z m 10,0 -2,-6 h 5.78 l 2,6 z M 87,57 H 68.81 l -2,-6 H 87 a 3,3 0 0 1 0,6 z"
             id="path1317" />
        </g>
      </g>
      <g
         id="g1408"
         transform="translate(-33.028605,-0.40737776)">
        <circle
           r="18"
           cy="69.89994"
           cx="235.48213"
           id="path1345"
           style="opacity:0.99;fill:#000000;fill-opacity:1;fill-rule:nonzero;stroke:none;stroke-width:0.189514;stroke-linejoin:round;stroke-miterlimit:4;stroke-dasharray:none;stroke-dashoffset:0;stroke-opacity:1;paint-order:stroke markers fill" />
        <g
           transform="translate(0.06053696,3.115297)"
           id="g1400">
          <g
             style="fill:#ffffff"
             id="g1390"
             transform="matrix(0.26458333,0,0,0.26458333,217.13788,50.503418)">
            <path
               id="path1379"
               d="M 81,50 A 4,4 0 0 0 77,46 H 33.13 L 49.39,30.84 A 4,4 0 1 0 43.93,25 L 20.24,47.07 a 4,4 0 0 0 0,5.85 L 43.93,75 a 4.0010655,4.0010655 0 0 0 5.46,-5.85 L 33.13,54 H 77 a 4,4 0 0 0 4,-4 z" />
          </g>
          <g
             transform="matrix(-0.26458333,0,0,-0.26458333,253.70531,83.065869)"
             id="g1394"
             style="fill:#ffffff">
            <path
               d="M 81,50 A 4,4 0 0 0 77,46 H 33.13 L 49.39,30.84 A 4,4 0 1 0 43.93,25 L 20.24,47.07 a 4,4 0 0 0 0,5.85 L 43.93,75 a 4.0010655,4.0010655 0 0 0 5.46,-5.85 L 33.13,54 H 77 a 4,4 0 0 0 4,-4 z"
               id="path1392" />
          </g>
        </g>
      </g>
      <g
         id="g1571">
        <circle
           r="18"
           cy="119.23996"
           cx="234.70618"
           id="path1410"
           style="opacity:0.99;fill:#000000;fill-opacity:1;fill-rule:nonzero;stroke:none;stroke-width:0.339832;stroke-linejoin:round;stroke-miterlimit:4;stroke-dasharray:none;stroke-dashoffset:0;stroke-opacity:1;paint-order:stroke markers fill" />
        <g
           transform="matrix(0.29473684,0,0,0.29473684,219.96933,104.50312)"
           id="g1553"
           style="fill:#ffffff">
          <g
             id="g1496">
            <path
               d="M 31.5,58.3 25,59.4 c 2.7,7.2 8.4,12.9 15.6,15.6 l 1.1,-6.5 C 37.2,66.4 33.6,62.8 31.5,58.3 Z"
               id="path1470" />
            <path
               d="m 25,40.6 6.5,1.1 c 2,-4.5 5.6,-8.1 10.1,-10.1 L 40.5,25.1 C 33.4,27.7 27.8,33.5 25,40.6 Z"
               id="path1472" />
            <path
               d="M 68.5,41.7 75,40.6 C 72.3,33.4 66.6,27.7 59.4,25 l -1.1,6.5 c 4.5,2.1 8.1,5.7 10.2,10.2 z"
               id="path1474" />
            <path
               d="m 75,59.4 -6.5,-1.1 c -2,4.5 -5.6,8.1 -10.1,10.1 l 1.1,6.5 c 7,-2.7 12.7,-8.4 15.5,-15.5 z"
               id="path1476" />
            <path
               d="M 38.8,14 37.7,7.6 C 23.2,11.8 11.8,23.2 7.6,37.7 L 14,38.8 C 17.6,27 27,17.7 38.8,14 Z"
               id="path1478" />
            <path
               d="m 86,38.8 6.4,-1.1 C 88.2,23.2 76.8,11.8 62.3,7.6 l -1,6.4 C 73,17.7 82.3,27 86,38.8 Z"
               id="path1480" />
            <path
               d="m 61.3,86 1,6.4 C 76.8,88.2 88.2,76.8 92.4,62.3 L 86,61.2 C 82.3,73 73,82.3 61.3,86 Z"
               id="path1482" />
            <path
               d="m 14,61.2 -6.4,1.1 c 4.2,14.5 15.6,25.9 30.1,30.1 L 38.8,86 C 27,82.4 17.6,73 14,61.2 Z"
               id="path1484" />
            <path
               d="M 52.3,31.7 56.7,5.2 C 56.9,3.7 55.8,2.4 54.4,2.4 h -8.9 c -1.5,0 -2.6,1.3 -2.3,2.8 l 4.4,26.5 c 0.5,2.7 4.3,2.7 4.7,0 z"
               id="path1486" />
            <path
               d="m 47.7,68.3 -4.4,26.5 c -0.2,1.5 0.9,2.8 2.3,2.8 h 8.9 c 1.5,0 2.6,-1.3 2.3,-2.8 L 52.4,68.3 c -0.5,-2.7 -4.3,-2.7 -4.7,0 z"
               id="path1488" />
            <path
               d="m 94.7,43.2 -26.5,4.4 c -2.6,0.4 -2.6,4.3 0,4.7 l 26.5,4.4 c 1.5,0.2 2.8,-0.9 2.8,-2.3 v -8.9 c 0,-1.4 -1.3,-2.5 -2.8,-2.3 z"
               id="path1490" />
            <path
               d="M 31.7,47.7 5.3,43.2 C 3.8,43 2.5,44.1 2.5,45.5 v 8.9 c 0,1.5 1.3,2.6 2.8,2.3 l 26.5,-4.4 c 2.6,-0.4 2.6,-4.2 -0.1,-4.6 z"
               id="path1492" />
            <circle
               cx="50"
               cy="50"
               r="8.8999996"
               id="circle1494" />
          </g>
        </g>
      </g>
      <text
         xml:space="preserve"
         id="text1573"
         style="font-size:4.23333px;line-height:6.61458px;font-family:Roboto;-inkscape-font-specification:Roboto;text-align:center;letter-spacing:0px;word-spacing:0px;writing-mode:lr-tb;white-space:pre;shape-inside:url(#rect1575);fill:#333333;fill-opacity:1;stroke:none;stroke-width:0.264583px;stroke-linecap:butt;stroke-linejoin:miter;stroke-opacity:1"
         transform="translate(-16.982366,-4.3159594)"><tspan
           x="34.029417"
           y="153.11186"><tspan
             style="font-size:7.05556px;fill:#333333;fill-opacity:1;stroke:none">Reconnaisance</tspan></tspan></text>
      <text
         transform="translate(15.56656,-108.50617)"
         style="font-size:4.23333px;line-height:6.61458px;font-family:Roboto;-inkscape-font-specification:Roboto;text-align:center;letter-spacing:0px;word-spacing:0px;writing-mode:lr-tb;white-space:pre;shape-inside:url(#rect1583);fill:#333333;fill-opacity:1;stroke:none;stroke-width:0.264583px;stroke-linecap:butt;stroke-linejoin:miter;stroke-opacity:1"
         id="text1581"
         xml:space="preserve"><tspan
           x="34.704656"
           y="153.11186"><tspan
             style="font-size:7.05556px;fill:#333333;fill-opacity:1;stroke:none">Weaponization</tspan></tspan></text>
      <text
         xml:space="preserve"
         id="text1587"
         style="font-size:4.23333px;line-height:6.61458px;font-family:Roboto;-inkscape-font-specification:Roboto;text-align:center;letter-spacing:0px;word-spacing:0px;writing-mode:lr-tb;white-space:pre;shape-inside:url(#rect1589);fill:#333333;fill-opacity:1;stroke:none;stroke-width:0.264583px;stroke-linecap:butt;stroke-linejoin:miter;stroke-opacity:1"
         transform="translate(47.436801,-4.9309094)"><tspan
           x="45.656622"
           y="153.11186"><tspan
             style="font-size:7.05556px;fill:#333333;fill-opacity:1;stroke:none">Delivery</tspan></tspan></text>
      <text
         transform="translate(79.885813,-108.40282)"
         style="font-size:4.23333px;line-height:6.61458px;font-family:Roboto;-inkscape-font-specification:Roboto;text-align:center;letter-spacing:0px;word-spacing:0px;writing-mode:lr-tb;white-space:pre;shape-inside:url(#rect1595);fill:#333333;fill-opacity:1;stroke:none;stroke-width:0.264583px;stroke-linecap:butt;stroke-linejoin:miter;stroke-opacity:1"
         id="text1593"
         xml:space="preserve"><tspan
           x="39.501955"
           y="153.11186"><tspan
             style="font-size:7.05556px;fill:#333333;fill-opacity:1;stroke:none">Exploitation</tspan></tspan></text>
      <text
         xml:space="preserve"
         id="text1599"
         style="font-size:4.23333px;line-height:6.61458px;font-family:Roboto;-inkscape-font-specification:Roboto;text-align:center;letter-spacing:0px;word-spacing:0px;writing-mode:lr-tb;white-space:pre;shape-inside:url(#rect1601);fill:#333333;fill-opacity:1;stroke:none;stroke-width:0.264583px;stroke-linecap:butt;stroke-linejoin:miter;stroke-opacity:1"
         transform="translate(112.11435,-4.2126065)"><tspan
           x="40.602663"
           y="153.11186"><tspan
             style="font-size:7.05556px;fill:#333333;fill-opacity:1;stroke:none">Installation</tspan></tspan></text>
      <text
         transform="translate(144.5048,-107.72069)"
         style="font-size:4.23333px;line-height:6.61458px;font-family:Roboto;-inkscape-font-specification:Roboto;text-align:center;letter-spacing:0px;word-spacing:0px;writing-mode:lr-tb;white-space:pre;shape-inside:url(#rect1607);fill:#333333;fill-opacity:1;stroke:none;stroke-width:0.264583px;stroke-linecap:butt;stroke-linejoin:miter;stroke-opacity:1"
         id="text1605"
         xml:space="preserve"><tspan
           x="26.27278"
           y="153.11186"><tspan
             style="font-size:7.05556px;fill:#333333;fill-opacity:1;stroke:none">Command &amp; Control</tspan></tspan></text>
      <text
         xml:space="preserve"
         id="text1611"
         style="font-size:4.23333px;line-height:6.61458px;font-family:Roboto;-inkscape-font-specification:Roboto;text-align:center;letter-spacing:0px;word-spacing:0px;writing-mode:lr-tb;white-space:pre;shape-inside:url(#rect1613);fill:#333333;fill-opacity:1;stroke:none;stroke-width:0.264583px;stroke-linecap:butt;stroke-linejoin:miter;stroke-opacity:1"
         transform="translate(176.76778,-5.0170368)"><tspan
           x="32.251747"
           y="153.11186"><tspan
             style="font-size:7.05556px;fill:#333333;fill-opacity:1;stroke:none">Action on Target</tspan></tspan></text>
      <g
         id="g2550">
        <path
           id="path1615"
           d="M 49.526111,101.301 62.253029,88.574075"
           style="fill:none;fill-rule:evenodd;stroke:#000000;stroke-width:0.75;stroke-linecap:butt;stroke-linejoin:miter;stroke-miterlimit:4;stroke-dasharray:none;stroke-opacity:1;marker-end:url(#Arrow2Lend)" />
        <path
           style="fill:none;fill-rule:evenodd;stroke:#000000;stroke-width:0.75;stroke-linecap:butt;stroke-linejoin:miter;stroke-miterlimit:4;stroke-dasharray:none;stroke-opacity:1;marker-end:url(#marker2008)"
           d="M 114.71424,101.301 127.44115,88.574076"
           id="path2004" />
        <path
           id="path2060"
           d="M 179.90239,101.301 192.6293,88.574074"
           style="fill:none;fill-rule:evenodd;stroke:#000000;stroke-width:0.75;stroke-linecap:butt;stroke-linejoin:miter;stroke-miterlimit:4;stroke-dasharray:none;stroke-opacity:1;marker-end:url(#marker2064)" />
        <path
           style="fill:none;fill-rule:evenodd;stroke:#000000;stroke-width:0.75;stroke-linecap:butt;stroke-linejoin:miter;stroke-miterlimit:4;stroke-dasharray:none;stroke-opacity:1;marker-end:url(#marker2164)"
           d="M 82.809364,87.877168 95.536289,100.60409"
           id="path2160" />
        <path
           id="path2238"
           d="m 147.5345,87.877168 12.72692,12.726922"
           style="fill:none;fill-rule:evenodd;stroke:#000000;stroke-width:0.75;stroke-linecap:butt;stroke-linejoin:miter;stroke-miterlimit:4;stroke-dasharray:none;stroke-opacity:1;marker-end:url(#marker2242)" />
        <path
           style="fill:none;fill-rule:evenodd;stroke:#000000;stroke-width:0.75;stroke-linecap:butt;stroke-linejoin:miter;stroke-miterlimit:4;stroke-dasharray:none;stroke-opacity:1;marker-end:url(#marker2322)"
           d="m 212.25964,87.877169 12.72692,12.726921"
           id="path2318" />
      </g>
    </g>
  </g>
</svg>
