solid OpenSCAD_Model
  facet normal 0 0 1
    outer loop
      vertex 45 25.9808 15
      vertex 39.7 8.2 15
      vertex 45 -25.9808 15
    endloop
  endfacet
  facet normal 0 0 1
    outer loop
      vertex 36.3 8.2 15
      vertex 45 25.9808 15
      vertex 38.0385 30 15
    endloop
  endfacet
  facet normal 0 0 1
    outer loop
      vertex 45 25.9808 15
      vertex 36.3 8.2 15
      vertex 39.7 8.2 15
    endloop
  endfacet
  facet normal 0 0 1
    outer loop
      vertex 36.3 8.2 15
      vertex 35 30 15
      vertex 36.3 -8.2 15
    endloop
  endfacet
  facet normal -0 0 1
    outer loop
      vertex 35 30 15
      vertex 36.3 8.2 15
      vertex 38.0385 30 15
    endloop
  endfacet
  facet normal -0 0 1
    outer loop
      vertex 39.7 -8.2 15
      vertex 45 -25.9808 15
      vertex 39.7 8.2 15
    endloop
  endfacet
  facet normal -0 0 1
    outer loop
      vertex 36.3 -8.2 15
      vertex 45 -25.9808 15
      vertex 39.7 -8.2 15
    endloop
  endfacet
  facet normal 0 0 1
    outer loop
      vertex 45 -25.9808 15
      vertex 36.3 -8.2 15
      vertex 38.0385 -30 15
    endloop
  endfacet
  facet normal 0 0 1
    outer loop
      vertex 36.3 -8.2 15
      vertex 35 -30 15
      vertex 38.0385 -30 15
    endloop
  endfacet
  facet normal 0 0 1
    outer loop
      vertex 35 -30 15
      vertex 36.3 -8.2 15
      vertex 35 30 15
    endloop
  endfacet
  facet normal 0 1 -0
    outer loop
      vertex 39.7 -8.2 13
      vertex 36.3 -8.2 15
      vertex 39.7 -8.2 15
    endloop
  endfacet
  facet normal 0 1 0
    outer loop
      vertex 36.3 -8.2 15
      vertex 39.7 -8.2 13
      vertex 36.3 -8.2 13
    endloop
  endfacet
  facet normal 0 -1 0
    outer loop
      vertex 36.3 8.2 13
      vertex 39.7 8.2 15
      vertex 36.3 8.2 15
    endloop
  endfacet
  facet normal 0 -1 -0
    outer loop
      vertex 39.7 8.2 15
      vertex 36.3 8.2 13
      vertex 39.7 8.2 13
    endloop
  endfacet
  facet normal -1 0 0
    outer loop
      vertex 39.7 -8.2 13
      vertex 39.7 8.2 15
      vertex 39.7 8.2 13
    endloop
  endfacet
  facet normal -1 -0 0
    outer loop
      vertex 39.7 8.2 15
      vertex 39.7 -8.2 13
      vertex 39.7 -8.2 15
    endloop
  endfacet
  facet normal 1 -0 0
    outer loop
      vertex 36.3 -8.2 15
      vertex 36.3 8.2 13
      vertex 36.3 8.2 15
    endloop
  endfacet
  facet normal 1 0 0
    outer loop
      vertex 36.3 8.2 13
      vertex 36.3 -8.2 15
      vertex 36.3 -8.2 13
    endloop
  endfacet
  facet normal 0 0 -1
    outer loop
      vertex 40 23.094 0
      vertex 45 25.9808 0
      vertex 45 21 0
    endloop
  endfacet
  facet normal 0 0 -1
    outer loop
      vertex 40 23.094 0
      vertex 45 21 0
      vertex 40 21 0
    endloop
  endfacet
  facet normal -0 0 -1
    outer loop
      vertex 45 25.9808 0
      vertex 40 23.094 0
      vertex 40.6865 28.4711 0
    endloop
  endfacet
  facet normal 0 0 -1
    outer loop
      vertex 40.6865 28.4711 0
      vertex 40 23.094 0
      vertex 38.1865 24.141 0
    endloop
  endfacet
  facet normal 0 0 -1
    outer loop
      vertex 40.6865 -28.4711 0
      vertex 38.1865 -24.141 0
      vertex 40 -23.094 0
    endloop
  endfacet
  facet normal 0 0 -1
    outer loop
      vertex 40 -23.094 0
      vertex 45 -25.9808 0
      vertex 40.6865 -28.4711 0
    endloop
  endfacet
  facet normal 0 0 -1
    outer loop
      vertex 45 -25.9808 0
      vertex 40 -23.094 0
      vertex 45 -21 0
    endloop
  endfacet
  facet normal -0 0 -1
    outer loop
      vertex 45 -21 0
      vertex 40 -23.094 0
      vertex 40 -21 0
    endloop
  endfacet
  facet normal 0 0 -1
    outer loop
      vertex 40 5 0
      vertex 45 11 0
      vertex 45 5 0
    endloop
  endfacet
  facet normal -0 0 -1
    outer loop
      vertex 45 11 0
      vertex 40 5 0
      vertex 40 11 0
    endloop
  endfacet
  facet normal 0 0 -1
    outer loop
      vertex 40 -11 0
      vertex 45 -5 0
      vertex 45 -11 0
    endloop
  endfacet
  facet normal -0 0 -1
    outer loop
      vertex 45 -5 0
      vertex 40 -11 0
      vertex 40 -5 0
    endloop
  endfacet
  facet normal 0 0 -1
    outer loop
      vertex 38.0385 -30 3
      vertex 39.1865 -25.8731 3
      vertex 40.6865 -28.4711 3
    endloop
  endfacet
  facet normal 0 0 -1
    outer loop
      vertex 35 -28.2902 3
      vertex 38.0385 -30 3
      vertex 35 -30 3
    endloop
  endfacet
  facet normal 0 0 -1
    outer loop
      vertex 38.0385 -30 3
      vertex 35 -28.2902 3
      vertex 39.1865 -25.8731 3
    endloop
  endfacet
  facet normal -0.866032 -0.499989 0
    outer loop
      vertex 38.1865 -24.141 0
      vertex 39.1865 -25.8731 3
      vertex 38.1865 -24.141 8
    endloop
  endfacet
  facet normal -0.866024 -0.500002 -1e-05
    outer loop
      vertex 40.6865 -28.4711 0
      vertex 39.1865 -25.8731 3
      vertex 38.1865 -24.141 0
    endloop
  endfacet
  facet normal -0.866019 -0.500011 0
    outer loop
      vertex 39.1865 -25.8731 3
      vertex 40.6865 -28.4711 0
      vertex 40.6865 -28.4711 3
    endloop
  endfacet
  facet normal -0.866032 -0.499989 -0
    outer loop
      vertex 39.1865 -25.8731 7
      vertex 38.1865 -24.141 8
      vertex 39.1865 -25.8731 3
    endloop
  endfacet
  facet normal -0.866019 -0.500011 -0
    outer loop
      vertex 39.6865 -26.7391 8
      vertex 39.1865 -25.8731 7
      vertex 39.6865 -26.7391 7
    endloop
  endfacet
  facet normal -0.866027 -0.499997 1.66666e-05
    outer loop
      vertex 39.1865 -25.8731 7
      vertex 39.6865 -26.7391 8
      vertex 38.1865 -24.141 8
    endloop
  endfacet
  facet normal -0.500004 0.866023 0
    outer loop
      vertex 39.1865 -25.8731 3
      vertex 35 -28.2902 7
      vertex 39.1865 -25.8731 7
    endloop
  endfacet
  facet normal -0.500004 0.866023 0
    outer loop
      vertex 35 -28.2902 7
      vertex 39.1865 -25.8731 3
      vertex 35 -28.2902 3
    endloop
  endfacet
  facet normal 0 0 -1
    outer loop
      vertex 35 -25.9808 8
      vertex 39.6865 -26.7391 8
      vertex 35 -29.4449 8
    endloop
  endfacet
  facet normal 0 0 -1
    outer loop
      vertex 39.6865 -26.7391 8
      vertex 35 -25.9808 8
      vertex 38.1865 -24.141 8
    endloop
  endfacet
  facet normal 0 0 1
    outer loop
      vertex 35 -28.2902 7
      vertex 39.6865 -26.7391 7
      vertex 39.1865 -25.8731 7
    endloop
  endfacet
  facet normal 0 0 1
    outer loop
      vertex 39.6865 -26.7391 7
      vertex 35 -28.2902 7
      vertex 35 -29.4449 7
    endloop
  endfacet
  facet normal -0.500007 0.866022 0
    outer loop
      vertex 39.6865 -26.7391 7
      vertex 35 -29.4449 8
      vertex 39.6865 -26.7391 8
    endloop
  endfacet
  facet normal -0.500007 0.866022 0
    outer loop
      vertex 35 -29.4449 8
      vertex 39.6865 -26.7391 7
      vertex 35 -29.4449 7
    endloop
  endfacet
  facet normal 0 1 0
    outer loop
      vertex 45 11 3
      vertex 45 11 0
      vertex 42 11 3
    endloop
  endfacet
  facet normal 0 1 0
    outer loop
      vertex 42 11 7
      vertex 43 11 8
      vertex 43 11 7
    endloop
  endfacet
  facet normal 0 1 0
    outer loop
      vertex 43 11 8
      vertex 42 11 7
      vertex 40 11 8
    endloop
  endfacet
  facet normal 0 1 -0
    outer loop
      vertex 42 11 3
      vertex 40 11 8
      vertex 42 11 7
    endloop
  endfacet
  facet normal 0 1 0
    outer loop
      vertex 42 11 3
      vertex 40 11 0
      vertex 40 11 8
    endloop
  endfacet
  facet normal 0 1 0
    outer loop
      vertex 40 11 0
      vertex 42 11 3
      vertex 45 11 0
    endloop
  endfacet
  facet normal 0 0 -1
    outer loop
      vertex 42 11 3
      vertex 45 21 3
      vertex 45 11 3
    endloop
  endfacet
  facet normal -0 0 -1
    outer loop
      vertex 45 21 3
      vertex 42 11 3
      vertex 42 21 3
    endloop
  endfacet
  facet normal 0 -1 0
    outer loop
      vertex 40 21 8
      vertex 42 21 7
      vertex 43 21 8
    endloop
  endfacet
  facet normal 0 -1 0
    outer loop
      vertex 40 21 8
      vertex 42 21 3
      vertex 42 21 7
    endloop
  endfacet
  facet normal 0 -1 0
    outer loop
      vertex 40 21 0
      vertex 42 21 3
      vertex 40 21 8
    endloop
  endfacet
  facet normal 0 -1 0
    outer loop
      vertex 45 21 0
      vertex 42 21 3
      vertex 40 21 0
    endloop
  endfacet
  facet normal 0 -1 0
    outer loop
      vertex 42 21 3
      vertex 45 21 0
      vertex 45 21 3
    endloop
  endfacet
  facet normal 0 -1 -0
    outer loop
      vertex 43 21 8
      vertex 42 21 7
      vertex 43 21 7
    endloop
  endfacet
  facet normal -1 0 0
    outer loop
      vertex 42 11 3
      vertex 42 21 7
      vertex 42 21 3
    endloop
  endfacet
  facet normal -1 -0 0
    outer loop
      vertex 42 21 7
      vertex 42 11 3
      vertex 42 11 7
    endloop
  endfacet
  facet normal 0 0 -1
    outer loop
      vertex 40 11 8
      vertex 43 21 8
      vertex 43 11 8
    endloop
  endfacet
  facet normal -0 0 -1
    outer loop
      vertex 43 21 8
      vertex 40 11 8
      vertex 40 21 8
    endloop
  endfacet
  facet normal -0 0 1
    outer loop
      vertex 42 21 7
      vertex 43 11 7
      vertex 43 21 7
    endloop
  endfacet
  facet normal 0 0 1
    outer loop
      vertex 43 11 7
      vertex 42 21 7
      vertex 42 11 7
    endloop
  endfacet
  facet normal -1 0 0
    outer loop
      vertex 43 11 7
      vertex 43 21 8
      vertex 43 21 7
    endloop
  endfacet
  facet normal -1 -0 0
    outer loop
      vertex 43 21 8
      vertex 43 11 7
      vertex 43 11 8
    endloop
  endfacet
  facet normal 0 1 0
    outer loop
      vertex 45 -21 3
      vertex 45 -21 0
      vertex 42 -21 3
    endloop
  endfacet
  facet normal 0 1 0
    outer loop
      vertex 42 -21 7
      vertex 43 -21 8
      vertex 43 -21 7
    endloop
  endfacet
  facet normal 0 1 0
    outer loop
      vertex 43 -21 8
      vertex 42 -21 7
      vertex 40 -21 8
    endloop
  endfacet
  facet normal 0 1 -0
    outer loop
      vertex 42 -21 3
      vertex 40 -21 8
      vertex 42 -21 7
    endloop
  endfacet
  facet normal 0 1 0
    outer loop
      vertex 42 -21 3
      vertex 40 -21 0
      vertex 40 -21 8
    endloop
  endfacet
  facet normal 0 1 0
    outer loop
      vertex 40 -21 0
      vertex 42 -21 3
      vertex 45 -21 0
    endloop
  endfacet
  facet normal 0 0 -1
    outer loop
      vertex 42 -21 3
      vertex 45 -11 3
      vertex 45 -21 3
    endloop
  endfacet
  facet normal -0 0 -1
    outer loop
      vertex 45 -11 3
      vertex 42 -21 3
      vertex 42 -11 3
    endloop
  endfacet
  facet normal 0 -1 0
    outer loop
      vertex 40 -11 8
      vertex 42 -11 7
      vertex 43 -11 8
    endloop
  endfacet
  facet normal 0 -1 0
    outer loop
      vertex 40 -11 8
      vertex 42 -11 3
      vertex 42 -11 7
    endloop
  endfacet
  facet normal 0 -1 0
    outer loop
      vertex 40 -11 0
      vertex 42 -11 3
      vertex 40 -11 8
    endloop
  endfacet
  facet normal 0 -1 0
    outer loop
      vertex 45 -11 0
      vertex 42 -11 3
      vertex 40 -11 0
    endloop
  endfacet
  facet normal 0 -1 0
    outer loop
      vertex 42 -11 3
      vertex 45 -11 0
      vertex 45 -11 3
    endloop
  endfacet
  facet normal 0 -1 -0
    outer loop
      vertex 43 -11 8
      vertex 42 -11 7
      vertex 43 -11 7
    endloop
  endfacet
  facet normal -1 0 0
    outer loop
      vertex 42 -21 3
      vertex 42 -11 7
      vertex 42 -11 3
    endloop
  endfacet
  facet normal -1 -0 0
    outer loop
      vertex 42 -11 7
      vertex 42 -21 3
      vertex 42 -21 7
    endloop
  endfacet
  facet normal 0 0 -1
    outer loop
      vertex 40 -21 8
      vertex 43 -11 8
      vertex 43 -21 8
    endloop
  endfacet
  facet normal -0 0 -1
    outer loop
      vertex 43 -11 8
      vertex 40 -21 8
      vertex 40 -11 8
    endloop
  endfacet
  facet normal -0 0 1
    outer loop
      vertex 42 -11 7
      vertex 43 -21 7
      vertex 43 -11 7
    endloop
  endfacet
  facet normal 0 0 1
    outer loop
      vertex 43 -21 7
      vertex 42 -11 7
      vertex 42 -21 7
    endloop
  endfacet
  facet normal -1 0 0
    outer loop
      vertex 43 -21 7
      vertex 43 -11 8
      vertex 43 -11 7
    endloop
  endfacet
  facet normal -1 -0 0
    outer loop
      vertex 43 -11 8
      vertex 43 -21 7
      vertex 43 -21 8
    endloop
  endfacet
  facet normal 0 1 -0
    outer loop
      vertex 45 -5 0
      vertex 40 -5 8
      vertex 45 -5 8
    endloop
  endfacet
  facet normal 0 1 0
    outer loop
      vertex 40 -5 8
      vertex 45 -5 0
      vertex 40 -5 0
    endloop
  endfacet
  facet normal 0 0 -1
    outer loop
      vertex 40 -5 8
      vertex 45 5 8
      vertex 45 -5 8
    endloop
  endfacet
  facet normal -0 0 -1
    outer loop
      vertex 45 5 8
      vertex 40 -5 8
      vertex 40 5 8
    endloop
  endfacet
  facet normal 0 -1 0
    outer loop
      vertex 40 5 0
      vertex 45 5 8
      vertex 40 5 8
    endloop
  endfacet
  facet normal 0 -1 -0
    outer loop
      vertex 45 5 8
      vertex 40 5 0
      vertex 45 5 0
    endloop
  endfacet
  facet normal 1 0 0
    outer loop
      vertex 45 25.9808 15
      vertex 45 21 3
      vertex 45 25.9808 0
    endloop
  endfacet
  facet normal 1 0 0
    outer loop
      vertex 45 25.9808 15
      vertex 45 11 3
      vertex 45 21 3
    endloop
  endfacet
  facet normal 1 0 0
    outer loop
      vertex 45 5 0
      vertex 45 11 3
      vertex 45 5 8
    endloop
  endfacet
  facet normal 1 0 0
    outer loop
      vertex 45 25.9808 15
      vertex 45 5 8
      vertex 45 11 3
    endloop
  endfacet
  facet normal 1 0 0
    outer loop
      vertex 45 25.9808 15
      vertex 45 -5 8
      vertex 45 5 8
    endloop
  endfacet
  facet normal 1 0 0
    outer loop
      vertex 45 -5 8
      vertex 45 -11 3
      vertex 45 -5 0
    endloop
  endfacet
  facet normal 1 0 0
    outer loop
      vertex 45 -25.9808 15
      vertex 45 -11 3
      vertex 45 -5 8
    endloop
  endfacet
  facet normal 1 -0 0
    outer loop
      vertex 45 -25.9808 15
      vertex 45 -5 8
      vertex 45 25.9808 15
    endloop
  endfacet
  facet normal 1 0 0
    outer loop
      vertex 45 -11 3
      vertex 45 -25.9808 15
      vertex 45 -21 3
    endloop
  endfacet
  facet normal 1 0 0
    outer loop
      vertex 45 -25.9808 0
      vertex 45 -21 3
      vertex 45 -25.9808 15
    endloop
  endfacet
  facet normal 1 0 0
    outer loop
      vertex 45 -21 3
      vertex 45 -25.9808 0
      vertex 45 -21 0
    endloop
  endfacet
  facet normal 1 0 0
    outer loop
      vertex 45 25.9808 0
      vertex 45 21 3
      vertex 45 21 0
    endloop
  endfacet
  facet normal 1 0 0
    outer loop
      vertex 45 11 3
      vertex 45 5 0
      vertex 45 11 0
    endloop
  endfacet
  facet normal 1 0 0
    outer loop
      vertex 45 -5 0
      vertex 45 -11 3
      vertex 45 -11 0
    endloop
  endfacet
  facet normal -0.866019 0.500011 0
    outer loop
      vertex 40.6865 28.4711 0
      vertex 39.1865 25.8731 3
      vertex 40.6865 28.4711 3
    endloop
  endfacet
  facet normal -0.866032 0.499989 0
    outer loop
      vertex 38.1865 24.141 8
      vertex 39.1865 25.8731 3
      vertex 38.1865 24.141 0
    endloop
  endfacet
  facet normal -0.866024 0.500002 -1e-05
    outer loop
      vertex 38.1865 24.141 0
      vertex 39.1865 25.8731 3
      vertex 40.6865 28.4711 0
    endloop
  endfacet
  facet normal -0.866019 0.500011 0
    outer loop
      vertex 39.1865 25.8731 7
      vertex 39.6865 26.7391 8
      vertex 39.6865 26.7391 7
    endloop
  endfacet
  facet normal -0.866027 0.499997 1.66666e-05
    outer loop
      vertex 39.1865 25.8731 7
      vertex 38.1865 24.141 8
      vertex 39.6865 26.7391 8
    endloop
  endfacet
  facet normal -0.866032 0.499989 0
    outer loop
      vertex 39.1865 25.8731 3
      vertex 38.1865 24.141 8
      vertex 39.1865 25.8731 7
    endloop
  endfacet
  facet normal 0 0 -1
    outer loop
      vertex 39.1865 25.8731 3
      vertex 38.0385 30 3
      vertex 40.6865 28.4711 3
    endloop
  endfacet
  facet normal 0 0 -1
    outer loop
      vertex 35 28.2902 3
      vertex 38.0385 30 3
      vertex 39.1865 25.8731 3
    endloop
  endfacet
  facet normal -0 0 -1
    outer loop
      vertex 38.0385 30 3
      vertex 35 28.2902 3
      vertex 35 30 3
    endloop
  endfacet
  facet normal -0.500004 -0.866023 0
    outer loop
      vertex 35 28.2902 3
      vertex 39.1865 25.8731 7
      vertex 35 28.2902 7
    endloop
  endfacet
  facet normal -0.500004 -0.866023 -0
    outer loop
      vertex 39.1865 25.8731 7
      vertex 35 28.2902 3
      vertex 39.1865 25.8731 3
    endloop
  endfacet
  facet normal 0 0 -1
    outer loop
      vertex 35 25.9808 8
      vertex 39.6865 26.7391 8
      vertex 38.1865 24.141 8
    endloop
  endfacet
  facet normal -0 0 -1
    outer loop
      vertex 39.6865 26.7391 8
      vertex 35 25.9808 8
      vertex 35 29.4449 8
    endloop
  endfacet
  facet normal -0 0 1
    outer loop
      vertex 35 28.2902 7
      vertex 39.6865 26.7391 7
      vertex 35 29.4449 7
    endloop
  endfacet
  facet normal 0 0 1
    outer loop
      vertex 39.6865 26.7391 7
      vertex 35 28.2902 7
      vertex 39.1865 25.8731 7
    endloop
  endfacet
  facet normal -0.500007 -0.866022 0
    outer loop
      vertex 35 29.4449 7
      vertex 39.6865 26.7391 8
      vertex 35 29.4449 8
    endloop
  endfacet
  facet normal -0.500007 -0.866022 -0
    outer loop
      vertex 39.6865 26.7391 8
      vertex 35 29.4449 7
      vertex 39.6865 26.7391 7
    endloop
  endfacet
  facet normal 0.499998 0.866027 -6.17606e-06
    outer loop
      vertex 45 25.9808 15
      vertex 40.6865 28.4711 3
      vertex 38.0385 30 15
    endloop
  endfacet
  facet normal 0.499985 0.866034 -0
    outer loop
      vertex 45 25.9808 0
      vertex 40.6865 28.4711 3
      vertex 45 25.9808 15
    endloop
  endfacet
  facet normal 0.499985 0.866034 0
    outer loop
      vertex 40.6865 28.4711 3
      vertex 45 25.9808 0
      vertex 40.6865 28.4711 0
    endloop
  endfacet
  facet normal 0.500019 0.866015 0
    outer loop
      vertex 38.0385 30 15
      vertex 40.6865 28.4711 3
      vertex 38.0385 30 3
    endloop
  endfacet
  facet normal 0.500019 -0.866015 0
    outer loop
      vertex 40.6865 -28.4711 3
      vertex 38.0385 -30 15
      vertex 38.0385 -30 3
    endloop
  endfacet
  facet normal 0.499998 -0.866027 -6.17606e-06
    outer loop
      vertex 38.0385 -30 15
      vertex 40.6865 -28.4711 3
      vertex 45 -25.9808 15
    endloop
  endfacet
  facet normal 0.499985 -0.866034 0
    outer loop
      vertex 45 -25.9808 0
      vertex 40.6865 -28.4711 3
      vertex 40.6865 -28.4711 0
    endloop
  endfacet
  facet normal 0.499985 -0.866034 0
    outer loop
      vertex 40.6865 -28.4711 3
      vertex 45 -25.9808 0
      vertex 45 -25.9808 15
    endloop
  endfacet
  facet normal -0.500015 -0.866017 0
    outer loop
      vertex 38.1865 24.141 8
      vertex 35 25.9808 13
      vertex 35 25.9808 8
    endloop
  endfacet
  facet normal -0.500006 -0.866022 7.33694e-06
    outer loop
      vertex 35 25.9808 13
      vertex 38.1865 24.141 8
      vertex 40 23.094 13
    endloop
  endfacet
  facet normal -0.499991 -0.866031 0
    outer loop
      vertex 40 23.094 0
      vertex 38.1865 24.141 8
      vertex 38.1865 24.141 0
    endloop
  endfacet
  facet normal -0.499991 -0.866031 0
    outer loop
      vertex 38.1865 24.141 8
      vertex 40 23.094 0
      vertex 40 23.094 13
    endloop
  endfacet
  facet normal 0 0 -1
    outer loop
      vertex 40 -23.094 13
      vertex 39.7 -8.2 13
      vertex 40 23.094 13
    endloop
  endfacet
  facet normal 0 0 -1
    outer loop
      vertex 35 -20.2072 13
      vertex 39.7 -8.2 13
      vertex 40 -23.094 13
    endloop
  endfacet
  facet normal -0 0 -1
    outer loop
      vertex 39.7 -8.2 13
      vertex 35 -20.2072 13
      vertex 36.3 -8.2 13
    endloop
  endfacet
  facet normal 0 0 -1
    outer loop
      vertex 35 -20.2072 13
      vertex 40 -23.094 13
      vertex 35 -25.9808 13
    endloop
  endfacet
  facet normal 0 0 -1
    outer loop
      vertex 39.7 8.2 13
      vertex 40 23.094 13
      vertex 39.7 -8.2 13
    endloop
  endfacet
  facet normal 0 0 -1
    outer loop
      vertex 35 20.2072 13
      vertex 39.7 8.2 13
      vertex 36.3 8.2 13
    endloop
  endfacet
  facet normal -0 0 -1
    outer loop
      vertex 36.3 -8.2 13
      vertex 35 -20.2072 13
      vertex 36.3 8.2 13
    endloop
  endfacet
  facet normal 0 0 -1
    outer loop
      vertex 35 20.2072 13
      vertex 36.3 8.2 13
      vertex 35 -20.2072 13
    endloop
  endfacet
  facet normal 0 0 -1
    outer loop
      vertex 39.7 8.2 13
      vertex 35 20.2072 13
      vertex 40 23.094 13
    endloop
  endfacet
  facet normal -0 0 -1
    outer loop
      vertex 40 23.094 13
      vertex 35 20.2072 13
      vertex 35 25.9808 13
    endloop
  endfacet
  facet normal -1 0 0
    outer loop
      vertex 40 -21 0
      vertex 40 -23.094 0
      vertex 40 -21 8
    endloop
  endfacet
  facet normal -1 0 0
    outer loop
      vertex 40 -5 0
      vertex 40 -11 0
      vertex 40 -5 8
    endloop
  endfacet
  facet normal -1 0 0
    outer loop
      vertex 40 11 0
      vertex 40 5 0
      vertex 40 11 8
    endloop
  endfacet
  facet normal -1 0 0
    outer loop
      vertex 40 21 8
      vertex 40 23.094 0
      vertex 40 21 0
    endloop
  endfacet
  facet normal -1 0 0
    outer loop
      vertex 40 23.094 0
      vertex 40 21 8
      vertex 40 23.094 13
    endloop
  endfacet
  facet normal -1 0 0
    outer loop
      vertex 40 11 8
      vertex 40 23.094 13
      vertex 40 21 8
    endloop
  endfacet
  facet normal -1 0 0
    outer loop
      vertex 40 5 8
      vertex 40 11 8
      vertex 40 5 0
    endloop
  endfacet
  facet normal -1 0 0
    outer loop
      vertex 40 5 8
      vertex 40 23.094 13
      vertex 40 11 8
    endloop
  endfacet
  facet normal -1 0 0
    outer loop
      vertex 40 -5 8
      vertex 40 23.094 13
      vertex 40 5 8
    endloop
  endfacet
  facet normal -1 0 0
    outer loop
      vertex 40 -11 8
      vertex 40 -5 8
      vertex 40 -11 0
    endloop
  endfacet
  facet normal -1 0 0
    outer loop
      vertex 40 -23.094 13
      vertex 40 -5 8
      vertex 40 -11 8
    endloop
  endfacet
  facet normal -1 0 0
    outer loop
      vertex 40 -23.094 13
      vertex 40 -11 8
      vertex 40 -21 8
    endloop
  endfacet
  facet normal -1 0 0
    outer loop
      vertex 40 -5 8
      vertex 40 -23.094 13
      vertex 40 23.094 13
    endloop
  endfacet
  facet normal -1 0 0
    outer loop
      vertex 40 -23.094 13
      vertex 40 -21 8
      vertex 40 -23.094 0
    endloop
  endfacet
  facet normal -0.500006 0.866022 7.33694e-06
    outer loop
      vertex 40 -23.094 13
      vertex 38.1865 -24.141 8
      vertex 35 -25.9808 13
    endloop
  endfacet
  facet normal -0.499991 0.866031 0
    outer loop
      vertex 40 -23.094 0
      vertex 38.1865 -24.141 8
      vertex 40 -23.094 13
    endloop
  endfacet
  facet normal -0.499991 0.866031 0
    outer loop
      vertex 38.1865 -24.141 8
      vertex 40 -23.094 0
      vertex 38.1865 -24.141 0
    endloop
  endfacet
  facet normal -0.500015 0.866017 0
    outer loop
      vertex 35 -25.9808 13
      vertex 38.1865 -24.141 8
      vertex 35 -25.9808 8
    endloop
  endfacet
  facet normal -1 0 0
    outer loop
      vertex 35 -28.2902 3
      vertex 35 -29.4449 7
      vertex 35 -28.2902 7
    endloop
  endfacet
  facet normal -1 -0 0
    outer loop
      vertex 35 -29.4449 7
      vertex 35 -30 3
      vertex 35 -29.4449 8
    endloop
  endfacet
  facet normal -1 0 0
    outer loop
      vertex 35 -30 3
      vertex 35 -29.4449 7
      vertex 35 -28.2902 3
    endloop
  endfacet
  facet normal -1 0 0
    outer loop
      vertex 35 -25.9808 8
      vertex 35 -29.4449 8
      vertex 35 -25.9808 13
    endloop
  endfacet
  facet normal -1 0 0
    outer loop
      vertex 35 -20.2072 13
      vertex 35 -25.9808 13
      vertex 35 -20.2072 14
    endloop
  endfacet
  facet normal -1 0 0
    outer loop
      vertex 35 29.4449 8
      vertex 35 30 3
      vertex 35 29.4449 7
    endloop
  endfacet
  facet normal -1 0 0
    outer loop
      vertex 35 28.2902 3
      vertex 35 29.4449 7
      vertex 35 30 3
    endloop
  endfacet
  facet normal -1 -0 0
    outer loop
      vertex 35 29.4449 7
      vertex 35 28.2902 3
      vertex 35 28.2902 7
    endloop
  endfacet
  facet normal -1 0 0
    outer loop
      vertex 35 30 3
      vertex 35 29.4449 8
      vertex 35 30 15
    endloop
  endfacet
  facet normal -1 0 0
    outer loop
      vertex 35 25.9808 13
      vertex 35 29.4449 8
      vertex 35 25.9808 8
    endloop
  endfacet
  facet normal -1 0 0
    outer loop
      vertex 35 29.4449 8
      vertex 35 25.9808 13
      vertex 35 30 15
    endloop
  endfacet
  facet normal -1 0 0
    outer loop
      vertex 35 20.2072 14
      vertex 35 25.9808 13
      vertex 35 20.2072 13
    endloop
  endfacet
  facet normal -1 0 0
    outer loop
      vertex 35 25.9808 13
      vertex 35 20.2072 14
      vertex 35 30 15
    endloop
  endfacet
  facet normal -1 0 0
    outer loop
      vertex 35 -20.2072 14
      vertex 35 30 15
      vertex 35 20.2072 14
    endloop
  endfacet
  facet normal -1 0 0
    outer loop
      vertex 35 -20.2072 14
      vertex 35 -30 15
      vertex 35 30 15
    endloop
  endfacet
  facet normal -1 0 0
    outer loop
      vertex 35 -25.9808 13
      vertex 35 -30 15
      vertex 35 -20.2072 14
    endloop
  endfacet
  facet normal -1 0 0
    outer loop
      vertex 35 -29.4449 8
      vertex 35 -30 15
      vertex 35 -25.9808 13
    endloop
  endfacet
  facet normal -1 0 0
    outer loop
      vertex 35 -30 15
      vertex 35 -29.4449 8
      vertex 35 -30 3
    endloop
  endfacet
  facet normal -1 0 0
    outer loop
      vertex 35 -20.2072 13
      vertex 35 20.2072 14
      vertex 35 20.2072 13
    endloop
  endfacet
  facet normal -1 -0 0
    outer loop
      vertex 35 20.2072 14
      vertex 35 -20.2072 13
      vertex 35 -20.2072 14
    endloop
  endfacet
  facet normal 0 1 -0
    outer loop
      vertex 38.0385 30 3
      vertex 35 30 15
      vertex 38.0385 30 15
    endloop
  endfacet
  facet normal 0 1 0
    outer loop
      vertex 35 30 15
      vertex 38.0385 30 3
      vertex 35 30 3
    endloop
  endfacet
  facet normal 0 -1 0
    outer loop
      vertex 35 -30 3
      vertex 38.0385 -30 15
      vertex 35 -30 15
    endloop
  endfacet
  facet normal 0 -1 -0
    outer loop
      vertex 38.0385 -30 15
      vertex 35 -30 3
      vertex 38.0385 -30 3
    endloop
  endfacet
endsolid OpenSCAD_Model
