solid OpenSCAD_Model
  facet normal 0.866028 0.499996 0
    outer loop
      vertex -22.7167 29.1465 -1.25
      vertex -24.1167 31.5714 -10.5
      vertex -24.1167 31.5714 -1.25
    endloop
  endfacet
  facet normal 0.866028 0.499996 0
    outer loop
      vertex -24.1167 31.5714 -10.5
      vertex -22.7167 29.1465 -1.25
      vertex -22.7167 29.1465 -10.5
    endloop
  endfacet
  facet normal -0.866028 -0.499996 0
    outer loop
      vertex -25.1416 27.7465 -13.5
      vertex -26.5416 30.1714 0
      vertex -26.5416 30.1714 -13.5
    endloop
  endfacet
  facet normal -0.866028 -0.499996 0
    outer loop
      vertex -26.5416 30.1714 0
      vertex -25.1416 27.7465 -13.5
      vertex -25.1416 27.7465 0
    endloop
  endfacet
  facet normal -0.499997 0.866027 8.94942e-07
    outer loop
      vertex -20.3169 33.7652 -10.5
      vertex -22.915 32.2652 -13.5
      vertex -24.1167 31.5714 -10.5
    endloop
  endfacet
  facet normal -0.5 0.866025 1.16456e-05
    outer loop
      vertex -12.8584 38.0714 0
      vertex -15.2833 36.6714 -1.25
      vertex -26.5416 30.1714 0
    endloop
  endfacet
  facet normal -0.499996 0.866028 0
    outer loop
      vertex -12.8584 38.0714 0
      vertex -15.2833 36.6714 -10.5
      vertex -15.2833 36.6714 -1.25
    endloop
  endfacet
  facet normal -0.499996 0.866028 0
    outer loop
      vertex -12.8584 38.0714 -13.5
      vertex -15.2833 36.6714 -10.5
      vertex -12.8584 38.0714 0
    endloop
  endfacet
  facet normal -0.499997 0.866027 -1.24335e-06
    outer loop
      vertex -16.485 35.9776 -13.5
      vertex -15.2833 36.6714 -10.5
      vertex -12.8584 38.0714 -13.5
    endloop
  endfacet
  facet normal -0.499997 0.866027 -8.94942e-07
    outer loop
      vertex -15.2833 36.6714 -10.5
      vertex -16.485 35.9776 -13.5
      vertex -19.0831 34.4776 -10.5
    endloop
  endfacet
  facet normal -0.500003 0.866024 -1.80393e-05
    outer loop
      vertex -24.1167 31.5714 -1.25
      vertex -26.5416 30.1714 0
      vertex -15.2833 36.6714 -1.25
    endloop
  endfacet
  facet normal -0.499996 0.866028 0
    outer loop
      vertex -24.1167 31.5714 -10.5
      vertex -26.5416 30.1714 0
      vertex -24.1167 31.5714 -1.25
    endloop
  endfacet
  facet normal -0.499996 0.866028 0
    outer loop
      vertex -24.1167 31.5714 -10.5
      vertex -26.5416 30.1714 -13.5
      vertex -26.5416 30.1714 0
    endloop
  endfacet
  facet normal -0.499997 0.866027 1.24335e-06
    outer loop
      vertex -26.5416 30.1714 -13.5
      vertex -24.1167 31.5714 -10.5
      vertex -22.915 32.2652 -13.5
    endloop
  endfacet
  facet normal 0.499997 -0.866027 8.94942e-07
    outer loop
      vertex -17.6831 32.0527 -10.5
      vertex -15.085 33.5527 -13.5
      vertex -13.8833 34.2465 -10.5
    endloop
  endfacet
  facet normal 0.5 -0.866025 1.16456e-05
    outer loop
      vertex -25.1416 27.7465 0
      vertex -22.7167 29.1465 -1.25
      vertex -11.4584 35.6465 0
    endloop
  endfacet
  facet normal 0.499996 -0.866028 0
    outer loop
      vertex -25.1416 27.7465 0
      vertex -22.7167 29.1465 -10.5
      vertex -22.7167 29.1465 -1.25
    endloop
  endfacet
  facet normal 0.499996 -0.866028 0
    outer loop
      vertex -25.1416 27.7465 -13.5
      vertex -22.7167 29.1465 -10.5
      vertex -25.1416 27.7465 0
    endloop
  endfacet
  facet normal 0.500015 -0.866017 -2.05452e-05
    outer loop
      vertex -21.515 29.8404 -13.5
      vertex -22.7167 29.1465 -10.5
      vertex -25.1416 27.7465 -13.5
    endloop
  endfacet
  facet normal 0.500014 -0.866017 -2.06328e-05
    outer loop
      vertex -22.7167 29.1465 -10.5
      vertex -21.515 29.8404 -13.5
      vertex -18.9169 31.3404 -10.5
    endloop
  endfacet
  facet normal 0.500003 -0.866024 -1.80393e-05
    outer loop
      vertex -13.8833 34.2465 -1.25
      vertex -11.4584 35.6465 0
      vertex -22.7167 29.1465 -1.25
    endloop
  endfacet
  facet normal 0.499996 -0.866028 0
    outer loop
      vertex -13.8833 34.2465 -10.5
      vertex -11.4584 35.6465 0
      vertex -13.8833 34.2465 -1.25
    endloop
  endfacet
  facet normal 0.499996 -0.866028 0
    outer loop
      vertex -13.8833 34.2465 -10.5
      vertex -11.4584 35.6465 -13.5
      vertex -11.4584 35.6465 0
    endloop
  endfacet
  facet normal 0.499997 -0.866027 1.24335e-06
    outer loop
      vertex -11.4584 35.6465 -13.5
      vertex -13.8833 34.2465 -10.5
      vertex -15.085 33.5527 -13.5
    endloop
  endfacet
  facet normal 0.866028 0.499996 0
    outer loop
      vertex -11.4584 35.6465 0
      vertex -12.8584 38.0714 -13.5
      vertex -12.8584 38.0714 0
    endloop
  endfacet
  facet normal 0.866028 0.499996 0
    outer loop
      vertex -12.8584 38.0714 -13.5
      vertex -11.4584 35.6465 0
      vertex -11.4584 35.6465 -13.5
    endloop
  endfacet
  facet normal -0.866028 -0.499996 0
    outer loop
      vertex -13.8833 34.2465 -10.5
      vertex -15.2833 36.6714 -1.25
      vertex -15.2833 36.6714 -10.5
    endloop
  endfacet
  facet normal -0.866028 -0.499996 0
    outer loop
      vertex -15.2833 36.6714 -1.25
      vertex -13.8833 34.2465 -10.5
      vertex -13.8833 34.2465 -1.25
    endloop
  endfacet
  facet normal 0 0 1
    outer loop
      vertex -20.3169 33.7652 -10.5
      vertex -22.7167 29.1465 -10.5
      vertex -18.9169 31.3404 -10.5
    endloop
  endfacet
  facet normal 0 -0 1
    outer loop
      vertex -22.7167 29.1465 -10.5
      vertex -20.3169 33.7652 -10.5
      vertex -24.1167 31.5714 -10.5
    endloop
  endfacet
  facet normal 0 0 1
    outer loop
      vertex -15.2833 36.6714 -10.5
      vertex -17.6831 32.0527 -10.5
      vertex -13.8833 34.2465 -10.5
    endloop
  endfacet
  facet normal 0 -0 1
    outer loop
      vertex -17.6831 32.0527 -10.5
      vertex -15.2833 36.6714 -10.5
      vertex -19.0831 34.4776 -10.5
    endloop
  endfacet
  facet normal 0 0 -1
    outer loop
      vertex -15.085 33.5527 -13.5
      vertex -12.8584 38.0714 -13.5
      vertex -11.4584 35.6465 -13.5
    endloop
  endfacet
  facet normal 0 0 -1
    outer loop
      vertex -12.8584 38.0714 -13.5
      vertex -15.085 33.5527 -13.5
      vertex -16.485 35.9776 -13.5
    endloop
  endfacet
  facet normal 0 0 -1
    outer loop
      vertex -25.1416 27.7465 -13.5
      vertex -22.915 32.2652 -13.5
      vertex -21.515 29.8404 -13.5
    endloop
  endfacet
  facet normal 0 0 -1
    outer loop
      vertex -22.915 32.2652 -13.5
      vertex -25.1416 27.7465 -13.5
      vertex -26.5416 30.1714 -13.5
    endloop
  endfacet
  facet normal 0 0 -1
    outer loop
      vertex -22.7167 29.1465 -1.25
      vertex -15.2833 36.6714 -1.25
      vertex -13.8833 34.2465 -1.25
    endloop
  endfacet
  facet normal 0 0 -1
    outer loop
      vertex -15.2833 36.6714 -1.25
      vertex -22.7167 29.1465 -1.25
      vertex -24.1167 31.5714 -1.25
    endloop
  endfacet
  facet normal -0.612372 -0.353549 -0.707109
    outer loop
      vertex -17.6831 32.0527 -10.5
      vertex -16.485 35.9776 -13.5
      vertex -15.085 33.5527 -13.5
    endloop
  endfacet
  facet normal -0.612372 -0.353549 -0.707109
    outer loop
      vertex -16.485 35.9776 -13.5
      vertex -17.6831 32.0527 -10.5
      vertex -19.0831 34.4776 -10.5
    endloop
  endfacet
  facet normal 0.612366 0.35356 -0.707109
    outer loop
      vertex -21.515 29.8404 -13.5
      vertex -20.3169 33.7652 -10.5
      vertex -18.9169 31.3404 -10.5
    endloop
  endfacet
  facet normal 0.612366 0.35356 -0.707109
    outer loop
      vertex -20.3169 33.7652 -10.5
      vertex -21.515 29.8404 -13.5
      vertex -22.915 32.2652 -13.5
    endloop
  endfacet
  facet normal -0.866028 0.499996 0
    outer loop
      vertex -15.2833 -36.6714 -10.5
      vertex -13.8833 -34.2465 -1.25
      vertex -13.8833 -34.2465 -10.5
    endloop
  endfacet
  facet normal -0.866028 0.499996 0
    outer loop
      vertex -13.8833 -34.2465 -1.25
      vertex -15.2833 -36.6714 -10.5
      vertex -15.2833 -36.6714 -1.25
    endloop
  endfacet
  facet normal 0.866028 -0.499996 0
    outer loop
      vertex -12.8584 -38.0714 0
      vertex -11.4584 -35.6465 -13.5
      vertex -11.4584 -35.6465 0
    endloop
  endfacet
  facet normal 0.866028 -0.499996 0
    outer loop
      vertex -11.4584 -35.6465 -13.5
      vertex -12.8584 -38.0714 0
      vertex -12.8584 -38.0714 -13.5
    endloop
  endfacet
  facet normal -0.499997 -0.866027 -8.94942e-07
    outer loop
      vertex -19.0831 -34.4776 -10.5
      vertex -16.485 -35.9776 -13.5
      vertex -15.2833 -36.6714 -10.5
    endloop
  endfacet
  facet normal -0.5 -0.866025 -1.16456e-05
    outer loop
      vertex -26.5416 -30.1714 0
      vertex -24.1167 -31.5714 -1.25
      vertex -12.8584 -38.0714 0
    endloop
  endfacet
  facet normal -0.499996 -0.866028 0
    outer loop
      vertex -26.5416 -30.1714 0
      vertex -24.1167 -31.5714 -10.5
      vertex -24.1167 -31.5714 -1.25
    endloop
  endfacet
  facet normal -0.499996 -0.866028 0
    outer loop
      vertex -26.5416 -30.1714 -13.5
      vertex -24.1167 -31.5714 -10.5
      vertex -26.5416 -30.1714 0
    endloop
  endfacet
  facet normal -0.499997 -0.866027 1.24335e-06
    outer loop
      vertex -22.915 -32.2652 -13.5
      vertex -24.1167 -31.5714 -10.5
      vertex -26.5416 -30.1714 -13.5
    endloop
  endfacet
  facet normal -0.499997 -0.866027 8.94942e-07
    outer loop
      vertex -24.1167 -31.5714 -10.5
      vertex -22.915 -32.2652 -13.5
      vertex -20.3169 -33.7652 -10.5
    endloop
  endfacet
  facet normal -0.500003 -0.866024 1.80393e-05
    outer loop
      vertex -15.2833 -36.6714 -1.25
      vertex -12.8584 -38.0714 0
      vertex -24.1167 -31.5714 -1.25
    endloop
  endfacet
  facet normal -0.499996 -0.866028 0
    outer loop
      vertex -15.2833 -36.6714 -10.5
      vertex -12.8584 -38.0714 0
      vertex -15.2833 -36.6714 -1.25
    endloop
  endfacet
  facet normal -0.499996 -0.866028 0
    outer loop
      vertex -15.2833 -36.6714 -10.5
      vertex -12.8584 -38.0714 -13.5
      vertex -12.8584 -38.0714 0
    endloop
  endfacet
  facet normal -0.499997 -0.866027 -1.24335e-06
    outer loop
      vertex -12.8584 -38.0714 -13.5
      vertex -15.2833 -36.6714 -10.5
      vertex -16.485 -35.9776 -13.5
    endloop
  endfacet
  facet normal 0.500014 0.866017 -2.06328e-05
    outer loop
      vertex -18.9169 -31.3404 -10.5
      vertex -21.515 -29.8404 -13.5
      vertex -22.7167 -29.1465 -10.5
    endloop
  endfacet
  facet normal 0.5 0.866025 -1.16456e-05
    outer loop
      vertex -11.4584 -35.6465 0
      vertex -13.8833 -34.2465 -1.25
      vertex -25.1416 -27.7465 0
    endloop
  endfacet
  facet normal 0.499996 0.866028 0
    outer loop
      vertex -11.4584 -35.6465 0
      vertex -13.8833 -34.2465 -10.5
      vertex -13.8833 -34.2465 -1.25
    endloop
  endfacet
  facet normal 0.499996 0.866028 -0
    outer loop
      vertex -11.4584 -35.6465 -13.5
      vertex -13.8833 -34.2465 -10.5
      vertex -11.4584 -35.6465 0
    endloop
  endfacet
  facet normal 0.499997 0.866027 1.24335e-06
    outer loop
      vertex -15.085 -33.5527 -13.5
      vertex -13.8833 -34.2465 -10.5
      vertex -11.4584 -35.6465 -13.5
    endloop
  endfacet
  facet normal 0.499997 0.866027 8.94942e-07
    outer loop
      vertex -13.8833 -34.2465 -10.5
      vertex -15.085 -33.5527 -13.5
      vertex -17.6831 -32.0527 -10.5
    endloop
  endfacet
  facet normal 0.500003 0.866024 1.80393e-05
    outer loop
      vertex -22.7167 -29.1465 -1.25
      vertex -25.1416 -27.7465 0
      vertex -13.8833 -34.2465 -1.25
    endloop
  endfacet
  facet normal 0.499996 0.866028 -0
    outer loop
      vertex -22.7167 -29.1465 -10.5
      vertex -25.1416 -27.7465 0
      vertex -22.7167 -29.1465 -1.25
    endloop
  endfacet
  facet normal 0.499996 0.866028 0
    outer loop
      vertex -22.7167 -29.1465 -10.5
      vertex -25.1416 -27.7465 -13.5
      vertex -25.1416 -27.7465 0
    endloop
  endfacet
  facet normal 0.500015 0.866017 -2.05452e-05
    outer loop
      vertex -25.1416 -27.7465 -13.5
      vertex -22.7167 -29.1465 -10.5
      vertex -21.515 -29.8404 -13.5
    endloop
  endfacet
  facet normal -0.866028 0.499996 0
    outer loop
      vertex -26.5416 -30.1714 -13.5
      vertex -25.1416 -27.7465 0
      vertex -25.1416 -27.7465 -13.5
    endloop
  endfacet
  facet normal -0.866028 0.499996 0
    outer loop
      vertex -25.1416 -27.7465 0
      vertex -26.5416 -30.1714 -13.5
      vertex -26.5416 -30.1714 0
    endloop
  endfacet
  facet normal 0.866028 -0.499996 0
    outer loop
      vertex -24.1167 -31.5714 -1.25
      vertex -22.7167 -29.1465 -10.5
      vertex -22.7167 -29.1465 -1.25
    endloop
  endfacet
  facet normal 0.866028 -0.499996 0
    outer loop
      vertex -22.7167 -29.1465 -10.5
      vertex -24.1167 -31.5714 -1.25
      vertex -24.1167 -31.5714 -10.5
    endloop
  endfacet
  facet normal 0 0 1
    outer loop
      vertex -17.6831 -32.0527 -10.5
      vertex -15.2833 -36.6714 -10.5
      vertex -13.8833 -34.2465 -10.5
    endloop
  endfacet
  facet normal 0 0 1
    outer loop
      vertex -15.2833 -36.6714 -10.5
      vertex -17.6831 -32.0527 -10.5
      vertex -19.0831 -34.4776 -10.5
    endloop
  endfacet
  facet normal 0 0 1
    outer loop
      vertex -22.7167 -29.1465 -10.5
      vertex -20.3169 -33.7652 -10.5
      vertex -18.9169 -31.3404 -10.5
    endloop
  endfacet
  facet normal 0 0 1
    outer loop
      vertex -20.3169 -33.7652 -10.5
      vertex -22.7167 -29.1465 -10.5
      vertex -24.1167 -31.5714 -10.5
    endloop
  endfacet
  facet normal 0 0 -1
    outer loop
      vertex -22.915 -32.2652 -13.5
      vertex -25.1416 -27.7465 -13.5
      vertex -21.515 -29.8404 -13.5
    endloop
  endfacet
  facet normal 0 -0 -1
    outer loop
      vertex -25.1416 -27.7465 -13.5
      vertex -22.915 -32.2652 -13.5
      vertex -26.5416 -30.1714 -13.5
    endloop
  endfacet
  facet normal 0 0 -1
    outer loop
      vertex -12.8584 -38.0714 -13.5
      vertex -15.085 -33.5527 -13.5
      vertex -11.4584 -35.6465 -13.5
    endloop
  endfacet
  facet normal 0 -0 -1
    outer loop
      vertex -15.085 -33.5527 -13.5
      vertex -12.8584 -38.0714 -13.5
      vertex -16.485 -35.9776 -13.5
    endloop
  endfacet
  facet normal 0 0 -1
    outer loop
      vertex -15.2833 -36.6714 -1.25
      vertex -22.7167 -29.1465 -1.25
      vertex -13.8833 -34.2465 -1.25
    endloop
  endfacet
  facet normal 0 -0 -1
    outer loop
      vertex -22.7167 -29.1465 -1.25
      vertex -15.2833 -36.6714 -1.25
      vertex -24.1167 -31.5714 -1.25
    endloop
  endfacet
  facet normal 0.612366 -0.35356 -0.707109
    outer loop
      vertex -20.3169 -33.7652 -10.5
      vertex -21.515 -29.8404 -13.5
      vertex -18.9169 -31.3404 -10.5
    endloop
  endfacet
  facet normal 0.612366 -0.35356 -0.707109
    outer loop
      vertex -21.515 -29.8404 -13.5
      vertex -20.3169 -33.7652 -10.5
      vertex -22.915 -32.2652 -13.5
    endloop
  endfacet
  facet normal -0.612372 0.353549 -0.707109
    outer loop
      vertex -16.485 -35.9776 -13.5
      vertex -17.6831 -32.0527 -10.5
      vertex -15.085 -33.5527 -13.5
    endloop
  endfacet
  facet normal -0.612372 0.353549 -0.707109
    outer loop
      vertex -17.6831 -32.0527 -10.5
      vertex -16.485 -35.9776 -13.5
      vertex -19.0831 -34.4776 -10.5
    endloop
  endfacet
  facet normal 0 -1 0
    outer loop
      vertex 36.6 5.1 -10.5
      vertex 39.4 5.1 -1.25
      vertex 36.6 5.1 -1.25
    endloop
  endfacet
  facet normal 0 -1 -0
    outer loop
      vertex 39.4 5.1 -1.25
      vertex 36.6 5.1 -10.5
      vertex 39.4 5.1 -10.5
    endloop
  endfacet
  facet normal 0 1 -0
    outer loop
      vertex 39.4 7.9 -13.5
      vertex 36.6 7.9 0
      vertex 39.4 7.9 0
    endloop
  endfacet
  facet normal 0 1 0
    outer loop
      vertex 36.6 7.9 0
      vertex 39.4 7.9 -13.5
      vertex 36.6 7.9 -13.5
    endloop
  endfacet
  facet normal 1 0 0
    outer loop
      vertex 39.4 5.1 -10.5
      vertex 39.4 7.9 0
      vertex 39.4 5.1 -1.25
    endloop
  endfacet
  facet normal 1 0 0
    outer loop
      vertex 39.4 7.9 0
      vertex 39.4 -5.1 -1.25
      vertex 39.4 5.1 -1.25
    endloop
  endfacet
  facet normal 1 0 0
    outer loop
      vertex 39.4 -5.1 -1.25
      vertex 39.4 -7.9 0
      vertex 39.4 -5.1 -10.5
    endloop
  endfacet
  facet normal 1 -0 0
    outer loop
      vertex 39.4 -7.9 0
      vertex 39.4 -5.1 -1.25
      vertex 39.4 7.9 0
    endloop
  endfacet
  facet normal 1 0 0
    outer loop
      vertex 39.4 7.9 0
      vertex 39.4 5.1 -10.5
      vertex 39.4 7.9 -13.5
    endloop
  endfacet
  facet normal 1 0 0
    outer loop
      vertex 39.4 5.1 -10.5
      vertex 39.4 3.71231 -13.5
      vertex 39.4 7.9 -13.5
    endloop
  endfacet
  facet normal 1 0 -0
    outer loop
      vertex 39.4 3.71231 -13.5
      vertex 39.4 5.1 -10.5
      vertex 39.4 0.712311 -10.5
    endloop
  endfacet
  facet normal 1 -0 0
    outer loop
      vertex 39.4 -5.1 -10.5
      vertex 39.4 -3.71231 -13.5
      vertex 39.4 -0.712311 -10.5
    endloop
  endfacet
  facet normal 1 0 0
    outer loop
      vertex 39.4 -5.1 -10.5
      vertex 39.4 -7.9 -13.5
      vertex 39.4 -3.71231 -13.5
    endloop
  endfacet
  facet normal 1 0 0
    outer loop
      vertex 39.4 -7.9 -13.5
      vertex 39.4 -5.1 -10.5
      vertex 39.4 -7.9 0
    endloop
  endfacet
  facet normal -1 0 0
    outer loop
      vertex 36.6 -3.71231 -13.5
      vertex 36.6 -5.1 -10.5
      vertex 36.6 -0.712311 -10.5
    endloop
  endfacet
  facet normal -1 0 0
    outer loop
      vertex 36.6 -7.9 0
      vertex 36.6 -5.1 -10.5
      vertex 36.6 -7.9 -13.5
    endloop
  endfacet
  facet normal -1 0 0
    outer loop
      vertex 36.6 -7.9 -13.5
      vertex 36.6 -5.1 -10.5
      vertex 36.6 -3.71231 -13.5
    endloop
  endfacet
  facet normal -1 0 0
    outer loop
      vertex 36.6 7.9 -13.5
      vertex 36.6 5.1 -10.5
      vertex 36.6 7.9 0
    endloop
  endfacet
  facet normal -1 0 0
    outer loop
      vertex 36.6 3.71231 -13.5
      vertex 36.6 5.1 -10.5
      vertex 36.6 7.9 -13.5
    endloop
  endfacet
  facet normal -1 -0 0
    outer loop
      vertex 36.6 5.1 -10.5
      vertex 36.6 3.71231 -13.5
      vertex 36.6 0.712311 -10.5
    endloop
  endfacet
  facet normal -1 0 0
    outer loop
      vertex 36.6 5.1 -1.25
      vertex 36.6 7.9 0
      vertex 36.6 5.1 -10.5
    endloop
  endfacet
  facet normal -1 0 0
    outer loop
      vertex 36.6 -5.1 -1.25
      vertex 36.6 7.9 0
      vertex 36.6 5.1 -1.25
    endloop
  endfacet
  facet normal -1 0 0
    outer loop
      vertex 36.6 -5.1 -1.25
      vertex 36.6 -7.9 0
      vertex 36.6 7.9 0
    endloop
  endfacet
  facet normal -1 0 0
    outer loop
      vertex 36.6 -5.1 -10.5
      vertex 36.6 -7.9 0
      vertex 36.6 -5.1 -1.25
    endloop
  endfacet
  facet normal 0 -1 0
    outer loop
      vertex 36.6 -7.9 -13.5
      vertex 39.4 -7.9 0
      vertex 36.6 -7.9 0
    endloop
  endfacet
  facet normal 0 -1 -0
    outer loop
      vertex 39.4 -7.9 0
      vertex 36.6 -7.9 -13.5
      vertex 39.4 -7.9 -13.5
    endloop
  endfacet
  facet normal 0 1 -0
    outer loop
      vertex 39.4 -5.1 -10.5
      vertex 36.6 -5.1 -1.25
      vertex 39.4 -5.1 -1.25
    endloop
  endfacet
  facet normal 0 1 0
    outer loop
      vertex 36.6 -5.1 -1.25
      vertex 39.4 -5.1 -10.5
      vertex 36.6 -5.1 -10.5
    endloop
  endfacet
  facet normal -0 0 1
    outer loop
      vertex 36.6 5.1 -10.5
      vertex 39.4 0.712311 -10.5
      vertex 39.4 5.1 -10.5
    endloop
  endfacet
  facet normal 0 0 1
    outer loop
      vertex 39.4 0.712311 -10.5
      vertex 36.6 5.1 -10.5
      vertex 36.6 0.712311 -10.5
    endloop
  endfacet
  facet normal -0 0 1
    outer loop
      vertex 36.6 -0.712311 -10.5
      vertex 39.4 -5.1 -10.5
      vertex 39.4 -0.712311 -10.5
    endloop
  endfacet
  facet normal 0 0 1
    outer loop
      vertex 39.4 -5.1 -10.5
      vertex 36.6 -0.712311 -10.5
      vertex 36.6 -5.1 -10.5
    endloop
  endfacet
  facet normal 0 0 -1
    outer loop
      vertex 36.6 -7.9 -13.5
      vertex 39.4 -3.71231 -13.5
      vertex 39.4 -7.9 -13.5
    endloop
  endfacet
  facet normal -0 0 -1
    outer loop
      vertex 39.4 -3.71231 -13.5
      vertex 36.6 -7.9 -13.5
      vertex 36.6 -3.71231 -13.5
    endloop
  endfacet
  facet normal 0 0 -1
    outer loop
      vertex 36.6 3.71231 -13.5
      vertex 39.4 7.9 -13.5
      vertex 39.4 3.71231 -13.5
    endloop
  endfacet
  facet normal -0 0 -1
    outer loop
      vertex 39.4 7.9 -13.5
      vertex 36.6 3.71231 -13.5
      vertex 36.6 7.9 -13.5
    endloop
  endfacet
  facet normal 0 0 -1
    outer loop
      vertex 36.6 -5.1 -1.25
      vertex 39.4 5.1 -1.25
      vertex 39.4 -5.1 -1.25
    endloop
  endfacet
  facet normal -0 0 -1
    outer loop
      vertex 39.4 5.1 -1.25
      vertex 36.6 -5.1 -1.25
      vertex 36.6 5.1 -1.25
    endloop
  endfacet
  facet normal 0 0.707107 -0.707107
    outer loop
      vertex 39.4 -3.71231 -13.5
      vertex 36.6 -0.712311 -10.5
      vertex 39.4 -0.712311 -10.5
    endloop
  endfacet
  facet normal 0 0.707107 -0.707107
    outer loop
      vertex 36.6 -0.712311 -10.5
      vertex 39.4 -3.71231 -13.5
      vertex 36.6 -3.71231 -13.5
    endloop
  endfacet
  facet normal 0 -0.707107 -0.707107
    outer loop
      vertex 36.6 3.71231 -13.5
      vertex 39.4 0.712311 -10.5
      vertex 36.6 0.712311 -10.5
    endloop
  endfacet
  facet normal 0 -0.707107 -0.707107
    outer loop
      vertex 39.4 0.712311 -10.5
      vertex 36.6 3.71231 -13.5
      vertex 39.4 3.71231 -13.5
    endloop
  endfacet
  facet normal 0 0 -1
    outer loop
      vertex -18 10.3923 0
      vertex -10 5.7735 0
      vertex -18 -10.3923 0
    endloop
  endfacet
  facet normal 0 0 -1
    outer loop
      vertex -10 5.7735 0
      vertex -18 10.3923 0
      vertex -10.732 14.5885 0
    endloop
  endfacet
  facet normal 0 0 -1
    outer loop
      vertex 10 -5.7735 0
      vertex 18 -2 0
      vertex 18 -10.3923 0
    endloop
  endfacet
  facet normal -0 0 -1
    outer loop
      vertex 18 -2 0
      vertex 10 -5.7735 0
      vertex 18 2 0
    endloop
  endfacet
  facet normal 0 0 -1
    outer loop
      vertex 10 5.7735 0
      vertex 18 2 0
      vertex 10 -5.7735 0
    endloop
  endfacet
  facet normal 0 0 -1
    outer loop
      vertex 0 -20.7846 0
      vertex 10 -5.7735 0
      vertex 18 -10.3923 0
    endloop
  endfacet
  facet normal 0 0 -1
    outer loop
      vertex 0 -20.7846 0
      vertex 0 -11.547 0
      vertex 10 -5.7735 0
    endloop
  endfacet
  facet normal 0 0 -1
    outer loop
      vertex -7.26794 -16.5885 0
      vertex 0 -11.547 0
      vertex 0 -20.7846 0
    endloop
  endfacet
  facet normal 0 0 -1
    outer loop
      vertex -7.26794 -16.5885 0
      vertex -10 -5.7735 0
      vertex 0 -11.547 0
    endloop
  endfacet
  facet normal 0 0 -1
    outer loop
      vertex -18 -10.3923 0
      vertex -10 -5.7735 0
      vertex -10.732 -14.5885 0
    endloop
  endfacet
  facet normal 0 0 -1
    outer loop
      vertex -7.26794 -16.5885 0
      vertex -10.732 -14.5885 0
      vertex -10 -5.7735 0
    endloop
  endfacet
  facet normal 0 0 -1
    outer loop
      vertex -14.2679 -28.7128 0
      vertex -10.732 -14.5885 0
      vertex -7.26794 -16.5885 0
    endloop
  endfacet
  facet normal 0 0 -1
    outer loop
      vertex -10.732 -14.5885 0
      vertex -14.2679 -28.7128 0
      vertex -17.732 -26.7128 0
    endloop
  endfacet
  facet normal 0 0 -1
    outer loop
      vertex 18 -2 0
      vertex 32 2 0
      vertex 32 -2 0
    endloop
  endfacet
  facet normal -0 0 -1
    outer loop
      vertex 32 2 0
      vertex 18 -2 0
      vertex 18 2 0
    endloop
  endfacet
  facet normal 0 0 -1
    outer loop
      vertex 40 -23.094 0
      vertex 39.4 -7.9 0
      vertex 40 23.094 0
    endloop
  endfacet
  facet normal 0 0 -1
    outer loop
      vertex 32 -18.4752 0
      vertex 39.4 -7.9 0
      vertex 40 -23.094 0
    endloop
  endfacet
  facet normal 0 0 -1
    outer loop
      vertex 32 -2 0
      vertex 36.6 -7.9 0
      vertex 32 -18.4752 0
    endloop
  endfacet
  facet normal -0 0 -1
    outer loop
      vertex 39.4 -7.9 0
      vertex 32 -18.4752 0
      vertex 36.6 -7.9 0
    endloop
  endfacet
  facet normal 0 0 -1
    outer loop
      vertex 0 -46.188 0
      vertex 32 -18.4752 0
      vertex 40 -23.094 0
    endloop
  endfacet
  facet normal 0 0 -1
    outer loop
      vertex 0 -46.188 0
      vertex 0 -36.9504 0
      vertex 32 -18.4752 0
    endloop
  endfacet
  facet normal 0 0 -1
    outer loop
      vertex -12.8584 -38.0714 0
      vertex 0 -36.9504 0
      vertex 0 -46.188 0
    endloop
  endfacet
  facet normal -0 0 -1
    outer loop
      vertex 0 -36.9504 0
      vertex -12.8584 -38.0714 0
      vertex -11.4584 -35.6465 0
    endloop
  endfacet
  facet normal 0 0 -1
    outer loop
      vertex 0 -46.188 0
      vertex -26.5416 -30.1714 0
      vertex -12.8584 -38.0714 0
    endloop
  endfacet
  facet normal -0 0 -1
    outer loop
      vertex -32 -18.4752 0
      vertex -40 -23.094 0
      vertex -32 18.4752 0
    endloop
  endfacet
  facet normal 0 0 -1
    outer loop
      vertex -26.5416 -30.1714 0
      vertex -40 -23.094 0
      vertex -32 -18.4752 0
    endloop
  endfacet
  facet normal 0 0 -1
    outer loop
      vertex -40 -23.094 0
      vertex -26.5416 -30.1714 0
      vertex 0 -46.188 0
    endloop
  endfacet
  facet normal 0 0 -1
    outer loop
      vertex 39.4 7.9 0
      vertex 40 23.094 0
      vertex 39.4 -7.9 0
    endloop
  endfacet
  facet normal 0 0 -1
    outer loop
      vertex 32 18.4752 0
      vertex 39.4 7.9 0
      vertex 36.6 7.9 0
    endloop
  endfacet
  facet normal 0 0 -1
    outer loop
      vertex 36.6 -7.9 0
      vertex 32 -2 0
      vertex 36.6 7.9 0
    endloop
  endfacet
  facet normal 0 0 -1
    outer loop
      vertex 32 2 0
      vertex 36.6 7.9 0
      vertex 32 -2 0
    endloop
  endfacet
  facet normal 0 0 -1
    outer loop
      vertex 32 18.4752 0
      vertex 36.6 7.9 0
      vertex 32 2 0
    endloop
  endfacet
  facet normal 0 0 -1
    outer loop
      vertex 39.4 7.9 0
      vertex 32 18.4752 0
      vertex 40 23.094 0
    endloop
  endfacet
  facet normal 0 0 -1
    outer loop
      vertex 0 36.9504 0
      vertex 40 23.094 0
      vertex 32 18.4752 0
    endloop
  endfacet
  facet normal 0 0 -1
    outer loop
      vertex 0 36.9504 0
      vertex 0 46.188 0
      vertex 40 23.094 0
    endloop
  endfacet
  facet normal 0 0 -1
    outer loop
      vertex -12.8584 38.0714 0
      vertex 0 36.9504 0
      vertex -11.4584 35.6465 0
    endloop
  endfacet
  facet normal 0 0 -1
    outer loop
      vertex -14.2679 28.7128 0
      vertex -11.4584 35.6465 0
      vertex 0 36.9504 0
    endloop
  endfacet
  facet normal 0 0 -1
    outer loop
      vertex -17.732 26.7128 0
      vertex -11.4584 35.6465 0
      vertex -14.2679 28.7128 0
    endloop
  endfacet
  facet normal 0 0 -1
    outer loop
      vertex -17.732 26.7128 0
      vertex -25.1416 27.7465 0
      vertex -11.4584 35.6465 0
    endloop
  endfacet
  facet normal -0 0 -1
    outer loop
      vertex -25.1416 27.7465 0
      vertex -32 18.4752 0
      vertex -26.5416 30.1714 0
    endloop
  endfacet
  facet normal 0 0 -1
    outer loop
      vertex -32 18.4752 0
      vertex -25.1416 27.7465 0
      vertex -17.732 26.7128 0
    endloop
  endfacet
  facet normal 0 0 -1
    outer loop
      vertex 18 2 0
      vertex 10 5.7735 0
      vertex 18 10.3923 0
    endloop
  endfacet
  facet normal 0 0 -1
    outer loop
      vertex 0 11.547 0
      vertex 18 10.3923 0
      vertex 10 5.7735 0
    endloop
  endfacet
  facet normal 0 0 -1
    outer loop
      vertex 0 11.547 0
      vertex 0 20.7846 0
      vertex 18 10.3923 0
    endloop
  endfacet
  facet normal 0 0 -1
    outer loop
      vertex 0 11.547 0
      vertex -7.26794 16.5885 0
      vertex 0 20.7846 0
    endloop
  endfacet
  facet normal 0 0 -1
    outer loop
      vertex -10 5.7735 0
      vertex -7.26794 16.5885 0
      vertex 0 11.547 0
    endloop
  endfacet
  facet normal -0 0 -1
    outer loop
      vertex -10 -5.7735 0
      vertex -18 -10.3923 0
      vertex -10 5.7735 0
    endloop
  endfacet
  facet normal 0 0 -1
    outer loop
      vertex -10.732 14.5885 0
      vertex -7.26794 16.5885 0
      vertex -10 5.7735 0
    endloop
  endfacet
  facet normal 0 0 -1
    outer loop
      vertex -10.732 14.5885 0
      vertex -14.2679 28.7128 0
      vertex -7.26794 16.5885 0
    endloop
  endfacet
  facet normal 0 -0 -1
    outer loop
      vertex -14.2679 28.7128 0
      vertex -10.732 14.5885 0
      vertex -17.732 26.7128 0
    endloop
  endfacet
  facet normal 0 0 -1
    outer loop
      vertex -11.4584 -35.6465 0
      vertex -14.2679 -28.7128 0
      vertex 0 -36.9504 0
    endloop
  endfacet
  facet normal 0 0 -1
    outer loop
      vertex -11.4584 -35.6465 0
      vertex -17.732 -26.7128 0
      vertex -14.2679 -28.7128 0
    endloop
  endfacet
  facet normal 0 0 -1
    outer loop
      vertex -25.1416 -27.7465 0
      vertex -17.732 -26.7128 0
      vertex -11.4584 -35.6465 0
    endloop
  endfacet
  facet normal 0 0 -1
    outer loop
      vertex -25.1416 -27.7465 0
      vertex -32 -18.4752 0
      vertex -17.732 -26.7128 0
    endloop
  endfacet
  facet normal 0 0 -1
    outer loop
      vertex -32 -18.4752 0
      vertex -25.1416 -27.7465 0
      vertex -26.5416 -30.1714 0
    endloop
  endfacet
  facet normal 0 0 -1
    outer loop
      vertex 0 36.9504 0
      vertex -12.8584 38.0714 0
      vertex 0 46.188 0
    endloop
  endfacet
  facet normal 0 0 -1
    outer loop
      vertex -26.5416 30.1714 0
      vertex 0 46.188 0
      vertex -12.8584 38.0714 0
    endloop
  endfacet
  facet normal -0 0 -1
    outer loop
      vertex -26.5416 30.1714 0
      vertex -40 23.094 0
      vertex 0 46.188 0
    endloop
  endfacet
  facet normal 0 0 -1
    outer loop
      vertex -32 18.4752 0
      vertex -40 23.094 0
      vertex -26.5416 30.1714 0
    endloop
  endfacet
  facet normal 0 0 -1
    outer loop
      vertex -40 23.094 0
      vertex -32 18.4752 0
      vertex -40 -23.094 0
    endloop
  endfacet
  facet normal 0 0 1
    outer loop
      vertex -18 -10.3923 2
      vertex -10 -5.7735 2
      vertex -18 10.3923 2
    endloop
  endfacet
  facet normal 0 0 1
    outer loop
      vertex -10 -5.7735 2
      vertex -18 -10.3923 2
      vertex -10.732 -14.5885 2
    endloop
  endfacet
  facet normal -0 0 1
    outer loop
      vertex 10 5.7735 2
      vertex 18 2 2
      vertex 18 10.3923 2
    endloop
  endfacet
  facet normal 0 0 1
    outer loop
      vertex 18 2 2
      vertex 10 5.7735 2
      vertex 18 -2 2
    endloop
  endfacet
  facet normal 0 0 1
    outer loop
      vertex 10 -5.7735 2
      vertex 18 -2 2
      vertex 10 5.7735 2
    endloop
  endfacet
  facet normal 0 0 1
    outer loop
      vertex 0 20.7846 2
      vertex 10 5.7735 2
      vertex 18 10.3923 2
    endloop
  endfacet
  facet normal 0 0 1
    outer loop
      vertex 0 20.7846 2
      vertex 0 11.547 2
      vertex 10 5.7735 2
    endloop
  endfacet
  facet normal -0 0 1
    outer loop
      vertex -7.26794 16.5885 2
      vertex 0 11.547 2
      vertex 0 20.7846 2
    endloop
  endfacet
  facet normal 0 0 1
    outer loop
      vertex -7.26794 16.5885 2
      vertex -10 5.7735 2
      vertex 0 11.547 2
    endloop
  endfacet
  facet normal -0 0 1
    outer loop
      vertex -18 10.3923 2
      vertex -10 5.7735 2
      vertex -10.732 14.5885 2
    endloop
  endfacet
  facet normal 0 0 1
    outer loop
      vertex -7.26794 16.5885 2
      vertex -10.732 14.5885 2
      vertex -10 5.7735 2
    endloop
  endfacet
  facet normal 0 0 1
    outer loop
      vertex -14.2679 28.7128 2
      vertex -10.732 14.5885 2
      vertex -7.26794 16.5885 2
    endloop
  endfacet
  facet normal 0 0 1
    outer loop
      vertex -10.732 14.5885 2
      vertex -14.2679 28.7128 2
      vertex -17.732 26.7128 2
    endloop
  endfacet
  facet normal -0 0 1
    outer loop
      vertex 18 2 2
      vertex 32 -2 2
      vertex 32 2 2
    endloop
  endfacet
  facet normal 0 0 1
    outer loop
      vertex 32 -2 2
      vertex 18 2 2
      vertex 18 -2 2
    endloop
  endfacet
  facet normal 0 0 1
    outer loop
      vertex 32 2 2
      vertex 40 23.094 2
      vertex 32 18.4752 2
    endloop
  endfacet
  facet normal 0 0 1
    outer loop
      vertex 0 46.188 2
      vertex 32 18.4752 2
      vertex 40 23.094 2
    endloop
  endfacet
  facet normal 0 0 1
    outer loop
      vertex 0 46.188 2
      vertex 0 36.9504 2
      vertex 32 18.4752 2
    endloop
  endfacet
  facet normal 0 0 1
    outer loop
      vertex 0 46.188 2
      vertex -14.2679 28.7128 2
      vertex 0 36.9504 2
    endloop
  endfacet
  facet normal 0 0 1
    outer loop
      vertex 0 46.188 2
      vertex -17.732 26.7128 2
      vertex -14.2679 28.7128 2
    endloop
  endfacet
  facet normal 0 0 1
    outer loop
      vertex -40 23.094 2
      vertex -17.732 26.7128 2
      vertex 0 46.188 2
    endloop
  endfacet
  facet normal 0 0 1
    outer loop
      vertex -32 18.4752 2
      vertex -40 23.094 2
      vertex -32 -18.4752 2
    endloop
  endfacet
  facet normal 0 0 1
    outer loop
      vertex -17.732 26.7128 2
      vertex -40 23.094 2
      vertex -32 18.4752 2
    endloop
  endfacet
  facet normal 0 0 1
    outer loop
      vertex 40 23.094 2
      vertex 32 2 2
      vertex 40 -23.094 2
    endloop
  endfacet
  facet normal -0 0 1
    outer loop
      vertex 32 -2 2
      vertex 40 -23.094 2
      vertex 32 2 2
    endloop
  endfacet
  facet normal -0 0 1
    outer loop
      vertex 32 -18.4752 2
      vertex 40 -23.094 2
      vertex 32 -2 2
    endloop
  endfacet
  facet normal 0 0 1
    outer loop
      vertex 0 -36.9504 2
      vertex 40 -23.094 2
      vertex 32 -18.4752 2
    endloop
  endfacet
  facet normal -0 0 1
    outer loop
      vertex 0 -36.9504 2
      vertex 0 -46.188 2
      vertex 40 -23.094 2
    endloop
  endfacet
  facet normal 0 0 1
    outer loop
      vertex -14.2679 -28.7128 2
      vertex 0 -46.188 2
      vertex 0 -36.9504 2
    endloop
  endfacet
  facet normal 0 0 1
    outer loop
      vertex -17.732 -26.7128 2
      vertex 0 -46.188 2
      vertex -14.2679 -28.7128 2
    endloop
  endfacet
  facet normal -0 0 1
    outer loop
      vertex -40 -23.094 2
      vertex -17.732 -26.7128 2
      vertex -32 -18.4752 2
    endloop
  endfacet
  facet normal 0 0 1
    outer loop
      vertex -17.732 -26.7128 2
      vertex -40 -23.094 2
      vertex 0 -46.188 2
    endloop
  endfacet
  facet normal 0 0 1
    outer loop
      vertex -40 -23.094 2
      vertex -32 -18.4752 2
      vertex -40 23.094 2
    endloop
  endfacet
  facet normal 0 0 1
    outer loop
      vertex 18 -2 2
      vertex 10 -5.7735 2
      vertex 18 -10.3923 2
    endloop
  endfacet
  facet normal 0 0 1
    outer loop
      vertex 0 -11.547 2
      vertex 18 -10.3923 2
      vertex 10 -5.7735 2
    endloop
  endfacet
  facet normal -0 0 1
    outer loop
      vertex 0 -11.547 2
      vertex 0 -20.7846 2
      vertex 18 -10.3923 2
    endloop
  endfacet
  facet normal 0 0 1
    outer loop
      vertex 0 -11.547 2
      vertex -7.26794 -16.5885 2
      vertex 0 -20.7846 2
    endloop
  endfacet
  facet normal 0 0 1
    outer loop
      vertex -10 -5.7735 2
      vertex -7.26794 -16.5885 2
      vertex 0 -11.547 2
    endloop
  endfacet
  facet normal 0 0 1
    outer loop
      vertex -10 5.7735 2
      vertex -18 10.3923 2
      vertex -10 -5.7735 2
    endloop
  endfacet
  facet normal -0 0 1
    outer loop
      vertex -10.732 -14.5885 2
      vertex -7.26794 -16.5885 2
      vertex -10 -5.7735 2
    endloop
  endfacet
  facet normal 0 0 1
    outer loop
      vertex -10.732 -14.5885 2
      vertex -14.2679 -28.7128 2
      vertex -7.26794 -16.5885 2
    endloop
  endfacet
  facet normal 0 -0 1
    outer loop
      vertex -14.2679 -28.7128 2
      vertex -10.732 -14.5885 2
      vertex -17.732 -26.7128 2
    endloop
  endfacet
  facet normal 1 -0 0
    outer loop
      vertex 40 -23.094 2
      vertex 40 23.094 0
      vertex 40 23.094 2
    endloop
  endfacet
  facet normal 1 0 0
    outer loop
      vertex 40 23.094 0
      vertex 40 -23.094 2
      vertex 40 -23.094 0
    endloop
  endfacet
  facet normal 0.5 0.866026 -0
    outer loop
      vertex 40 23.094 0
      vertex 0 46.188 2
      vertex 40 23.094 2
    endloop
  endfacet
  facet normal 0.5 0.866026 0
    outer loop
      vertex 0 46.188 2
      vertex 40 23.094 0
      vertex 0 46.188 0
    endloop
  endfacet
  facet normal -0.5 0.866026 0
    outer loop
      vertex 0 46.188 0
      vertex -40 23.094 2
      vertex 0 46.188 2
    endloop
  endfacet
  facet normal -0.5 0.866026 0
    outer loop
      vertex -40 23.094 2
      vertex 0 46.188 0
      vertex -40 23.094 0
    endloop
  endfacet
  facet normal -1 0 0
    outer loop
      vertex -40 -23.094 0
      vertex -40 23.094 2
      vertex -40 23.094 0
    endloop
  endfacet
  facet normal -1 -0 0
    outer loop
      vertex -40 23.094 2
      vertex -40 -23.094 0
      vertex -40 -23.094 2
    endloop
  endfacet
  facet normal -0.5 -0.866026 0
    outer loop
      vertex -40 -23.094 0
      vertex 0 -46.188 2
      vertex -40 -23.094 2
    endloop
  endfacet
  facet normal -0.5 -0.866026 -0
    outer loop
      vertex 0 -46.188 2
      vertex -40 -23.094 0
      vertex 0 -46.188 0
    endloop
  endfacet
  facet normal 0.5 -0.866026 0
    outer loop
      vertex 0 -46.188 0
      vertex 40 -23.094 2
      vertex 0 -46.188 2
    endloop
  endfacet
  facet normal 0.5 -0.866026 0
    outer loop
      vertex 40 -23.094 2
      vertex 0 -46.188 0
      vertex 40 -23.094 0
    endloop
  endfacet
  facet normal 0.5 0.866026 -0
    outer loop
      vertex 18 10.3923 0
      vertex 0 20.7846 2
      vertex 18 10.3923 2
    endloop
  endfacet
  facet normal 0.5 0.866026 0
    outer loop
      vertex 0 20.7846 2
      vertex 18 10.3923 0
      vertex 0 20.7846 0
    endloop
  endfacet
  facet normal -0.499996 0.866028 0
    outer loop
      vertex 0 20.7846 0
      vertex -7.26794 16.5885 2
      vertex 0 20.7846 2
    endloop
  endfacet
  facet normal -0.499996 0.866028 0
    outer loop
      vertex -7.26794 16.5885 2
      vertex 0 20.7846 0
      vertex -7.26794 16.5885 0
    endloop
  endfacet
  facet normal 0.866026 0.5 0
    outer loop
      vertex -7.26794 16.5885 2
      vertex -14.2679 28.7128 0
      vertex -14.2679 28.7128 2
    endloop
  endfacet
  facet normal 0.866026 0.5 0
    outer loop
      vertex -14.2679 28.7128 0
      vertex -7.26794 16.5885 2
      vertex -7.26794 16.5885 0
    endloop
  endfacet
  facet normal 0.500001 -0.866025 0
    outer loop
      vertex -14.2679 28.7128 0
      vertex 0 36.9504 2
      vertex -14.2679 28.7128 2
    endloop
  endfacet
  facet normal 0.500001 -0.866025 0
    outer loop
      vertex 0 36.9504 2
      vertex -14.2679 28.7128 0
      vertex 0 36.9504 0
    endloop
  endfacet
  facet normal -0.5 -0.866026 0
    outer loop
      vertex 0 36.9504 0
      vertex 32 18.4752 2
      vertex 0 36.9504 2
    endloop
  endfacet
  facet normal -0.5 -0.866026 -0
    outer loop
      vertex 32 18.4752 2
      vertex 0 36.9504 0
      vertex 32 18.4752 0
    endloop
  endfacet
  facet normal -1 0 0
    outer loop
      vertex 32 2 0
      vertex 32 18.4752 2
      vertex 32 18.4752 0
    endloop
  endfacet
  facet normal -1 -0 0
    outer loop
      vertex 32 18.4752 2
      vertex 32 2 0
      vertex 32 2 2
    endloop
  endfacet
  facet normal 0 1 -0
    outer loop
      vertex 32 2 0
      vertex 18 2 2
      vertex 32 2 2
    endloop
  endfacet
  facet normal 0 1 0
    outer loop
      vertex 18 2 2
      vertex 32 2 0
      vertex 18 2 0
    endloop
  endfacet
  facet normal 1 -0 0
    outer loop
      vertex 18 2 2
      vertex 18 10.3923 0
      vertex 18 10.3923 2
    endloop
  endfacet
  facet normal 1 0 0
    outer loop
      vertex 18 10.3923 0
      vertex 18 2 2
      vertex 18 2 0
    endloop
  endfacet
  facet normal 1 -0 0
    outer loop
      vertex -32 -18.4752 2
      vertex -32 18.4752 0
      vertex -32 18.4752 2
    endloop
  endfacet
  facet normal 1 0 0
    outer loop
      vertex -32 18.4752 0
      vertex -32 -18.4752 2
      vertex -32 -18.4752 0
    endloop
  endfacet
  facet normal 0.499998 -0.866026 0
    outer loop
      vertex -32 18.4752 0
      vertex -17.732 26.7128 2
      vertex -32 18.4752 2
    endloop
  endfacet
  facet normal 0.499998 -0.866026 0
    outer loop
      vertex -17.732 26.7128 2
      vertex -32 18.4752 0
      vertex -17.732 26.7128 0
    endloop
  endfacet
  facet normal -0.866024 -0.500002 0
    outer loop
      vertex -10.732 14.5885 0
      vertex -17.732 26.7128 2
      vertex -17.732 26.7128 0
    endloop
  endfacet
  facet normal -0.866024 -0.500002 0
    outer loop
      vertex -17.732 26.7128 2
      vertex -10.732 14.5885 0
      vertex -10.732 14.5885 2
    endloop
  endfacet
  facet normal -0.500002 0.866024 0
    outer loop
      vertex -10.732 14.5885 0
      vertex -18 10.3923 2
      vertex -10.732 14.5885 2
    endloop
  endfacet
  facet normal -0.500002 0.866024 0
    outer loop
      vertex -18 10.3923 2
      vertex -10.732 14.5885 0
      vertex -18 10.3923 0
    endloop
  endfacet
  facet normal -1 0 0
    outer loop
      vertex -18 -10.3923 0
      vertex -18 10.3923 2
      vertex -18 10.3923 0
    endloop
  endfacet
  facet normal -1 -0 0
    outer loop
      vertex -18 10.3923 2
      vertex -18 -10.3923 0
      vertex -18 -10.3923 2
    endloop
  endfacet
  facet normal -0.500002 -0.866024 0
    outer loop
      vertex -18 -10.3923 0
      vertex -10.732 -14.5885 2
      vertex -18 -10.3923 2
    endloop
  endfacet
  facet normal -0.500002 -0.866024 -0
    outer loop
      vertex -10.732 -14.5885 2
      vertex -18 -10.3923 0
      vertex -10.732 -14.5885 0
    endloop
  endfacet
  facet normal -0.866024 0.500002 0
    outer loop
      vertex -17.732 -26.7128 0
      vertex -10.732 -14.5885 2
      vertex -10.732 -14.5885 0
    endloop
  endfacet
  facet normal -0.866024 0.500002 0
    outer loop
      vertex -10.732 -14.5885 2
      vertex -17.732 -26.7128 0
      vertex -17.732 -26.7128 2
    endloop
  endfacet
  facet normal 0.499998 0.866026 -0
    outer loop
      vertex -17.732 -26.7128 0
      vertex -32 -18.4752 2
      vertex -17.732 -26.7128 2
    endloop
  endfacet
  facet normal 0.499998 0.866026 0
    outer loop
      vertex -32 -18.4752 2
      vertex -17.732 -26.7128 0
      vertex -32 -18.4752 0
    endloop
  endfacet
  facet normal 1 -0 0
    outer loop
      vertex -10 -5.7735 2
      vertex -10 5.7735 0
      vertex -10 5.7735 2
    endloop
  endfacet
  facet normal 1 0 0
    outer loop
      vertex -10 5.7735 0
      vertex -10 -5.7735 2
      vertex -10 -5.7735 0
    endloop
  endfacet
  facet normal 0.5 -0.866026 0
    outer loop
      vertex -10 5.7735 0
      vertex 0 11.547 2
      vertex -10 5.7735 2
    endloop
  endfacet
  facet normal 0.5 -0.866026 0
    outer loop
      vertex 0 11.547 2
      vertex -10 5.7735 0
      vertex 0 11.547 0
    endloop
  endfacet
  facet normal -0.5 -0.866026 0
    outer loop
      vertex 0 11.547 0
      vertex 10 5.7735 2
      vertex 0 11.547 2
    endloop
  endfacet
  facet normal -0.5 -0.866026 -0
    outer loop
      vertex 10 5.7735 2
      vertex 0 11.547 0
      vertex 10 5.7735 0
    endloop
  endfacet
  facet normal -1 0 0
    outer loop
      vertex 10 -5.7735 0
      vertex 10 5.7735 2
      vertex 10 5.7735 0
    endloop
  endfacet
  facet normal -1 -0 0
    outer loop
      vertex 10 5.7735 2
      vertex 10 -5.7735 0
      vertex 10 -5.7735 2
    endloop
  endfacet
  facet normal -0.5 0.866026 0
    outer loop
      vertex 10 -5.7735 0
      vertex 0 -11.547 2
      vertex 10 -5.7735 2
    endloop
  endfacet
  facet normal -0.5 0.866026 0
    outer loop
      vertex 0 -11.547 2
      vertex 10 -5.7735 0
      vertex 0 -11.547 0
    endloop
  endfacet
  facet normal 0.5 0.866026 -0
    outer loop
      vertex 0 -11.547 0
      vertex -10 -5.7735 2
      vertex 0 -11.547 2
    endloop
  endfacet
  facet normal 0.5 0.866026 0
    outer loop
      vertex -10 -5.7735 2
      vertex 0 -11.547 0
      vertex -10 -5.7735 0
    endloop
  endfacet
  facet normal -1 0 0
    outer loop
      vertex 32 -18.4752 0
      vertex 32 -2 2
      vertex 32 -2 0
    endloop
  endfacet
  facet normal -1 -0 0
    outer loop
      vertex 32 -2 2
      vertex 32 -18.4752 0
      vertex 32 -18.4752 2
    endloop
  endfacet
  facet normal -0.5 0.866026 0
    outer loop
      vertex 32 -18.4752 0
      vertex 0 -36.9504 2
      vertex 32 -18.4752 2
    endloop
  endfacet
  facet normal -0.5 0.866026 0
    outer loop
      vertex 0 -36.9504 2
      vertex 32 -18.4752 0
      vertex 0 -36.9504 0
    endloop
  endfacet
  facet normal 0.500001 0.866025 -0
    outer loop
      vertex 0 -36.9504 0
      vertex -14.2679 -28.7128 2
      vertex 0 -36.9504 2
    endloop
  endfacet
  facet normal 0.500001 0.866025 0
    outer loop
      vertex -14.2679 -28.7128 2
      vertex 0 -36.9504 0
      vertex -14.2679 -28.7128 0
    endloop
  endfacet
  facet normal 0.866026 -0.5 0
    outer loop
      vertex -14.2679 -28.7128 2
      vertex -7.26794 -16.5885 0
      vertex -7.26794 -16.5885 2
    endloop
  endfacet
  facet normal 0.866026 -0.5 0
    outer loop
      vertex -7.26794 -16.5885 0
      vertex -14.2679 -28.7128 2
      vertex -14.2679 -28.7128 0
    endloop
  endfacet
  facet normal -0.499996 -0.866028 0
    outer loop
      vertex -7.26794 -16.5885 0
      vertex 0 -20.7846 2
      vertex -7.26794 -16.5885 2
    endloop
  endfacet
  facet normal -0.499996 -0.866028 -0
    outer loop
      vertex 0 -20.7846 2
      vertex -7.26794 -16.5885 0
      vertex 0 -20.7846 0
    endloop
  endfacet
  facet normal 0.5 -0.866026 0
    outer loop
      vertex 0 -20.7846 0
      vertex 18 -10.3923 2
      vertex 0 -20.7846 2
    endloop
  endfacet
  facet normal 0.5 -0.866026 0
    outer loop
      vertex 18 -10.3923 2
      vertex 0 -20.7846 0
      vertex 18 -10.3923 0
    endloop
  endfacet
  facet normal 1 -0 0
    outer loop
      vertex 18 -10.3923 2
      vertex 18 -2 0
      vertex 18 -2 2
    endloop
  endfacet
  facet normal 1 0 0
    outer loop
      vertex 18 -2 0
      vertex 18 -10.3923 2
      vertex 18 -10.3923 0
    endloop
  endfacet
  facet normal 0 -1 0
    outer loop
      vertex 18 -2 0
      vertex 32 -2 2
      vertex 18 -2 2
    endloop
  endfacet
  facet normal 0 -1 -0
    outer loop
      vertex 32 -2 2
      vertex 18 -2 0
      vertex 32 -2 0
    endloop
  endfacet
endsolid OpenSCAD_Model
