solid OpenSCAD_Model
  facet normal 0 1 -0
    outer loop
      vertex 45 -4 0
      vertex 40 -4 7
      vertex 45 -4 7
    endloop
  endfacet
  facet normal 0 1 0
    outer loop
      vertex 40 -4 7
      vertex 45 -4 0
      vertex 40 -4 0
    endloop
  endfacet
  facet normal 0 0 -1
    outer loop
      vertex 40 -4 7
      vertex 45 4 7
      vertex 45 -4 7
    endloop
  endfacet
  facet normal -0 0 -1
    outer loop
      vertex 45 4 7
      vertex 40 -4 7
      vertex 40 4 7
    endloop
  endfacet
  facet normal 0 -1 0
    outer loop
      vertex 40 4 0
      vertex 45 4 7
      vertex 40 4 7
    endloop
  endfacet
  facet normal 0 -1 -0
    outer loop
      vertex 45 4 7
      vertex 40 4 0
      vertex 45 4 0
    endloop
  endfacet
  facet normal 1 0 0
    outer loop
      vertex 45 25.9808 15
      vertex 45 18 9.5
      vertex 45 25.9808 0
    endloop
  endfacet
  facet normal 1 0 0
    outer loop
      vertex 45 25.9808 15
      vertex 45 15.75 9.5
      vertex 45 18 9.5
    endloop
  endfacet
  facet normal 1 0 0
    outer loop
      vertex 45 15.75 9.5
      vertex 45 14.25 9.5
      vertex 45 15.75 4
    endloop
  endfacet
  facet normal 1 0 0
    outer loop
      vertex 45 25.9808 15
      vertex 45 14.25 9.5
      vertex 45 15.75 9.5
    endloop
  endfacet
  facet normal 1 0 0
    outer loop
      vertex 45 25.9808 15
      vertex 45 12 9.5
      vertex 45 14.25 9.5
    endloop
  endfacet
  facet normal 1 0 0
    outer loop
      vertex 45 12 9.5
      vertex 45 4 7
      vertex 45 12 4
    endloop
  endfacet
  facet normal 1 -0 0
    outer loop
      vertex 45 -11.9 10
      vertex 45 12 9.5
      vertex 45 25.9808 15
    endloop
  endfacet
  facet normal 1 0 0
    outer loop
      vertex 45 12 9.5
      vertex 45 -11.9 10
      vertex 45 4 7
    endloop
  endfacet
  facet normal 1 0 0
    outer loop
      vertex 45 -11.9 4
      vertex 45 -4 7
      vertex 45 -11.9 10
    endloop
  endfacet
  facet normal 1 0 0
    outer loop
      vertex 45 4 7
      vertex 45 -11.9 10
      vertex 45 -4 7
    endloop
  endfacet
  facet normal 1 -0 0
    outer loop
      vertex 45 -25.9808 15
      vertex 45 -11.9 10
      vertex 45 25.9808 15
    endloop
  endfacet
  facet normal 1 0 0
    outer loop
      vertex 45 -25.9808 0
      vertex 45 -18.1 10
      vertex 45 -25.9808 15
    endloop
  endfacet
  facet normal 1 0 0
    outer loop
      vertex 45 -11.9 10
      vertex 45 -25.9808 15
      vertex 45 -18.1 10
    endloop
  endfacet
  facet normal 1 -0 0
    outer loop
      vertex 45 18 4
      vertex 45 25.9808 0
      vertex 45 18 9.5
    endloop
  endfacet
  facet normal 1 -0 0
    outer loop
      vertex 45 15.75 4
      vertex 45 25.9808 0
      vertex 45 18 4
    endloop
  endfacet
  facet normal 1 0 0
    outer loop
      vertex 45 14.25 4
      vertex 45 15.75 4
      vertex 45 14.25 9.5
    endloop
  endfacet
  facet normal 1 -0 0
    outer loop
      vertex 45 14.25 4
      vertex 45 25.9808 0
      vertex 45 15.75 4
    endloop
  endfacet
  facet normal 1 0 0
    outer loop
      vertex 45 4 0
      vertex 45 14.25 4
      vertex 45 12 4
    endloop
  endfacet
  facet normal 1 0 0
    outer loop
      vertex 45 14.25 4
      vertex 45 4 0
      vertex 45 25.9808 0
    endloop
  endfacet
  facet normal 1 0 0
    outer loop
      vertex 45 4 0
      vertex 45 12 4
      vertex 45 4 7
    endloop
  endfacet
  facet normal 1 0 0
    outer loop
      vertex 45 -4 7
      vertex 45 -11.9 4
      vertex 45 -4 0
    endloop
  endfacet
  facet normal 1 -0 0
    outer loop
      vertex 45 -18.1 4
      vertex 45 -4 0
      vertex 45 -11.9 4
    endloop
  endfacet
  facet normal 1 0 0
    outer loop
      vertex 45 -18.1 4
      vertex 45 -25.9808 0
      vertex 45 -4 0
    endloop
  endfacet
  facet normal 1 0 0
    outer loop
      vertex 45 -18.1 10
      vertex 45 -25.9808 0
      vertex 45 -18.1 4
    endloop
  endfacet
  facet normal -0.164393 0.986395 0
    outer loop
      vertex 45 -18.1 4
      vertex 40 -18.9333 10
      vertex 45 -18.1 10
    endloop
  endfacet
  facet normal -0.164393 0.986395 0
    outer loop
      vertex 40 -18.9333 10
      vertex 45 -18.1 4
      vertex 40 -18.9333 4
    endloop
  endfacet
  facet normal -0.164393 -0.986395 0
    outer loop
      vertex 40 -11.0667 4
      vertex 45 -11.9 10
      vertex 40 -11.0667 10
    endloop
  endfacet
  facet normal -0.164393 -0.986395 -0
    outer loop
      vertex 45 -11.9 10
      vertex 40 -11.0667 4
      vertex 45 -11.9 4
    endloop
  endfacet
  facet normal 0 0 -1
    outer loop
      vertex 40 -18.9333 10
      vertex 45 -11.9 10
      vertex 45 -18.1 10
    endloop
  endfacet
  facet normal -0 0 -1
    outer loop
      vertex 45 -11.9 10
      vertex 40 -18.9333 10
      vertex 40 -11.0667 10
    endloop
  endfacet
  facet normal 0 0 1
    outer loop
      vertex 40 -11.0667 4
      vertex 45 -18.1 4
      vertex 45 -11.9 4
    endloop
  endfacet
  facet normal 0 0 1
    outer loop
      vertex 45 -18.1 4
      vertex 40 -11.0667 4
      vertex 40 -18.9333 4
    endloop
  endfacet
  facet normal -0.93644 0.350827 0
    outer loop
      vertex 36.3967 25.1744 4
      vertex 38.175 29.9211 10
      vertex 38.175 29.9211 4
    endloop
  endfacet
  facet normal -0.93644 0.350827 0
    outer loop
      vertex 38.175 29.9211 10
      vertex 36.3967 25.1744 4
      vertex 36.3967 25.1744 10
    endloop
  endfacet
  facet normal 0 0 -1
    outer loop
      vertex 35 25.9808 10
      vertex 38.175 29.9211 10
      vertex 36.3967 25.1744 10
    endloop
  endfacet
  facet normal -0 0 -1
    outer loop
      vertex 38.175 29.9211 10
      vertex 35 25.9808 10
      vertex 38.0385 30 10
    endloop
  endfacet
  facet normal -0 0 -1
    outer loop
      vertex 38.0385 30 10
      vertex 35 25.9808 10
      vertex 35 30 10
    endloop
  endfacet
  facet normal 0 0 1
    outer loop
      vertex 35 25.9808 4
      vertex 38.175 29.9211 4
      vertex 38.0385 30 4
    endloop
  endfacet
  facet normal 0 0 1
    outer loop
      vertex 35 25.9808 4
      vertex 38.0385 30 4
      vertex 35 30 4
    endloop
  endfacet
  facet normal 0 0 1
    outer loop
      vertex 38.175 29.9211 4
      vertex 35 25.9808 4
      vertex 36.3967 25.1744 4
    endloop
  endfacet
  facet normal 0 0 1
    outer loop
      vertex 45 25.9808 15
      vertex 39.7 8.2 15
      vertex 45 -25.9808 15
    endloop
  endfacet
  facet normal 0 0 1
    outer loop
      vertex 36.3 8.2 15
      vertex 45 25.9808 15
      vertex 38.0385 30 15
    endloop
  endfacet
  facet normal 0 0 1
    outer loop
      vertex 45 25.9808 15
      vertex 36.3 8.2 15
      vertex 39.7 8.2 15
    endloop
  endfacet
  facet normal 0 0 1
    outer loop
      vertex 36.3 8.2 15
      vertex 35 30 15
      vertex 36.3 -8.2 15
    endloop
  endfacet
  facet normal -0 0 1
    outer loop
      vertex 35 30 15
      vertex 36.3 8.2 15
      vertex 38.0385 30 15
    endloop
  endfacet
  facet normal -0 0 1
    outer loop
      vertex 39.7 -8.2 15
      vertex 45 -25.9808 15
      vertex 39.7 8.2 15
    endloop
  endfacet
  facet normal -0 0 1
    outer loop
      vertex 36.3 -8.2 15
      vertex 45 -25.9808 15
      vertex 39.7 -8.2 15
    endloop
  endfacet
  facet normal 0 0 1
    outer loop
      vertex 45 -25.9808 15
      vertex 36.3 -8.2 15
      vertex 38.0385 -30 15
    endloop
  endfacet
  facet normal 0 0 1
    outer loop
      vertex 36.3 -8.2 15
      vertex 35 -30 15
      vertex 38.0385 -30 15
    endloop
  endfacet
  facet normal 0 0 1
    outer loop
      vertex 35 -30 15
      vertex 36.3 -8.2 15
      vertex 35 30 15
    endloop
  endfacet
  facet normal 0 1 -0
    outer loop
      vertex 39.7 -8.2 13
      vertex 36.3 -8.2 15
      vertex 39.7 -8.2 15
    endloop
  endfacet
  facet normal 0 1 0
    outer loop
      vertex 36.3 -8.2 15
      vertex 39.7 -8.2 13
      vertex 36.3 -8.2 13
    endloop
  endfacet
  facet normal 0 -1 0
    outer loop
      vertex 36.3 8.2 13
      vertex 39.7 8.2 15
      vertex 36.3 8.2 15
    endloop
  endfacet
  facet normal 0 -1 -0
    outer loop
      vertex 39.7 8.2 15
      vertex 36.3 8.2 13
      vertex 39.7 8.2 13
    endloop
  endfacet
  facet normal 1 -0 0
    outer loop
      vertex 36.3 -8.2 15
      vertex 36.3 8.2 13
      vertex 36.3 8.2 15
    endloop
  endfacet
  facet normal 1 0 0
    outer loop
      vertex 36.3 8.2 13
      vertex 36.3 -8.2 15
      vertex 36.3 -8.2 13
    endloop
  endfacet
  facet normal -1 0 0
    outer loop
      vertex 39.7 -8.2 13
      vertex 39.7 8.2 15
      vertex 39.7 8.2 13
    endloop
  endfacet
  facet normal -1 -0 0
    outer loop
      vertex 39.7 8.2 15
      vertex 39.7 -8.2 13
      vertex 39.7 -8.2 15
    endloop
  endfacet
  facet normal 0.499998 0.866027 -1.59621e-05
    outer loop
      vertex 45 25.9808 15
      vertex 38.175 29.9211 10
      vertex 38.0385 30 15
    endloop
  endfacet
  facet normal 0.499989 0.866032 -0
    outer loop
      vertex 45 25.9808 0
      vertex 38.175 29.9211 10
      vertex 45 25.9808 15
    endloop
  endfacet
  facet normal 0.499989 0.866032 0
    outer loop
      vertex 38.175 29.9211 10
      vertex 45 25.9808 0
      vertex 38.175 29.9211 4
    endloop
  endfacet
  facet normal 0.499998 0.866027 1.99526e-05
    outer loop
      vertex 38.0385 30 0
      vertex 38.175 29.9211 4
      vertex 45 25.9808 0
    endloop
  endfacet
  facet normal 0.500436 0.865773 0
    outer loop
      vertex 38.175 29.9211 4
      vertex 38.0385 30 0
      vertex 38.0385 30 4
    endloop
  endfacet
  facet normal 0.500436 0.865773 0
    outer loop
      vertex 38.0385 30 15
      vertex 38.175 29.9211 10
      vertex 38.0385 30 10
    endloop
  endfacet
  facet normal 0 0 -1
    outer loop
      vertex 40 23.094 0
      vertex 45 4 0
      vertex 40 4 0
    endloop
  endfacet
  facet normal 0 0 -1
    outer loop
      vertex 45 4 0
      vertex 40 23.094 0
      vertex 45 25.9808 0
    endloop
  endfacet
  facet normal 0 0 -1
    outer loop
      vertex 40 23.094 0
      vertex 38.0385 30 0
      vertex 45 25.9808 0
    endloop
  endfacet
  facet normal 0 0 -1
    outer loop
      vertex 35 25.9808 0
      vertex 38.0385 30 0
      vertex 40 23.094 0
    endloop
  endfacet
  facet normal -0 0 -1
    outer loop
      vertex 38.0385 30 0
      vertex 35 25.9808 0
      vertex 35 30 0
    endloop
  endfacet
  facet normal 0 0 -1
    outer loop
      vertex 45 -25.9808 0
      vertex 40 -23.094 0
      vertex 45 -4 0
    endloop
  endfacet
  facet normal 0 0 -1
    outer loop
      vertex 38.0385 -30 0
      vertex 40 -23.094 0
      vertex 45 -25.9808 0
    endloop
  endfacet
  facet normal 0 0 -1
    outer loop
      vertex 35 -25.9808 0
      vertex 38.0385 -30 0
      vertex 35 -30 0
    endloop
  endfacet
  facet normal 0 0 -1
    outer loop
      vertex 38.0385 -30 0
      vertex 35 -25.9808 0
      vertex 40 -23.094 0
    endloop
  endfacet
  facet normal -0 0 -1
    outer loop
      vertex 45 -4 0
      vertex 40 -23.094 0
      vertex 40 -4 0
    endloop
  endfacet
  facet normal 0.499998 -0.866027 0
    outer loop
      vertex 38.0385 -30 0
      vertex 45 -25.9808 15
      vertex 38.0385 -30 15
    endloop
  endfacet
  facet normal 0.499998 -0.866027 0
    outer loop
      vertex 45 -25.9808 15
      vertex 38.0385 -30 0
      vertex 45 -25.9808 0
    endloop
  endfacet
  facet normal -0.500007 -0.866021 -0
    outer loop
      vertex 35 25.9808 4
      vertex 35 25.9808 0
      vertex 36.3967 25.1744 4
    endloop
  endfacet
  facet normal -0.500007 -0.866021 0
    outer loop
      vertex 36.3967 25.1744 10
      vertex 35 25.9808 13
      vertex 35 25.9808 10
    endloop
  endfacet
  facet normal -0.500006 -0.866022 3.71812e-07
    outer loop
      vertex 35 25.9808 13
      vertex 36.3967 25.1744 10
      vertex 40 23.094 13
    endloop
  endfacet
  facet normal -0.500006 -0.866022 0
    outer loop
      vertex 36.3967 25.1744 4
      vertex 40 23.094 13
      vertex 36.3967 25.1744 10
    endloop
  endfacet
  facet normal -0.500006 -0.866022 -2.78859e-07
    outer loop
      vertex 40 23.094 0
      vertex 36.3967 25.1744 4
      vertex 35 25.9808 0
    endloop
  endfacet
  facet normal -0.500006 -0.866022 0
    outer loop
      vertex 36.3967 25.1744 4
      vertex 40 23.094 0
      vertex 40 23.094 13
    endloop
  endfacet
  facet normal 0 0 -1
    outer loop
      vertex 40 -23.094 13
      vertex 39.7 -8.2 13
      vertex 40 23.094 13
    endloop
  endfacet
  facet normal 0 0 -1
    outer loop
      vertex 35 -20.2072 13
      vertex 39.7 -8.2 13
      vertex 40 -23.094 13
    endloop
  endfacet
  facet normal -0 0 -1
    outer loop
      vertex 39.7 -8.2 13
      vertex 35 -20.2072 13
      vertex 36.3 -8.2 13
    endloop
  endfacet
  facet normal 0 0 -1
    outer loop
      vertex 35 -20.2072 13
      vertex 40 -23.094 13
      vertex 35 -25.9808 13
    endloop
  endfacet
  facet normal 0 0 -1
    outer loop
      vertex 39.7 8.2 13
      vertex 40 23.094 13
      vertex 39.7 -8.2 13
    endloop
  endfacet
  facet normal 0 0 -1
    outer loop
      vertex 35 20.2072 13
      vertex 39.7 8.2 13
      vertex 36.3 8.2 13
    endloop
  endfacet
  facet normal -0 0 -1
    outer loop
      vertex 36.3 -8.2 13
      vertex 35 -20.2072 13
      vertex 36.3 8.2 13
    endloop
  endfacet
  facet normal 0 0 -1
    outer loop
      vertex 35 20.2072 13
      vertex 36.3 8.2 13
      vertex 35 -20.2072 13
    endloop
  endfacet
  facet normal 0 0 -1
    outer loop
      vertex 39.7 8.2 13
      vertex 35 20.2072 13
      vertex 40 23.094 13
    endloop
  endfacet
  facet normal -0 0 -1
    outer loop
      vertex 40 23.094 13
      vertex 35 20.2072 13
      vertex 35 25.9808 13
    endloop
  endfacet
  facet normal -1 0 0
    outer loop
      vertex 40 -4 0
      vertex 40 -11.0667 4
      vertex 40 -4 7
    endloop
  endfacet
  facet normal -1 0 0
    outer loop
      vertex 40 -23.094 0
      vertex 40 -11.0667 4
      vertex 40 -4 0
    endloop
  endfacet
  facet normal -1 0 0
    outer loop
      vertex 40 -23.094 13
      vertex 40 -18.9333 4
      vertex 40 -23.094 0
    endloop
  endfacet
  facet normal -1 -0 0
    outer loop
      vertex 40 -11.0667 4
      vertex 40 -23.094 0
      vertex 40 -18.9333 4
    endloop
  endfacet
  facet normal -1 0 0
    outer loop
      vertex 40 4 7
      vertex 40 23.094 0
      vertex 40 4 0
    endloop
  endfacet
  facet normal -1 0 0
    outer loop
      vertex 40 23.094 0
      vertex 40 4 7
      vertex 40 23.094 13
    endloop
  endfacet
  facet normal -1 0 0
    outer loop
      vertex 40 -11.0667 10
      vertex 40 4 7
      vertex 40 -4 7
    endloop
  endfacet
  facet normal -1 0 0
    outer loop
      vertex 40 -11.0667 10
      vertex 40 -4 7
      vertex 40 -11.0667 4
    endloop
  endfacet
  facet normal -1 0 0
    outer loop
      vertex 40 4 7
      vertex 40 -11.0667 10
      vertex 40 23.094 13
    endloop
  endfacet
  facet normal -1 0 0
    outer loop
      vertex 40 -23.094 13
      vertex 40 -11.0667 10
      vertex 40 -18.9333 10
    endloop
  endfacet
  facet normal -1 0 0
    outer loop
      vertex 40 -11.0667 10
      vertex 40 -23.094 13
      vertex 40 23.094 13
    endloop
  endfacet
  facet normal -1 0 0
    outer loop
      vertex 40 -18.9333 4
      vertex 40 -23.094 13
      vertex 40 -18.9333 10
    endloop
  endfacet
  facet normal -0.500006 0.866022 0
    outer loop
      vertex 40 -23.094 0
      vertex 35 -25.9808 13
      vertex 40 -23.094 13
    endloop
  endfacet
  facet normal -0.500006 0.866022 0
    outer loop
      vertex 35 -25.9808 13
      vertex 40 -23.094 0
      vertex 35 -25.9808 0
    endloop
  endfacet
  facet normal -1 0 0
    outer loop
      vertex 35 -25.9808 0
      vertex 35 -30 0
      vertex 35 -25.9808 13
    endloop
  endfacet
  facet normal -1 0 0
    outer loop
      vertex 35 -20.2072 13
      vertex 35 -25.9808 13
      vertex 35 -20.2072 14
    endloop
  endfacet
  facet normal -1 0 0
    outer loop
      vertex 35 25.9808 13
      vertex 35 30 10
      vertex 35 25.9808 10
    endloop
  endfacet
  facet normal -1 0 0
    outer loop
      vertex 35 30 10
      vertex 35 25.9808 13
      vertex 35 30 15
    endloop
  endfacet
  facet normal -1 0 0
    outer loop
      vertex 35 20.2072 14
      vertex 35 25.9808 13
      vertex 35 20.2072 13
    endloop
  endfacet
  facet normal -1 0 0
    outer loop
      vertex 35 25.9808 13
      vertex 35 20.2072 14
      vertex 35 30 15
    endloop
  endfacet
  facet normal -1 0 0
    outer loop
      vertex 35 -20.2072 14
      vertex 35 30 15
      vertex 35 20.2072 14
    endloop
  endfacet
  facet normal -1 0 0
    outer loop
      vertex 35 -20.2072 14
      vertex 35 -30 15
      vertex 35 30 15
    endloop
  endfacet
  facet normal -1 0 0
    outer loop
      vertex 35 -25.9808 13
      vertex 35 -30 15
      vertex 35 -20.2072 14
    endloop
  endfacet
  facet normal -1 0 0
    outer loop
      vertex 35 -30 15
      vertex 35 -25.9808 13
      vertex 35 -30 0
    endloop
  endfacet
  facet normal -1 0 0
    outer loop
      vertex 35 -20.2072 13
      vertex 35 20.2072 14
      vertex 35 20.2072 13
    endloop
  endfacet
  facet normal -1 -0 0
    outer loop
      vertex 35 20.2072 14
      vertex 35 -20.2072 13
      vertex 35 -20.2072 14
    endloop
  endfacet
  facet normal -1 0 0
    outer loop
      vertex 35 25.9808 0
      vertex 35 30 4
      vertex 35 30 0
    endloop
  endfacet
  facet normal -1 -0 0
    outer loop
      vertex 35 30 4
      vertex 35 25.9808 0
      vertex 35 25.9808 4
    endloop
  endfacet
  facet normal 0 0 -1
    outer loop
      vertex 38.1122 -30 4
      vertex 38.0385 -30 4
      vertex 38.0885 -29.9711 4
    endloop
  endfacet
  facet normal -0.500422 0.865782 0
    outer loop
      vertex 38.0885 -29.9711 4
      vertex 38.0385 -30 9.5
      vertex 38.0885 -29.9711 9.5
    endloop
  endfacet
  facet normal -0.500422 0.865782 0
    outer loop
      vertex 38.0385 -30 9.5
      vertex 38.0885 -29.9711 4
      vertex 38.0385 -30 4
    endloop
  endfacet
  facet normal 0 0 1
    outer loop
      vertex 38.0885 -29.9711 9.5
      vertex 38.0385 -30 9.5
      vertex 38.1122 -30 9.5
    endloop
  endfacet
  facet normal 0.773242 0.634112 0
    outer loop
      vertex 38.1122 -30 9.5
      vertex 38.0885 -29.9711 4
      vertex 38.0885 -29.9711 9.5
    endloop
  endfacet
  facet normal 0.773242 0.634112 0
    outer loop
      vertex 38.0885 -29.9711 4
      vertex 38.1122 -30 9.5
      vertex 38.1122 -30 4
    endloop
  endfacet
  facet normal -0.164407 -0.986393 0
    outer loop
      vertex 45 12 4
      vertex 49.06 11.3233 9.5
      vertex 45 12 9.5
    endloop
  endfacet
  facet normal -0.164407 -0.986393 -0
    outer loop
      vertex 49.06 11.3233 9.5
      vertex 45 12 4
      vertex 49.06 11.3233 4
    endloop
  endfacet
  facet normal 0 0 -1
    outer loop
      vertex 51 15.75 4
      vertex 49.06 18.6767 4
      vertex 51 17.5566 4
    endloop
  endfacet
  facet normal 0 0 -1
    outer loop
      vertex 45 15.75 4
      vertex 49.06 18.6767 4
      vertex 51 15.75 4
    endloop
  endfacet
  facet normal 0 0 -1
    outer loop
      vertex 49.06 18.6767 4
      vertex 45 15.75 4
      vertex 45 18 4
    endloop
  endfacet
  facet normal 0 0 -1
    outer loop
      vertex 49.06 11.3233 4
      vertex 51 14.25 4
      vertex 51 12.4434 4
    endloop
  endfacet
  facet normal 0 0 -1
    outer loop
      vertex 45 14.25 4
      vertex 49.06 11.3233 4
      vertex 45 12 4
    endloop
  endfacet
  facet normal 0 0 -1
    outer loop
      vertex 49.06 11.3233 4
      vertex 45 14.25 4
      vertex 51 14.25 4
    endloop
  endfacet
  facet normal 1 -0 0
    outer loop
      vertex 51 12.4434 9.5
      vertex 51 14.25 4
      vertex 51 14.25 9.5
    endloop
  endfacet
  facet normal 1 0 0
    outer loop
      vertex 51 14.25 4
      vertex 51 12.4434 9.5
      vertex 51 12.4434 4
    endloop
  endfacet
  facet normal 1 -0 0
    outer loop
      vertex 51 15.75 9.5
      vertex 51 17.5566 4
      vertex 51 17.5566 9.5
    endloop
  endfacet
  facet normal 1 0 0
    outer loop
      vertex 51 17.5566 4
      vertex 51 15.75 9.5
      vertex 51 15.75 4
    endloop
  endfacet
  facet normal 0 0 1
    outer loop
      vertex 51 14.25 9.5
      vertex 49.06 11.3233 9.5
      vertex 51 12.4434 9.5
    endloop
  endfacet
  facet normal -0 0 1
    outer loop
      vertex 45 14.25 9.5
      vertex 49.06 11.3233 9.5
      vertex 51 14.25 9.5
    endloop
  endfacet
  facet normal 0 0 1
    outer loop
      vertex 49.06 11.3233 9.5
      vertex 45 14.25 9.5
      vertex 45 12 9.5
    endloop
  endfacet
  facet normal 0 0 1
    outer loop
      vertex 49.06 18.6767 9.5
      vertex 51 15.75 9.5
      vertex 51 17.5566 9.5
    endloop
  endfacet
  facet normal 0 0 1
    outer loop
      vertex 45 15.75 9.5
      vertex 49.06 18.6767 9.5
      vertex 45 18 9.5
    endloop
  endfacet
  facet normal 0 0 1
    outer loop
      vertex 49.06 18.6767 9.5
      vertex 45 15.75 9.5
      vertex 51 15.75 9.5
    endloop
  endfacet
  facet normal -0.164407 0.986393 0
    outer loop
      vertex 49.06 18.6767 4
      vertex 45 18 9.5
      vertex 49.06 18.6767 9.5
    endloop
  endfacet
  facet normal -0.164407 0.986393 0
    outer loop
      vertex 45 18 9.5
      vertex 49.06 18.6767 4
      vertex 45 18 4
    endloop
  endfacet
  facet normal 0 1 -0
    outer loop
      vertex 51 14.25 4
      vertex 45 14.25 9.5
      vertex 51 14.25 9.5
    endloop
  endfacet
  facet normal 0 1 0
    outer loop
      vertex 45 14.25 9.5
      vertex 51 14.25 4
      vertex 45 14.25 4
    endloop
  endfacet
  facet normal 0 -1 0
    outer loop
      vertex 45 15.75 4
      vertex 51 15.75 9.5
      vertex 45 15.75 9.5
    endloop
  endfacet
  facet normal 0 -1 -0
    outer loop
      vertex 51 15.75 9.5
      vertex 45 15.75 4
      vertex 51 15.75 4
    endloop
  endfacet
  facet normal 0.500014 -0.866018 0
    outer loop
      vertex 49.06 11.3233 4
      vertex 51 12.4434 9.5
      vertex 49.06 11.3233 9.5
    endloop
  endfacet
  facet normal 0.500014 -0.866018 0
    outer loop
      vertex 51 12.4434 9.5
      vertex 49.06 11.3233 4
      vertex 51 12.4434 4
    endloop
  endfacet
  facet normal 0.500014 0.866018 -0
    outer loop
      vertex 51 17.5566 4
      vertex 49.06 18.6767 9.5
      vertex 51 17.5566 9.5
    endloop
  endfacet
  facet normal 0.500014 0.866018 0
    outer loop
      vertex 49.06 18.6767 9.5
      vertex 51 17.5566 4
      vertex 49.06 18.6767 4
    endloop
  endfacet
  facet normal 0 1 -0
    outer loop
      vertex 38.0385 30 0
      vertex 35 30 4
      vertex 38.0385 30 4
    endloop
  endfacet
  facet normal 0 1 0
    outer loop
      vertex 35 30 4
      vertex 38.0385 30 0
      vertex 35 30 0
    endloop
  endfacet
  facet normal 0 1 -0
    outer loop
      vertex 38.0385 30 10
      vertex 35 30 15
      vertex 38.0385 30 15
    endloop
  endfacet
  facet normal 0 1 0
    outer loop
      vertex 35 30 15
      vertex 38.0385 30 10
      vertex 35 30 10
    endloop
  endfacet
  facet normal 0 -1 0
    outer loop
      vertex 35 -30 0
      vertex 38.0385 -30 15
      vertex 35 -30 15
    endloop
  endfacet
  facet normal 0 -1 -0
    outer loop
      vertex 38.0385 -30 15
      vertex 35 -30 0
      vertex 38.0385 -30 0
    endloop
  endfacet
  facet normal 0 -1 0
    outer loop
      vertex 38.0385 -30 4
      vertex 38.1122 -30 9.5
      vertex 38.0385 -30 9.5
    endloop
  endfacet
  facet normal 0 -1 -0
    outer loop
      vertex 38.1122 -30 9.5
      vertex 38.0385 -30 4
      vertex 38.1122 -30 4
    endloop
  endfacet
endsolid OpenSCAD_Model
