solid OpenSCAD_Model
  facet normal -0 0 1
    outer loop
      vertex -25.2514 27.3367 15
      vertex -11.0486 -35.5367 15
      vertex -11.0486 35.5367 15
    endloop
  endfacet
  facet normal 0 0 1
    outer loop
      vertex -25.2514 27.3367 15
      vertex -25.2514 -27.3367 15
      vertex -11.0486 -35.5367 15
    endloop
  endfacet
  facet normal 0 0 1
    outer loop
      vertex -45 25.9808 15
      vertex -25.2514 27.3367 15
      vertex -26.9514 30.2812 15
    endloop
  endfacet
  facet normal 0 0 1
    outer loop
      vertex -25.2514 27.3367 15
      vertex -45 25.9808 15
      vertex -25.2514 -27.3367 15
    endloop
  endfacet
  facet normal 0 0 1
    outer loop
      vertex 36.3 -8.2 15
      vertex -11.0486 -35.5367 15
      vertex 0 -51.9615 15
    endloop
  endfacet
  facet normal -0 0 1
    outer loop
      vertex -12.7486 -38.4812 15
      vertex 0 -51.9615 15
      vertex -11.0486 -35.5367 15
    endloop
  endfacet
  facet normal 0 0 1
    outer loop
      vertex -26.9514 -30.2812 15
      vertex 0 -51.9615 15
      vertex -12.7486 -38.4812 15
    endloop
  endfacet
  facet normal 0 0 1
    outer loop
      vertex -26.9514 -30.2812 15
      vertex -45 -25.9808 15
      vertex 0 -51.9615 15
    endloop
  endfacet
  facet normal 0 0 1
    outer loop
      vertex -25.2514 -27.3367 15
      vertex -45 -25.9808 15
      vertex -26.9514 -30.2812 15
    endloop
  endfacet
  facet normal 0 0 1
    outer loop
      vertex 45 25.9808 15
      vertex 39.7 8.2 15
      vertex 45 -25.9808 15
    endloop
  endfacet
  facet normal 0 0 1
    outer loop
      vertex 45 25.9808 15
      vertex 36.3 8.2 15
      vertex 39.7 8.2 15
    endloop
  endfacet
  facet normal -0 0 1
    outer loop
      vertex -11.0486 35.5367 15
      vertex 36.3 8.2 15
      vertex 0 51.9615 15
    endloop
  endfacet
  facet normal 0 0 1
    outer loop
      vertex 0 51.9615 15
      vertex 36.3 8.2 15
      vertex 45 25.9808 15
    endloop
  endfacet
  facet normal -0 0 1
    outer loop
      vertex 39.7 -8.2 15
      vertex 45 -25.9808 15
      vertex 39.7 8.2 15
    endloop
  endfacet
  facet normal -0 0 1
    outer loop
      vertex 36.3 -8.2 15
      vertex 45 -25.9808 15
      vertex 39.7 -8.2 15
    endloop
  endfacet
  facet normal 0 0 1
    outer loop
      vertex 36.3 8.2 15
      vertex -11.0486 35.5367 15
      vertex 36.3 -8.2 15
    endloop
  endfacet
  facet normal 0 0 1
    outer loop
      vertex -11.0486 -35.5367 15
      vertex 36.3 -8.2 15
      vertex -11.0486 35.5367 15
    endloop
  endfacet
  facet normal 0 0 1
    outer loop
      vertex 36.3 -8.2 15
      vertex 0 -51.9615 15
      vertex 45 -25.9808 15
    endloop
  endfacet
  facet normal 0 0 1
    outer loop
      vertex 0 51.9615 15
      vertex -12.7486 38.4812 15
      vertex -11.0486 35.5367 15
    endloop
  endfacet
  facet normal 0 0 1
    outer loop
      vertex 0 51.9615 15
      vertex -26.9514 30.2812 15
      vertex -12.7486 38.4812 15
    endloop
  endfacet
  facet normal -0 0 1
    outer loop
      vertex -45 -25.9808 15
      vertex -25.2514 -27.3367 15
      vertex -45 25.9808 15
    endloop
  endfacet
  facet normal 0 0 1
    outer loop
      vertex -45 25.9808 15
      vertex -26.9514 30.2812 15
      vertex 0 51.9615 15
    endloop
  endfacet
  facet normal 0.866026 0.499998 0
    outer loop
      vertex -25.2514 27.3367 15
      vertex -26.9514 30.2812 13
      vertex -26.9514 30.2812 15
    endloop
  endfacet
  facet normal 0.866026 0.499998 0
    outer loop
      vertex -26.9514 30.2812 13
      vertex -25.2514 27.3367 15
      vertex -25.2514 27.3367 13
    endloop
  endfacet
  facet normal 0.5 -0.866025 0
    outer loop
      vertex -26.9514 30.2812 13
      vertex -12.7486 38.4812 15
      vertex -26.9514 30.2812 15
    endloop
  endfacet
  facet normal 0.5 -0.866025 0
    outer loop
      vertex -12.7486 38.4812 15
      vertex -26.9514 30.2812 13
      vertex -12.7486 38.4812 13
    endloop
  endfacet
  facet normal -0.5 0.866025 0
    outer loop
      vertex -11.0486 35.5367 13
      vertex -25.2514 27.3367 15
      vertex -11.0486 35.5367 15
    endloop
  endfacet
  facet normal -0.5 0.866025 0
    outer loop
      vertex -25.2514 27.3367 15
      vertex -11.0486 35.5367 13
      vertex -25.2514 27.3367 13
    endloop
  endfacet
  facet normal -0.866026 -0.499998 0
    outer loop
      vertex -11.0486 35.5367 13
      vertex -12.7486 38.4812 15
      vertex -12.7486 38.4812 13
    endloop
  endfacet
  facet normal -0.866026 -0.499998 0
    outer loop
      vertex -12.7486 38.4812 15
      vertex -11.0486 35.5367 13
      vertex -11.0486 35.5367 15
    endloop
  endfacet
  facet normal 0.866026 -0.499998 0
    outer loop
      vertex -26.9514 -30.2812 15
      vertex -25.2514 -27.3367 13
      vertex -25.2514 -27.3367 15
    endloop
  endfacet
  facet normal 0.866026 -0.499998 0
    outer loop
      vertex -25.2514 -27.3367 13
      vertex -26.9514 -30.2812 15
      vertex -26.9514 -30.2812 13
    endloop
  endfacet
  facet normal -0.866026 0.499998 0
    outer loop
      vertex -12.7486 -38.4812 13
      vertex -11.0486 -35.5367 15
      vertex -11.0486 -35.5367 13
    endloop
  endfacet
  facet normal -0.866026 0.499998 0
    outer loop
      vertex -11.0486 -35.5367 15
      vertex -12.7486 -38.4812 13
      vertex -12.7486 -38.4812 15
    endloop
  endfacet
  facet normal 0.5 0.866025 -0
    outer loop
      vertex -12.7486 -38.4812 13
      vertex -26.9514 -30.2812 15
      vertex -12.7486 -38.4812 15
    endloop
  endfacet
  facet normal 0.5 0.866025 0
    outer loop
      vertex -26.9514 -30.2812 15
      vertex -12.7486 -38.4812 13
      vertex -26.9514 -30.2812 13
    endloop
  endfacet
  facet normal -0.5 -0.866025 0
    outer loop
      vertex -25.2514 -27.3367 13
      vertex -11.0486 -35.5367 15
      vertex -25.2514 -27.3367 15
    endloop
  endfacet
  facet normal -0.5 -0.866025 -0
    outer loop
      vertex -11.0486 -35.5367 15
      vertex -25.2514 -27.3367 13
      vertex -11.0486 -35.5367 13
    endloop
  endfacet
  facet normal 0 1 -0
    outer loop
      vertex 39.7 -8.2 13
      vertex 36.3 -8.2 15
      vertex 39.7 -8.2 15
    endloop
  endfacet
  facet normal 0 1 0
    outer loop
      vertex 36.3 -8.2 15
      vertex 39.7 -8.2 13
      vertex 36.3 -8.2 13
    endloop
  endfacet
  facet normal 0 -1 0
    outer loop
      vertex 36.3 8.2 13
      vertex 39.7 8.2 15
      vertex 36.3 8.2 15
    endloop
  endfacet
  facet normal 0 -1 -0
    outer loop
      vertex 39.7 8.2 15
      vertex 36.3 8.2 13
      vertex 39.7 8.2 13
    endloop
  endfacet
  facet normal -1 0 0
    outer loop
      vertex 39.7 -8.2 13
      vertex 39.7 8.2 15
      vertex 39.7 8.2 13
    endloop
  endfacet
  facet normal -1 -0 0
    outer loop
      vertex 39.7 8.2 15
      vertex 39.7 -8.2 13
      vertex 39.7 -8.2 15
    endloop
  endfacet
  facet normal 1 -0 0
    outer loop
      vertex 36.3 -8.2 15
      vertex 36.3 8.2 13
      vertex 36.3 8.2 15
    endloop
  endfacet
  facet normal 1 0 0
    outer loop
      vertex 36.3 8.2 13
      vertex 36.3 -8.2 15
      vertex 36.3 -8.2 13
    endloop
  endfacet
  facet normal -0.866024 -0.500002 0
    outer loop
      vertex -15.6699 37.141 0
      vertex -18.1699 41.4711 8
      vertex -18.1699 41.4711 0
    endloop
  endfacet
  facet normal -0.866024 -0.500002 0
    outer loop
      vertex -18.1699 41.4711 8
      vertex -15.6699 37.141 0
      vertex -15.6699 37.141 8
    endloop
  endfacet
  facet normal 0 0 -1
    outer loop
      vertex -24.3301 32.141 8
      vertex -18.1699 41.4711 8
      vertex -15.6699 37.141 8
    endloop
  endfacet
  facet normal 0 0 -1
    outer loop
      vertex -18.1699 41.4711 8
      vertex -24.3301 32.141 8
      vertex -26.8301 36.4711 8
    endloop
  endfacet
  facet normal 0.866024 0.500002 0
    outer loop
      vertex -24.3301 32.141 8
      vertex -26.8301 36.4711 0
      vertex -26.8301 36.4711 8
    endloop
  endfacet
  facet normal 0.866024 0.500002 0
    outer loop
      vertex -26.8301 36.4711 0
      vertex -24.3301 32.141 8
      vertex -24.3301 32.141 0
    endloop
  endfacet
  facet normal -0.772039 -0.635576 0
    outer loop
      vertex -3.60326 44.1077 4
      vertex -6.82494 48.0211 10
      vertex -6.82494 48.0211 4
    endloop
  endfacet
  facet normal -0.772039 -0.635576 0
    outer loop
      vertex -6.82494 48.0211 10
      vertex -3.60326 44.1077 4
      vertex -3.60326 44.1077 10
    endloop
  endfacet
  facet normal 0.93644 0.350827 0
    outer loop
      vertex -10.416 40.1744 10
      vertex -12.1943 44.9211 4
      vertex -12.1943 44.9211 10
    endloop
  endfacet
  facet normal 0.93644 0.350827 0
    outer loop
      vertex -12.1943 44.9211 4
      vertex -10.416 40.1744 10
      vertex -10.416 40.1744 4
    endloop
  endfacet
  facet normal 0 0 -1
    outer loop
      vertex -10.416 40.1744 10
      vertex -6.82494 48.0211 10
      vertex -3.60326 44.1077 10
    endloop
  endfacet
  facet normal 0 0 -1
    outer loop
      vertex -6.82494 48.0211 10
      vertex -10.416 40.1744 10
      vertex -12.1943 44.9211 10
    endloop
  endfacet
  facet normal 0 0 1
    outer loop
      vertex -6.82494 48.0211 4
      vertex -10.416 40.1744 4
      vertex -3.60326 44.1077 4
    endloop
  endfacet
  facet normal 0 -0 1
    outer loop
      vertex -10.416 40.1744 4
      vertex -6.82494 48.0211 4
      vertex -12.1943 44.9211 4
    endloop
  endfacet
  facet normal 0 -1 0
    outer loop
      vertex -45 5 0
      vertex -40 5 8
      vertex -45 5 8
    endloop
  endfacet
  facet normal 0 -1 -0
    outer loop
      vertex -40 5 8
      vertex -45 5 0
      vertex -40 5 0
    endloop
  endfacet
  facet normal 0 0 -1
    outer loop
      vertex -45 -5 8
      vertex -40 5 8
      vertex -40 -5 8
    endloop
  endfacet
  facet normal -0 0 -1
    outer loop
      vertex -40 5 8
      vertex -45 -5 8
      vertex -45 5 8
    endloop
  endfacet
  facet normal 0 1 -0
    outer loop
      vertex -40 -5 0
      vertex -45 -5 8
      vertex -40 -5 8
    endloop
  endfacet
  facet normal 0 1 0
    outer loop
      vertex -45 -5 8
      vertex -40 -5 0
      vertex -45 -5 0
    endloop
  endfacet
  facet normal -1 0 0
    outer loop
      vertex -45 -5 0
      vertex -45 -12.1 4
      vertex -45 -5 8
    endloop
  endfacet
  facet normal -1 0 0
    outer loop
      vertex -45 -5 0
      vertex -45 -14 4
      vertex -45 -12.1 4
    endloop
  endfacet
  facet normal -1 0 0
    outer loop
      vertex -45 -14 4
      vertex -45 -16 4
      vertex -45 -14 9.5
    endloop
  endfacet
  facet normal -1 0 0
    outer loop
      vertex -45 -5 0
      vertex -45 -16 4
      vertex -45 -14 4
    endloop
  endfacet
  facet normal -1 0 0
    outer loop
      vertex -45 -25.9808 0
      vertex -45 -16 4
      vertex -45 -5 0
    endloop
  endfacet
  facet normal -1 -0 0
    outer loop
      vertex -45 -17.9 4
      vertex -45 -25.9808 0
      vertex -45 -17.9 9.5
    endloop
  endfacet
  facet normal -1 -0 0
    outer loop
      vertex -45 -16 4
      vertex -45 -25.9808 0
      vertex -45 -17.9 4
    endloop
  endfacet
  facet normal -1 0 0
    outer loop
      vertex -45 18.1 10
      vertex -45 25.9808 0
      vertex -45 18.1 4
    endloop
  endfacet
  facet normal -1 0 0
    outer loop
      vertex -45 5 0
      vertex -45 18.1 4
      vertex -45 25.9808 0
    endloop
  endfacet
  facet normal -1 0 0
    outer loop
      vertex -45 5 8
      vertex -45 11.9 4
      vertex -45 5 0
    endloop
  endfacet
  facet normal -1 -0 0
    outer loop
      vertex -45 18.1 4
      vertex -45 5 0
      vertex -45 11.9 4
    endloop
  endfacet
  facet normal -1 0 0
    outer loop
      vertex -45 25.9808 0
      vertex -45 18.1 10
      vertex -45 25.9808 15
    endloop
  endfacet
  facet normal -1 0 0
    outer loop
      vertex -45 11.9 10
      vertex -45 25.9808 15
      vertex -45 18.1 10
    endloop
  endfacet
  facet normal -1 0 0
    outer loop
      vertex -45 11.9 4
      vertex -45 5 8
      vertex -45 11.9 10
    endloop
  endfacet
  facet normal -1 0 0
    outer loop
      vertex -45 -5 8
      vertex -45 11.9 10
      vertex -45 5 8
    endloop
  endfacet
  facet normal -1 0 0
    outer loop
      vertex -45 11.9 10
      vertex -45 -5 8
      vertex -45 -12.1 9.5
    endloop
  endfacet
  facet normal -1 0 0
    outer loop
      vertex -45 -12.1 9.5
      vertex -45 -5 8
      vertex -45 -12.1 4
    endloop
  endfacet
  facet normal -1 0 0
    outer loop
      vertex -45 -25.9808 15
      vertex -45 11.9 10
      vertex -45 -12.1 9.5
    endloop
  endfacet
  facet normal -1 0 0
    outer loop
      vertex -45 -25.9808 15
      vertex -45 -12.1 9.5
      vertex -45 -14 9.5
    endloop
  endfacet
  facet normal -1 0 0
    outer loop
      vertex -45 -16 9.5
      vertex -45 -14 9.5
      vertex -45 -16 4
    endloop
  endfacet
  facet normal -1 0 0
    outer loop
      vertex -45 -25.9808 15
      vertex -45 -14 9.5
      vertex -45 -16 9.5
    endloop
  endfacet
  facet normal -1 0 0
    outer loop
      vertex -45 -25.9808 15
      vertex -45 -16 9.5
      vertex -45 -17.9 9.5
    endloop
  endfacet
  facet normal -1 0 0
    outer loop
      vertex -45 11.9 10
      vertex -45 -25.9808 15
      vertex -45 25.9808 15
    endloop
  endfacet
  facet normal -1 0 0
    outer loop
      vertex -45 -25.9808 15
      vertex -45 -17.9 9.5
      vertex -45 -25.9808 0
    endloop
  endfacet
  facet normal 0.164393 -0.986395 0
    outer loop
      vertex -45 18.1 4
      vertex -40 18.9333 10
      vertex -45 18.1 10
    endloop
  endfacet
  facet normal 0.164393 -0.986395 0
    outer loop
      vertex -40 18.9333 10
      vertex -45 18.1 4
      vertex -40 18.9333 4
    endloop
  endfacet
  facet normal 0.164393 0.986395 -0
    outer loop
      vertex -40 11.0667 4
      vertex -45 11.9 10
      vertex -40 11.0667 10
    endloop
  endfacet
  facet normal 0.164393 0.986395 0
    outer loop
      vertex -45 11.9 10
      vertex -40 11.0667 4
      vertex -45 11.9 4
    endloop
  endfacet
  facet normal 0 0 -1
    outer loop
      vertex -45 11.9 10
      vertex -40 18.9333 10
      vertex -40 11.0667 10
    endloop
  endfacet
  facet normal 0 0 -1
    outer loop
      vertex -40 18.9333 10
      vertex -45 11.9 10
      vertex -45 18.1 10
    endloop
  endfacet
  facet normal -0 0 1
    outer loop
      vertex -45 18.1 4
      vertex -40 11.0667 4
      vertex -40 18.9333 4
    endloop
  endfacet
  facet normal 0 0 1
    outer loop
      vertex -40 11.0667 4
      vertex -45 18.1 4
      vertex -45 11.9 4
    endloop
  endfacet
  facet normal 0.866024 -0.500002 0
    outer loop
      vertex -26.8301 -36.4711 8
      vertex -24.3301 -32.141 0
      vertex -24.3301 -32.141 8
    endloop
  endfacet
  facet normal 0.866024 -0.500002 0
    outer loop
      vertex -24.3301 -32.141 0
      vertex -26.8301 -36.4711 8
      vertex -26.8301 -36.4711 0
    endloop
  endfacet
  facet normal 0 0 -1
    outer loop
      vertex -18.1699 -41.4711 8
      vertex -24.3301 -32.141 8
      vertex -15.6699 -37.141 8
    endloop
  endfacet
  facet normal 0 -0 -1
    outer loop
      vertex -24.3301 -32.141 8
      vertex -18.1699 -41.4711 8
      vertex -26.8301 -36.4711 8
    endloop
  endfacet
  facet normal -0.866024 0.500002 0
    outer loop
      vertex -18.1699 -41.4711 0
      vertex -15.6699 -37.141 8
      vertex -15.6699 -37.141 0
    endloop
  endfacet
  facet normal -0.866024 0.500002 0
    outer loop
      vertex -15.6699 -37.141 8
      vertex -18.1699 -41.4711 0
      vertex -18.1699 -41.4711 8
    endloop
  endfacet
  facet normal 0.93644 -0.350827 0
    outer loop
      vertex -38.175 -29.9211 10
      vertex -36.3967 -25.1744 4
      vertex -36.3967 -25.1744 10
    endloop
  endfacet
  facet normal 0.93644 -0.350827 0
    outer loop
      vertex -36.3967 -25.1744 4
      vertex -38.175 -29.9211 10
      vertex -38.175 -29.9211 4
    endloop
  endfacet
  facet normal -0.772037 0.635578 0
    outer loop
      vertex -32.8057 -33.0211 4
      vertex -29.584 -29.1077 10
      vertex -29.584 -29.1077 4
    endloop
  endfacet
  facet normal -0.772037 0.635578 0
    outer loop
      vertex -29.584 -29.1077 10
      vertex -32.8057 -33.0211 4
      vertex -32.8057 -33.0211 10
    endloop
  endfacet
  facet normal 0 0 -1
    outer loop
      vertex -32.8057 -33.0211 10
      vertex -36.3967 -25.1744 10
      vertex -29.584 -29.1077 10
    endloop
  endfacet
  facet normal 0 -0 -1
    outer loop
      vertex -36.3967 -25.1744 10
      vertex -32.8057 -33.0211 10
      vertex -38.175 -29.9211 10
    endloop
  endfacet
  facet normal 0 0 1
    outer loop
      vertex -36.3967 -25.1744 4
      vertex -32.8057 -33.0211 4
      vertex -29.584 -29.1077 4
    endloop
  endfacet
  facet normal 0 0 1
    outer loop
      vertex -32.8057 -33.0211 4
      vertex -36.3967 -25.1744 4
      vertex -38.175 -29.9211 4
    endloop
  endfacet
  facet normal 0.866024 0.500002 0
    outer loop
      vertex 18.1699 -41.4711 8
      vertex 15.6699 -37.141 0
      vertex 15.6699 -37.141 8
    endloop
  endfacet
  facet normal 0.866024 0.500002 0
    outer loop
      vertex 15.6699 -37.141 0
      vertex 18.1699 -41.4711 8
      vertex 18.1699 -41.4711 0
    endloop
  endfacet
  facet normal 0 0 -1
    outer loop
      vertex 18.1699 -41.4711 8
      vertex 24.3301 -32.141 8
      vertex 26.8301 -36.4711 8
    endloop
  endfacet
  facet normal 0 0 -1
    outer loop
      vertex 24.3301 -32.141 8
      vertex 18.1699 -41.4711 8
      vertex 15.6699 -37.141 8
    endloop
  endfacet
  facet normal -0.866024 -0.500002 0
    outer loop
      vertex 26.8301 -36.4711 0
      vertex 24.3301 -32.141 8
      vertex 24.3301 -32.141 0
    endloop
  endfacet
  facet normal -0.866024 -0.500002 0
    outer loop
      vertex 24.3301 -32.141 8
      vertex 26.8301 -36.4711 0
      vertex 26.8301 -36.4711 8
    endloop
  endfacet
  facet normal 0.772039 0.635576 0
    outer loop
      vertex 6.82494 -48.0211 10
      vertex 3.60326 -44.1077 4
      vertex 3.60326 -44.1077 10
    endloop
  endfacet
  facet normal 0.772039 0.635576 0
    outer loop
      vertex 3.60326 -44.1077 4
      vertex 6.82494 -48.0211 10
      vertex 6.82494 -48.0211 4
    endloop
  endfacet
  facet normal -0.93644 -0.350827 0
    outer loop
      vertex 12.1943 -44.9211 4
      vertex 10.416 -40.1744 10
      vertex 10.416 -40.1744 4
    endloop
  endfacet
  facet normal -0.93644 -0.350827 0
    outer loop
      vertex 10.416 -40.1744 10
      vertex 12.1943 -44.9211 4
      vertex 12.1943 -44.9211 10
    endloop
  endfacet
  facet normal 0 0 -1
    outer loop
      vertex 6.82494 -48.0211 10
      vertex 10.416 -40.1744 10
      vertex 12.1943 -44.9211 10
    endloop
  endfacet
  facet normal 0 0 -1
    outer loop
      vertex 10.416 -40.1744 10
      vertex 6.82494 -48.0211 10
      vertex 3.60326 -44.1077 10
    endloop
  endfacet
  facet normal 0 0 1
    outer loop
      vertex 10.416 -40.1744 4
      vertex 6.82494 -48.0211 4
      vertex 12.1943 -44.9211 4
    endloop
  endfacet
  facet normal 0 -0 1
    outer loop
      vertex 6.82494 -48.0211 4
      vertex 10.416 -40.1744 4
      vertex 3.60326 -44.1077 4
    endloop
  endfacet
  facet normal 0 1 -0
    outer loop
      vertex 45 -5 0
      vertex 40 -5 8
      vertex 45 -5 8
    endloop
  endfacet
  facet normal 0 1 0
    outer loop
      vertex 40 -5 8
      vertex 45 -5 0
      vertex 40 -5 0
    endloop
  endfacet
  facet normal 0 0 -1
    outer loop
      vertex 40 -5 8
      vertex 45 5 8
      vertex 45 -5 8
    endloop
  endfacet
  facet normal -0 0 -1
    outer loop
      vertex 45 5 8
      vertex 40 -5 8
      vertex 40 5 8
    endloop
  endfacet
  facet normal 0 -1 0
    outer loop
      vertex 40 5 0
      vertex 45 5 8
      vertex 40 5 8
    endloop
  endfacet
  facet normal 0 -1 -0
    outer loop
      vertex 45 5 8
      vertex 40 5 0
      vertex 45 5 0
    endloop
  endfacet
  facet normal 1 0 0
    outer loop
      vertex 45 25.9808 15
      vertex 45 17.9 9.5
      vertex 45 25.9808 0
    endloop
  endfacet
  facet normal 1 0 0
    outer loop
      vertex 45 25.9808 15
      vertex 45 16 9.5
      vertex 45 17.9 9.5
    endloop
  endfacet
  facet normal 1 0 0
    outer loop
      vertex 45 16 9.5
      vertex 45 14 9.5
      vertex 45 16 4
    endloop
  endfacet
  facet normal 1 0 0
    outer loop
      vertex 45 25.9808 15
      vertex 45 14 9.5
      vertex 45 16 9.5
    endloop
  endfacet
  facet normal 1 0 0
    outer loop
      vertex 45 25.9808 15
      vertex 45 12.1 9.5
      vertex 45 14 9.5
    endloop
  endfacet
  facet normal 1 0 0
    outer loop
      vertex 45 12.1 9.5
      vertex 45 5 8
      vertex 45 12.1 4
    endloop
  endfacet
  facet normal 1 -0 0
    outer loop
      vertex 45 -11.9 10
      vertex 45 12.1 9.5
      vertex 45 25.9808 15
    endloop
  endfacet
  facet normal 1 0 0
    outer loop
      vertex 45 12.1 9.5
      vertex 45 -11.9 10
      vertex 45 5 8
    endloop
  endfacet
  facet normal 1 0 0
    outer loop
      vertex 45 -11.9 4
      vertex 45 -5 8
      vertex 45 -11.9 10
    endloop
  endfacet
  facet normal 1 0 0
    outer loop
      vertex 45 5 8
      vertex 45 -11.9 10
      vertex 45 -5 8
    endloop
  endfacet
  facet normal 1 -0 0
    outer loop
      vertex 45 -25.9808 15
      vertex 45 -11.9 10
      vertex 45 25.9808 15
    endloop
  endfacet
  facet normal 1 0 0
    outer loop
      vertex 45 -25.9808 0
      vertex 45 -18.1 10
      vertex 45 -25.9808 15
    endloop
  endfacet
  facet normal 1 0 0
    outer loop
      vertex 45 -11.9 10
      vertex 45 -25.9808 15
      vertex 45 -18.1 10
    endloop
  endfacet
  facet normal 1 -0 0
    outer loop
      vertex 45 17.9 4
      vertex 45 25.9808 0
      vertex 45 17.9 9.5
    endloop
  endfacet
  facet normal 1 -0 0
    outer loop
      vertex 45 16 4
      vertex 45 25.9808 0
      vertex 45 17.9 4
    endloop
  endfacet
  facet normal 1 0 0
    outer loop
      vertex 45 14 4
      vertex 45 16 4
      vertex 45 14 9.5
    endloop
  endfacet
  facet normal 1 0 0
    outer loop
      vertex 45 5 0
      vertex 45 16 4
      vertex 45 14 4
    endloop
  endfacet
  facet normal 1 0 0
    outer loop
      vertex 45 5 0
      vertex 45 14 4
      vertex 45 12.1 4
    endloop
  endfacet
  facet normal 1 0 0
    outer loop
      vertex 45 16 4
      vertex 45 5 0
      vertex 45 25.9808 0
    endloop
  endfacet
  facet normal 1 0 0
    outer loop
      vertex 45 5 0
      vertex 45 12.1 4
      vertex 45 5 8
    endloop
  endfacet
  facet normal 1 0 0
    outer loop
      vertex 45 -5 8
      vertex 45 -11.9 4
      vertex 45 -5 0
    endloop
  endfacet
  facet normal 1 -0 0
    outer loop
      vertex 45 -18.1 4
      vertex 45 -5 0
      vertex 45 -11.9 4
    endloop
  endfacet
  facet normal 1 0 0
    outer loop
      vertex 45 -18.1 4
      vertex 45 -25.9808 0
      vertex 45 -5 0
    endloop
  endfacet
  facet normal 1 0 0
    outer loop
      vertex 45 -18.1 10
      vertex 45 -25.9808 0
      vertex 45 -18.1 4
    endloop
  endfacet
  facet normal -0.164393 0.986395 0
    outer loop
      vertex 45 -18.1 4
      vertex 40 -18.9333 10
      vertex 45 -18.1 10
    endloop
  endfacet
  facet normal -0.164393 0.986395 0
    outer loop
      vertex 40 -18.9333 10
      vertex 45 -18.1 4
      vertex 40 -18.9333 4
    endloop
  endfacet
  facet normal -0.164393 -0.986395 0
    outer loop
      vertex 40 -11.0667 4
      vertex 45 -11.9 10
      vertex 40 -11.0667 10
    endloop
  endfacet
  facet normal -0.164393 -0.986395 -0
    outer loop
      vertex 45 -11.9 10
      vertex 40 -11.0667 4
      vertex 45 -11.9 4
    endloop
  endfacet
  facet normal 0 0 -1
    outer loop
      vertex 40 -18.9333 10
      vertex 45 -11.9 10
      vertex 45 -18.1 10
    endloop
  endfacet
  facet normal -0 0 -1
    outer loop
      vertex 45 -11.9 10
      vertex 40 -18.9333 10
      vertex 40 -11.0667 10
    endloop
  endfacet
  facet normal 0 0 1
    outer loop
      vertex 40 -11.0667 4
      vertex 45 -18.1 4
      vertex 45 -11.9 4
    endloop
  endfacet
  facet normal 0 0 1
    outer loop
      vertex 45 -18.1 4
      vertex 40 -11.0667 4
      vertex 40 -18.9333 4
    endloop
  endfacet
  facet normal -0.866024 0.500002 0
    outer loop
      vertex 24.3301 32.141 0
      vertex 26.8301 36.4711 8
      vertex 26.8301 36.4711 0
    endloop
  endfacet
  facet normal -0.866024 0.500002 0
    outer loop
      vertex 26.8301 36.4711 8
      vertex 24.3301 32.141 0
      vertex 24.3301 32.141 8
    endloop
  endfacet
  facet normal 0 0 -1
    outer loop
      vertex 24.3301 32.141 8
      vertex 18.1699 41.4711 8
      vertex 26.8301 36.4711 8
    endloop
  endfacet
  facet normal 0 -0 -1
    outer loop
      vertex 18.1699 41.4711 8
      vertex 24.3301 32.141 8
      vertex 15.6699 37.141 8
    endloop
  endfacet
  facet normal 0.866024 -0.500002 0
    outer loop
      vertex 15.6699 37.141 8
      vertex 18.1699 41.4711 0
      vertex 18.1699 41.4711 8
    endloop
  endfacet
  facet normal 0.866024 -0.500002 0
    outer loop
      vertex 18.1699 41.4711 0
      vertex 15.6699 37.141 8
      vertex 15.6699 37.141 0
    endloop
  endfacet
  facet normal -0.93644 0.350827 0
    outer loop
      vertex 36.3967 25.1744 4
      vertex 38.175 29.9211 10
      vertex 38.175 29.9211 4
    endloop
  endfacet
  facet normal -0.93644 0.350827 0
    outer loop
      vertex 38.175 29.9211 10
      vertex 36.3967 25.1744 4
      vertex 36.3967 25.1744 10
    endloop
  endfacet
  facet normal 0.772037 -0.635578 0
    outer loop
      vertex 29.584 29.1077 10
      vertex 32.8057 33.0211 4
      vertex 32.8057 33.0211 10
    endloop
  endfacet
  facet normal 0.772037 -0.635578 0
    outer loop
      vertex 32.8057 33.0211 4
      vertex 29.584 29.1077 10
      vertex 29.584 29.1077 4
    endloop
  endfacet
  facet normal 0 0 -1
    outer loop
      vertex 36.3967 25.1744 10
      vertex 32.8057 33.0211 10
      vertex 38.175 29.9211 10
    endloop
  endfacet
  facet normal 0 -0 -1
    outer loop
      vertex 32.8057 33.0211 10
      vertex 36.3967 25.1744 10
      vertex 29.584 29.1077 10
    endloop
  endfacet
  facet normal 0 0 1
    outer loop
      vertex 32.8057 33.0211 4
      vertex 36.3967 25.1744 4
      vertex 38.175 29.9211 4
    endloop
  endfacet
  facet normal 0 0 1
    outer loop
      vertex 36.3967 25.1744 4
      vertex 32.8057 33.0211 4
      vertex 29.584 29.1077 4
    endloop
  endfacet
  facet normal 0.499998 0.866026 -0
    outer loop
      vertex 32.8057 33.0211 4
      vertex 26.8301 36.4711 8
      vertex 32.8057 33.0211 10
    endloop
  endfacet
  facet normal 0.499998 0.866026 0
    outer loop
      vertex 32.8057 33.0211 4
      vertex 26.8301 36.4711 0
      vertex 26.8301 36.4711 8
    endloop
  endfacet
  facet normal 0.500004 0.866023 -1.10888e-05
    outer loop
      vertex 38.175 29.9211 4
      vertex 26.8301 36.4711 0
      vertex 32.8057 33.0211 4
    endloop
  endfacet
  facet normal 0.500004 0.866023 -2.73296e-05
    outer loop
      vertex 32.8057 33.0211 10
      vertex 45 25.9808 15
      vertex 38.175 29.9211 10
    endloop
  endfacet
  facet normal 0.499989 0.866032 -0
    outer loop
      vertex 45 25.9808 0
      vertex 38.175 29.9211 10
      vertex 45 25.9808 15
    endloop
  endfacet
  facet normal 0.499997 0.866027 1.71649e-05
    outer loop
      vertex 26.8301 36.4711 0
      vertex 38.175 29.9211 4
      vertex 45 25.9808 0
    endloop
  endfacet
  facet normal 0.499989 0.866032 0
    outer loop
      vertex 38.175 29.9211 10
      vertex 45 25.9808 0
      vertex 38.175 29.9211 4
    endloop
  endfacet
  facet normal 0.499999 0.866026 -1.13546e-05
    outer loop
      vertex 45 25.9808 15
      vertex 32.8057 33.0211 10
      vertex 0 51.9615 15
    endloop
  endfacet
  facet normal 0.500002 0.866024 -1.55001e-05
    outer loop
      vertex 18.1699 41.4711 8
      vertex 32.8057 33.0211 10
      vertex 26.8301 36.4711 8
    endloop
  endfacet
  facet normal 0.500001 0.866025 1.61411e-06
    outer loop
      vertex 32.8057 33.0211 10
      vertex 18.1699 41.4711 8
      vertex 0 51.9615 15
    endloop
  endfacet
  facet normal 0.5 0.866025 0
    outer loop
      vertex 0 51.9615 0
      vertex 18.1699 41.4711 8
      vertex 18.1699 41.4711 0
    endloop
  endfacet
  facet normal 0.5 0.866025 0
    outer loop
      vertex 18.1699 41.4711 8
      vertex 0 51.9615 0
      vertex 0 51.9615 15
    endloop
  endfacet
  facet normal 0 0 -1
    outer loop
      vertex -40 5 0
      vertex -45 5 0
      vertex -40 23.094 0
    endloop
  endfacet
  facet normal 0 0 -1
    outer loop
      vertex -40 23.094 0
      vertex -26.8301 36.4711 0
      vertex -24.3301 32.141 0
    endloop
  endfacet
  facet normal 0 0 -1
    outer loop
      vertex -40 23.094 0
      vertex -45 25.9808 0
      vertex -26.8301 36.4711 0
    endloop
  endfacet
  facet normal 0 0 -1
    outer loop
      vertex -45 25.9808 0
      vertex -40 23.094 0
      vertex -45 5 0
    endloop
  endfacet
  facet normal 0 0 -1
    outer loop
      vertex 40 23.094 0
      vertex 45 5 0
      vertex 40 5 0
    endloop
  endfacet
  facet normal 0 0 -1
    outer loop
      vertex 45 5 0
      vertex 40 23.094 0
      vertex 45 25.9808 0
    endloop
  endfacet
  facet normal 0 0 -1
    outer loop
      vertex 40 23.094 0
      vertex 26.8301 36.4711 0
      vertex 45 25.9808 0
    endloop
  endfacet
  facet normal 0 -0 -1
    outer loop
      vertex 26.8301 36.4711 0
      vertex 40 23.094 0
      vertex 24.3301 32.141 0
    endloop
  endfacet
  facet normal 0 0 -1
    outer loop
      vertex -26.8301 -36.4711 0
      vertex -40 -23.094 0
      vertex -24.3301 -32.141 0
    endloop
  endfacet
  facet normal 0 0 -1
    outer loop
      vertex -45 -25.9808 0
      vertex -40 -23.094 0
      vertex -26.8301 -36.4711 0
    endloop
  endfacet
  facet normal 0 0 -1
    outer loop
      vertex -45 -5 0
      vertex -40 -23.094 0
      vertex -45 -25.9808 0
    endloop
  endfacet
  facet normal 0 0 -1
    outer loop
      vertex -40 -23.094 0
      vertex -45 -5 0
      vertex -40 -5 0
    endloop
  endfacet
  facet normal 0 0 -1
    outer loop
      vertex 0 -46.188 0
      vertex 18.1699 -41.4711 0
      vertex 0 -51.9615 0
    endloop
  endfacet
  facet normal -0 0 -1
    outer loop
      vertex 18.1699 -41.4711 0
      vertex 0 -46.188 0
      vertex 15.6699 -37.141 0
    endloop
  endfacet
  facet normal 0 0 -1
    outer loop
      vertex -18.1699 -41.4711 0
      vertex 0 -46.188 0
      vertex 0 -51.9615 0
    endloop
  endfacet
  facet normal 0 0 -1
    outer loop
      vertex 0 -46.188 0
      vertex -18.1699 -41.4711 0
      vertex -15.6699 -37.141 0
    endloop
  endfacet
  facet normal 0 0 -1
    outer loop
      vertex 45 -25.9808 0
      vertex 40 -23.094 0
      vertex 45 -5 0
    endloop
  endfacet
  facet normal 0 0 -1
    outer loop
      vertex 26.8301 -36.4711 0
      vertex 40 -23.094 0
      vertex 45 -25.9808 0
    endloop
  endfacet
  facet normal 0 0 -1
    outer loop
      vertex 40 -23.094 0
      vertex 26.8301 -36.4711 0
      vertex 24.3301 -32.141 0
    endloop
  endfacet
  facet normal -0 0 -1
    outer loop
      vertex 45 -5 0
      vertex 40 -23.094 0
      vertex 40 -5 0
    endloop
  endfacet
  facet normal 0 0 -1
    outer loop
      vertex 0 46.188 0
      vertex 18.1699 41.4711 0
      vertex 15.6699 37.141 0
    endloop
  endfacet
  facet normal 0 0 -1
    outer loop
      vertex 0 46.188 0
      vertex 0 51.9615 0
      vertex 18.1699 41.4711 0
    endloop
  endfacet
  facet normal 0 0 -1
    outer loop
      vertex -18.1699 41.4711 0
      vertex 0 46.188 0
      vertex -15.6699 37.141 0
    endloop
  endfacet
  facet normal -0 0 -1
    outer loop
      vertex 0 46.188 0
      vertex -18.1699 41.4711 0
      vertex 0 51.9615 0
    endloop
  endfacet
  facet normal -0.499998 -0.866026 0
    outer loop
      vertex -32.8057 -33.0211 4
      vertex -26.8301 -36.4711 8
      vertex -32.8057 -33.0211 10
    endloop
  endfacet
  facet normal -0.499998 -0.866026 0
    outer loop
      vertex -32.8057 -33.0211 4
      vertex -26.8301 -36.4711 0
      vertex -26.8301 -36.4711 8
    endloop
  endfacet
  facet normal -0.500004 -0.866023 -1.10888e-05
    outer loop
      vertex -38.175 -29.9211 4
      vertex -26.8301 -36.4711 0
      vertex -32.8057 -33.0211 4
    endloop
  endfacet
  facet normal -0.500004 -0.866023 -2.73296e-05
    outer loop
      vertex -32.8057 -33.0211 10
      vertex -45 -25.9808 15
      vertex -38.175 -29.9211 10
    endloop
  endfacet
  facet normal -0.499989 -0.866032 0
    outer loop
      vertex -45 -25.9808 0
      vertex -38.175 -29.9211 10
      vertex -45 -25.9808 15
    endloop
  endfacet
  facet normal -0.499997 -0.866027 1.71649e-05
    outer loop
      vertex -26.8301 -36.4711 0
      vertex -38.175 -29.9211 4
      vertex -45 -25.9808 0
    endloop
  endfacet
  facet normal -0.499989 -0.866032 -0
    outer loop
      vertex -38.175 -29.9211 10
      vertex -45 -25.9808 0
      vertex -38.175 -29.9211 4
    endloop
  endfacet
  facet normal -0.499999 -0.866026 -1.13546e-05
    outer loop
      vertex -45 -25.9808 15
      vertex -32.8057 -33.0211 10
      vertex 0 -51.9615 15
    endloop
  endfacet
  facet normal -0.500002 -0.866024 -1.55001e-05
    outer loop
      vertex -18.1699 -41.4711 8
      vertex -32.8057 -33.0211 10
      vertex -26.8301 -36.4711 8
    endloop
  endfacet
  facet normal -0.500001 -0.866025 1.61411e-06
    outer loop
      vertex -32.8057 -33.0211 10
      vertex -18.1699 -41.4711 8
      vertex 0 -51.9615 15
    endloop
  endfacet
  facet normal -0.5 -0.866025 0
    outer loop
      vertex 0 -51.9615 0
      vertex -18.1699 -41.4711 8
      vertex -18.1699 -41.4711 0
    endloop
  endfacet
  facet normal -0.5 -0.866025 0
    outer loop
      vertex -18.1699 -41.4711 8
      vertex 0 -51.9615 0
      vertex 0 -51.9615 15
    endloop
  endfacet
  facet normal 0.499998 -0.866026 0
    outer loop
      vertex 12.1943 -44.9211 4
      vertex 18.1699 -41.4711 8
      vertex 12.1943 -44.9211 10
    endloop
  endfacet
  facet normal 0.499998 -0.866026 0
    outer loop
      vertex 12.1943 -44.9211 4
      vertex 18.1699 -41.4711 0
      vertex 18.1699 -41.4711 8
    endloop
  endfacet
  facet normal 0.5 -0.866026 2.74193e-06
    outer loop
      vertex 6.82494 -48.0211 4
      vertex 18.1699 -41.4711 0
      vertex 12.1943 -44.9211 4
    endloop
  endfacet
  facet normal 0.5 -0.866026 -3.61755e-06
    outer loop
      vertex 12.1943 -44.9211 10
      vertex 0 -51.9615 15
      vertex 6.82494 -48.0211 10
    endloop
  endfacet
  facet normal 0.500002 -0.866024 0
    outer loop
      vertex 0 -51.9615 0
      vertex 6.82494 -48.0211 10
      vertex 0 -51.9615 15
    endloop
  endfacet
  facet normal 0.5 -0.866025 3.85333e-06
    outer loop
      vertex 18.1699 -41.4711 0
      vertex 6.82494 -48.0211 4
      vertex 0 -51.9615 0
    endloop
  endfacet
  facet normal 0.500002 -0.866024 0
    outer loop
      vertex 6.82494 -48.0211 10
      vertex 0 -51.9615 0
      vertex 6.82494 -48.0211 4
    endloop
  endfacet
  facet normal 0.499999 -0.866026 -5.96592e-06
    outer loop
      vertex 0 -51.9615 15
      vertex 12.1943 -44.9211 10
      vertex 45 -25.9808 15
    endloop
  endfacet
  facet normal 0.500002 -0.866024 1.55001e-05
    outer loop
      vertex 26.8301 -36.4711 8
      vertex 12.1943 -44.9211 10
      vertex 18.1699 -41.4711 8
    endloop
  endfacet
  facet normal 0.5 -0.866026 -1.07466e-05
    outer loop
      vertex 12.1943 -44.9211 10
      vertex 26.8301 -36.4711 8
      vertex 45 -25.9808 15
    endloop
  endfacet
  facet normal 0.499997 -0.866027 0
    outer loop
      vertex 45 -25.9808 0
      vertex 26.8301 -36.4711 8
      vertex 26.8301 -36.4711 0
    endloop
  endfacet
  facet normal 0.499997 -0.866027 0
    outer loop
      vertex 26.8301 -36.4711 8
      vertex 45 -25.9808 0
      vertex 45 -25.9808 15
    endloop
  endfacet
  facet normal -0.499998 0.866026 0
    outer loop
      vertex -12.1943 44.9211 4
      vertex -18.1699 41.4711 8
      vertex -12.1943 44.9211 10
    endloop
  endfacet
  facet normal -0.499998 0.866026 0
    outer loop
      vertex -12.1943 44.9211 4
      vertex -18.1699 41.4711 0
      vertex -18.1699 41.4711 8
    endloop
  endfacet
  facet normal -0.5 0.866026 2.74193e-06
    outer loop
      vertex -6.82494 48.0211 4
      vertex -18.1699 41.4711 0
      vertex -12.1943 44.9211 4
    endloop
  endfacet
  facet normal -0.5 0.866026 -3.61755e-06
    outer loop
      vertex -12.1943 44.9211 10
      vertex 0 51.9615 15
      vertex -6.82494 48.0211 10
    endloop
  endfacet
  facet normal -0.500002 0.866024 0
    outer loop
      vertex 0 51.9615 0
      vertex -6.82494 48.0211 10
      vertex 0 51.9615 15
    endloop
  endfacet
  facet normal -0.5 0.866025 3.85333e-06
    outer loop
      vertex -18.1699 41.4711 0
      vertex -6.82494 48.0211 4
      vertex 0 51.9615 0
    endloop
  endfacet
  facet normal -0.500002 0.866024 0
    outer loop
      vertex -6.82494 48.0211 10
      vertex 0 51.9615 0
      vertex -6.82494 48.0211 4
    endloop
  endfacet
  facet normal -0.499999 0.866026 -5.96592e-06
    outer loop
      vertex 0 51.9615 15
      vertex -12.1943 44.9211 10
      vertex -45 25.9808 15
    endloop
  endfacet
  facet normal -0.500002 0.866024 1.55001e-05
    outer loop
      vertex -26.8301 36.4711 8
      vertex -12.1943 44.9211 10
      vertex -18.1699 41.4711 8
    endloop
  endfacet
  facet normal -0.5 0.866026 -1.07466e-05
    outer loop
      vertex -12.1943 44.9211 10
      vertex -26.8301 36.4711 8
      vertex -45 25.9808 15
    endloop
  endfacet
  facet normal -0.499997 0.866027 0
    outer loop
      vertex -45 25.9808 0
      vertex -26.8301 36.4711 8
      vertex -26.8301 36.4711 0
    endloop
  endfacet
  facet normal -0.499997 0.866027 0
    outer loop
      vertex -26.8301 36.4711 8
      vertex -45 25.9808 0
      vertex -45 25.9808 15
    endloop
  endfacet
  facet normal -0.5 -0.866026 -6.46632e-06
    outer loop
      vertex 0 46.188 13
      vertex 29.584 29.1077 10
      vertex 40 23.094 13
    endloop
  endfacet
  facet normal -0.499999 -0.866026 -1.24415e-06
    outer loop
      vertex 0 46.188 13
      vertex 15.6699 37.141 8
      vertex 29.584 29.1077 10
    endloop
  endfacet
  facet normal -0.499999 -0.866026 0
    outer loop
      vertex 0 46.188 0
      vertex 15.6699 37.141 8
      vertex 0 46.188 13
    endloop
  endfacet
  facet normal -0.499999 -0.866026 -0
    outer loop
      vertex 15.6699 37.141 8
      vertex 0 46.188 0
      vertex 15.6699 37.141 0
    endloop
  endfacet
  facet normal -0.499999 -0.866026 -1.19149e-05
    outer loop
      vertex 36.3967 25.1744 10
      vertex 40 23.094 13
      vertex 29.584 29.1077 10
    endloop
  endfacet
  facet normal -0.500006 -0.866022 0
    outer loop
      vertex 36.3967 25.1744 4
      vertex 40 23.094 13
      vertex 36.3967 25.1744 10
    endloop
  endfacet
  facet normal -0.500006 -0.866022 0
    outer loop
      vertex 36.3967 25.1744 4
      vertex 40 23.094 0
      vertex 40 23.094 13
    endloop
  endfacet
  facet normal -0.499999 -0.866026 8.93617e-06
    outer loop
      vertex 29.584 29.1077 4
      vertex 40 23.094 0
      vertex 36.3967 25.1744 4
    endloop
  endfacet
  facet normal -0.500002 -0.866024 2.57671e-05
    outer loop
      vertex 24.3301 32.141 8
      vertex 29.584 29.1077 10
      vertex 15.6699 37.141 8
    endloop
  endfacet
  facet normal -0.499995 -0.866028 0
    outer loop
      vertex 24.3301 32.141 8
      vertex 29.584 29.1077 4
      vertex 29.584 29.1077 10
    endloop
  endfacet
  facet normal -0.499999 -0.866026 7.26248e-06
    outer loop
      vertex 40 23.094 0
      vertex 29.584 29.1077 4
      vertex 24.3301 32.141 0
    endloop
  endfacet
  facet normal -0.499995 -0.866028 0
    outer loop
      vertex 24.3301 32.141 0
      vertex 29.584 29.1077 4
      vertex 24.3301 32.141 8
    endloop
  endfacet
  facet normal 0 0 -1
    outer loop
      vertex 40 -23.094 13
      vertex 39.7 -8.2 13
      vertex 40 23.094 13
    endloop
  endfacet
  facet normal 0 0 -1
    outer loop
      vertex 35 -20.2072 13
      vertex 39.7 -8.2 13
      vertex 40 -23.094 13
    endloop
  endfacet
  facet normal -0 0 -1
    outer loop
      vertex 36.3 -8.2 13
      vertex 35 -20.2072 13
      vertex 36.3 8.2 13
    endloop
  endfacet
  facet normal -0 0 -1
    outer loop
      vertex 39.7 -8.2 13
      vertex 35 -20.2072 13
      vertex 36.3 -8.2 13
    endloop
  endfacet
  facet normal 0 0 -1
    outer loop
      vertex 0 -46.188 13
      vertex 35 -20.2072 13
      vertex 40 -23.094 13
    endloop
  endfacet
  facet normal 0 0 -1
    outer loop
      vertex 0 -46.188 13
      vertex 0 -40.4145 13
      vertex 35 -20.2072 13
    endloop
  endfacet
  facet normal 0 0 -1
    outer loop
      vertex -12.7486 -38.4812 13
      vertex 0 -40.4145 13
      vertex 0 -46.188 13
    endloop
  endfacet
  facet normal 0 0 -1
    outer loop
      vertex 0 -40.4145 13
      vertex -12.7486 -38.4812 13
      vertex -11.0486 -35.5367 13
    endloop
  endfacet
  facet normal 0 0 -1
    outer loop
      vertex 0 -46.188 13
      vertex -26.9514 -30.2812 13
      vertex -12.7486 -38.4812 13
    endloop
  endfacet
  facet normal -0 0 -1
    outer loop
      vertex -35 -20.2072 13
      vertex -40 -23.094 13
      vertex -35 20.2072 13
    endloop
  endfacet
  facet normal 0 0 -1
    outer loop
      vertex -26.9514 -30.2812 13
      vertex -40 -23.094 13
      vertex -35 -20.2072 13
    endloop
  endfacet
  facet normal 0 0 -1
    outer loop
      vertex -40 -23.094 13
      vertex -26.9514 -30.2812 13
      vertex 0 -46.188 13
    endloop
  endfacet
  facet normal 0 0 -1
    outer loop
      vertex 39.7 8.2 13
      vertex 40 23.094 13
      vertex 39.7 -8.2 13
    endloop
  endfacet
  facet normal 0 0 -1
    outer loop
      vertex 35 20.2072 13
      vertex 39.7 8.2 13
      vertex 36.3 8.2 13
    endloop
  endfacet
  facet normal 0 0 -1
    outer loop
      vertex 35 20.2072 13
      vertex 36.3 8.2 13
      vertex 35 -20.2072 13
    endloop
  endfacet
  facet normal 0 0 -1
    outer loop
      vertex 39.7 8.2 13
      vertex 35 20.2072 13
      vertex 40 23.094 13
    endloop
  endfacet
  facet normal 0 0 -1
    outer loop
      vertex 0 40.4145 13
      vertex 40 23.094 13
      vertex 35 20.2072 13
    endloop
  endfacet
  facet normal 0 0 -1
    outer loop
      vertex 0 40.4145 13
      vertex 0 46.188 13
      vertex 40 23.094 13
    endloop
  endfacet
  facet normal 0 0 -1
    outer loop
      vertex -12.7486 38.4812 13
      vertex 0 40.4145 13
      vertex -11.0486 35.5367 13
    endloop
  endfacet
  facet normal 0 0 -1
    outer loop
      vertex 0 40.4145 13
      vertex -25.2514 27.3367 13
      vertex -11.0486 35.5367 13
    endloop
  endfacet
  facet normal -0 0 -1
    outer loop
      vertex -25.2514 27.3367 13
      vertex -35 20.2072 13
      vertex -26.9514 30.2812 13
    endloop
  endfacet
  facet normal 0 0 -1
    outer loop
      vertex -35 20.2072 13
      vertex -25.2514 27.3367 13
      vertex 0 40.4145 13
    endloop
  endfacet
  facet normal 0 0 -1
    outer loop
      vertex -25.2514 -27.3367 13
      vertex 0 -40.4145 13
      vertex -11.0486 -35.5367 13
    endloop
  endfacet
  facet normal 0 0 -1
    outer loop
      vertex -25.2514 -27.3367 13
      vertex -35 -20.2072 13
      vertex 0 -40.4145 13
    endloop
  endfacet
  facet normal 0 0 -1
    outer loop
      vertex -35 -20.2072 13
      vertex -25.2514 -27.3367 13
      vertex -26.9514 -30.2812 13
    endloop
  endfacet
  facet normal -0 0 -1
    outer loop
      vertex 0 40.4145 13
      vertex -12.7486 38.4812 13
      vertex 0 46.188 13
    endloop
  endfacet
  facet normal 0 0 -1
    outer loop
      vertex -26.9514 30.2812 13
      vertex 0 46.188 13
      vertex -12.7486 38.4812 13
    endloop
  endfacet
  facet normal -0 0 -1
    outer loop
      vertex -26.9514 30.2812 13
      vertex -40 23.094 13
      vertex 0 46.188 13
    endloop
  endfacet
  facet normal 0 0 -1
    outer loop
      vertex -35 20.2072 13
      vertex -40 23.094 13
      vertex -26.9514 30.2812 13
    endloop
  endfacet
  facet normal 0 0 -1
    outer loop
      vertex -40 23.094 13
      vertex -35 20.2072 13
      vertex -40 -23.094 13
    endloop
  endfacet
  facet normal -1 0 0
    outer loop
      vertex 40 -5 0
      vertex 40 -11.0667 4
      vertex 40 -5 8
    endloop
  endfacet
  facet normal -1 0 0
    outer loop
      vertex 40 -23.094 0
      vertex 40 -11.0667 4
      vertex 40 -5 0
    endloop
  endfacet
  facet normal -1 0 0
    outer loop
      vertex 40 -23.094 13
      vertex 40 -18.9333 4
      vertex 40 -23.094 0
    endloop
  endfacet
  facet normal -1 -0 0
    outer loop
      vertex 40 -11.0667 4
      vertex 40 -23.094 0
      vertex 40 -18.9333 4
    endloop
  endfacet
  facet normal -1 0 0
    outer loop
      vertex 40 5 8
      vertex 40 23.094 0
      vertex 40 5 0
    endloop
  endfacet
  facet normal -1 0 0
    outer loop
      vertex 40 23.094 0
      vertex 40 5 8
      vertex 40 23.094 13
    endloop
  endfacet
  facet normal -1 0 0
    outer loop
      vertex 40 -11.0667 10
      vertex 40 5 8
      vertex 40 -5 8
    endloop
  endfacet
  facet normal -1 0 0
    outer loop
      vertex 40 -11.0667 10
      vertex 40 -5 8
      vertex 40 -11.0667 4
    endloop
  endfacet
  facet normal -1 0 0
    outer loop
      vertex 40 5 8
      vertex 40 -11.0667 10
      vertex 40 23.094 13
    endloop
  endfacet
  facet normal -1 0 0
    outer loop
      vertex 40 -23.094 13
      vertex 40 -11.0667 10
      vertex 40 -18.9333 10
    endloop
  endfacet
  facet normal -1 0 0
    outer loop
      vertex 40 -11.0667 10
      vertex 40 -23.094 13
      vertex 40 23.094 13
    endloop
  endfacet
  facet normal -1 0 0
    outer loop
      vertex 40 -18.9333 4
      vertex 40 -23.094 13
      vertex 40 -18.9333 10
    endloop
  endfacet
  facet normal 1 0 0
    outer loop
      vertex -40 18.9333 4
      vertex -40 23.094 13
      vertex -40 18.9333 10
    endloop
  endfacet
  facet normal 1 0 0
    outer loop
      vertex -40 23.094 13
      vertex -40 11.0667 10
      vertex -40 18.9333 10
    endloop
  endfacet
  facet normal 1 0 0
    outer loop
      vertex -40 11.0667 10
      vertex -40 5 8
      vertex -40 11.0667 4
    endloop
  endfacet
  facet normal 1 0 0
    outer loop
      vertex -40 11.0667 10
      vertex -40 -5 8
      vertex -40 5 8
    endloop
  endfacet
  facet normal 1 -0 0
    outer loop
      vertex -40 -23.094 13
      vertex -40 11.0667 10
      vertex -40 23.094 13
    endloop
  endfacet
  facet normal 1 0 0
    outer loop
      vertex -40 11.0667 10
      vertex -40 -23.094 13
      vertex -40 -5 8
    endloop
  endfacet
  facet normal 1 0 0
    outer loop
      vertex -40 -23.094 0
      vertex -40 -5 8
      vertex -40 -23.094 13
    endloop
  endfacet
  facet normal 1 0 0
    outer loop
      vertex -40 -5 8
      vertex -40 -23.094 0
      vertex -40 -5 0
    endloop
  endfacet
  facet normal 1 0 0
    outer loop
      vertex -40 23.094 13
      vertex -40 18.9333 4
      vertex -40 23.094 0
    endloop
  endfacet
  facet normal 1 -0 0
    outer loop
      vertex -40 11.0667 4
      vertex -40 23.094 0
      vertex -40 18.9333 4
    endloop
  endfacet
  facet normal 1 0 0
    outer loop
      vertex -40 11.0667 4
      vertex -40 5 0
      vertex -40 23.094 0
    endloop
  endfacet
  facet normal 1 0 0
    outer loop
      vertex -40 5 0
      vertex -40 11.0667 4
      vertex -40 5 8
    endloop
  endfacet
  facet normal 0.5 0.866026 -6.46632e-06
    outer loop
      vertex 0 -46.188 13
      vertex -29.584 -29.1077 10
      vertex -40 -23.094 13
    endloop
  endfacet
  facet normal 0.499999 0.866026 -1.24415e-06
    outer loop
      vertex 0 -46.188 13
      vertex -15.6699 -37.141 8
      vertex -29.584 -29.1077 10
    endloop
  endfacet
  facet normal 0.499999 0.866026 -0
    outer loop
      vertex 0 -46.188 0
      vertex -15.6699 -37.141 8
      vertex 0 -46.188 13
    endloop
  endfacet
  facet normal 0.499999 0.866026 0
    outer loop
      vertex -15.6699 -37.141 8
      vertex 0 -46.188 0
      vertex -15.6699 -37.141 0
    endloop
  endfacet
  facet normal 0.499999 0.866026 -1.19149e-05
    outer loop
      vertex -36.3967 -25.1744 10
      vertex -40 -23.094 13
      vertex -29.584 -29.1077 10
    endloop
  endfacet
  facet normal 0.500006 0.866022 -0
    outer loop
      vertex -36.3967 -25.1744 4
      vertex -40 -23.094 13
      vertex -36.3967 -25.1744 10
    endloop
  endfacet
  facet normal 0.500006 0.866022 0
    outer loop
      vertex -36.3967 -25.1744 4
      vertex -40 -23.094 0
      vertex -40 -23.094 13
    endloop
  endfacet
  facet normal 0.499999 0.866026 8.93617e-06
    outer loop
      vertex -29.584 -29.1077 4
      vertex -40 -23.094 0
      vertex -36.3967 -25.1744 4
    endloop
  endfacet
  facet normal 0.500002 0.866024 2.57671e-05
    outer loop
      vertex -24.3301 -32.141 8
      vertex -29.584 -29.1077 10
      vertex -15.6699 -37.141 8
    endloop
  endfacet
  facet normal 0.499995 0.866028 0
    outer loop
      vertex -24.3301 -32.141 8
      vertex -29.584 -29.1077 4
      vertex -29.584 -29.1077 10
    endloop
  endfacet
  facet normal 0.499999 0.866026 7.26248e-06
    outer loop
      vertex -40 -23.094 0
      vertex -29.584 -29.1077 4
      vertex -24.3301 -32.141 0
    endloop
  endfacet
  facet normal 0.499995 0.866028 -0
    outer loop
      vertex -24.3301 -32.141 0
      vertex -29.584 -29.1077 4
      vertex -24.3301 -32.141 8
    endloop
  endfacet
  facet normal -0.5 0.866026 -2.24012e-05
    outer loop
      vertex 40 -23.094 13
      vertex 10.416 -40.1744 10
      vertex 0 -46.188 13
    endloop
  endfacet
  facet normal -0.500003 0.866024 1.46922e-05
    outer loop
      vertex 40 -23.094 13
      vertex 24.3301 -32.141 8
      vertex 10.416 -40.1744 10
    endloop
  endfacet
  facet normal -0.499999 0.866026 0
    outer loop
      vertex 40 -23.094 0
      vertex 24.3301 -32.141 8
      vertex 40 -23.094 13
    endloop
  endfacet
  facet normal -0.499999 0.866026 0
    outer loop
      vertex 24.3301 -32.141 8
      vertex 40 -23.094 0
      vertex 24.3301 -32.141 0
    endloop
  endfacet
  facet normal -0.499996 0.866027 -6.76001e-06
    outer loop
      vertex 3.60326 -44.1077 10
      vertex 0 -46.188 13
      vertex 10.416 -40.1744 10
    endloop
  endfacet
  facet normal -0.499992 0.86603 0
    outer loop
      vertex 3.60326 -44.1077 4
      vertex 0 -46.188 13
      vertex 3.60326 -44.1077 10
    endloop
  endfacet
  facet normal -0.499992 0.86603 0
    outer loop
      vertex 3.60326 -44.1077 4
      vertex 0 -46.188 0
      vertex 0 -46.188 13
    endloop
  endfacet
  facet normal -0.499996 0.866027 5.07001e-06
    outer loop
      vertex 10.416 -40.1744 4
      vertex 0 -46.188 0
      vertex 3.60326 -44.1077 4
    endloop
  endfacet
  facet normal -0.500002 0.866024 1.75341e-05
    outer loop
      vertex 15.6699 -37.141 8
      vertex 10.416 -40.1744 10
      vertex 24.3301 -32.141 8
    endloop
  endfacet
  facet normal -0.500007 0.866021 0
    outer loop
      vertex 15.6699 -37.141 8
      vertex 10.416 -40.1744 4
      vertex 10.416 -40.1744 10
    endloop
  endfacet
  facet normal -0.499999 0.866026 1.43882e-05
    outer loop
      vertex 0 -46.188 0
      vertex 10.416 -40.1744 4
      vertex 15.6699 -37.141 0
    endloop
  endfacet
  facet normal -0.500007 0.866021 0
    outer loop
      vertex 15.6699 -37.141 0
      vertex 10.416 -40.1744 4
      vertex 15.6699 -37.141 8
    endloop
  endfacet
  facet normal 0.5 -0.866026 -2.24012e-05
    outer loop
      vertex -40 23.094 13
      vertex -10.416 40.1744 10
      vertex 0 46.188 13
    endloop
  endfacet
  facet normal 0.500003 -0.866024 1.46922e-05
    outer loop
      vertex -40 23.094 13
      vertex -24.3301 32.141 8
      vertex -10.416 40.1744 10
    endloop
  endfacet
  facet normal 0.499999 -0.866026 0
    outer loop
      vertex -40 23.094 0
      vertex -24.3301 32.141 8
      vertex -40 23.094 13
    endloop
  endfacet
  facet normal 0.499999 -0.866026 0
    outer loop
      vertex -24.3301 32.141 8
      vertex -40 23.094 0
      vertex -24.3301 32.141 0
    endloop
  endfacet
  facet normal 0.499996 -0.866027 -6.76001e-06
    outer loop
      vertex -3.60326 44.1077 10
      vertex 0 46.188 13
      vertex -10.416 40.1744 10
    endloop
  endfacet
  facet normal 0.499992 -0.86603 0
    outer loop
      vertex -3.60326 44.1077 4
      vertex 0 46.188 13
      vertex -3.60326 44.1077 10
    endloop
  endfacet
  facet normal 0.499992 -0.86603 0
    outer loop
      vertex -3.60326 44.1077 4
      vertex 0 46.188 0
      vertex 0 46.188 13
    endloop
  endfacet
  facet normal 0.499996 -0.866027 5.07001e-06
    outer loop
      vertex -10.416 40.1744 4
      vertex 0 46.188 0
      vertex -3.60326 44.1077 4
    endloop
  endfacet
  facet normal 0.500002 -0.866024 1.75341e-05
    outer loop
      vertex -15.6699 37.141 8
      vertex -10.416 40.1744 10
      vertex -24.3301 32.141 8
    endloop
  endfacet
  facet normal 0.500007 -0.866021 0
    outer loop
      vertex -15.6699 37.141 8
      vertex -10.416 40.1744 4
      vertex -10.416 40.1744 10
    endloop
  endfacet
  facet normal 0.499999 -0.866026 1.43882e-05
    outer loop
      vertex 0 46.188 0
      vertex -10.416 40.1744 4
      vertex -15.6699 37.141 0
    endloop
  endfacet
  facet normal 0.500007 -0.866021 0
    outer loop
      vertex -15.6699 37.141 0
      vertex -10.416 40.1744 4
      vertex -15.6699 37.141 8
    endloop
  endfacet
  facet normal -0.500001 -0.866025 0
    outer loop
      vertex 0 40.4145 13
      vertex 35 20.2072 14
      vertex 0 40.4145 14
    endloop
  endfacet
  facet normal -0.500001 -0.866025 -0
    outer loop
      vertex 35 20.2072 14
      vertex 0 40.4145 13
      vertex 35 20.2072 13
    endloop
  endfacet
  facet normal 0 0 -1
    outer loop
      vertex 0 -40.4145 14
      vertex 35 20.2072 14
      vertex 35 -20.2072 14
    endloop
  endfacet
  facet normal 0 0 -1
    outer loop
      vertex 0 -40.4145 14
      vertex 0 40.4145 14
      vertex 35 20.2072 14
    endloop
  endfacet
  facet normal 0 0 -1
    outer loop
      vertex -35 -20.2072 14
      vertex 0 40.4145 14
      vertex 0 -40.4145 14
    endloop
  endfacet
  facet normal 0 0 -1
    outer loop
      vertex 0 40.4145 14
      vertex -35 -20.2072 14
      vertex -35 20.2072 14
    endloop
  endfacet
  facet normal -1 0 0
    outer loop
      vertex 35 -20.2072 13
      vertex 35 20.2072 14
      vertex 35 20.2072 13
    endloop
  endfacet
  facet normal -1 -0 0
    outer loop
      vertex 35 20.2072 14
      vertex 35 -20.2072 13
      vertex 35 -20.2072 14
    endloop
  endfacet
  facet normal 1 -0 0
    outer loop
      vertex -35 -20.2072 14
      vertex -35 20.2072 13
      vertex -35 20.2072 14
    endloop
  endfacet
  facet normal 1 0 0
    outer loop
      vertex -35 20.2072 13
      vertex -35 -20.2072 14
      vertex -35 -20.2072 13
    endloop
  endfacet
  facet normal 0.500001 0.866025 -0
    outer loop
      vertex 0 -40.4145 13
      vertex -35 -20.2072 14
      vertex 0 -40.4145 14
    endloop
  endfacet
  facet normal 0.500001 0.866025 0
    outer loop
      vertex -35 -20.2072 14
      vertex 0 -40.4145 13
      vertex -35 -20.2072 13
    endloop
  endfacet
  facet normal -0.500001 0.866025 0
    outer loop
      vertex 35 -20.2072 13
      vertex 0 -40.4145 14
      vertex 35 -20.2072 14
    endloop
  endfacet
  facet normal -0.500001 0.866025 0
    outer loop
      vertex 0 -40.4145 14
      vertex 35 -20.2072 13
      vertex 0 -40.4145 13
    endloop
  endfacet
  facet normal 0.500001 -0.866025 0
    outer loop
      vertex -35 20.2072 13
      vertex 0 40.4145 14
      vertex -35 20.2072 14
    endloop
  endfacet
  facet normal 0.500001 -0.866025 0
    outer loop
      vertex 0 40.4145 14
      vertex -35 20.2072 13
      vertex 0 40.4145 13
    endloop
  endfacet
  facet normal 0.936444 0.350818 0
    outer loop
      vertex -32.9789 32.9211 9.5
      vertex -34.2499 36.3138 4
      vertex -34.2499 36.3138 9.5
    endloop
  endfacet
  facet normal 0.936444 0.350818 0
    outer loop
      vertex -34.2499 36.3138 4
      vertex -32.9789 32.9211 9.5
      vertex -32.9789 32.9211 4
    endloop
  endfacet
  facet normal 0 0 -1
    outer loop
      vertex -40.3045 32.8182 4
      vertex -36.3564 30.9711 4
      vertex -38.0019 30.0211 4
    endloop
  endfacet
  facet normal 0 0 -1
    outer loop
      vertex -36.3564 30.9711 4
      vertex -40.3045 32.8182 4
      vertex -39.3564 36.1673 4
    endloop
  endfacet
  facet normal 0 0 -1
    outer loop
      vertex -39.3564 36.1673 4
      vertex -40.3045 32.8182 4
      vertex -40.3045 35.6199 4
    endloop
  endfacet
  facet normal 0 0 -1
    outer loop
      vertex -34.6244 31.9711 4
      vertex -34.2499 36.3138 4
      vertex -32.9789 32.9211 4
    endloop
  endfacet
  facet normal 0 0 -1
    outer loop
      vertex -37.6244 37.1673 4
      vertex -34.2499 36.3138 4
      vertex -34.6244 31.9711 4
    endloop
  endfacet
  facet normal 0 0 -1
    outer loop
      vertex -34.2499 36.3138 4
      vertex -37.6244 37.1673 4
      vertex -36.6763 37.7147 4
    endloop
  endfacet
  facet normal -0.772051 -0.63556 0
    outer loop
      vertex -38.0019 30.0211 4
      vertex -40.3045 32.8182 9.5
      vertex -40.3045 32.8182 4
    endloop
  endfacet
  facet normal -0.772051 -0.63556 0
    outer loop
      vertex -40.3045 32.8182 9.5
      vertex -38.0019 30.0211 4
      vertex -38.0019 30.0211 9.5
    endloop
  endfacet
  facet normal 0.499988 -0.866032 0
    outer loop
      vertex -38.0019 30.0211 4
      vertex -36.3564 30.9711 9.5
      vertex -38.0019 30.0211 9.5
    endloop
  endfacet
  facet normal 0.499988 -0.866032 0
    outer loop
      vertex -36.3564 30.9711 9.5
      vertex -38.0019 30.0211 4
      vertex -36.3564 30.9711 4
    endloop
  endfacet
  facet normal 0.499988 -0.866032 0
    outer loop
      vertex -34.6244 31.9711 4
      vertex -32.9789 32.9211 9.5
      vertex -34.6244 31.9711 9.5
    endloop
  endfacet
  facet normal 0.499988 -0.866032 0
    outer loop
      vertex -32.9789 32.9211 9.5
      vertex -34.6244 31.9711 4
      vertex -32.9789 32.9211 4
    endloop
  endfacet
  facet normal -0.50001 0.86602 0
    outer loop
      vertex -36.6763 37.7147 4
      vertex -37.6244 37.1673 9.5
      vertex -36.6763 37.7147 9.5
    endloop
  endfacet
  facet normal -0.50001 0.86602 0
    outer loop
      vertex -37.6244 37.1673 9.5
      vertex -36.6763 37.7147 4
      vertex -37.6244 37.1673 4
    endloop
  endfacet
  facet normal -0.50001 0.86602 0
    outer loop
      vertex -39.3564 36.1673 4
      vertex -40.3045 35.6199 9.5
      vertex -39.3564 36.1673 9.5
    endloop
  endfacet
  facet normal -0.50001 0.86602 0
    outer loop
      vertex -40.3045 35.6199 9.5
      vertex -39.3564 36.1673 4
      vertex -40.3045 35.6199 4
    endloop
  endfacet
  facet normal 0 0 1
    outer loop
      vertex -34.2499 36.3138 9.5
      vertex -34.6244 31.9711 9.5
      vertex -32.9789 32.9211 9.5
    endloop
  endfacet
  facet normal -0 0 1
    outer loop
      vertex -37.6244 37.1673 9.5
      vertex -34.2499 36.3138 9.5
      vertex -36.6763 37.7147 9.5
    endloop
  endfacet
  facet normal 0 0 1
    outer loop
      vertex -34.2499 36.3138 9.5
      vertex -37.6244 37.1673 9.5
      vertex -34.6244 31.9711 9.5
    endloop
  endfacet
  facet normal -0 0 1
    outer loop
      vertex -40.3045 32.8182 9.5
      vertex -36.3564 30.9711 9.5
      vertex -39.3564 36.1673 9.5
    endloop
  endfacet
  facet normal 0 0 1
    outer loop
      vertex -40.3045 32.8182 9.5
      vertex -39.3564 36.1673 9.5
      vertex -40.3045 35.6199 9.5
    endloop
  endfacet
  facet normal 0 0 1
    outer loop
      vertex -36.3564 30.9711 9.5
      vertex -40.3045 32.8182 9.5
      vertex -38.0019 30.0211 9.5
    endloop
  endfacet
  facet normal -0.866027 -0.499997 0
    outer loop
      vertex -34.6244 31.9711 4
      vertex -37.6244 37.1673 9.5
      vertex -37.6244 37.1673 4
    endloop
  endfacet
  facet normal -0.866027 -0.499997 0
    outer loop
      vertex -37.6244 37.1673 9.5
      vertex -34.6244 31.9711 4
      vertex -34.6244 31.9711 9.5
    endloop
  endfacet
  facet normal 0.866027 0.499997 0
    outer loop
      vertex -36.3564 30.9711 9.5
      vertex -39.3564 36.1673 4
      vertex -39.3564 36.1673 9.5
    endloop
  endfacet
  facet normal 0.866027 0.499997 0
    outer loop
      vertex -39.3564 36.1673 4
      vertex -36.3564 30.9711 9.5
      vertex -36.3564 30.9711 4
    endloop
  endfacet
  facet normal 0.500005 0.866023 -0
    outer loop
      vertex -34.2499 36.3138 4
      vertex -36.6763 37.7147 9.5
      vertex -34.2499 36.3138 9.5
    endloop
  endfacet
  facet normal 0.500005 0.866023 0
    outer loop
      vertex -36.6763 37.7147 9.5
      vertex -34.2499 36.3138 4
      vertex -36.6763 37.7147 4
    endloop
  endfacet
  facet normal -1 0 0
    outer loop
      vertex -40.3045 32.8182 4
      vertex -40.3045 35.6199 9.5
      vertex -40.3045 35.6199 4
    endloop
  endfacet
  facet normal -1 -0 0
    outer loop
      vertex -40.3045 35.6199 9.5
      vertex -40.3045 32.8182 4
      vertex -40.3045 32.8182 9.5
    endloop
  endfacet
  facet normal 0.164399 0.986394 -0
    outer loop
      vertex -45 -12.1 4
      vertex -48.5736 -11.5044 9.5
      vertex -45 -12.1 9.5
    endloop
  endfacet
  facet normal 0.164399 0.986394 0
    outer loop
      vertex -48.5736 -11.5044 9.5
      vertex -45 -12.1 4
      vertex -48.5736 -11.5044 4
    endloop
  endfacet
  facet normal 0 0 -1
    outer loop
      vertex -48.5736 -18.4956 4
      vertex -45 -16 4
      vertex -45 -17.9 4
    endloop
  endfacet
  facet normal 0 0 -1
    outer loop
      vertex -51 -16 4
      vertex -48.5736 -18.4956 4
      vertex -51 -17.0947 4
    endloop
  endfacet
  facet normal 0 0 -1
    outer loop
      vertex -48.5736 -18.4956 4
      vertex -51 -16 4
      vertex -45 -16 4
    endloop
  endfacet
  facet normal 0 0 -1
    outer loop
      vertex -45 -14 4
      vertex -48.5736 -11.5044 4
      vertex -45 -12.1 4
    endloop
  endfacet
  facet normal 0 0 -1
    outer loop
      vertex -51 -14 4
      vertex -48.5736 -11.5044 4
      vertex -45 -14 4
    endloop
  endfacet
  facet normal 0 0 -1
    outer loop
      vertex -48.5736 -11.5044 4
      vertex -51 -14 4
      vertex -51 -12.9053 4
    endloop
  endfacet
  facet normal 0.164399 -0.986394 0
    outer loop
      vertex -48.5736 -18.4956 4
      vertex -45 -17.9 9.5
      vertex -48.5736 -18.4956 9.5
    endloop
  endfacet
  facet normal 0.164399 -0.986394 0
    outer loop
      vertex -45 -17.9 9.5
      vertex -48.5736 -18.4956 4
      vertex -45 -17.9 4
    endloop
  endfacet
  facet normal -1 0 0
    outer loop
      vertex -51 -14 4
      vertex -51 -12.9053 9.5
      vertex -51 -12.9053 4
    endloop
  endfacet
  facet normal -1 -0 0
    outer loop
      vertex -51 -12.9053 9.5
      vertex -51 -14 4
      vertex -51 -14 9.5
    endloop
  endfacet
  facet normal -1 0 0
    outer loop
      vertex -51 -17.0947 4
      vertex -51 -16 9.5
      vertex -51 -16 4
    endloop
  endfacet
  facet normal -1 -0 0
    outer loop
      vertex -51 -16 9.5
      vertex -51 -17.0947 4
      vertex -51 -17.0947 9.5
    endloop
  endfacet
  facet normal 0 0 1
    outer loop
      vertex -48.5736 -11.5044 9.5
      vertex -45 -14 9.5
      vertex -45 -12.1 9.5
    endloop
  endfacet
  facet normal 0 0 1
    outer loop
      vertex -51 -14 9.5
      vertex -48.5736 -11.5044 9.5
      vertex -51 -12.9053 9.5
    endloop
  endfacet
  facet normal 0 0 1
    outer loop
      vertex -48.5736 -11.5044 9.5
      vertex -51 -14 9.5
      vertex -45 -14 9.5
    endloop
  endfacet
  facet normal 0 0 1
    outer loop
      vertex -45 -16 9.5
      vertex -48.5736 -18.4956 9.5
      vertex -45 -17.9 9.5
    endloop
  endfacet
  facet normal -0 0 1
    outer loop
      vertex -51 -16 9.5
      vertex -48.5736 -18.4956 9.5
      vertex -45 -16 9.5
    endloop
  endfacet
  facet normal 0 0 1
    outer loop
      vertex -48.5736 -18.4956 9.5
      vertex -51 -16 9.5
      vertex -51 -17.0947 9.5
    endloop
  endfacet
  facet normal 0 -1 0
    outer loop
      vertex -51 -14 4
      vertex -45 -14 9.5
      vertex -51 -14 9.5
    endloop
  endfacet
  facet normal 0 -1 -0
    outer loop
      vertex -45 -14 9.5
      vertex -51 -14 4
      vertex -45 -14 4
    endloop
  endfacet
  facet normal 0 1 -0
    outer loop
      vertex -45 -16 4
      vertex -51 -16 9.5
      vertex -45 -16 9.5
    endloop
  endfacet
  facet normal 0 1 0
    outer loop
      vertex -51 -16 9.5
      vertex -45 -16 4
      vertex -51 -16 4
    endloop
  endfacet
  facet normal -0.500005 0.866023 0
    outer loop
      vertex -48.5736 -11.5044 4
      vertex -51 -12.9053 9.5
      vertex -48.5736 -11.5044 9.5
    endloop
  endfacet
  facet normal -0.500005 0.866023 0
    outer loop
      vertex -51 -12.9053 9.5
      vertex -48.5736 -11.5044 4
      vertex -51 -12.9053 4
    endloop
  endfacet
  facet normal -0.500005 -0.866023 0
    outer loop
      vertex -51 -17.0947 4
      vertex -48.5736 -18.4956 9.5
      vertex -51 -17.0947 9.5
    endloop
  endfacet
  facet normal -0.500005 -0.866023 -0
    outer loop
      vertex -48.5736 -18.4956 9.5
      vertex -51 -17.0947 4
      vertex -48.5736 -18.4956 4
    endloop
  endfacet
  facet normal -0.772051 0.63556 0
    outer loop
      vertex -14.3237 -47.8182 4
      vertex -12.0211 -45.0211 9.5
      vertex -12.0211 -45.0211 4
    endloop
  endfacet
  facet normal -0.772051 0.63556 0
    outer loop
      vertex -12.0211 -45.0211 9.5
      vertex -14.3237 -47.8182 4
      vertex -14.3237 -47.8182 9.5
    endloop
  endfacet
  facet normal 0 0 -1
    outer loop
      vertex -8.26916 -51.3138 4
      vertex -8.64359 -46.9711 4
      vertex -6.99815 -47.9211 4
    endloop
  endfacet
  facet normal 0 0 -1
    outer loop
      vertex -11.6436 -52.1673 4
      vertex -8.26916 -51.3138 4
      vertex -10.6955 -52.7147 4
    endloop
  endfacet
  facet normal -0 0 -1
    outer loop
      vertex -8.26916 -51.3138 4
      vertex -11.6436 -52.1673 4
      vertex -8.64359 -46.9711 4
    endloop
  endfacet
  facet normal 0 0 -1
    outer loop
      vertex -14.3237 -47.8182 4
      vertex -10.3756 -45.9711 4
      vertex -13.3756 -51.1673 4
    endloop
  endfacet
  facet normal 0 0 -1
    outer loop
      vertex -14.3237 -47.8182 4
      vertex -13.3756 -51.1673 4
      vertex -14.3237 -50.6199 4
    endloop
  endfacet
  facet normal -0 0 -1
    outer loop
      vertex -10.3756 -45.9711 4
      vertex -14.3237 -47.8182 4
      vertex -12.0211 -45.0211 4
    endloop
  endfacet
  facet normal 0.936443 -0.35082 0
    outer loop
      vertex -8.26916 -51.3138 9.5
      vertex -6.99815 -47.9211 4
      vertex -6.99815 -47.9211 9.5
    endloop
  endfacet
  facet normal 0.936443 -0.35082 0
    outer loop
      vertex -6.99815 -47.9211 4
      vertex -8.26916 -51.3138 9.5
      vertex -8.26916 -51.3138 4
    endloop
  endfacet
  facet normal 0.500002 0.866024 -0
    outer loop
      vertex -6.99815 -47.9211 4
      vertex -8.64359 -46.9711 9.5
      vertex -6.99815 -47.9211 9.5
    endloop
  endfacet
  facet normal 0.500002 0.866024 0
    outer loop
      vertex -8.64359 -46.9711 9.5
      vertex -6.99815 -47.9211 4
      vertex -8.64359 -46.9711 4
    endloop
  endfacet
  facet normal 0.499988 0.866032 -0
    outer loop
      vertex -10.3756 -45.9711 4
      vertex -12.0211 -45.0211 9.5
      vertex -10.3756 -45.9711 9.5
    endloop
  endfacet
  facet normal 0.499988 0.866032 0
    outer loop
      vertex -12.0211 -45.0211 9.5
      vertex -10.3756 -45.9711 4
      vertex -12.0211 -45.0211 4
    endloop
  endfacet
  facet normal -0.50001 -0.86602 0
    outer loop
      vertex -14.3237 -50.6199 4
      vertex -13.3756 -51.1673 9.5
      vertex -14.3237 -50.6199 9.5
    endloop
  endfacet
  facet normal -0.50001 -0.86602 -0
    outer loop
      vertex -13.3756 -51.1673 9.5
      vertex -14.3237 -50.6199 4
      vertex -13.3756 -51.1673 4
    endloop
  endfacet
  facet normal -0.50001 -0.86602 0
    outer loop
      vertex -11.6436 -52.1673 4
      vertex -10.6955 -52.7147 9.5
      vertex -11.6436 -52.1673 9.5
    endloop
  endfacet
  facet normal -0.50001 -0.86602 -0
    outer loop
      vertex -10.6955 -52.7147 9.5
      vertex -11.6436 -52.1673 4
      vertex -10.6955 -52.7147 4
    endloop
  endfacet
  facet normal 0 0 1
    outer loop
      vertex -14.3237 -47.8182 9.5
      vertex -10.3756 -45.9711 9.5
      vertex -12.0211 -45.0211 9.5
    endloop
  endfacet
  facet normal 0 0 1
    outer loop
      vertex -10.3756 -45.9711 9.5
      vertex -14.3237 -47.8182 9.5
      vertex -13.3756 -51.1673 9.5
    endloop
  endfacet
  facet normal 0 0 1
    outer loop
      vertex -13.3756 -51.1673 9.5
      vertex -14.3237 -47.8182 9.5
      vertex -14.3237 -50.6199 9.5
    endloop
  endfacet
  facet normal 0 0 1
    outer loop
      vertex -8.64359 -46.9711 9.5
      vertex -8.26916 -51.3138 9.5
      vertex -6.99815 -47.9211 9.5
    endloop
  endfacet
  facet normal 0 0 1
    outer loop
      vertex -11.6436 -52.1673 9.5
      vertex -8.26916 -51.3138 9.5
      vertex -8.64359 -46.9711 9.5
    endloop
  endfacet
  facet normal 0 0 1
    outer loop
      vertex -8.26916 -51.3138 9.5
      vertex -11.6436 -52.1673 9.5
      vertex -10.6955 -52.7147 9.5
    endloop
  endfacet
  facet normal 0.866027 -0.499997 0
    outer loop
      vertex -13.3756 -51.1673 9.5
      vertex -10.3756 -45.9711 4
      vertex -10.3756 -45.9711 9.5
    endloop
  endfacet
  facet normal 0.866027 -0.499997 0
    outer loop
      vertex -10.3756 -45.9711 4
      vertex -13.3756 -51.1673 9.5
      vertex -13.3756 -51.1673 4
    endloop
  endfacet
  facet normal -0.866027 0.499998 0
    outer loop
      vertex -11.6436 -52.1673 4
      vertex -8.64359 -46.9711 9.5
      vertex -8.64359 -46.9711 4
    endloop
  endfacet
  facet normal -0.866027 0.499998 0
    outer loop
      vertex -8.64359 -46.9711 9.5
      vertex -11.6436 -52.1673 4
      vertex -11.6436 -52.1673 9.5
    endloop
  endfacet
  facet normal -1 0 0
    outer loop
      vertex -14.3237 -50.6199 4
      vertex -14.3237 -47.8182 9.5
      vertex -14.3237 -47.8182 4
    endloop
  endfacet
  facet normal -1 -0 0
    outer loop
      vertex -14.3237 -47.8182 9.5
      vertex -14.3237 -50.6199 4
      vertex -14.3237 -50.6199 9.5
    endloop
  endfacet
  facet normal 0.500014 -0.866017 0
    outer loop
      vertex -10.6955 -52.7147 4
      vertex -8.26916 -51.3138 9.5
      vertex -10.6955 -52.7147 9.5
    endloop
  endfacet
  facet normal 0.500014 -0.866017 0
    outer loop
      vertex -8.26916 -51.3138 9.5
      vertex -10.6955 -52.7147 4
      vertex -8.26916 -51.3138 4
    endloop
  endfacet
  facet normal -0.936444 -0.350818 0
    outer loop
      vertex 34.2499 -36.3138 4
      vertex 32.9789 -32.9211 9.5
      vertex 32.9789 -32.9211 4
    endloop
  endfacet
  facet normal -0.936444 -0.350818 0
    outer loop
      vertex 32.9789 -32.9211 9.5
      vertex 34.2499 -36.3138 4
      vertex 34.2499 -36.3138 9.5
    endloop
  endfacet
  facet normal 0 0 -1
    outer loop
      vertex 39.3564 -36.1673 4
      vertex 40.3045 -32.8182 4
      vertex 40.3045 -35.6199 4
    endloop
  endfacet
  facet normal 0 0 -1
    outer loop
      vertex 36.3564 -30.9711 4
      vertex 40.3045 -32.8182 4
      vertex 39.3564 -36.1673 4
    endloop
  endfacet
  facet normal 0 0 -1
    outer loop
      vertex 40.3045 -32.8182 4
      vertex 36.3564 -30.9711 4
      vertex 38.0019 -30.0211 4
    endloop
  endfacet
  facet normal 0 0 -1
    outer loop
      vertex 34.2499 -36.3138 4
      vertex 37.6244 -37.1673 4
      vertex 36.6763 -37.7147 4
    endloop
  endfacet
  facet normal 0 0 -1
    outer loop
      vertex 37.6244 -37.1673 4
      vertex 34.2499 -36.3138 4
      vertex 34.6244 -31.9711 4
    endloop
  endfacet
  facet normal 0 0 -1
    outer loop
      vertex 34.6244 -31.9711 4
      vertex 34.2499 -36.3138 4
      vertex 32.9789 -32.9211 4
    endloop
  endfacet
  facet normal 0.772051 0.63556 0
    outer loop
      vertex 40.3045 -32.8182 9.5
      vertex 38.0019 -30.0211 4
      vertex 38.0019 -30.0211 9.5
    endloop
  endfacet
  facet normal 0.772051 0.63556 0
    outer loop
      vertex 38.0019 -30.0211 4
      vertex 40.3045 -32.8182 9.5
      vertex 40.3045 -32.8182 4
    endloop
  endfacet
  facet normal -0.499988 0.866032 0
    outer loop
      vertex 38.0019 -30.0211 4
      vertex 36.3564 -30.9711 9.5
      vertex 38.0019 -30.0211 9.5
    endloop
  endfacet
  facet normal -0.499988 0.866032 0
    outer loop
      vertex 36.3564 -30.9711 9.5
      vertex 38.0019 -30.0211 4
      vertex 36.3564 -30.9711 4
    endloop
  endfacet
  facet normal -0.499988 0.866032 0
    outer loop
      vertex 34.6244 -31.9711 4
      vertex 32.9789 -32.9211 9.5
      vertex 34.6244 -31.9711 9.5
    endloop
  endfacet
  facet normal -0.499988 0.866032 0
    outer loop
      vertex 32.9789 -32.9211 9.5
      vertex 34.6244 -31.9711 4
      vertex 32.9789 -32.9211 4
    endloop
  endfacet
  facet normal 0.50001 -0.86602 0
    outer loop
      vertex 36.6763 -37.7147 4
      vertex 37.6244 -37.1673 9.5
      vertex 36.6763 -37.7147 9.5
    endloop
  endfacet
  facet normal 0.50001 -0.86602 0
    outer loop
      vertex 37.6244 -37.1673 9.5
      vertex 36.6763 -37.7147 4
      vertex 37.6244 -37.1673 4
    endloop
  endfacet
  facet normal 0.50001 -0.86602 0
    outer loop
      vertex 39.3564 -36.1673 4
      vertex 40.3045 -35.6199 9.5
      vertex 39.3564 -36.1673 9.5
    endloop
  endfacet
  facet normal 0.50001 -0.86602 0
    outer loop
      vertex 40.3045 -35.6199 9.5
      vertex 39.3564 -36.1673 4
      vertex 40.3045 -35.6199 4
    endloop
  endfacet
  facet normal -0 0 1
    outer loop
      vertex 34.2499 -36.3138 9.5
      vertex 37.6244 -37.1673 9.5
      vertex 34.6244 -31.9711 9.5
    endloop
  endfacet
  facet normal 0 0 1
    outer loop
      vertex 37.6244 -37.1673 9.5
      vertex 34.2499 -36.3138 9.5
      vertex 36.6763 -37.7147 9.5
    endloop
  endfacet
  facet normal 0 -0 1
    outer loop
      vertex 34.2499 -36.3138 9.5
      vertex 34.6244 -31.9711 9.5
      vertex 32.9789 -32.9211 9.5
    endloop
  endfacet
  facet normal 0 0 1
    outer loop
      vertex 40.3045 -32.8182 9.5
      vertex 39.3564 -36.1673 9.5
      vertex 40.3045 -35.6199 9.5
    endloop
  endfacet
  facet normal -0 0 1
    outer loop
      vertex 36.3564 -30.9711 9.5
      vertex 40.3045 -32.8182 9.5
      vertex 38.0019 -30.0211 9.5
    endloop
  endfacet
  facet normal 0 0 1
    outer loop
      vertex 40.3045 -32.8182 9.5
      vertex 36.3564 -30.9711 9.5
      vertex 39.3564 -36.1673 9.5
    endloop
  endfacet
  facet normal 0.866027 0.499997 0
    outer loop
      vertex 37.6244 -37.1673 9.5
      vertex 34.6244 -31.9711 4
      vertex 34.6244 -31.9711 9.5
    endloop
  endfacet
  facet normal 0.866027 0.499997 0
    outer loop
      vertex 34.6244 -31.9711 4
      vertex 37.6244 -37.1673 9.5
      vertex 37.6244 -37.1673 4
    endloop
  endfacet
  facet normal -0.866027 -0.499997 0
    outer loop
      vertex 39.3564 -36.1673 4
      vertex 36.3564 -30.9711 9.5
      vertex 36.3564 -30.9711 4
    endloop
  endfacet
  facet normal -0.866027 -0.499997 0
    outer loop
      vertex 36.3564 -30.9711 9.5
      vertex 39.3564 -36.1673 4
      vertex 39.3564 -36.1673 9.5
    endloop
  endfacet
  facet normal -0.500005 -0.866023 0
    outer loop
      vertex 34.2499 -36.3138 4
      vertex 36.6763 -37.7147 9.5
      vertex 34.2499 -36.3138 9.5
    endloop
  endfacet
  facet normal -0.500005 -0.866023 -0
    outer loop
      vertex 36.6763 -37.7147 9.5
      vertex 34.2499 -36.3138 4
      vertex 36.6763 -37.7147 4
    endloop
  endfacet
  facet normal 1 -0 0
    outer loop
      vertex 40.3045 -35.6199 9.5
      vertex 40.3045 -32.8182 4
      vertex 40.3045 -32.8182 9.5
    endloop
  endfacet
  facet normal 1 0 0
    outer loop
      vertex 40.3045 -32.8182 4
      vertex 40.3045 -35.6199 9.5
      vertex 40.3045 -35.6199 4
    endloop
  endfacet
  facet normal -0.164399 -0.986394 0
    outer loop
      vertex 45 12.1 4
      vertex 48.5736 11.5044 9.5
      vertex 45 12.1 9.5
    endloop
  endfacet
  facet normal -0.164399 -0.986394 -0
    outer loop
      vertex 48.5736 11.5044 9.5
      vertex 45 12.1 4
      vertex 48.5736 11.5044 4
    endloop
  endfacet
  facet normal 0 0 -1
    outer loop
      vertex 51 16 4
      vertex 48.5736 18.4956 4
      vertex 51 17.0947 4
    endloop
  endfacet
  facet normal 0 0 -1
    outer loop
      vertex 45 16 4
      vertex 48.5736 18.4956 4
      vertex 51 16 4
    endloop
  endfacet
  facet normal 0 0 -1
    outer loop
      vertex 48.5736 18.4956 4
      vertex 45 16 4
      vertex 45 17.9 4
    endloop
  endfacet
  facet normal 0 0 -1
    outer loop
      vertex 48.5736 11.5044 4
      vertex 51 14 4
      vertex 51 12.9053 4
    endloop
  endfacet
  facet normal 0 0 -1
    outer loop
      vertex 45 14 4
      vertex 48.5736 11.5044 4
      vertex 45 12.1 4
    endloop
  endfacet
  facet normal 0 0 -1
    outer loop
      vertex 48.5736 11.5044 4
      vertex 45 14 4
      vertex 51 14 4
    endloop
  endfacet
  facet normal -0.164399 0.986394 0
    outer loop
      vertex 48.5736 18.4956 4
      vertex 45 17.9 9.5
      vertex 48.5736 18.4956 9.5
    endloop
  endfacet
  facet normal -0.164399 0.986394 0
    outer loop
      vertex 45 17.9 9.5
      vertex 48.5736 18.4956 4
      vertex 45 17.9 4
    endloop
  endfacet
  facet normal 1 -0 0
    outer loop
      vertex 51 12.9053 9.5
      vertex 51 14 4
      vertex 51 14 9.5
    endloop
  endfacet
  facet normal 1 0 0
    outer loop
      vertex 51 14 4
      vertex 51 12.9053 9.5
      vertex 51 12.9053 4
    endloop
  endfacet
  facet normal 1 -0 0
    outer loop
      vertex 51 16 9.5
      vertex 51 17.0947 4
      vertex 51 17.0947 9.5
    endloop
  endfacet
  facet normal 1 0 0
    outer loop
      vertex 51 17.0947 4
      vertex 51 16 9.5
      vertex 51 16 4
    endloop
  endfacet
  facet normal 0 0 1
    outer loop
      vertex 51 14 9.5
      vertex 48.5736 11.5044 9.5
      vertex 51 12.9053 9.5
    endloop
  endfacet
  facet normal -0 0 1
    outer loop
      vertex 45 14 9.5
      vertex 48.5736 11.5044 9.5
      vertex 51 14 9.5
    endloop
  endfacet
  facet normal 0 0 1
    outer loop
      vertex 48.5736 11.5044 9.5
      vertex 45 14 9.5
      vertex 45 12.1 9.5
    endloop
  endfacet
  facet normal 0 0 1
    outer loop
      vertex 48.5736 18.4956 9.5
      vertex 51 16 9.5
      vertex 51 17.0947 9.5
    endloop
  endfacet
  facet normal 0 0 1
    outer loop
      vertex 45 16 9.5
      vertex 48.5736 18.4956 9.5
      vertex 45 17.9 9.5
    endloop
  endfacet
  facet normal 0 0 1
    outer loop
      vertex 48.5736 18.4956 9.5
      vertex 45 16 9.5
      vertex 51 16 9.5
    endloop
  endfacet
  facet normal 0 1 -0
    outer loop
      vertex 51 14 4
      vertex 45 14 9.5
      vertex 51 14 9.5
    endloop
  endfacet
  facet normal 0 1 0
    outer loop
      vertex 45 14 9.5
      vertex 51 14 4
      vertex 45 14 4
    endloop
  endfacet
  facet normal 0 -1 0
    outer loop
      vertex 45 16 4
      vertex 51 16 9.5
      vertex 45 16 9.5
    endloop
  endfacet
  facet normal 0 -1 -0
    outer loop
      vertex 51 16 9.5
      vertex 45 16 4
      vertex 51 16 4
    endloop
  endfacet
  facet normal 0.500005 -0.866023 0
    outer loop
      vertex 48.5736 11.5044 4
      vertex 51 12.9053 9.5
      vertex 48.5736 11.5044 9.5
    endloop
  endfacet
  facet normal 0.500005 -0.866023 0
    outer loop
      vertex 51 12.9053 9.5
      vertex 48.5736 11.5044 4
      vertex 51 12.9053 4
    endloop
  endfacet
  facet normal 0.500005 0.866023 -0
    outer loop
      vertex 51 17.0947 4
      vertex 48.5736 18.4956 9.5
      vertex 51 17.0947 9.5
    endloop
  endfacet
  facet normal 0.500005 0.866023 0
    outer loop
      vertex 48.5736 18.4956 9.5
      vertex 51 17.0947 4
      vertex 48.5736 18.4956 4
    endloop
  endfacet
  facet normal 0.772051 -0.63556 0
    outer loop
      vertex 12.0211 45.0211 9.5
      vertex 14.3237 47.8182 4
      vertex 14.3237 47.8182 9.5
    endloop
  endfacet
  facet normal 0.772051 -0.63556 0
    outer loop
      vertex 14.3237 47.8182 4
      vertex 12.0211 45.0211 9.5
      vertex 12.0211 45.0211 4
    endloop
  endfacet
  facet normal 0 0 -1
    outer loop
      vertex 8.26916 51.3138 4
      vertex 11.6436 52.1673 4
      vertex 8.64359 46.9711 4
    endloop
  endfacet
  facet normal -0 0 -1
    outer loop
      vertex 11.6436 52.1673 4
      vertex 8.26916 51.3138 4
      vertex 10.6955 52.7147 4
    endloop
  endfacet
  facet normal 0 -0 -1
    outer loop
      vertex 8.26916 51.3138 4
      vertex 8.64359 46.9711 4
      vertex 6.99815 47.9211 4
    endloop
  endfacet
  facet normal 0 0 -1
    outer loop
      vertex 14.3237 47.8182 4
      vertex 13.3756 51.1673 4
      vertex 14.3237 50.6199 4
    endloop
  endfacet
  facet normal 0 0 -1
    outer loop
      vertex 10.3756 45.9711 4
      vertex 14.3237 47.8182 4
      vertex 12.0211 45.0211 4
    endloop
  endfacet
  facet normal -0 0 -1
    outer loop
      vertex 14.3237 47.8182 4
      vertex 10.3756 45.9711 4
      vertex 13.3756 51.1673 4
    endloop
  endfacet
  facet normal -0.936443 0.35082 0
    outer loop
      vertex 6.99815 47.9211 4
      vertex 8.26916 51.3138 9.5
      vertex 8.26916 51.3138 4
    endloop
  endfacet
  facet normal -0.936443 0.35082 0
    outer loop
      vertex 8.26916 51.3138 9.5
      vertex 6.99815 47.9211 4
      vertex 6.99815 47.9211 9.5
    endloop
  endfacet
  facet normal -0.500002 -0.866024 0
    outer loop
      vertex 6.99815 47.9211 4
      vertex 8.64359 46.9711 9.5
      vertex 6.99815 47.9211 9.5
    endloop
  endfacet
  facet normal -0.500002 -0.866024 -0
    outer loop
      vertex 8.64359 46.9711 9.5
      vertex 6.99815 47.9211 4
      vertex 8.64359 46.9711 4
    endloop
  endfacet
  facet normal -0.499988 -0.866032 0
    outer loop
      vertex 10.3756 45.9711 4
      vertex 12.0211 45.0211 9.5
      vertex 10.3756 45.9711 9.5
    endloop
  endfacet
  facet normal -0.499988 -0.866032 -0
    outer loop
      vertex 12.0211 45.0211 9.5
      vertex 10.3756 45.9711 4
      vertex 12.0211 45.0211 4
    endloop
  endfacet
  facet normal 0.50001 0.86602 -0
    outer loop
      vertex 14.3237 50.6199 4
      vertex 13.3756 51.1673 9.5
      vertex 14.3237 50.6199 9.5
    endloop
  endfacet
  facet normal 0.50001 0.86602 0
    outer loop
      vertex 13.3756 51.1673 9.5
      vertex 14.3237 50.6199 4
      vertex 13.3756 51.1673 4
    endloop
  endfacet
  facet normal 0.50001 0.86602 -0
    outer loop
      vertex 11.6436 52.1673 4
      vertex 10.6955 52.7147 9.5
      vertex 11.6436 52.1673 9.5
    endloop
  endfacet
  facet normal 0.50001 0.86602 0
    outer loop
      vertex 10.6955 52.7147 9.5
      vertex 11.6436 52.1673 4
      vertex 10.6955 52.7147 4
    endloop
  endfacet
  facet normal 0 0 1
    outer loop
      vertex 13.3756 51.1673 9.5
      vertex 14.3237 47.8182 9.5
      vertex 14.3237 50.6199 9.5
    endloop
  endfacet
  facet normal 0 0 1
    outer loop
      vertex 10.3756 45.9711 9.5
      vertex 14.3237 47.8182 9.5
      vertex 13.3756 51.1673 9.5
    endloop
  endfacet
  facet normal 0 0 1
    outer loop
      vertex 14.3237 47.8182 9.5
      vertex 10.3756 45.9711 9.5
      vertex 12.0211 45.0211 9.5
    endloop
  endfacet
  facet normal 0 0 1
    outer loop
      vertex 8.26916 51.3138 9.5
      vertex 11.6436 52.1673 9.5
      vertex 10.6955 52.7147 9.5
    endloop
  endfacet
  facet normal 0 0 1
    outer loop
      vertex 11.6436 52.1673 9.5
      vertex 8.26916 51.3138 9.5
      vertex 8.64359 46.9711 9.5
    endloop
  endfacet
  facet normal 0 0 1
    outer loop
      vertex 8.64359 46.9711 9.5
      vertex 8.26916 51.3138 9.5
      vertex 6.99815 47.9211 9.5
    endloop
  endfacet
  facet normal -0.866027 0.499997 0
    outer loop
      vertex 10.3756 45.9711 4
      vertex 13.3756 51.1673 9.5
      vertex 13.3756 51.1673 4
    endloop
  endfacet
  facet normal -0.866027 0.499997 0
    outer loop
      vertex 13.3756 51.1673 9.5
      vertex 10.3756 45.9711 4
      vertex 10.3756 45.9711 9.5
    endloop
  endfacet
  facet normal 0.866027 -0.499998 0
    outer loop
      vertex 8.64359 46.9711 9.5
      vertex 11.6436 52.1673 4
      vertex 11.6436 52.1673 9.5
    endloop
  endfacet
  facet normal 0.866027 -0.499998 0
    outer loop
      vertex 11.6436 52.1673 4
      vertex 8.64359 46.9711 9.5
      vertex 8.64359 46.9711 4
    endloop
  endfacet
  facet normal 1 -0 0
    outer loop
      vertex 14.3237 47.8182 9.5
      vertex 14.3237 50.6199 4
      vertex 14.3237 50.6199 9.5
    endloop
  endfacet
  facet normal 1 0 0
    outer loop
      vertex 14.3237 50.6199 4
      vertex 14.3237 47.8182 9.5
      vertex 14.3237 47.8182 4
    endloop
  endfacet
  facet normal -0.500014 0.866017 0
    outer loop
      vertex 10.6955 52.7147 4
      vertex 8.26916 51.3138 9.5
      vertex 10.6955 52.7147 9.5
    endloop
  endfacet
  facet normal -0.500014 0.866017 0
    outer loop
      vertex 8.26916 51.3138 9.5
      vertex 10.6955 52.7147 4
      vertex 8.26916 51.3138 4
    endloop
  endfacet
endsolid OpenSCAD_Model
